G75*
G70*
%OFA0B0*%
%FSLAX24Y24*%
%IPPOS*%
%LPD*%
%AMOC8*
5,1,8,0,0,1.08239X$1,22.5*
%
%ADD10C,0.0000*%
%ADD11C,0.0240*%
%ADD12C,0.0060*%
%ADD13C,0.0050*%
%ADD14C,0.0025*%
%ADD15C,0.0040*%
%ADD16C,0.0010*%
%ADD17C,0.0080*%
%ADD18R,0.0300X0.0340*%
%ADD19R,0.0492X0.2441*%
%ADD20R,0.2441X0.0492*%
D10*
X015719Y008027D02*
X015719Y037160D01*
X015718Y037160D02*
X015708Y037220D01*
X015702Y037280D01*
X015699Y037341D01*
X015700Y037401D01*
X015704Y037462D01*
X015713Y037522D01*
X015724Y037581D01*
X015740Y037640D01*
X015759Y037698D01*
X015781Y037754D01*
X015807Y037809D01*
X015836Y037862D01*
X015868Y037914D01*
X015903Y037963D01*
X015941Y038011D01*
X015982Y038055D01*
X016025Y038098D01*
X016071Y038137D01*
X016119Y038174D01*
X016170Y038208D01*
X016222Y038238D01*
X016276Y038266D01*
X016332Y038290D01*
X016389Y038311D01*
X016447Y038328D01*
X016506Y038342D01*
X038553Y038342D01*
X038553Y038341D02*
X038607Y038339D01*
X038660Y038334D01*
X038713Y038325D01*
X038765Y038312D01*
X038817Y038296D01*
X038867Y038276D01*
X038915Y038253D01*
X038962Y038226D01*
X039007Y038197D01*
X039050Y038164D01*
X039090Y038129D01*
X039128Y038091D01*
X039163Y038051D01*
X039196Y038008D01*
X039225Y037963D01*
X039252Y037916D01*
X039275Y037868D01*
X039295Y037818D01*
X039311Y037766D01*
X039324Y037714D01*
X039333Y037661D01*
X039338Y037608D01*
X039340Y037554D01*
X039341Y037554D02*
X039341Y007633D01*
X039340Y007633D02*
X039338Y007579D01*
X039333Y007526D01*
X039324Y007473D01*
X039311Y007421D01*
X039295Y007369D01*
X039275Y007319D01*
X039252Y007271D01*
X039225Y007224D01*
X039196Y007179D01*
X039163Y007136D01*
X039128Y007096D01*
X039090Y007058D01*
X039050Y007023D01*
X039007Y006990D01*
X038962Y006961D01*
X038915Y006934D01*
X038867Y006911D01*
X038817Y006891D01*
X038765Y006875D01*
X038713Y006862D01*
X038660Y006853D01*
X038607Y006848D01*
X038553Y006846D01*
X016506Y006846D01*
X016506Y006845D02*
X016447Y006859D01*
X016389Y006876D01*
X016332Y006897D01*
X016276Y006921D01*
X016222Y006949D01*
X016170Y006979D01*
X016119Y007013D01*
X016071Y007050D01*
X016025Y007089D01*
X015982Y007132D01*
X015941Y007176D01*
X015903Y007224D01*
X015868Y007273D01*
X015836Y007325D01*
X015807Y007378D01*
X015781Y007433D01*
X015759Y007489D01*
X015740Y007547D01*
X015724Y007606D01*
X015713Y007665D01*
X015704Y007725D01*
X015700Y007786D01*
X015699Y007846D01*
X015702Y007907D01*
X015708Y007967D01*
X015718Y008027D01*
X017451Y009208D02*
X017453Y009258D01*
X017459Y009308D01*
X017469Y009357D01*
X017483Y009405D01*
X017500Y009452D01*
X017521Y009497D01*
X017546Y009541D01*
X017574Y009582D01*
X017606Y009621D01*
X017640Y009658D01*
X017677Y009692D01*
X017717Y009722D01*
X017759Y009749D01*
X017803Y009773D01*
X017849Y009794D01*
X017896Y009810D01*
X017944Y009823D01*
X017994Y009832D01*
X018043Y009837D01*
X018094Y009838D01*
X018144Y009835D01*
X018193Y009828D01*
X018242Y009817D01*
X018290Y009802D01*
X018336Y009784D01*
X018381Y009762D01*
X018424Y009736D01*
X018465Y009707D01*
X018504Y009675D01*
X018540Y009640D01*
X018572Y009602D01*
X018602Y009562D01*
X018629Y009519D01*
X018652Y009475D01*
X018671Y009429D01*
X018687Y009381D01*
X018699Y009332D01*
X018707Y009283D01*
X018711Y009233D01*
X018711Y009183D01*
X018707Y009133D01*
X018699Y009084D01*
X018687Y009035D01*
X018671Y008987D01*
X018652Y008941D01*
X018629Y008897D01*
X018602Y008854D01*
X018572Y008814D01*
X018540Y008776D01*
X018504Y008741D01*
X018465Y008709D01*
X018424Y008680D01*
X018381Y008654D01*
X018336Y008632D01*
X018290Y008614D01*
X018242Y008599D01*
X018193Y008588D01*
X018144Y008581D01*
X018094Y008578D01*
X018043Y008579D01*
X017994Y008584D01*
X017944Y008593D01*
X017896Y008606D01*
X017849Y008622D01*
X017803Y008643D01*
X017759Y008667D01*
X017717Y008694D01*
X017677Y008724D01*
X017640Y008758D01*
X017606Y008795D01*
X017574Y008834D01*
X017546Y008875D01*
X017521Y008919D01*
X017500Y008964D01*
X017483Y009011D01*
X017469Y009059D01*
X017459Y009108D01*
X017453Y009158D01*
X017451Y009208D01*
X036349Y009208D02*
X036351Y009258D01*
X036357Y009308D01*
X036367Y009357D01*
X036381Y009405D01*
X036398Y009452D01*
X036419Y009497D01*
X036444Y009541D01*
X036472Y009582D01*
X036504Y009621D01*
X036538Y009658D01*
X036575Y009692D01*
X036615Y009722D01*
X036657Y009749D01*
X036701Y009773D01*
X036747Y009794D01*
X036794Y009810D01*
X036842Y009823D01*
X036892Y009832D01*
X036941Y009837D01*
X036992Y009838D01*
X037042Y009835D01*
X037091Y009828D01*
X037140Y009817D01*
X037188Y009802D01*
X037234Y009784D01*
X037279Y009762D01*
X037322Y009736D01*
X037363Y009707D01*
X037402Y009675D01*
X037438Y009640D01*
X037470Y009602D01*
X037500Y009562D01*
X037527Y009519D01*
X037550Y009475D01*
X037569Y009429D01*
X037585Y009381D01*
X037597Y009332D01*
X037605Y009283D01*
X037609Y009233D01*
X037609Y009183D01*
X037605Y009133D01*
X037597Y009084D01*
X037585Y009035D01*
X037569Y008987D01*
X037550Y008941D01*
X037527Y008897D01*
X037500Y008854D01*
X037470Y008814D01*
X037438Y008776D01*
X037402Y008741D01*
X037363Y008709D01*
X037322Y008680D01*
X037279Y008654D01*
X037234Y008632D01*
X037188Y008614D01*
X037140Y008599D01*
X037091Y008588D01*
X037042Y008581D01*
X036992Y008578D01*
X036941Y008579D01*
X036892Y008584D01*
X036842Y008593D01*
X036794Y008606D01*
X036747Y008622D01*
X036701Y008643D01*
X036657Y008667D01*
X036615Y008694D01*
X036575Y008724D01*
X036538Y008758D01*
X036504Y008795D01*
X036472Y008834D01*
X036444Y008875D01*
X036419Y008919D01*
X036398Y008964D01*
X036381Y009011D01*
X036367Y009059D01*
X036357Y009108D01*
X036351Y009158D01*
X036349Y009208D01*
X036349Y035979D02*
X036351Y036029D01*
X036357Y036079D01*
X036367Y036128D01*
X036381Y036176D01*
X036398Y036223D01*
X036419Y036268D01*
X036444Y036312D01*
X036472Y036353D01*
X036504Y036392D01*
X036538Y036429D01*
X036575Y036463D01*
X036615Y036493D01*
X036657Y036520D01*
X036701Y036544D01*
X036747Y036565D01*
X036794Y036581D01*
X036842Y036594D01*
X036892Y036603D01*
X036941Y036608D01*
X036992Y036609D01*
X037042Y036606D01*
X037091Y036599D01*
X037140Y036588D01*
X037188Y036573D01*
X037234Y036555D01*
X037279Y036533D01*
X037322Y036507D01*
X037363Y036478D01*
X037402Y036446D01*
X037438Y036411D01*
X037470Y036373D01*
X037500Y036333D01*
X037527Y036290D01*
X037550Y036246D01*
X037569Y036200D01*
X037585Y036152D01*
X037597Y036103D01*
X037605Y036054D01*
X037609Y036004D01*
X037609Y035954D01*
X037605Y035904D01*
X037597Y035855D01*
X037585Y035806D01*
X037569Y035758D01*
X037550Y035712D01*
X037527Y035668D01*
X037500Y035625D01*
X037470Y035585D01*
X037438Y035547D01*
X037402Y035512D01*
X037363Y035480D01*
X037322Y035451D01*
X037279Y035425D01*
X037234Y035403D01*
X037188Y035385D01*
X037140Y035370D01*
X037091Y035359D01*
X037042Y035352D01*
X036992Y035349D01*
X036941Y035350D01*
X036892Y035355D01*
X036842Y035364D01*
X036794Y035377D01*
X036747Y035393D01*
X036701Y035414D01*
X036657Y035438D01*
X036615Y035465D01*
X036575Y035495D01*
X036538Y035529D01*
X036504Y035566D01*
X036472Y035605D01*
X036444Y035646D01*
X036419Y035690D01*
X036398Y035735D01*
X036381Y035782D01*
X036367Y035830D01*
X036357Y035879D01*
X036351Y035929D01*
X036349Y035979D01*
X017451Y035979D02*
X017453Y036029D01*
X017459Y036079D01*
X017469Y036128D01*
X017483Y036176D01*
X017500Y036223D01*
X017521Y036268D01*
X017546Y036312D01*
X017574Y036353D01*
X017606Y036392D01*
X017640Y036429D01*
X017677Y036463D01*
X017717Y036493D01*
X017759Y036520D01*
X017803Y036544D01*
X017849Y036565D01*
X017896Y036581D01*
X017944Y036594D01*
X017994Y036603D01*
X018043Y036608D01*
X018094Y036609D01*
X018144Y036606D01*
X018193Y036599D01*
X018242Y036588D01*
X018290Y036573D01*
X018336Y036555D01*
X018381Y036533D01*
X018424Y036507D01*
X018465Y036478D01*
X018504Y036446D01*
X018540Y036411D01*
X018572Y036373D01*
X018602Y036333D01*
X018629Y036290D01*
X018652Y036246D01*
X018671Y036200D01*
X018687Y036152D01*
X018699Y036103D01*
X018707Y036054D01*
X018711Y036004D01*
X018711Y035954D01*
X018707Y035904D01*
X018699Y035855D01*
X018687Y035806D01*
X018671Y035758D01*
X018652Y035712D01*
X018629Y035668D01*
X018602Y035625D01*
X018572Y035585D01*
X018540Y035547D01*
X018504Y035512D01*
X018465Y035480D01*
X018424Y035451D01*
X018381Y035425D01*
X018336Y035403D01*
X018290Y035385D01*
X018242Y035370D01*
X018193Y035359D01*
X018144Y035352D01*
X018094Y035349D01*
X018043Y035350D01*
X017994Y035355D01*
X017944Y035364D01*
X017896Y035377D01*
X017849Y035393D01*
X017803Y035414D01*
X017759Y035438D01*
X017717Y035465D01*
X017677Y035495D01*
X017640Y035529D01*
X017606Y035566D01*
X017574Y035605D01*
X017546Y035646D01*
X017521Y035690D01*
X017500Y035735D01*
X017483Y035782D01*
X017469Y035830D01*
X017459Y035879D01*
X017453Y035929D01*
X017451Y035979D01*
D11*
X029671Y030389D02*
X029673Y030412D01*
X029679Y030435D01*
X029688Y030457D01*
X029701Y030476D01*
X029717Y030493D01*
X029735Y030508D01*
X029756Y030519D01*
X029778Y030527D01*
X029801Y030531D01*
X029825Y030531D01*
X029848Y030527D01*
X029870Y030519D01*
X029891Y030508D01*
X029909Y030493D01*
X029925Y030476D01*
X029938Y030457D01*
X029947Y030435D01*
X029953Y030412D01*
X029955Y030389D01*
X029953Y030366D01*
X029947Y030343D01*
X029938Y030321D01*
X029925Y030302D01*
X029909Y030285D01*
X029891Y030270D01*
X029870Y030259D01*
X029848Y030251D01*
X029825Y030247D01*
X029801Y030247D01*
X029778Y030251D01*
X029756Y030259D01*
X029735Y030270D01*
X029717Y030285D01*
X029701Y030302D01*
X029688Y030321D01*
X029679Y030343D01*
X029673Y030366D01*
X029671Y030389D01*
X034278Y018263D02*
X034280Y018286D01*
X034286Y018309D01*
X034295Y018331D01*
X034308Y018350D01*
X034324Y018367D01*
X034342Y018382D01*
X034363Y018393D01*
X034385Y018401D01*
X034408Y018405D01*
X034432Y018405D01*
X034455Y018401D01*
X034477Y018393D01*
X034498Y018382D01*
X034516Y018367D01*
X034532Y018350D01*
X034545Y018331D01*
X034554Y018309D01*
X034560Y018286D01*
X034562Y018263D01*
X034560Y018240D01*
X034554Y018217D01*
X034545Y018195D01*
X034532Y018176D01*
X034516Y018159D01*
X034498Y018144D01*
X034477Y018133D01*
X034455Y018125D01*
X034432Y018121D01*
X034408Y018121D01*
X034385Y018125D01*
X034363Y018133D01*
X034342Y018144D01*
X034324Y018159D01*
X034308Y018176D01*
X034295Y018195D01*
X034286Y018217D01*
X034280Y018240D01*
X034278Y018263D01*
X027073Y012160D02*
X027075Y012183D01*
X027081Y012206D01*
X027090Y012228D01*
X027103Y012247D01*
X027119Y012264D01*
X027137Y012279D01*
X027158Y012290D01*
X027180Y012298D01*
X027203Y012302D01*
X027227Y012302D01*
X027250Y012298D01*
X027272Y012290D01*
X027293Y012279D01*
X027311Y012264D01*
X027327Y012247D01*
X027340Y012228D01*
X027349Y012206D01*
X027355Y012183D01*
X027357Y012160D01*
X027355Y012137D01*
X027349Y012114D01*
X027340Y012092D01*
X027327Y012073D01*
X027311Y012056D01*
X027293Y012041D01*
X027272Y012030D01*
X027250Y012022D01*
X027227Y012018D01*
X027203Y012018D01*
X027180Y012022D01*
X027158Y012030D01*
X027137Y012041D01*
X027119Y012056D01*
X027103Y012073D01*
X027090Y012092D01*
X027081Y012114D01*
X027075Y012137D01*
X027073Y012160D01*
D12*
X037215Y024290D02*
X037215Y025290D01*
X038215Y025290D01*
X038215Y024290D01*
X037215Y024290D01*
X037215Y025290D02*
X037215Y029290D01*
X038215Y029290D01*
X038215Y025290D01*
X029280Y035479D02*
X028780Y035479D01*
X028530Y035729D01*
X028280Y035479D01*
X027780Y035479D01*
X027530Y035729D01*
X027280Y035479D01*
X026780Y035479D01*
X026530Y035729D01*
X026280Y035479D01*
X025780Y035479D01*
X025530Y035729D01*
X025530Y036229D01*
X025780Y036479D01*
X026280Y036479D01*
X026530Y036229D01*
X026780Y036479D01*
X027280Y036479D01*
X027530Y036229D01*
X027780Y036479D01*
X028280Y036479D01*
X028530Y036229D01*
X028780Y036479D01*
X029280Y036479D01*
X029530Y036229D01*
X029530Y035729D01*
X029280Y035479D01*
D13*
X029655Y035980D02*
X029955Y035980D01*
X029880Y036205D02*
X029655Y035980D01*
X029880Y035754D02*
X029880Y036205D01*
X028928Y036654D02*
X028928Y037105D01*
X028778Y037105D02*
X029078Y037105D01*
X028617Y037105D02*
X028617Y036729D01*
X028542Y036654D01*
X028392Y036654D01*
X028317Y036729D01*
X028317Y037105D01*
X028157Y037030D02*
X028082Y037105D01*
X027932Y037105D01*
X027857Y037030D01*
X027857Y036729D01*
X027932Y036654D01*
X028082Y036654D01*
X028157Y036729D01*
X028157Y037030D01*
X027697Y036579D02*
X027396Y036579D01*
X027236Y036654D02*
X027236Y036955D01*
X027086Y037105D01*
X026936Y036955D01*
X026936Y036654D01*
X026936Y036880D02*
X027236Y036880D01*
X026776Y037105D02*
X026476Y037105D01*
X026626Y037105D02*
X026626Y036654D01*
X026315Y036654D02*
X026315Y036955D01*
X026165Y037105D01*
X026015Y036955D01*
X026015Y036654D01*
X025855Y036729D02*
X025855Y037030D01*
X025780Y037105D01*
X025555Y037105D01*
X025555Y036654D01*
X025780Y036654D01*
X025855Y036729D01*
X026015Y036880D02*
X026315Y036880D01*
X025255Y036205D02*
X025255Y035754D01*
X025105Y035754D02*
X025405Y035754D01*
X025105Y036055D02*
X025255Y036205D01*
X021900Y034365D02*
X019774Y034365D01*
X019774Y034011D01*
X021900Y034011D01*
X021900Y034365D01*
X021900Y034011D02*
X021900Y031767D01*
X023868Y031767D01*
X023868Y029326D01*
X021900Y029326D01*
X021900Y031767D01*
X019774Y031767D02*
X019774Y029326D01*
X017805Y029326D01*
X017805Y031767D01*
X019774Y031767D01*
X019774Y034011D01*
X019774Y029326D02*
X021900Y029326D01*
X021860Y019149D02*
X015876Y019149D01*
X015876Y014227D01*
X021860Y014227D01*
X021860Y019149D01*
X036614Y024466D02*
X036614Y024616D01*
X036614Y024541D02*
X036990Y024541D01*
X037065Y024466D01*
X037065Y024390D01*
X036990Y024315D01*
X037065Y024776D02*
X037065Y025076D01*
X037065Y024926D02*
X036614Y024926D01*
X036765Y024776D01*
D14*
X038465Y024790D02*
X038715Y025040D01*
X038715Y024540D01*
X038465Y024790D01*
X038468Y024793D02*
X038715Y024793D01*
X038715Y024770D02*
X038486Y024770D01*
X038509Y024746D02*
X038715Y024746D01*
X038715Y024723D02*
X038533Y024723D01*
X038556Y024699D02*
X038715Y024699D01*
X038715Y024676D02*
X038579Y024676D01*
X038603Y024652D02*
X038715Y024652D01*
X038715Y024629D02*
X038626Y024629D01*
X038650Y024605D02*
X038715Y024605D01*
X038715Y024582D02*
X038673Y024582D01*
X038697Y024559D02*
X038715Y024559D01*
X038715Y024817D02*
X038491Y024817D01*
X038514Y024840D02*
X038715Y024840D01*
X038715Y024863D02*
X038538Y024863D01*
X038561Y024887D02*
X038715Y024887D01*
X038715Y024910D02*
X038585Y024910D01*
X038608Y024934D02*
X038715Y024934D01*
X038715Y024957D02*
X038632Y024957D01*
X038655Y024981D02*
X038715Y024981D01*
X038715Y025004D02*
X038679Y025004D01*
X038702Y025028D02*
X038715Y025028D01*
D15*
X037860Y023574D02*
X037937Y023497D01*
X037937Y023420D01*
X037860Y023344D01*
X037937Y023267D01*
X037937Y023190D01*
X037860Y023114D01*
X037707Y023114D01*
X037630Y023190D01*
X037477Y023114D02*
X037170Y023114D01*
X037323Y023114D02*
X037323Y023574D01*
X037170Y023420D01*
X037016Y023344D02*
X037016Y023497D01*
X036939Y023574D01*
X036709Y023574D01*
X036709Y023114D01*
X036709Y023267D02*
X036939Y023267D01*
X037016Y023344D01*
X036863Y023267D02*
X037016Y023114D01*
X037630Y023497D02*
X037707Y023574D01*
X037860Y023574D01*
X037860Y023344D02*
X037783Y023344D01*
X035968Y023460D02*
X035968Y023537D01*
X035892Y023613D01*
X035738Y023613D01*
X035662Y023537D01*
X035968Y023460D02*
X035662Y023153D01*
X035968Y023153D01*
X035508Y023153D02*
X035201Y023153D01*
X035048Y023153D02*
X034894Y023306D01*
X034971Y023306D02*
X034741Y023306D01*
X034741Y023153D02*
X034741Y023613D01*
X034971Y023613D01*
X035048Y023537D01*
X035048Y023383D01*
X034971Y023306D01*
X035201Y023460D02*
X035355Y023613D01*
X035355Y023153D01*
X033946Y023265D02*
X033946Y023342D01*
X033869Y023419D01*
X033639Y023419D01*
X033639Y023265D01*
X033715Y023188D01*
X033869Y023188D01*
X033946Y023265D01*
X033792Y023572D02*
X033639Y023419D01*
X033485Y023419D02*
X033408Y023342D01*
X033178Y023342D01*
X033178Y023188D02*
X033178Y023649D01*
X033408Y023649D01*
X033485Y023572D01*
X033485Y023419D01*
X033332Y023342D02*
X033485Y023188D01*
X033792Y023572D02*
X033946Y023649D01*
X033514Y024944D02*
X033208Y024944D01*
X033361Y024944D02*
X033361Y025405D01*
X033208Y025251D01*
X033054Y025328D02*
X033054Y025021D01*
X032977Y024944D01*
X032824Y024944D01*
X032747Y025021D01*
X032747Y025328D01*
X032824Y025405D01*
X032977Y025405D01*
X033054Y025328D01*
X032901Y025098D02*
X033054Y024944D01*
X035068Y025409D02*
X035144Y025332D01*
X035298Y025332D01*
X035374Y025409D01*
X035374Y025716D01*
X035298Y025792D01*
X035144Y025792D01*
X035068Y025716D01*
X035068Y025409D01*
X035221Y025486D02*
X035374Y025332D01*
X035528Y025332D02*
X035835Y025639D01*
X035835Y025716D01*
X035758Y025792D01*
X035605Y025792D01*
X035528Y025716D01*
X035528Y025332D02*
X035835Y025332D01*
X035923Y025813D02*
X035923Y026043D01*
X036000Y026120D01*
X036154Y026120D01*
X036230Y026043D01*
X036230Y025813D01*
X036230Y025967D02*
X036384Y026120D01*
X036384Y026273D02*
X036384Y026580D01*
X036384Y026427D02*
X035923Y026427D01*
X036077Y026273D01*
X036077Y026734D02*
X036000Y026734D01*
X035923Y026811D01*
X035923Y026964D01*
X036000Y027041D01*
X036077Y027041D01*
X036154Y026964D01*
X036154Y026811D01*
X036077Y026734D01*
X036154Y026811D02*
X036230Y026734D01*
X036307Y026734D01*
X036384Y026811D01*
X036384Y026964D01*
X036307Y027041D01*
X036230Y027041D01*
X036154Y026964D01*
X036384Y025813D02*
X035923Y025813D01*
X035727Y028626D02*
X035420Y028626D01*
X035727Y028933D01*
X035727Y029009D01*
X035650Y029086D01*
X035496Y029086D01*
X035420Y029009D01*
X035266Y029009D02*
X035190Y029086D01*
X034959Y029086D01*
X034959Y028626D01*
X035190Y028626D01*
X035266Y028703D01*
X035266Y029009D01*
X034789Y029245D02*
X037593Y029245D01*
X037593Y031690D02*
X034789Y031690D01*
X037219Y033411D02*
X037295Y033334D01*
X037602Y033334D01*
X037679Y033411D01*
X037679Y033564D01*
X037602Y033641D01*
X037602Y033794D02*
X037526Y033794D01*
X037449Y033871D01*
X037449Y034025D01*
X037526Y034101D01*
X037602Y034101D01*
X037679Y034025D01*
X037679Y033871D01*
X037602Y033794D01*
X037449Y033871D02*
X037372Y033794D01*
X037295Y033794D01*
X037219Y033871D01*
X037219Y034025D01*
X037295Y034101D01*
X037372Y034101D01*
X037449Y034025D01*
X037295Y033641D02*
X037219Y033564D01*
X037219Y033411D01*
X035089Y034922D02*
X034782Y034922D01*
X035013Y035152D01*
X035013Y034692D01*
X034629Y034769D02*
X034552Y034692D01*
X034399Y034692D01*
X034322Y034769D01*
X034322Y035076D01*
X034399Y035152D01*
X034552Y035152D01*
X034629Y035076D01*
X034168Y035152D02*
X034015Y035152D01*
X034092Y035152D02*
X034092Y034692D01*
X034168Y034692D02*
X034015Y034692D01*
X032303Y035905D02*
X032303Y036059D01*
X032226Y036136D01*
X032226Y036289D02*
X032303Y036366D01*
X032303Y036519D01*
X032226Y036596D01*
X032073Y036596D01*
X031996Y036519D01*
X031996Y036442D01*
X032073Y036289D01*
X031843Y036289D01*
X031843Y036596D01*
X031919Y036136D02*
X031843Y036059D01*
X031843Y035905D01*
X031919Y035829D01*
X032226Y035829D01*
X032303Y035905D01*
X030795Y033340D02*
X030488Y033340D01*
X030412Y033263D01*
X030412Y033110D01*
X030488Y033033D01*
X030565Y033033D01*
X030642Y033110D01*
X030642Y033340D01*
X030795Y033340D02*
X030872Y033263D01*
X030872Y033110D01*
X030795Y033033D01*
X030872Y032880D02*
X030872Y032573D01*
X030872Y032726D02*
X030412Y032726D01*
X030565Y032573D01*
X030488Y032419D02*
X030642Y032419D01*
X030719Y032343D01*
X030719Y032112D01*
X030872Y032112D02*
X030412Y032112D01*
X030412Y032343D01*
X030488Y032419D01*
X030719Y032266D02*
X030872Y032419D01*
X031032Y029495D02*
X031032Y029188D01*
X030801Y029418D01*
X031262Y029418D01*
X031185Y029035D02*
X031262Y028958D01*
X031262Y028804D01*
X031185Y028728D01*
X030878Y028728D01*
X030801Y028804D01*
X030801Y028958D01*
X030878Y029035D01*
X031768Y028950D02*
X031768Y028797D01*
X031844Y028720D01*
X032151Y028720D01*
X032228Y028797D01*
X032228Y028950D01*
X032151Y029027D01*
X032151Y029181D02*
X032228Y029257D01*
X032228Y029411D01*
X032151Y029488D01*
X032074Y029488D01*
X031998Y029411D01*
X031998Y029181D01*
X032151Y029181D01*
X031998Y029181D02*
X031844Y029334D01*
X031768Y029488D01*
X031844Y029027D02*
X031768Y028950D01*
X029801Y024007D02*
X029571Y023777D01*
X029878Y023777D01*
X029801Y023547D02*
X029801Y024007D01*
X029418Y023930D02*
X029418Y023777D01*
X029341Y023700D01*
X029111Y023700D01*
X029264Y023700D02*
X029418Y023547D01*
X029111Y023547D02*
X029111Y024007D01*
X029341Y024007D01*
X029418Y023930D01*
X028658Y023930D02*
X028658Y023854D01*
X028581Y023777D01*
X028658Y023700D01*
X028658Y023623D01*
X028581Y023547D01*
X028427Y023547D01*
X028351Y023623D01*
X028197Y023547D02*
X028044Y023700D01*
X028121Y023700D02*
X027890Y023700D01*
X027890Y023547D02*
X027890Y024007D01*
X028121Y024007D01*
X028197Y023930D01*
X028197Y023777D01*
X028121Y023700D01*
X028351Y023930D02*
X028427Y024007D01*
X028581Y024007D01*
X028658Y023930D01*
X028581Y023777D02*
X028504Y023777D01*
X027043Y023854D02*
X027043Y023930D01*
X026967Y024007D01*
X026813Y024007D01*
X026737Y023930D01*
X026583Y023930D02*
X026583Y023777D01*
X026506Y023700D01*
X026276Y023700D01*
X026276Y023547D02*
X026276Y024007D01*
X026506Y024007D01*
X026583Y023930D01*
X026430Y023700D02*
X026583Y023547D01*
X026737Y023547D02*
X027043Y023854D01*
X027043Y023547D02*
X026737Y023547D01*
X025902Y023547D02*
X025595Y023547D01*
X025748Y023547D02*
X025748Y024007D01*
X025595Y023854D01*
X025441Y023930D02*
X025441Y023777D01*
X025365Y023700D01*
X025134Y023700D01*
X025134Y023547D02*
X025134Y024007D01*
X025365Y024007D01*
X025441Y023930D01*
X025288Y023700D02*
X025441Y023547D01*
X025448Y024763D02*
X025371Y024840D01*
X025448Y024763D02*
X025601Y024763D01*
X025678Y024840D01*
X025678Y024993D01*
X025601Y025070D01*
X025524Y025070D01*
X025371Y024993D01*
X025371Y025224D01*
X025678Y025224D01*
X025217Y025147D02*
X025217Y024993D01*
X025141Y024917D01*
X024910Y024917D01*
X024910Y024763D02*
X024910Y025224D01*
X025141Y025224D01*
X025217Y025147D01*
X025064Y024917D02*
X025217Y024763D01*
X025217Y025944D02*
X025064Y026098D01*
X025141Y026098D02*
X024910Y026098D01*
X024910Y025944D02*
X024910Y026405D01*
X025141Y026405D01*
X025217Y026328D01*
X025217Y026174D01*
X025141Y026098D01*
X025371Y026021D02*
X025371Y025944D01*
X025371Y026021D02*
X025678Y026328D01*
X025678Y026405D01*
X025371Y026405D01*
X025434Y029029D02*
X025434Y029182D01*
X025434Y029106D02*
X024974Y029106D01*
X024974Y029182D02*
X024974Y029029D01*
X025051Y029336D02*
X025357Y029336D01*
X025434Y029413D01*
X025434Y029566D01*
X025357Y029643D01*
X025357Y029796D02*
X025434Y029873D01*
X025434Y030026D01*
X025357Y030103D01*
X025281Y030103D01*
X025204Y030026D01*
X025204Y029950D01*
X025204Y030026D02*
X025127Y030103D01*
X025051Y030103D01*
X024974Y030026D01*
X024974Y029873D01*
X025051Y029796D01*
X025051Y029643D02*
X024974Y029566D01*
X024974Y029413D01*
X025051Y029336D01*
X021912Y034960D02*
X021605Y034960D01*
X021759Y034960D02*
X021759Y035420D01*
X021605Y035267D01*
X021452Y035344D02*
X021375Y035420D01*
X021221Y035420D01*
X021145Y035344D01*
X021145Y035037D01*
X021221Y034960D01*
X021375Y034960D01*
X021452Y035037D01*
X021477Y036102D02*
X021170Y036102D01*
X021017Y036102D02*
X020863Y036255D01*
X020940Y036255D02*
X020710Y036255D01*
X020710Y036102D02*
X020710Y036562D01*
X020940Y036562D01*
X021017Y036485D01*
X021017Y036332D01*
X020940Y036255D01*
X021170Y036409D02*
X021324Y036562D01*
X021324Y036102D01*
X021631Y036178D02*
X021631Y036485D01*
X021707Y036562D01*
X021861Y036562D01*
X021938Y036485D01*
X021631Y036178D01*
X021707Y036102D01*
X021861Y036102D01*
X021938Y036178D01*
X021938Y036485D01*
X021822Y037283D02*
X021898Y037360D01*
X021898Y037667D01*
X021822Y037743D01*
X021668Y037743D01*
X021591Y037667D01*
X021591Y037590D01*
X021668Y037513D01*
X021898Y037513D01*
X021822Y037283D02*
X021668Y037283D01*
X021591Y037360D01*
X021438Y037283D02*
X021284Y037436D01*
X021361Y037436D02*
X021131Y037436D01*
X021131Y037283D02*
X021131Y037743D01*
X021361Y037743D01*
X021438Y037667D01*
X021438Y037513D01*
X021361Y037436D01*
X018910Y025570D02*
X018910Y022767D01*
X019029Y024629D02*
X019029Y024860D01*
X019106Y024936D01*
X019413Y024936D01*
X019490Y024860D01*
X019490Y024629D01*
X019029Y024629D01*
X019106Y025090D02*
X019029Y025167D01*
X019029Y025320D01*
X019106Y025397D01*
X019183Y025397D01*
X019260Y025320D01*
X019336Y025397D01*
X019413Y025397D01*
X019490Y025320D01*
X019490Y025167D01*
X019413Y025090D01*
X019260Y025243D02*
X019260Y025320D01*
X016465Y025570D02*
X016465Y022767D01*
X022368Y017109D02*
X022829Y017109D01*
X022829Y016956D02*
X022829Y017263D01*
X022522Y016956D02*
X022368Y017109D01*
X022829Y016802D02*
X022829Y016495D01*
X022368Y016495D01*
X021014Y010932D02*
X020861Y010778D01*
X020708Y010855D02*
X020631Y010932D01*
X020401Y010932D01*
X020401Y010471D01*
X020631Y010471D01*
X020708Y010548D01*
X020708Y010855D01*
X021014Y010932D02*
X021014Y010471D01*
X020861Y010471D02*
X021168Y010471D01*
X020341Y010351D02*
X022121Y010351D01*
X022121Y008851D02*
X020341Y008851D01*
X025687Y009277D02*
X025764Y009201D01*
X026071Y009201D01*
X026148Y009277D01*
X026148Y009431D01*
X026071Y009508D01*
X026071Y009661D02*
X026148Y009738D01*
X026148Y009891D01*
X026071Y009968D01*
X025994Y009968D01*
X025917Y009891D01*
X025917Y009815D01*
X025917Y009891D02*
X025841Y009968D01*
X025764Y009968D01*
X025687Y009891D01*
X025687Y009738D01*
X025764Y009661D01*
X025764Y009508D02*
X025687Y009431D01*
X025687Y009277D01*
X030380Y007826D02*
X030534Y007826D01*
X030457Y007826D02*
X030457Y007366D01*
X030380Y007366D02*
X030534Y007366D01*
X030687Y007442D02*
X030687Y007749D01*
X030764Y007826D01*
X030918Y007826D01*
X030994Y007749D01*
X031148Y007749D02*
X031225Y007826D01*
X031378Y007826D01*
X031455Y007749D01*
X031455Y007672D01*
X031148Y007366D01*
X031455Y007366D01*
X030994Y007442D02*
X030918Y007366D01*
X030764Y007366D01*
X030687Y007442D01*
X032061Y008804D02*
X032138Y008728D01*
X032445Y008728D01*
X032522Y008804D01*
X032522Y008958D01*
X032445Y009035D01*
X032522Y009188D02*
X032215Y009495D01*
X032138Y009495D01*
X032061Y009418D01*
X032061Y009265D01*
X032138Y009188D01*
X032138Y009035D02*
X032061Y008958D01*
X032061Y008804D01*
X032522Y009188D02*
X032522Y009495D01*
X035898Y014086D02*
X035898Y014546D01*
X036128Y014546D01*
X036205Y014470D01*
X036205Y014316D01*
X036128Y014239D01*
X035898Y014239D01*
X036052Y014239D02*
X036205Y014086D01*
X036359Y014086D02*
X036666Y014086D01*
X036819Y014086D02*
X037126Y014086D01*
X036972Y014086D02*
X036972Y014546D01*
X036819Y014393D01*
X036512Y014546D02*
X036512Y014086D01*
X036359Y014393D02*
X036512Y014546D01*
X036773Y016732D02*
X036773Y017192D01*
X037003Y017192D01*
X037080Y017115D01*
X037080Y016962D01*
X037003Y016885D01*
X036773Y016885D01*
X036926Y016885D02*
X037080Y016732D01*
X037233Y016732D02*
X037540Y016732D01*
X037387Y016732D02*
X037387Y017192D01*
X037233Y017039D01*
X037694Y017192D02*
X038001Y017192D01*
X038001Y017115D01*
X037694Y016808D01*
X037694Y016732D01*
X038045Y017600D02*
X038045Y017830D01*
X038122Y017907D01*
X038276Y017907D01*
X038352Y017830D01*
X038352Y017600D01*
X038352Y017753D02*
X038506Y017907D01*
X038506Y018060D02*
X038506Y018367D01*
X038506Y018214D02*
X038045Y018214D01*
X038199Y018060D01*
X038276Y018521D02*
X038276Y018751D01*
X038352Y018828D01*
X038429Y018828D01*
X038506Y018751D01*
X038506Y018597D01*
X038429Y018521D01*
X038276Y018521D01*
X038122Y018674D01*
X038045Y018828D01*
X038045Y019529D02*
X038045Y019759D01*
X038122Y019836D01*
X038276Y019836D01*
X038352Y019759D01*
X038352Y019529D01*
X038352Y019682D02*
X038506Y019836D01*
X038506Y019989D02*
X038506Y020296D01*
X038506Y020143D02*
X038045Y020143D01*
X038199Y019989D01*
X038276Y020450D02*
X038276Y020757D01*
X038506Y020680D02*
X038045Y020680D01*
X038276Y020450D01*
X038506Y019529D02*
X038045Y019529D01*
X036378Y019297D02*
X036071Y019297D01*
X036225Y019297D02*
X036225Y019757D01*
X036071Y019604D01*
X035918Y019680D02*
X035841Y019757D01*
X035687Y019757D01*
X035611Y019680D01*
X035611Y019373D01*
X035687Y019297D01*
X035841Y019297D01*
X035918Y019373D01*
X035457Y019297D02*
X035304Y019297D01*
X035380Y019297D02*
X035380Y019757D01*
X035304Y019757D02*
X035457Y019757D01*
X032919Y019724D02*
X032843Y019647D01*
X032919Y019724D02*
X032919Y019877D01*
X032843Y019954D01*
X032689Y019954D01*
X032612Y019877D01*
X032612Y019801D01*
X032689Y019647D01*
X032459Y019647D01*
X032459Y019954D01*
X032459Y019340D02*
X032919Y019340D01*
X032919Y019187D02*
X032919Y019494D01*
X032612Y019187D02*
X032459Y019340D01*
X032536Y019033D02*
X032689Y019033D01*
X032766Y018957D01*
X032766Y018726D01*
X032919Y018726D02*
X032459Y018726D01*
X032459Y018957D01*
X032536Y019033D01*
X032766Y018880D02*
X032919Y019033D01*
X038045Y017600D02*
X038506Y017600D01*
D16*
X025441Y032983D02*
X025291Y032983D01*
X025291Y033058D01*
X025316Y033083D01*
X025366Y033083D01*
X025391Y033058D01*
X025391Y032983D01*
X025291Y033131D02*
X025291Y033231D01*
X025291Y033181D02*
X025441Y033181D01*
X025416Y033278D02*
X025441Y033303D01*
X025441Y033353D01*
X025416Y033378D01*
X025416Y033278D02*
X025316Y033278D01*
X025291Y033303D01*
X025291Y033353D01*
X025316Y033378D01*
D17*
X031138Y028214D02*
X033498Y028214D01*
X033498Y025634D01*
X031138Y025634D01*
X035977Y030074D02*
X035977Y030861D01*
X036518Y030468D01*
X035977Y030074D01*
X035513Y034492D02*
X032933Y034492D01*
X032933Y035892D01*
X035513Y035892D01*
X035513Y034492D01*
X018081Y023955D02*
X017294Y023955D01*
X017687Y024495D01*
X018081Y023955D01*
X021307Y009995D02*
X020904Y009601D01*
X021307Y009208D01*
X021307Y009995D01*
D18*
X033688Y026924D03*
D19*
X036772Y030468D03*
D20*
X017687Y024749D03*
M02*
