G75*
G70*
%OFA0B0*%
%FSLAX24Y24*%
%IPPOS*%
%LPD*%
%AMOC8*
5,1,8,0,0,1.08239X$1,22.5*
%
%ADD10C,0.0060*%
%ADD11C,0.0000*%
%ADD12C,0.0040*%
%ADD13C,0.0050*%
%ADD14C,0.0100*%
%ADD15C,0.0080*%
D10*
X023176Y008555D02*
X023282Y008448D01*
X023389Y008448D01*
X023176Y008555D02*
X023176Y009089D01*
X023603Y009089D02*
X023603Y008769D01*
X023496Y008662D01*
X023176Y008662D01*
X023819Y009089D02*
X023926Y009089D01*
X024140Y008875D01*
X024140Y008662D02*
X024140Y009089D01*
X024357Y008982D02*
X024464Y009089D01*
X024678Y009089D01*
X024784Y008982D01*
X024784Y008769D01*
X024678Y008662D01*
X024464Y008662D01*
X024357Y008875D02*
X024784Y008875D01*
X025001Y008662D02*
X025107Y008769D01*
X025107Y009196D01*
X025001Y009089D02*
X025214Y009089D01*
X025430Y009089D02*
X025644Y009089D01*
X025537Y009196D02*
X025537Y008769D01*
X025430Y008662D01*
X025861Y008662D02*
X026182Y008662D01*
X026288Y008769D01*
X026182Y008875D01*
X025861Y008875D01*
X025861Y008982D02*
X025861Y008662D01*
X025861Y008982D02*
X025968Y009089D01*
X026182Y009089D01*
X026506Y009089D02*
X026613Y008982D01*
X026933Y008982D01*
X026933Y008662D02*
X026613Y008662D01*
X026506Y008769D01*
X026506Y008875D01*
X026613Y008982D01*
X026506Y009089D02*
X026506Y009196D01*
X026613Y009302D01*
X026933Y009302D01*
X026933Y008662D01*
X027365Y008252D02*
X027258Y008146D01*
X027258Y008039D01*
X027365Y007932D01*
X027258Y007825D01*
X027258Y007719D01*
X027365Y007612D01*
X027578Y007612D01*
X027685Y007719D01*
X027902Y007612D02*
X028329Y007612D01*
X028116Y007612D02*
X028116Y008252D01*
X028329Y008039D01*
X028547Y008146D02*
X028974Y007719D01*
X028867Y007612D01*
X028654Y007612D01*
X028547Y007719D01*
X028547Y008146D01*
X028654Y008252D01*
X028867Y008252D01*
X028974Y008146D01*
X028974Y007719D01*
X029191Y007612D02*
X029618Y007612D01*
X029191Y008039D01*
X029191Y008146D01*
X029298Y008252D01*
X029512Y008252D01*
X029618Y008146D01*
X029511Y008662D02*
X029511Y009089D01*
X029191Y009089D01*
X029084Y008982D01*
X029084Y008662D01*
X028866Y008769D02*
X028760Y008662D01*
X028546Y008662D01*
X028439Y008769D01*
X028439Y008982D01*
X028546Y009089D01*
X028760Y009089D01*
X028866Y008982D01*
X028866Y008769D01*
X028222Y008662D02*
X027795Y009089D01*
X028222Y009089D02*
X027795Y008662D01*
X027578Y008252D02*
X027365Y008252D01*
X027578Y008252D02*
X027685Y008146D01*
X027471Y007932D02*
X027365Y007932D01*
X029727Y008662D02*
X029941Y008662D01*
X029834Y008662D02*
X029834Y009089D01*
X029941Y009089D01*
X030158Y009089D02*
X030158Y008662D01*
X030479Y008662D01*
X030585Y008769D01*
X030585Y009089D01*
X030803Y009089D02*
X031123Y009089D01*
X031230Y008982D01*
X031230Y008769D01*
X031123Y008662D01*
X030803Y008662D01*
X030803Y008448D02*
X030803Y009089D01*
X031445Y008769D02*
X031445Y008662D01*
X031552Y008662D01*
X031552Y008769D01*
X031445Y008769D01*
X031770Y008875D02*
X032197Y008875D01*
X032197Y008769D02*
X032197Y008982D01*
X032090Y009089D01*
X031876Y009089D01*
X031770Y008982D01*
X031770Y008875D01*
X031876Y008662D02*
X032090Y008662D01*
X032197Y008769D01*
X032197Y008252D02*
X031876Y008252D01*
X031770Y008146D01*
X031770Y008039D01*
X031876Y007932D01*
X032197Y007932D01*
X032197Y007612D02*
X031876Y007612D01*
X031770Y007719D01*
X031770Y007825D01*
X031876Y007932D01*
X031552Y007932D02*
X031552Y007719D01*
X031445Y007612D01*
X031232Y007612D01*
X031125Y007719D01*
X031125Y007932D01*
X031232Y008039D01*
X031445Y008039D01*
X031552Y007932D01*
X032197Y007612D02*
X032197Y008252D01*
X030908Y008039D02*
X030481Y007612D01*
X030908Y007612D02*
X030481Y008039D01*
X029834Y009302D02*
X029834Y009409D01*
X024357Y008982D02*
X024357Y008875D01*
X026590Y026584D02*
X026613Y026526D01*
X026640Y026469D01*
X026670Y026414D01*
X026704Y026361D01*
X026741Y026310D01*
X026781Y026262D01*
X026824Y026216D01*
X026869Y026173D01*
X026918Y026133D01*
X026969Y026097D01*
X027022Y026063D01*
X027077Y026033D01*
X027133Y026006D01*
X027192Y025983D01*
X027251Y025964D01*
X027312Y025948D01*
X027374Y025936D01*
X027436Y025928D01*
X027499Y025924D01*
X027561Y025924D01*
X027624Y025928D01*
X027686Y025936D01*
X027748Y025948D01*
X027809Y025964D01*
X027868Y025983D01*
X027927Y026006D01*
X027983Y026033D01*
X028038Y026063D01*
X028091Y026097D01*
X028142Y026133D01*
X028191Y026173D01*
X028236Y026216D01*
X028279Y026262D01*
X028319Y026310D01*
X028356Y026361D01*
X028390Y026414D01*
X028420Y026469D01*
X028447Y026526D01*
X028470Y026584D01*
X028470Y027264D02*
X028447Y027322D01*
X028420Y027379D01*
X028390Y027434D01*
X028356Y027487D01*
X028319Y027538D01*
X028279Y027586D01*
X028236Y027632D01*
X028191Y027675D01*
X028142Y027715D01*
X028091Y027751D01*
X028038Y027785D01*
X027983Y027815D01*
X027927Y027842D01*
X027868Y027865D01*
X027809Y027884D01*
X027748Y027900D01*
X027686Y027912D01*
X027624Y027920D01*
X027561Y027924D01*
X027499Y027924D01*
X027436Y027920D01*
X027374Y027912D01*
X027312Y027900D01*
X027251Y027884D01*
X027192Y027865D01*
X027133Y027842D01*
X027077Y027815D01*
X027022Y027785D01*
X026969Y027751D01*
X026918Y027715D01*
X026869Y027675D01*
X026824Y027632D01*
X026781Y027586D01*
X026741Y027538D01*
X026704Y027487D01*
X026670Y027434D01*
X026640Y027379D01*
X026613Y027322D01*
X026590Y027264D01*
D11*
X017451Y035979D02*
X017453Y036029D01*
X017459Y036079D01*
X017469Y036128D01*
X017483Y036176D01*
X017500Y036223D01*
X017521Y036268D01*
X017546Y036312D01*
X017574Y036353D01*
X017606Y036392D01*
X017640Y036429D01*
X017677Y036463D01*
X017717Y036493D01*
X017759Y036520D01*
X017803Y036544D01*
X017849Y036565D01*
X017896Y036581D01*
X017944Y036594D01*
X017994Y036603D01*
X018043Y036608D01*
X018094Y036609D01*
X018144Y036606D01*
X018193Y036599D01*
X018242Y036588D01*
X018290Y036573D01*
X018336Y036555D01*
X018381Y036533D01*
X018424Y036507D01*
X018465Y036478D01*
X018504Y036446D01*
X018540Y036411D01*
X018572Y036373D01*
X018602Y036333D01*
X018629Y036290D01*
X018652Y036246D01*
X018671Y036200D01*
X018687Y036152D01*
X018699Y036103D01*
X018707Y036054D01*
X018711Y036004D01*
X018711Y035954D01*
X018707Y035904D01*
X018699Y035855D01*
X018687Y035806D01*
X018671Y035758D01*
X018652Y035712D01*
X018629Y035668D01*
X018602Y035625D01*
X018572Y035585D01*
X018540Y035547D01*
X018504Y035512D01*
X018465Y035480D01*
X018424Y035451D01*
X018381Y035425D01*
X018336Y035403D01*
X018290Y035385D01*
X018242Y035370D01*
X018193Y035359D01*
X018144Y035352D01*
X018094Y035349D01*
X018043Y035350D01*
X017994Y035355D01*
X017944Y035364D01*
X017896Y035377D01*
X017849Y035393D01*
X017803Y035414D01*
X017759Y035438D01*
X017717Y035465D01*
X017677Y035495D01*
X017640Y035529D01*
X017606Y035566D01*
X017574Y035605D01*
X017546Y035646D01*
X017521Y035690D01*
X017500Y035735D01*
X017483Y035782D01*
X017469Y035830D01*
X017459Y035879D01*
X017453Y035929D01*
X017451Y035979D01*
X015718Y037160D02*
X015708Y037220D01*
X015702Y037280D01*
X015699Y037341D01*
X015700Y037401D01*
X015704Y037462D01*
X015713Y037522D01*
X015724Y037581D01*
X015740Y037640D01*
X015759Y037698D01*
X015781Y037754D01*
X015807Y037809D01*
X015836Y037862D01*
X015868Y037914D01*
X015903Y037963D01*
X015941Y038011D01*
X015982Y038055D01*
X016025Y038098D01*
X016071Y038137D01*
X016119Y038174D01*
X016170Y038208D01*
X016222Y038238D01*
X016276Y038266D01*
X016332Y038290D01*
X016389Y038311D01*
X016447Y038328D01*
X016506Y038342D01*
X038553Y038342D01*
X038553Y038341D02*
X038607Y038339D01*
X038660Y038334D01*
X038713Y038325D01*
X038765Y038312D01*
X038817Y038296D01*
X038867Y038276D01*
X038915Y038253D01*
X038962Y038226D01*
X039007Y038197D01*
X039050Y038164D01*
X039090Y038129D01*
X039128Y038091D01*
X039163Y038051D01*
X039196Y038008D01*
X039225Y037963D01*
X039252Y037916D01*
X039275Y037868D01*
X039295Y037818D01*
X039311Y037766D01*
X039324Y037714D01*
X039333Y037661D01*
X039338Y037608D01*
X039340Y037554D01*
X039341Y037554D02*
X039341Y007633D01*
X039340Y007633D02*
X039338Y007579D01*
X039333Y007526D01*
X039324Y007473D01*
X039311Y007421D01*
X039295Y007369D01*
X039275Y007319D01*
X039252Y007271D01*
X039225Y007224D01*
X039196Y007179D01*
X039163Y007136D01*
X039128Y007096D01*
X039090Y007058D01*
X039050Y007023D01*
X039007Y006990D01*
X038962Y006961D01*
X038915Y006934D01*
X038867Y006911D01*
X038817Y006891D01*
X038765Y006875D01*
X038713Y006862D01*
X038660Y006853D01*
X038607Y006848D01*
X038553Y006846D01*
X016506Y006846D01*
X016506Y006845D02*
X016447Y006859D01*
X016389Y006876D01*
X016332Y006897D01*
X016276Y006921D01*
X016222Y006949D01*
X016170Y006979D01*
X016119Y007013D01*
X016071Y007050D01*
X016025Y007089D01*
X015982Y007132D01*
X015941Y007176D01*
X015903Y007224D01*
X015868Y007273D01*
X015836Y007325D01*
X015807Y007378D01*
X015781Y007433D01*
X015759Y007489D01*
X015740Y007547D01*
X015724Y007606D01*
X015713Y007665D01*
X015704Y007725D01*
X015700Y007786D01*
X015699Y007846D01*
X015702Y007907D01*
X015708Y007967D01*
X015718Y008027D01*
X015719Y008027D02*
X015719Y037160D01*
X036349Y035979D02*
X036351Y036029D01*
X036357Y036079D01*
X036367Y036128D01*
X036381Y036176D01*
X036398Y036223D01*
X036419Y036268D01*
X036444Y036312D01*
X036472Y036353D01*
X036504Y036392D01*
X036538Y036429D01*
X036575Y036463D01*
X036615Y036493D01*
X036657Y036520D01*
X036701Y036544D01*
X036747Y036565D01*
X036794Y036581D01*
X036842Y036594D01*
X036892Y036603D01*
X036941Y036608D01*
X036992Y036609D01*
X037042Y036606D01*
X037091Y036599D01*
X037140Y036588D01*
X037188Y036573D01*
X037234Y036555D01*
X037279Y036533D01*
X037322Y036507D01*
X037363Y036478D01*
X037402Y036446D01*
X037438Y036411D01*
X037470Y036373D01*
X037500Y036333D01*
X037527Y036290D01*
X037550Y036246D01*
X037569Y036200D01*
X037585Y036152D01*
X037597Y036103D01*
X037605Y036054D01*
X037609Y036004D01*
X037609Y035954D01*
X037605Y035904D01*
X037597Y035855D01*
X037585Y035806D01*
X037569Y035758D01*
X037550Y035712D01*
X037527Y035668D01*
X037500Y035625D01*
X037470Y035585D01*
X037438Y035547D01*
X037402Y035512D01*
X037363Y035480D01*
X037322Y035451D01*
X037279Y035425D01*
X037234Y035403D01*
X037188Y035385D01*
X037140Y035370D01*
X037091Y035359D01*
X037042Y035352D01*
X036992Y035349D01*
X036941Y035350D01*
X036892Y035355D01*
X036842Y035364D01*
X036794Y035377D01*
X036747Y035393D01*
X036701Y035414D01*
X036657Y035438D01*
X036615Y035465D01*
X036575Y035495D01*
X036538Y035529D01*
X036504Y035566D01*
X036472Y035605D01*
X036444Y035646D01*
X036419Y035690D01*
X036398Y035735D01*
X036381Y035782D01*
X036367Y035830D01*
X036357Y035879D01*
X036351Y035929D01*
X036349Y035979D01*
X036349Y009208D02*
X036351Y009258D01*
X036357Y009308D01*
X036367Y009357D01*
X036381Y009405D01*
X036398Y009452D01*
X036419Y009497D01*
X036444Y009541D01*
X036472Y009582D01*
X036504Y009621D01*
X036538Y009658D01*
X036575Y009692D01*
X036615Y009722D01*
X036657Y009749D01*
X036701Y009773D01*
X036747Y009794D01*
X036794Y009810D01*
X036842Y009823D01*
X036892Y009832D01*
X036941Y009837D01*
X036992Y009838D01*
X037042Y009835D01*
X037091Y009828D01*
X037140Y009817D01*
X037188Y009802D01*
X037234Y009784D01*
X037279Y009762D01*
X037322Y009736D01*
X037363Y009707D01*
X037402Y009675D01*
X037438Y009640D01*
X037470Y009602D01*
X037500Y009562D01*
X037527Y009519D01*
X037550Y009475D01*
X037569Y009429D01*
X037585Y009381D01*
X037597Y009332D01*
X037605Y009283D01*
X037609Y009233D01*
X037609Y009183D01*
X037605Y009133D01*
X037597Y009084D01*
X037585Y009035D01*
X037569Y008987D01*
X037550Y008941D01*
X037527Y008897D01*
X037500Y008854D01*
X037470Y008814D01*
X037438Y008776D01*
X037402Y008741D01*
X037363Y008709D01*
X037322Y008680D01*
X037279Y008654D01*
X037234Y008632D01*
X037188Y008614D01*
X037140Y008599D01*
X037091Y008588D01*
X037042Y008581D01*
X036992Y008578D01*
X036941Y008579D01*
X036892Y008584D01*
X036842Y008593D01*
X036794Y008606D01*
X036747Y008622D01*
X036701Y008643D01*
X036657Y008667D01*
X036615Y008694D01*
X036575Y008724D01*
X036538Y008758D01*
X036504Y008795D01*
X036472Y008834D01*
X036444Y008875D01*
X036419Y008919D01*
X036398Y008964D01*
X036381Y009011D01*
X036367Y009059D01*
X036357Y009108D01*
X036351Y009158D01*
X036349Y009208D01*
X017451Y009208D02*
X017453Y009258D01*
X017459Y009308D01*
X017469Y009357D01*
X017483Y009405D01*
X017500Y009452D01*
X017521Y009497D01*
X017546Y009541D01*
X017574Y009582D01*
X017606Y009621D01*
X017640Y009658D01*
X017677Y009692D01*
X017717Y009722D01*
X017759Y009749D01*
X017803Y009773D01*
X017849Y009794D01*
X017896Y009810D01*
X017944Y009823D01*
X017994Y009832D01*
X018043Y009837D01*
X018094Y009838D01*
X018144Y009835D01*
X018193Y009828D01*
X018242Y009817D01*
X018290Y009802D01*
X018336Y009784D01*
X018381Y009762D01*
X018424Y009736D01*
X018465Y009707D01*
X018504Y009675D01*
X018540Y009640D01*
X018572Y009602D01*
X018602Y009562D01*
X018629Y009519D01*
X018652Y009475D01*
X018671Y009429D01*
X018687Y009381D01*
X018699Y009332D01*
X018707Y009283D01*
X018711Y009233D01*
X018711Y009183D01*
X018707Y009133D01*
X018699Y009084D01*
X018687Y009035D01*
X018671Y008987D01*
X018652Y008941D01*
X018629Y008897D01*
X018602Y008854D01*
X018572Y008814D01*
X018540Y008776D01*
X018504Y008741D01*
X018465Y008709D01*
X018424Y008680D01*
X018381Y008654D01*
X018336Y008632D01*
X018290Y008614D01*
X018242Y008599D01*
X018193Y008588D01*
X018144Y008581D01*
X018094Y008578D01*
X018043Y008579D01*
X017994Y008584D01*
X017944Y008593D01*
X017896Y008606D01*
X017849Y008622D01*
X017803Y008643D01*
X017759Y008667D01*
X017717Y008694D01*
X017677Y008724D01*
X017640Y008758D01*
X017606Y008795D01*
X017574Y008834D01*
X017546Y008875D01*
X017521Y008919D01*
X017500Y008964D01*
X017483Y009011D01*
X017469Y009059D01*
X017459Y009108D01*
X017453Y009158D01*
X017451Y009208D01*
D12*
X021096Y016995D02*
X021403Y016995D01*
X021250Y016995D02*
X021250Y017456D01*
X021403Y017302D01*
X021557Y016919D02*
X021864Y016919D01*
X022171Y016995D02*
X022171Y017456D01*
X022324Y017456D02*
X022017Y017456D01*
X022478Y017456D02*
X022478Y017072D01*
X022554Y016995D01*
X022708Y016995D01*
X022785Y017072D01*
X022785Y017456D01*
X022938Y017379D02*
X023015Y017456D01*
X023168Y017456D01*
X023245Y017379D01*
X023245Y017072D01*
X023168Y016995D01*
X023015Y016995D01*
X022938Y017072D01*
X022938Y017379D01*
X023398Y016919D02*
X023705Y016919D01*
X023859Y017149D02*
X023859Y017456D01*
X024166Y017456D02*
X024166Y017149D01*
X024012Y016995D01*
X023859Y017149D01*
X024319Y017302D02*
X024319Y017379D01*
X024396Y017456D01*
X024549Y017456D01*
X024626Y017379D01*
X024319Y017302D02*
X024626Y016995D01*
X024319Y016995D01*
X024780Y016995D02*
X025087Y016995D01*
X024933Y016995D02*
X024933Y017456D01*
X025087Y017302D01*
X025206Y018476D02*
X024899Y018936D01*
X024746Y018860D02*
X024669Y018936D01*
X024516Y018936D01*
X024439Y018860D01*
X024439Y018783D01*
X024746Y018476D01*
X024439Y018476D01*
X024899Y018476D02*
X025206Y018936D01*
X025306Y019096D02*
X025306Y019417D01*
X025306Y019408D02*
X025947Y019408D01*
X025981Y019366D01*
X025981Y019248D01*
X025983Y019235D01*
X025988Y019223D01*
X025996Y019212D01*
X026007Y019204D01*
X026019Y019199D01*
X026032Y019197D01*
X026639Y019197D01*
X026652Y019198D01*
X026665Y019203D01*
X026676Y019210D01*
X026685Y019219D01*
X026692Y019230D01*
X026697Y019243D01*
X026698Y019256D01*
X026698Y019383D01*
X026732Y019417D01*
X026588Y019585D01*
X026074Y019585D01*
X025939Y019417D01*
X025863Y019906D02*
X026386Y019906D01*
X026386Y020403D01*
X026833Y020412D02*
X026841Y020412D01*
X026841Y019906D01*
X027355Y019906D01*
X027355Y020395D01*
X027625Y020403D02*
X027625Y019906D01*
X028140Y019906D01*
X028140Y020412D01*
X028603Y020412D02*
X028603Y019906D01*
X029118Y019906D01*
X029118Y020412D01*
X029464Y020572D02*
X029464Y020934D01*
X029598Y021052D01*
X029658Y020926D02*
X029658Y020420D01*
X029649Y020420D01*
X029464Y020572D01*
X025526Y020572D01*
X025517Y020934D01*
X025391Y021044D01*
X025315Y020884D02*
X025315Y020420D01*
X025526Y020572D01*
X025315Y020420D02*
X029649Y020420D01*
X029818Y020622D02*
X029919Y020732D01*
X029936Y021179D02*
X030222Y021179D01*
X030241Y021177D01*
X030260Y021172D01*
X030277Y021164D01*
X030293Y021153D01*
X030306Y021140D01*
X030317Y021124D01*
X030325Y021107D01*
X030330Y021088D01*
X030332Y021069D01*
X030096Y021187D02*
X030096Y021398D01*
X030094Y021423D01*
X030089Y021448D01*
X030080Y021472D01*
X030068Y021494D01*
X030053Y021514D01*
X030035Y021532D01*
X030015Y021547D01*
X029993Y021559D01*
X029969Y021568D01*
X029944Y021573D01*
X029919Y021575D01*
X029683Y021575D01*
X029683Y021719D01*
X029682Y021719D02*
X029680Y021735D01*
X029676Y021751D01*
X029668Y021766D01*
X029657Y021778D01*
X029645Y021789D01*
X029630Y021797D01*
X029614Y021801D01*
X029598Y021803D01*
X028039Y021803D01*
X028024Y021802D01*
X028010Y021797D01*
X027997Y021790D01*
X027985Y021781D01*
X027976Y021769D01*
X027969Y021756D01*
X027964Y021742D01*
X027963Y021727D01*
X027963Y021575D01*
X027035Y021575D01*
X027027Y021702D02*
X027027Y021415D01*
X028258Y021415D01*
X028291Y021449D01*
X028291Y021626D01*
X029008Y021626D01*
X029008Y021466D01*
X028907Y021280D01*
X028915Y021272D02*
X028831Y021499D01*
X028460Y021499D01*
X028410Y021272D01*
X028300Y021474D01*
X028258Y021415D02*
X028393Y021255D01*
X028924Y021255D01*
X029059Y021415D01*
X029683Y021415D01*
X029683Y021575D01*
X029683Y021415D02*
X029860Y021415D01*
X029875Y021413D01*
X029889Y021408D01*
X029902Y021400D01*
X029912Y021390D01*
X029920Y021377D01*
X029925Y021363D01*
X029927Y021348D01*
X029658Y020926D02*
X029656Y020954D01*
X029651Y020981D01*
X029642Y021007D01*
X029630Y021032D01*
X029614Y021054D01*
X029596Y021075D01*
X029575Y021093D01*
X029553Y021109D01*
X029528Y021121D01*
X029502Y021130D01*
X029475Y021135D01*
X029447Y021137D01*
X029059Y021415D02*
X029008Y021466D01*
X027963Y021415D02*
X027963Y021575D01*
X027027Y021415D02*
X026723Y021415D01*
X026681Y021474D01*
X026580Y021297D01*
X026512Y021516D01*
X026150Y021516D01*
X026074Y021272D01*
X026065Y021263D02*
X026588Y021263D01*
X026723Y021415D01*
X026681Y021474D02*
X026681Y021617D01*
X026680Y021624D01*
X026676Y021629D01*
X026671Y021633D01*
X026664Y021634D01*
X026023Y021634D01*
X026010Y021633D01*
X025997Y021628D01*
X025986Y021621D01*
X025977Y021612D01*
X025970Y021601D01*
X025965Y021588D01*
X025964Y021575D01*
X025964Y021474D01*
X025930Y021415D01*
X025930Y021415D01*
X025129Y021415D01*
X025070Y021576D02*
X025044Y021574D01*
X025018Y021568D01*
X024993Y021559D01*
X024969Y021546D01*
X024948Y021531D01*
X024929Y021512D01*
X024914Y021491D01*
X024901Y021467D01*
X024892Y021442D01*
X024886Y021416D01*
X024884Y021390D01*
X024885Y021390D02*
X024885Y021187D01*
X024750Y021179D02*
X025045Y021179D01*
X025045Y021331D01*
X025047Y021347D01*
X025051Y021363D01*
X025059Y021378D01*
X025070Y021390D01*
X025082Y021401D01*
X025097Y021409D01*
X025113Y021413D01*
X025129Y021415D01*
X025070Y021575D02*
X025306Y021575D01*
X025306Y021415D01*
X025306Y021575D02*
X025306Y021735D01*
X025307Y021735D02*
X025309Y021750D01*
X025314Y021764D01*
X025322Y021777D01*
X025332Y021787D01*
X025345Y021795D01*
X025359Y021800D01*
X025374Y021802D01*
X025374Y021803D02*
X026925Y021803D01*
X026943Y021801D01*
X026960Y021797D01*
X026976Y021789D01*
X026990Y021779D01*
X027002Y021767D01*
X027012Y021753D01*
X027020Y021737D01*
X027024Y021720D01*
X027026Y021702D01*
X026074Y021314D02*
X025973Y021491D01*
X025930Y021407D02*
X026065Y021263D01*
X025568Y021137D02*
X025538Y021135D01*
X025507Y021130D01*
X025478Y021121D01*
X025450Y021108D01*
X025424Y021092D01*
X025400Y021073D01*
X025379Y021052D01*
X025360Y021028D01*
X025344Y021002D01*
X025331Y020974D01*
X025322Y020945D01*
X025317Y020914D01*
X025315Y020884D01*
X025163Y020639D02*
X025053Y020740D01*
X024666Y021095D02*
X024668Y021111D01*
X024672Y021127D01*
X024680Y021142D01*
X024691Y021154D01*
X024703Y021165D01*
X024718Y021173D01*
X024734Y021177D01*
X024750Y021179D01*
X025863Y020403D02*
X025863Y019906D01*
X025307Y019096D02*
X025309Y019081D01*
X025314Y019067D01*
X025322Y019054D01*
X025332Y019044D01*
X025345Y019036D01*
X025359Y019031D01*
X025374Y019029D01*
X026959Y019029D01*
X026974Y019031D01*
X026988Y019036D01*
X027001Y019044D01*
X027011Y019054D01*
X027019Y019067D01*
X027024Y019081D01*
X027026Y019096D01*
X027027Y019096D02*
X027027Y019417D01*
X027963Y019417D01*
X028258Y019417D01*
X028291Y019383D01*
X028291Y019256D01*
X028292Y019243D01*
X028297Y019230D01*
X028304Y019219D01*
X028313Y019210D01*
X028324Y019203D01*
X028337Y019198D01*
X028350Y019197D01*
X028958Y019197D01*
X028971Y019199D01*
X028984Y019204D01*
X028994Y019212D01*
X029002Y019223D01*
X029007Y019235D01*
X029009Y019248D01*
X029008Y019248D02*
X029008Y019366D01*
X029042Y019408D01*
X029683Y019408D01*
X029683Y019096D01*
X029682Y019096D02*
X029680Y019081D01*
X029675Y019067D01*
X029667Y019054D01*
X029657Y019044D01*
X029644Y019036D01*
X029630Y019031D01*
X029615Y019029D01*
X028039Y019029D01*
X028024Y019030D01*
X028010Y019035D01*
X027997Y019042D01*
X027985Y019051D01*
X027976Y019063D01*
X027969Y019076D01*
X027964Y019090D01*
X027963Y019105D01*
X027963Y019256D01*
X027963Y019417D01*
X027963Y019256D02*
X027035Y019256D01*
X027027Y019417D02*
X026732Y019417D01*
X028258Y019417D02*
X028401Y019585D01*
X028915Y019585D01*
X029050Y019417D01*
X029047Y017456D02*
X029201Y017456D01*
X029277Y017379D01*
X029047Y017456D02*
X028971Y017379D01*
X028971Y017302D01*
X029277Y016995D01*
X028971Y016995D01*
X029431Y016919D02*
X029738Y016919D01*
X030045Y016995D02*
X030045Y017456D01*
X030198Y017456D02*
X029891Y017456D01*
X030352Y017456D02*
X030352Y017072D01*
X030428Y016995D01*
X030582Y016995D01*
X030659Y017072D01*
X030659Y017456D01*
X030812Y017379D02*
X030889Y017456D01*
X031042Y017456D01*
X031119Y017379D01*
X031119Y017072D01*
X031042Y016995D01*
X030889Y016995D01*
X030812Y017072D01*
X030812Y017379D01*
X031272Y016919D02*
X031579Y016919D01*
X031733Y017149D02*
X031733Y017456D01*
X032040Y017456D02*
X032040Y017149D01*
X031886Y016995D01*
X031733Y017149D01*
X032193Y017302D02*
X032193Y017379D01*
X032270Y017456D01*
X032423Y017456D01*
X032500Y017379D01*
X032193Y017302D02*
X032500Y016995D01*
X032193Y016995D01*
X032654Y016995D02*
X032961Y016995D01*
X032807Y016995D02*
X032807Y017456D01*
X032961Y017302D01*
D13*
X015581Y011708D02*
X015581Y006708D01*
X020581Y006708D01*
X020581Y011708D01*
X015581Y011708D01*
X016073Y011688D02*
X016073Y006727D01*
X017201Y009208D02*
X017203Y009267D01*
X017209Y009325D01*
X017219Y009383D01*
X017232Y009440D01*
X017250Y009497D01*
X017271Y009552D01*
X017296Y009605D01*
X017324Y009656D01*
X017355Y009706D01*
X017390Y009753D01*
X017428Y009798D01*
X017469Y009841D01*
X017513Y009880D01*
X017559Y009916D01*
X017607Y009950D01*
X017658Y009980D01*
X017711Y010006D01*
X017765Y010029D01*
X017820Y010048D01*
X017877Y010064D01*
X017935Y010076D01*
X017993Y010084D01*
X018052Y010088D01*
X018110Y010088D01*
X018169Y010084D01*
X018227Y010076D01*
X018285Y010064D01*
X018342Y010048D01*
X018397Y010029D01*
X018451Y010006D01*
X018504Y009980D01*
X018555Y009950D01*
X018603Y009916D01*
X018649Y009880D01*
X018693Y009841D01*
X018734Y009798D01*
X018772Y009753D01*
X018807Y009706D01*
X018838Y009656D01*
X018866Y009605D01*
X018891Y009552D01*
X018912Y009497D01*
X018930Y009440D01*
X018943Y009383D01*
X018953Y009325D01*
X018959Y009267D01*
X018961Y009208D01*
X018959Y009149D01*
X018953Y009091D01*
X018943Y009033D01*
X018930Y008976D01*
X018912Y008919D01*
X018891Y008864D01*
X018866Y008811D01*
X018838Y008760D01*
X018807Y008710D01*
X018772Y008663D01*
X018734Y008618D01*
X018693Y008575D01*
X018649Y008536D01*
X018603Y008500D01*
X018555Y008466D01*
X018504Y008436D01*
X018451Y008410D01*
X018397Y008387D01*
X018342Y008368D01*
X018285Y008352D01*
X018227Y008340D01*
X018169Y008332D01*
X018110Y008328D01*
X018052Y008328D01*
X017993Y008332D01*
X017935Y008340D01*
X017877Y008352D01*
X017820Y008368D01*
X017765Y008387D01*
X017711Y008410D01*
X017658Y008436D01*
X017607Y008466D01*
X017559Y008500D01*
X017513Y008536D01*
X017469Y008575D01*
X017428Y008618D01*
X017390Y008663D01*
X017355Y008710D01*
X017324Y008760D01*
X017296Y008811D01*
X017271Y008864D01*
X017250Y008919D01*
X017232Y008976D01*
X017219Y009033D01*
X017209Y009091D01*
X017203Y009149D01*
X017201Y009208D01*
X021799Y012566D02*
X021799Y016897D01*
X025343Y016897D01*
X025343Y012566D01*
X021799Y012566D01*
X023158Y015086D02*
X023160Y015126D01*
X023166Y015167D01*
X023176Y015206D01*
X023189Y015244D01*
X023207Y015281D01*
X023228Y015315D01*
X023252Y015348D01*
X023279Y015378D01*
X023309Y015405D01*
X023342Y015429D01*
X023376Y015450D01*
X023413Y015468D01*
X023451Y015481D01*
X023490Y015491D01*
X023531Y015497D01*
X023571Y015499D01*
X023611Y015497D01*
X023652Y015491D01*
X023691Y015481D01*
X023729Y015468D01*
X023766Y015450D01*
X023800Y015429D01*
X023833Y015405D01*
X023863Y015378D01*
X023890Y015348D01*
X023914Y015315D01*
X023935Y015281D01*
X023953Y015244D01*
X023966Y015206D01*
X023976Y015167D01*
X023982Y015126D01*
X023984Y015086D01*
X023982Y015046D01*
X023976Y015005D01*
X023966Y014966D01*
X023953Y014928D01*
X023935Y014891D01*
X023914Y014857D01*
X023890Y014824D01*
X023863Y014794D01*
X023833Y014767D01*
X023800Y014743D01*
X023766Y014722D01*
X023729Y014704D01*
X023691Y014691D01*
X023652Y014681D01*
X023611Y014675D01*
X023571Y014673D01*
X023531Y014675D01*
X023490Y014681D01*
X023451Y014691D01*
X023413Y014704D01*
X023376Y014722D01*
X023342Y014743D01*
X023309Y014767D01*
X023279Y014794D01*
X023252Y014824D01*
X023228Y014857D01*
X023207Y014891D01*
X023189Y014928D01*
X023176Y014966D01*
X023166Y015005D01*
X023160Y015046D01*
X023158Y015086D01*
X022311Y015086D02*
X022313Y015157D01*
X022319Y015227D01*
X022329Y015297D01*
X022343Y015366D01*
X022360Y015435D01*
X022382Y015502D01*
X022407Y015568D01*
X022436Y015633D01*
X022468Y015695D01*
X022504Y015756D01*
X022543Y015815D01*
X022586Y015872D01*
X022631Y015926D01*
X022680Y015977D01*
X022731Y016026D01*
X022785Y016071D01*
X022842Y016114D01*
X022901Y016153D01*
X022962Y016189D01*
X023024Y016221D01*
X023089Y016250D01*
X023155Y016275D01*
X023222Y016297D01*
X023291Y016314D01*
X023360Y016328D01*
X023430Y016338D01*
X023500Y016344D01*
X023571Y016346D01*
X023642Y016344D01*
X023712Y016338D01*
X023782Y016328D01*
X023851Y016314D01*
X023920Y016297D01*
X023987Y016275D01*
X024053Y016250D01*
X024118Y016221D01*
X024180Y016189D01*
X024241Y016153D01*
X024300Y016114D01*
X024357Y016071D01*
X024411Y016026D01*
X024462Y015977D01*
X024511Y015926D01*
X024556Y015872D01*
X024599Y015815D01*
X024638Y015756D01*
X024674Y015695D01*
X024706Y015633D01*
X024735Y015568D01*
X024760Y015502D01*
X024782Y015435D01*
X024799Y015366D01*
X024813Y015297D01*
X024823Y015227D01*
X024829Y015157D01*
X024831Y015086D01*
X024829Y015015D01*
X024823Y014945D01*
X024813Y014875D01*
X024799Y014806D01*
X024782Y014737D01*
X024760Y014670D01*
X024735Y014604D01*
X024706Y014539D01*
X024674Y014477D01*
X024638Y014416D01*
X024599Y014357D01*
X024556Y014300D01*
X024511Y014246D01*
X024462Y014195D01*
X024411Y014146D01*
X024357Y014101D01*
X024300Y014058D01*
X024241Y014019D01*
X024180Y013983D01*
X024118Y013951D01*
X024053Y013922D01*
X023987Y013897D01*
X023920Y013875D01*
X023851Y013858D01*
X023782Y013844D01*
X023712Y013834D01*
X023642Y013828D01*
X023571Y013826D01*
X023500Y013828D01*
X023430Y013834D01*
X023360Y013844D01*
X023291Y013858D01*
X023222Y013875D01*
X023155Y013897D01*
X023089Y013922D01*
X023024Y013951D01*
X022962Y013983D01*
X022901Y014019D01*
X022842Y014058D01*
X022785Y014101D01*
X022731Y014146D01*
X022680Y014195D01*
X022631Y014246D01*
X022586Y014300D01*
X022543Y014357D01*
X022504Y014416D01*
X022468Y014477D01*
X022436Y014539D01*
X022407Y014604D01*
X022382Y014670D01*
X022360Y014737D01*
X022343Y014806D01*
X022329Y014875D01*
X022319Y014945D01*
X022313Y015015D01*
X022311Y015086D01*
X021799Y016503D02*
X025343Y016503D01*
X029673Y016503D02*
X033217Y016503D01*
X033217Y016897D02*
X029673Y016897D01*
X029673Y012566D01*
X033217Y012566D01*
X033217Y016897D01*
X031032Y015086D02*
X031034Y015126D01*
X031040Y015167D01*
X031050Y015206D01*
X031063Y015244D01*
X031081Y015281D01*
X031102Y015315D01*
X031126Y015348D01*
X031153Y015378D01*
X031183Y015405D01*
X031216Y015429D01*
X031250Y015450D01*
X031287Y015468D01*
X031325Y015481D01*
X031364Y015491D01*
X031405Y015497D01*
X031445Y015499D01*
X031485Y015497D01*
X031526Y015491D01*
X031565Y015481D01*
X031603Y015468D01*
X031640Y015450D01*
X031674Y015429D01*
X031707Y015405D01*
X031737Y015378D01*
X031764Y015348D01*
X031788Y015315D01*
X031809Y015281D01*
X031827Y015244D01*
X031840Y015206D01*
X031850Y015167D01*
X031856Y015126D01*
X031858Y015086D01*
X031856Y015046D01*
X031850Y015005D01*
X031840Y014966D01*
X031827Y014928D01*
X031809Y014891D01*
X031788Y014857D01*
X031764Y014824D01*
X031737Y014794D01*
X031707Y014767D01*
X031674Y014743D01*
X031640Y014722D01*
X031603Y014704D01*
X031565Y014691D01*
X031526Y014681D01*
X031485Y014675D01*
X031445Y014673D01*
X031405Y014675D01*
X031364Y014681D01*
X031325Y014691D01*
X031287Y014704D01*
X031250Y014722D01*
X031216Y014743D01*
X031183Y014767D01*
X031153Y014794D01*
X031126Y014824D01*
X031102Y014857D01*
X031081Y014891D01*
X031063Y014928D01*
X031050Y014966D01*
X031040Y015005D01*
X031034Y015046D01*
X031032Y015086D01*
X030185Y015086D02*
X030187Y015157D01*
X030193Y015227D01*
X030203Y015297D01*
X030217Y015366D01*
X030234Y015435D01*
X030256Y015502D01*
X030281Y015568D01*
X030310Y015633D01*
X030342Y015695D01*
X030378Y015756D01*
X030417Y015815D01*
X030460Y015872D01*
X030505Y015926D01*
X030554Y015977D01*
X030605Y016026D01*
X030659Y016071D01*
X030716Y016114D01*
X030775Y016153D01*
X030836Y016189D01*
X030898Y016221D01*
X030963Y016250D01*
X031029Y016275D01*
X031096Y016297D01*
X031165Y016314D01*
X031234Y016328D01*
X031304Y016338D01*
X031374Y016344D01*
X031445Y016346D01*
X031516Y016344D01*
X031586Y016338D01*
X031656Y016328D01*
X031725Y016314D01*
X031794Y016297D01*
X031861Y016275D01*
X031927Y016250D01*
X031992Y016221D01*
X032054Y016189D01*
X032115Y016153D01*
X032174Y016114D01*
X032231Y016071D01*
X032285Y016026D01*
X032336Y015977D01*
X032385Y015926D01*
X032430Y015872D01*
X032473Y015815D01*
X032512Y015756D01*
X032548Y015695D01*
X032580Y015633D01*
X032609Y015568D01*
X032634Y015502D01*
X032656Y015435D01*
X032673Y015366D01*
X032687Y015297D01*
X032697Y015227D01*
X032703Y015157D01*
X032705Y015086D01*
X032703Y015015D01*
X032697Y014945D01*
X032687Y014875D01*
X032673Y014806D01*
X032656Y014737D01*
X032634Y014670D01*
X032609Y014604D01*
X032580Y014539D01*
X032548Y014477D01*
X032512Y014416D01*
X032473Y014357D01*
X032430Y014300D01*
X032385Y014246D01*
X032336Y014195D01*
X032285Y014146D01*
X032231Y014101D01*
X032174Y014058D01*
X032115Y014019D01*
X032054Y013983D01*
X031992Y013951D01*
X031927Y013922D01*
X031861Y013897D01*
X031794Y013875D01*
X031725Y013858D01*
X031656Y013844D01*
X031586Y013834D01*
X031516Y013828D01*
X031445Y013826D01*
X031374Y013828D01*
X031304Y013834D01*
X031234Y013844D01*
X031165Y013858D01*
X031096Y013875D01*
X031029Y013897D01*
X030963Y013922D01*
X030898Y013951D01*
X030836Y013983D01*
X030775Y014019D01*
X030716Y014058D01*
X030659Y014101D01*
X030605Y014146D01*
X030554Y014195D01*
X030505Y014246D01*
X030460Y014300D01*
X030417Y014357D01*
X030378Y014416D01*
X030342Y014477D01*
X030310Y014539D01*
X030281Y014604D01*
X030256Y014670D01*
X030234Y014737D01*
X030217Y014806D01*
X030203Y014875D01*
X030193Y014945D01*
X030187Y015015D01*
X030185Y015086D01*
X034479Y011708D02*
X039479Y011708D01*
X039479Y006708D01*
X034479Y006708D01*
X034479Y011708D01*
X034971Y011688D02*
X034971Y006727D01*
X036099Y009208D02*
X036101Y009267D01*
X036107Y009325D01*
X036117Y009383D01*
X036130Y009440D01*
X036148Y009497D01*
X036169Y009552D01*
X036194Y009605D01*
X036222Y009656D01*
X036253Y009706D01*
X036288Y009753D01*
X036326Y009798D01*
X036367Y009841D01*
X036411Y009880D01*
X036457Y009916D01*
X036505Y009950D01*
X036556Y009980D01*
X036609Y010006D01*
X036663Y010029D01*
X036718Y010048D01*
X036775Y010064D01*
X036833Y010076D01*
X036891Y010084D01*
X036950Y010088D01*
X037008Y010088D01*
X037067Y010084D01*
X037125Y010076D01*
X037183Y010064D01*
X037240Y010048D01*
X037295Y010029D01*
X037349Y010006D01*
X037402Y009980D01*
X037453Y009950D01*
X037501Y009916D01*
X037547Y009880D01*
X037591Y009841D01*
X037632Y009798D01*
X037670Y009753D01*
X037705Y009706D01*
X037736Y009656D01*
X037764Y009605D01*
X037789Y009552D01*
X037810Y009497D01*
X037828Y009440D01*
X037841Y009383D01*
X037851Y009325D01*
X037857Y009267D01*
X037859Y009208D01*
X037857Y009149D01*
X037851Y009091D01*
X037841Y009033D01*
X037828Y008976D01*
X037810Y008919D01*
X037789Y008864D01*
X037764Y008811D01*
X037736Y008760D01*
X037705Y008710D01*
X037670Y008663D01*
X037632Y008618D01*
X037591Y008575D01*
X037547Y008536D01*
X037501Y008500D01*
X037453Y008466D01*
X037402Y008436D01*
X037349Y008410D01*
X037295Y008387D01*
X037240Y008368D01*
X037183Y008352D01*
X037125Y008340D01*
X037067Y008332D01*
X037008Y008328D01*
X036950Y008328D01*
X036891Y008332D01*
X036833Y008340D01*
X036775Y008352D01*
X036718Y008368D01*
X036663Y008387D01*
X036609Y008410D01*
X036556Y008436D01*
X036505Y008466D01*
X036457Y008500D01*
X036411Y008536D01*
X036367Y008575D01*
X036326Y008618D01*
X036288Y008663D01*
X036253Y008710D01*
X036222Y008760D01*
X036194Y008811D01*
X036169Y008864D01*
X036148Y008919D01*
X036130Y008976D01*
X036117Y009033D01*
X036107Y009091D01*
X036101Y009149D01*
X036099Y009208D01*
X026005Y027949D02*
X025705Y027949D01*
X025544Y027949D02*
X025319Y027949D01*
X025244Y028024D01*
X025244Y028325D01*
X025319Y028400D01*
X025544Y028400D01*
X025544Y027949D01*
X025084Y027949D02*
X024784Y027949D01*
X024934Y027949D02*
X024934Y028400D01*
X025084Y028250D01*
X026005Y028400D02*
X026005Y027949D01*
X020581Y033479D02*
X015581Y033479D01*
X015581Y038479D01*
X020581Y038479D01*
X020581Y033479D01*
X017201Y035979D02*
X017203Y036038D01*
X017209Y036096D01*
X017219Y036154D01*
X017232Y036211D01*
X017250Y036268D01*
X017271Y036323D01*
X017296Y036376D01*
X017324Y036427D01*
X017355Y036477D01*
X017390Y036524D01*
X017428Y036569D01*
X017469Y036612D01*
X017513Y036651D01*
X017559Y036687D01*
X017607Y036721D01*
X017658Y036751D01*
X017711Y036777D01*
X017765Y036800D01*
X017820Y036819D01*
X017877Y036835D01*
X017935Y036847D01*
X017993Y036855D01*
X018052Y036859D01*
X018110Y036859D01*
X018169Y036855D01*
X018227Y036847D01*
X018285Y036835D01*
X018342Y036819D01*
X018397Y036800D01*
X018451Y036777D01*
X018504Y036751D01*
X018555Y036721D01*
X018603Y036687D01*
X018649Y036651D01*
X018693Y036612D01*
X018734Y036569D01*
X018772Y036524D01*
X018807Y036477D01*
X018838Y036427D01*
X018866Y036376D01*
X018891Y036323D01*
X018912Y036268D01*
X018930Y036211D01*
X018943Y036154D01*
X018953Y036096D01*
X018959Y036038D01*
X018961Y035979D01*
X018959Y035920D01*
X018953Y035862D01*
X018943Y035804D01*
X018930Y035747D01*
X018912Y035690D01*
X018891Y035635D01*
X018866Y035582D01*
X018838Y035531D01*
X018807Y035481D01*
X018772Y035434D01*
X018734Y035389D01*
X018693Y035346D01*
X018649Y035307D01*
X018603Y035271D01*
X018555Y035237D01*
X018504Y035207D01*
X018451Y035181D01*
X018397Y035158D01*
X018342Y035139D01*
X018285Y035123D01*
X018227Y035111D01*
X018169Y035103D01*
X018110Y035099D01*
X018052Y035099D01*
X017993Y035103D01*
X017935Y035111D01*
X017877Y035123D01*
X017820Y035139D01*
X017765Y035158D01*
X017711Y035181D01*
X017658Y035207D01*
X017607Y035237D01*
X017559Y035271D01*
X017513Y035307D01*
X017469Y035346D01*
X017428Y035389D01*
X017390Y035434D01*
X017355Y035481D01*
X017324Y035531D01*
X017296Y035582D01*
X017271Y035635D01*
X017250Y035690D01*
X017232Y035747D01*
X017219Y035804D01*
X017209Y035862D01*
X017203Y035920D01*
X017201Y035979D01*
X016073Y033499D02*
X016073Y038460D01*
X025903Y035199D02*
X025903Y034748D01*
X026053Y034899D01*
X026203Y034748D01*
X026203Y035199D01*
X026363Y035124D02*
X026363Y034824D01*
X026438Y034748D01*
X026588Y034748D01*
X026663Y034824D01*
X026663Y035124D01*
X026588Y035199D01*
X026438Y035199D01*
X026363Y035124D01*
X026823Y035124D02*
X026823Y034974D01*
X026898Y034899D01*
X027124Y034899D01*
X027124Y034748D02*
X027124Y035199D01*
X026898Y035199D01*
X026823Y035124D01*
X027284Y034673D02*
X027584Y034673D01*
X027744Y034748D02*
X027744Y035199D01*
X028044Y035199D02*
X028044Y034748D01*
X027894Y034899D01*
X027744Y034748D01*
X028205Y034824D02*
X028205Y034899D01*
X028280Y034974D01*
X028430Y034974D01*
X028505Y035049D01*
X028505Y035124D01*
X028430Y035199D01*
X028280Y035199D01*
X028205Y035124D01*
X028205Y034824D02*
X028280Y034748D01*
X028430Y034748D01*
X028505Y034824D01*
X034479Y033479D02*
X034479Y038479D01*
X039479Y038479D01*
X039479Y033479D01*
X034479Y033479D01*
X034971Y033499D02*
X034971Y038460D01*
X036099Y035979D02*
X036101Y036038D01*
X036107Y036096D01*
X036117Y036154D01*
X036130Y036211D01*
X036148Y036268D01*
X036169Y036323D01*
X036194Y036376D01*
X036222Y036427D01*
X036253Y036477D01*
X036288Y036524D01*
X036326Y036569D01*
X036367Y036612D01*
X036411Y036651D01*
X036457Y036687D01*
X036505Y036721D01*
X036556Y036751D01*
X036609Y036777D01*
X036663Y036800D01*
X036718Y036819D01*
X036775Y036835D01*
X036833Y036847D01*
X036891Y036855D01*
X036950Y036859D01*
X037008Y036859D01*
X037067Y036855D01*
X037125Y036847D01*
X037183Y036835D01*
X037240Y036819D01*
X037295Y036800D01*
X037349Y036777D01*
X037402Y036751D01*
X037453Y036721D01*
X037501Y036687D01*
X037547Y036651D01*
X037591Y036612D01*
X037632Y036569D01*
X037670Y036524D01*
X037705Y036477D01*
X037736Y036427D01*
X037764Y036376D01*
X037789Y036323D01*
X037810Y036268D01*
X037828Y036211D01*
X037841Y036154D01*
X037851Y036096D01*
X037857Y036038D01*
X037859Y035979D01*
X037857Y035920D01*
X037851Y035862D01*
X037841Y035804D01*
X037828Y035747D01*
X037810Y035690D01*
X037789Y035635D01*
X037764Y035582D01*
X037736Y035531D01*
X037705Y035481D01*
X037670Y035434D01*
X037632Y035389D01*
X037591Y035346D01*
X037547Y035307D01*
X037501Y035271D01*
X037453Y035237D01*
X037402Y035207D01*
X037349Y035181D01*
X037295Y035158D01*
X037240Y035139D01*
X037183Y035123D01*
X037125Y035111D01*
X037067Y035103D01*
X037008Y035099D01*
X036950Y035099D01*
X036891Y035103D01*
X036833Y035111D01*
X036775Y035123D01*
X036718Y035139D01*
X036663Y035158D01*
X036609Y035181D01*
X036556Y035207D01*
X036505Y035237D01*
X036457Y035271D01*
X036411Y035307D01*
X036367Y035346D01*
X036326Y035389D01*
X036288Y035434D01*
X036253Y035481D01*
X036222Y035531D01*
X036194Y035582D01*
X036169Y035635D01*
X036148Y035690D01*
X036130Y035747D01*
X036117Y035804D01*
X036107Y035862D01*
X036101Y035920D01*
X036099Y035979D01*
D14*
X028630Y027264D02*
X028608Y027327D01*
X028583Y027389D01*
X028554Y027449D01*
X028522Y027508D01*
X028486Y027565D01*
X028447Y027619D01*
X028406Y027671D01*
X028361Y027721D01*
X028313Y027768D01*
X028263Y027812D01*
X028210Y027853D01*
X028155Y027891D01*
X028098Y027925D01*
X028039Y027957D01*
X027978Y027984D01*
X027916Y028009D01*
X027852Y028029D01*
X027787Y028046D01*
X027722Y028059D01*
X027655Y028068D01*
X027589Y028074D01*
X027522Y028075D01*
X027455Y028073D01*
X027388Y028066D01*
X027322Y028056D01*
X027257Y028042D01*
X027193Y028024D01*
X027129Y028003D01*
X027067Y027978D01*
X027007Y027949D01*
X026948Y027917D01*
X026892Y027882D01*
X026837Y027843D01*
X026785Y027801D01*
X026735Y027756D01*
X026688Y027709D01*
X026644Y027659D01*
X026603Y027606D01*
X026565Y027551D01*
X026530Y027494D01*
X026530Y027274D01*
X026530Y026574D02*
X026530Y026354D01*
X026565Y026297D01*
X026603Y026242D01*
X026644Y026189D01*
X026688Y026139D01*
X026735Y026091D01*
X026785Y026047D01*
X026837Y026005D01*
X026892Y025966D01*
X026948Y025931D01*
X027007Y025899D01*
X027067Y025870D01*
X027129Y025845D01*
X027193Y025824D01*
X027257Y025806D01*
X027322Y025792D01*
X027389Y025782D01*
X027455Y025775D01*
X027522Y025773D01*
X027589Y025774D01*
X027655Y025780D01*
X027722Y025789D01*
X027787Y025802D01*
X027852Y025819D01*
X027915Y025839D01*
X027978Y025864D01*
X028039Y025891D01*
X028098Y025923D01*
X028155Y025957D01*
X028210Y025995D01*
X028263Y026036D01*
X028313Y026080D01*
X028361Y026127D01*
X028406Y026177D01*
X028447Y026229D01*
X028486Y026283D01*
X028522Y026340D01*
X028554Y026399D01*
X028583Y026459D01*
X028608Y026521D01*
X028630Y026584D01*
D15*
X028380Y032023D02*
X026680Y032023D01*
X026330Y032823D02*
X026330Y033616D01*
X026680Y034423D02*
X028380Y034423D01*
X028730Y033628D02*
X028730Y032823D01*
X026830Y033223D02*
X026832Y033275D01*
X026838Y033327D01*
X026848Y033379D01*
X026861Y033429D01*
X026878Y033479D01*
X026899Y033527D01*
X026924Y033573D01*
X026952Y033617D01*
X026983Y033659D01*
X027017Y033699D01*
X027054Y033736D01*
X027094Y033770D01*
X027136Y033801D01*
X027180Y033829D01*
X027226Y033854D01*
X027274Y033875D01*
X027324Y033892D01*
X027374Y033905D01*
X027426Y033915D01*
X027478Y033921D01*
X027530Y033923D01*
X027582Y033921D01*
X027634Y033915D01*
X027686Y033905D01*
X027736Y033892D01*
X027786Y033875D01*
X027834Y033854D01*
X027880Y033829D01*
X027924Y033801D01*
X027966Y033770D01*
X028006Y033736D01*
X028043Y033699D01*
X028077Y033659D01*
X028108Y033617D01*
X028136Y033573D01*
X028161Y033527D01*
X028182Y033479D01*
X028199Y033429D01*
X028212Y033379D01*
X028222Y033327D01*
X028228Y033275D01*
X028230Y033223D01*
X028228Y033171D01*
X028222Y033119D01*
X028212Y033067D01*
X028199Y033017D01*
X028182Y032967D01*
X028161Y032919D01*
X028136Y032873D01*
X028108Y032829D01*
X028077Y032787D01*
X028043Y032747D01*
X028006Y032710D01*
X027966Y032676D01*
X027924Y032645D01*
X027880Y032617D01*
X027834Y032592D01*
X027786Y032571D01*
X027736Y032554D01*
X027686Y032541D01*
X027634Y032531D01*
X027582Y032525D01*
X027530Y032523D01*
X027478Y032525D01*
X027426Y032531D01*
X027374Y032541D01*
X027324Y032554D01*
X027274Y032571D01*
X027226Y032592D01*
X027180Y032617D01*
X027136Y032645D01*
X027094Y032676D01*
X027054Y032710D01*
X027017Y032747D01*
X026983Y032787D01*
X026952Y032829D01*
X026924Y032873D01*
X026899Y032919D01*
X026878Y032967D01*
X026861Y033017D01*
X026848Y033067D01*
X026838Y033119D01*
X026832Y033171D01*
X026830Y033223D01*
M02*
