G75*
G70*
%OFA0B0*%
%FSLAX24Y24*%
%IPPOS*%
%LPD*%
%AMOC8*
5,1,8,0,0,1.08239X$1,22.5*
%
%ADD10C,0.0000*%
%ADD11C,0.0787*%
%ADD12C,0.1306*%
%ADD13C,0.0554*%
%ADD14C,0.0520*%
%ADD15R,0.0600X0.0600*%
%ADD16C,0.0600*%
%ADD17R,0.1063X0.1063*%
%ADD18C,0.0740*%
%ADD19C,0.0600*%
%ADD20C,0.0150*%
%ADD21C,0.0400*%
%ADD22C,0.0240*%
%ADD23C,0.0160*%
%ADD24C,0.0660*%
%ADD25C,0.0400*%
D10*
X015719Y008027D02*
X015719Y037160D01*
X015718Y037160D02*
X015708Y037220D01*
X015702Y037280D01*
X015699Y037341D01*
X015700Y037401D01*
X015704Y037462D01*
X015713Y037522D01*
X015724Y037581D01*
X015740Y037640D01*
X015759Y037698D01*
X015781Y037754D01*
X015807Y037809D01*
X015836Y037862D01*
X015868Y037914D01*
X015903Y037963D01*
X015941Y038011D01*
X015982Y038055D01*
X016025Y038098D01*
X016071Y038137D01*
X016119Y038174D01*
X016170Y038208D01*
X016222Y038238D01*
X016276Y038266D01*
X016332Y038290D01*
X016389Y038311D01*
X016447Y038328D01*
X016506Y038342D01*
X038553Y038342D01*
X038553Y038341D02*
X038607Y038339D01*
X038660Y038334D01*
X038713Y038325D01*
X038765Y038312D01*
X038817Y038296D01*
X038867Y038276D01*
X038915Y038253D01*
X038962Y038226D01*
X039007Y038197D01*
X039050Y038164D01*
X039090Y038129D01*
X039128Y038091D01*
X039163Y038051D01*
X039196Y038008D01*
X039225Y037963D01*
X039252Y037916D01*
X039275Y037868D01*
X039295Y037818D01*
X039311Y037766D01*
X039324Y037714D01*
X039333Y037661D01*
X039338Y037608D01*
X039340Y037554D01*
X039341Y037554D02*
X039341Y007633D01*
X039340Y007633D02*
X039338Y007579D01*
X039333Y007526D01*
X039324Y007473D01*
X039311Y007421D01*
X039295Y007369D01*
X039275Y007319D01*
X039252Y007271D01*
X039225Y007224D01*
X039196Y007179D01*
X039163Y007136D01*
X039128Y007096D01*
X039090Y007058D01*
X039050Y007023D01*
X039007Y006990D01*
X038962Y006961D01*
X038915Y006934D01*
X038867Y006911D01*
X038817Y006891D01*
X038765Y006875D01*
X038713Y006862D01*
X038660Y006853D01*
X038607Y006848D01*
X038553Y006846D01*
X016506Y006846D01*
X016506Y006845D02*
X016447Y006859D01*
X016389Y006876D01*
X016332Y006897D01*
X016276Y006921D01*
X016222Y006949D01*
X016170Y006979D01*
X016119Y007013D01*
X016071Y007050D01*
X016025Y007089D01*
X015982Y007132D01*
X015941Y007176D01*
X015903Y007224D01*
X015868Y007273D01*
X015836Y007325D01*
X015807Y007378D01*
X015781Y007433D01*
X015759Y007489D01*
X015740Y007547D01*
X015724Y007606D01*
X015713Y007665D01*
X015704Y007725D01*
X015700Y007786D01*
X015699Y007846D01*
X015702Y007907D01*
X015708Y007967D01*
X015718Y008027D01*
X017451Y009208D02*
X017453Y009258D01*
X017459Y009308D01*
X017469Y009357D01*
X017483Y009405D01*
X017500Y009452D01*
X017521Y009497D01*
X017546Y009541D01*
X017574Y009582D01*
X017606Y009621D01*
X017640Y009658D01*
X017677Y009692D01*
X017717Y009722D01*
X017759Y009749D01*
X017803Y009773D01*
X017849Y009794D01*
X017896Y009810D01*
X017944Y009823D01*
X017994Y009832D01*
X018043Y009837D01*
X018094Y009838D01*
X018144Y009835D01*
X018193Y009828D01*
X018242Y009817D01*
X018290Y009802D01*
X018336Y009784D01*
X018381Y009762D01*
X018424Y009736D01*
X018465Y009707D01*
X018504Y009675D01*
X018540Y009640D01*
X018572Y009602D01*
X018602Y009562D01*
X018629Y009519D01*
X018652Y009475D01*
X018671Y009429D01*
X018687Y009381D01*
X018699Y009332D01*
X018707Y009283D01*
X018711Y009233D01*
X018711Y009183D01*
X018707Y009133D01*
X018699Y009084D01*
X018687Y009035D01*
X018671Y008987D01*
X018652Y008941D01*
X018629Y008897D01*
X018602Y008854D01*
X018572Y008814D01*
X018540Y008776D01*
X018504Y008741D01*
X018465Y008709D01*
X018424Y008680D01*
X018381Y008654D01*
X018336Y008632D01*
X018290Y008614D01*
X018242Y008599D01*
X018193Y008588D01*
X018144Y008581D01*
X018094Y008578D01*
X018043Y008579D01*
X017994Y008584D01*
X017944Y008593D01*
X017896Y008606D01*
X017849Y008622D01*
X017803Y008643D01*
X017759Y008667D01*
X017717Y008694D01*
X017677Y008724D01*
X017640Y008758D01*
X017606Y008795D01*
X017574Y008834D01*
X017546Y008875D01*
X017521Y008919D01*
X017500Y008964D01*
X017483Y009011D01*
X017469Y009059D01*
X017459Y009108D01*
X017453Y009158D01*
X017451Y009208D01*
X036349Y009208D02*
X036351Y009258D01*
X036357Y009308D01*
X036367Y009357D01*
X036381Y009405D01*
X036398Y009452D01*
X036419Y009497D01*
X036444Y009541D01*
X036472Y009582D01*
X036504Y009621D01*
X036538Y009658D01*
X036575Y009692D01*
X036615Y009722D01*
X036657Y009749D01*
X036701Y009773D01*
X036747Y009794D01*
X036794Y009810D01*
X036842Y009823D01*
X036892Y009832D01*
X036941Y009837D01*
X036992Y009838D01*
X037042Y009835D01*
X037091Y009828D01*
X037140Y009817D01*
X037188Y009802D01*
X037234Y009784D01*
X037279Y009762D01*
X037322Y009736D01*
X037363Y009707D01*
X037402Y009675D01*
X037438Y009640D01*
X037470Y009602D01*
X037500Y009562D01*
X037527Y009519D01*
X037550Y009475D01*
X037569Y009429D01*
X037585Y009381D01*
X037597Y009332D01*
X037605Y009283D01*
X037609Y009233D01*
X037609Y009183D01*
X037605Y009133D01*
X037597Y009084D01*
X037585Y009035D01*
X037569Y008987D01*
X037550Y008941D01*
X037527Y008897D01*
X037500Y008854D01*
X037470Y008814D01*
X037438Y008776D01*
X037402Y008741D01*
X037363Y008709D01*
X037322Y008680D01*
X037279Y008654D01*
X037234Y008632D01*
X037188Y008614D01*
X037140Y008599D01*
X037091Y008588D01*
X037042Y008581D01*
X036992Y008578D01*
X036941Y008579D01*
X036892Y008584D01*
X036842Y008593D01*
X036794Y008606D01*
X036747Y008622D01*
X036701Y008643D01*
X036657Y008667D01*
X036615Y008694D01*
X036575Y008724D01*
X036538Y008758D01*
X036504Y008795D01*
X036472Y008834D01*
X036444Y008875D01*
X036419Y008919D01*
X036398Y008964D01*
X036381Y009011D01*
X036367Y009059D01*
X036357Y009108D01*
X036351Y009158D01*
X036349Y009208D01*
X036349Y035979D02*
X036351Y036029D01*
X036357Y036079D01*
X036367Y036128D01*
X036381Y036176D01*
X036398Y036223D01*
X036419Y036268D01*
X036444Y036312D01*
X036472Y036353D01*
X036504Y036392D01*
X036538Y036429D01*
X036575Y036463D01*
X036615Y036493D01*
X036657Y036520D01*
X036701Y036544D01*
X036747Y036565D01*
X036794Y036581D01*
X036842Y036594D01*
X036892Y036603D01*
X036941Y036608D01*
X036992Y036609D01*
X037042Y036606D01*
X037091Y036599D01*
X037140Y036588D01*
X037188Y036573D01*
X037234Y036555D01*
X037279Y036533D01*
X037322Y036507D01*
X037363Y036478D01*
X037402Y036446D01*
X037438Y036411D01*
X037470Y036373D01*
X037500Y036333D01*
X037527Y036290D01*
X037550Y036246D01*
X037569Y036200D01*
X037585Y036152D01*
X037597Y036103D01*
X037605Y036054D01*
X037609Y036004D01*
X037609Y035954D01*
X037605Y035904D01*
X037597Y035855D01*
X037585Y035806D01*
X037569Y035758D01*
X037550Y035712D01*
X037527Y035668D01*
X037500Y035625D01*
X037470Y035585D01*
X037438Y035547D01*
X037402Y035512D01*
X037363Y035480D01*
X037322Y035451D01*
X037279Y035425D01*
X037234Y035403D01*
X037188Y035385D01*
X037140Y035370D01*
X037091Y035359D01*
X037042Y035352D01*
X036992Y035349D01*
X036941Y035350D01*
X036892Y035355D01*
X036842Y035364D01*
X036794Y035377D01*
X036747Y035393D01*
X036701Y035414D01*
X036657Y035438D01*
X036615Y035465D01*
X036575Y035495D01*
X036538Y035529D01*
X036504Y035566D01*
X036472Y035605D01*
X036444Y035646D01*
X036419Y035690D01*
X036398Y035735D01*
X036381Y035782D01*
X036367Y035830D01*
X036357Y035879D01*
X036351Y035929D01*
X036349Y035979D01*
X017451Y035979D02*
X017453Y036029D01*
X017459Y036079D01*
X017469Y036128D01*
X017483Y036176D01*
X017500Y036223D01*
X017521Y036268D01*
X017546Y036312D01*
X017574Y036353D01*
X017606Y036392D01*
X017640Y036429D01*
X017677Y036463D01*
X017717Y036493D01*
X017759Y036520D01*
X017803Y036544D01*
X017849Y036565D01*
X017896Y036581D01*
X017944Y036594D01*
X017994Y036603D01*
X018043Y036608D01*
X018094Y036609D01*
X018144Y036606D01*
X018193Y036599D01*
X018242Y036588D01*
X018290Y036573D01*
X018336Y036555D01*
X018381Y036533D01*
X018424Y036507D01*
X018465Y036478D01*
X018504Y036446D01*
X018540Y036411D01*
X018572Y036373D01*
X018602Y036333D01*
X018629Y036290D01*
X018652Y036246D01*
X018671Y036200D01*
X018687Y036152D01*
X018699Y036103D01*
X018707Y036054D01*
X018711Y036004D01*
X018711Y035954D01*
X018707Y035904D01*
X018699Y035855D01*
X018687Y035806D01*
X018671Y035758D01*
X018652Y035712D01*
X018629Y035668D01*
X018602Y035625D01*
X018572Y035585D01*
X018540Y035547D01*
X018504Y035512D01*
X018465Y035480D01*
X018424Y035451D01*
X018381Y035425D01*
X018336Y035403D01*
X018290Y035385D01*
X018242Y035370D01*
X018193Y035359D01*
X018144Y035352D01*
X018094Y035349D01*
X018043Y035350D01*
X017994Y035355D01*
X017944Y035364D01*
X017896Y035377D01*
X017849Y035393D01*
X017803Y035414D01*
X017759Y035438D01*
X017717Y035465D01*
X017677Y035495D01*
X017640Y035529D01*
X017606Y035566D01*
X017574Y035605D01*
X017546Y035646D01*
X017521Y035690D01*
X017500Y035735D01*
X017483Y035782D01*
X017469Y035830D01*
X017459Y035879D01*
X017453Y035929D01*
X017451Y035979D01*
D11*
X025500Y015558D02*
X025500Y014771D01*
X024516Y012960D02*
X023729Y012960D01*
X023414Y014062D02*
X022626Y014062D01*
X030500Y014062D02*
X031288Y014062D01*
X031603Y012960D02*
X032390Y012960D01*
X033374Y014771D02*
X033374Y015558D01*
D12*
X030077Y019834D03*
X024904Y019834D03*
D13*
X026112Y020901D03*
X027097Y020901D03*
X027884Y020901D03*
X028868Y020901D03*
D14*
X028530Y026664D02*
X028530Y027184D01*
X027530Y027184D02*
X027530Y026664D01*
X026530Y026664D02*
X026530Y027184D01*
D15*
X037715Y028790D03*
X037715Y024790D03*
D16*
X037715Y025790D03*
X037715Y026790D03*
X037715Y027790D03*
D17*
X020837Y026727D03*
X020837Y028893D03*
D18*
X026250Y032333D03*
X026250Y034113D03*
X028810Y034113D03*
X028810Y032333D03*
D19*
X029030Y035679D02*
X029030Y036279D01*
X028030Y036279D02*
X028030Y035679D01*
X027030Y035679D02*
X027030Y036279D01*
X026030Y036279D02*
X026030Y035679D01*
D20*
X036469Y027346D02*
X036469Y026846D01*
X037469Y025846D01*
X037715Y025790D01*
X033969Y020846D02*
X028969Y020846D01*
X028868Y020901D01*
D21*
X027469Y023096D03*
X026349Y024956D03*
X027018Y025586D03*
X029931Y027909D03*
X030286Y028853D03*
X029813Y029956D03*
X032648Y031649D03*
X036469Y027346D03*
X033278Y023145D03*
X033435Y021412D03*
X033969Y020846D03*
X035798Y021412D03*
X037372Y021412D03*
X038042Y014286D03*
X033868Y009601D03*
X025168Y031255D03*
X025679Y031649D03*
X024223Y037594D03*
D22*
X025955Y036767D02*
X025955Y036054D01*
X026030Y035979D01*
X025955Y036767D02*
X026742Y037554D01*
X037372Y037554D01*
X038475Y036452D01*
X038475Y027082D01*
X038183Y026790D01*
X037715Y026790D01*
X037372Y021412D02*
X035798Y021412D01*
X038042Y014286D02*
X038042Y014050D01*
X038160Y013932D01*
X034223Y009601D02*
X033868Y009601D01*
X026349Y024956D02*
X026349Y025743D01*
X026742Y026137D01*
X028199Y026137D01*
X028553Y026491D01*
X028553Y026901D01*
X028530Y026924D01*
X032648Y031649D02*
X031963Y032333D01*
X028810Y032333D01*
X026250Y032333D01*
X026250Y034113D02*
X028810Y034113D01*
D23*
X025679Y031649D02*
X025679Y031137D01*
X029105Y027712D01*
X029105Y026531D01*
X031467Y024168D01*
X032254Y024168D01*
X033278Y023145D01*
X033435Y021412D02*
X029262Y025586D01*
X027018Y025586D01*
X029498Y026924D02*
X031467Y024956D01*
X037549Y024956D01*
X037715Y024790D01*
X037715Y027790D02*
X037597Y027909D01*
X029931Y027909D01*
X030286Y028853D02*
X037652Y028853D01*
X037715Y028790D01*
X029813Y029956D02*
X029774Y029956D01*
X029498Y029680D01*
X029498Y026924D01*
X025168Y031255D02*
X025168Y035192D01*
X024223Y036137D01*
X024223Y037594D01*
D24*
X025500Y015164D02*
X033374Y015164D01*
D25*
X034118Y015214D02*
X039041Y015214D01*
X039041Y014816D02*
X034118Y014816D01*
X034118Y014623D02*
X034118Y015706D01*
X034005Y015979D01*
X033796Y016189D01*
X033522Y016302D01*
X033226Y016302D01*
X032953Y016189D01*
X032744Y015979D01*
X032688Y015844D01*
X026187Y015844D01*
X026131Y015979D01*
X025922Y016189D01*
X025648Y016302D01*
X025352Y016302D01*
X025079Y016189D01*
X024870Y015979D01*
X024757Y015706D01*
X024757Y014623D01*
X024870Y014349D01*
X025079Y014140D01*
X025352Y014027D01*
X025648Y014027D01*
X025922Y014140D01*
X026131Y014349D01*
X026187Y014484D01*
X029950Y014484D01*
X029922Y014448D01*
X029877Y014370D01*
X029842Y014286D01*
X029818Y014198D01*
X029807Y014108D01*
X029807Y014062D01*
X029807Y014017D01*
X029818Y013926D01*
X029842Y013839D01*
X029877Y013755D01*
X029922Y013676D01*
X029978Y013604D01*
X030042Y013539D01*
X030114Y013484D01*
X030193Y013439D01*
X030277Y013404D01*
X030365Y013380D01*
X030455Y013368D01*
X030894Y013368D01*
X031042Y013368D01*
X031025Y013346D01*
X030979Y013267D01*
X030944Y013183D01*
X030921Y013095D01*
X030909Y013005D01*
X030909Y012960D01*
X031996Y012960D01*
X031996Y013653D01*
X031848Y013653D01*
X031866Y013676D01*
X031911Y013755D01*
X031946Y013839D01*
X031969Y013926D01*
X031981Y014017D01*
X031981Y014062D01*
X030894Y014062D01*
X030894Y013368D01*
X030894Y014062D01*
X030894Y014062D01*
X030894Y014062D01*
X031981Y014062D01*
X031981Y014108D01*
X031969Y014198D01*
X031946Y014286D01*
X031911Y014370D01*
X031866Y014448D01*
X031838Y014484D01*
X032688Y014484D01*
X032744Y014349D01*
X032953Y014140D01*
X033226Y014027D01*
X033522Y014027D01*
X033796Y014140D01*
X034005Y014349D01*
X034118Y014623D01*
X034033Y014417D02*
X039041Y014417D01*
X039041Y014019D02*
X031981Y014019D01*
X031996Y013653D02*
X031996Y012960D01*
X031996Y012960D01*
X031996Y012960D01*
X030909Y012960D01*
X030909Y012914D01*
X030921Y012824D01*
X030944Y012736D01*
X030979Y012652D01*
X031025Y012573D01*
X031080Y012501D01*
X031144Y012437D01*
X031216Y012382D01*
X031295Y012336D01*
X031379Y012301D01*
X031467Y012278D01*
X031557Y012266D01*
X031996Y012266D01*
X031996Y012960D01*
X031996Y012960D01*
X033084Y012960D01*
X033084Y013005D01*
X033072Y013095D01*
X033048Y013183D01*
X033014Y013267D01*
X032968Y013346D01*
X032913Y013418D01*
X032848Y013482D01*
X032776Y013538D01*
X032698Y013583D01*
X032613Y013618D01*
X032526Y013642D01*
X032435Y013653D01*
X031996Y013653D01*
X031996Y013620D02*
X031996Y013620D01*
X031996Y013222D02*
X031996Y013222D01*
X031996Y012960D02*
X031996Y012960D01*
X031996Y012266D01*
X032435Y012266D01*
X032526Y012278D01*
X032613Y012301D01*
X032698Y012336D01*
X032776Y012382D01*
X032848Y012437D01*
X032913Y012501D01*
X032968Y012573D01*
X033014Y012652D01*
X033048Y012736D01*
X033072Y012824D01*
X033084Y012914D01*
X033084Y012960D01*
X031996Y012960D01*
X031996Y012823D02*
X031996Y012823D01*
X031996Y012425D02*
X031996Y012425D01*
X032832Y012425D02*
X039041Y012425D01*
X039041Y012823D02*
X033072Y012823D01*
X033032Y013222D02*
X039041Y013222D01*
X039041Y013620D02*
X032606Y013620D01*
X032716Y014417D02*
X031884Y014417D01*
X030894Y014062D02*
X030894Y014062D01*
X029807Y014062D01*
X030894Y014062D01*
X030894Y014019D02*
X030894Y014019D01*
X030894Y013620D02*
X030894Y013620D01*
X030960Y013222D02*
X025158Y013222D01*
X025174Y013183D02*
X025140Y013267D01*
X025094Y013346D01*
X025039Y013418D01*
X024974Y013482D01*
X024902Y013538D01*
X024823Y013583D01*
X024739Y013618D01*
X024652Y013642D01*
X024561Y013653D01*
X024122Y013653D01*
X023974Y013653D01*
X023992Y013676D01*
X024037Y013755D01*
X024072Y013839D01*
X024095Y013926D01*
X024107Y014017D01*
X024107Y014062D01*
X023020Y014062D01*
X023020Y013368D01*
X023168Y013368D01*
X023151Y013346D01*
X023105Y013267D01*
X023070Y013183D01*
X023047Y013095D01*
X023035Y013005D01*
X023035Y012960D01*
X024122Y012960D01*
X024122Y013653D01*
X024122Y012960D01*
X024122Y012960D01*
X024122Y012960D01*
X023035Y012960D01*
X023035Y012914D01*
X023047Y012824D01*
X023070Y012736D01*
X023105Y012652D01*
X023151Y012573D01*
X023206Y012501D01*
X023270Y012437D01*
X023342Y012382D01*
X023421Y012336D01*
X023505Y012301D01*
X023593Y012278D01*
X023683Y012266D01*
X024122Y012266D01*
X024122Y012960D01*
X024122Y012960D01*
X025210Y012960D01*
X025210Y013005D01*
X025198Y013095D01*
X025174Y013183D01*
X025210Y012960D02*
X024122Y012960D01*
X024122Y012960D01*
X024122Y012266D01*
X024561Y012266D01*
X024652Y012278D01*
X024739Y012301D01*
X024823Y012336D01*
X024902Y012382D01*
X024974Y012437D01*
X025039Y012501D01*
X025094Y012573D01*
X025140Y012652D01*
X025174Y012736D01*
X025198Y012824D01*
X025210Y012914D01*
X025210Y012960D01*
X025198Y012823D02*
X030921Y012823D01*
X031161Y012425D02*
X024958Y012425D01*
X024122Y012425D02*
X024122Y012425D01*
X024122Y012823D02*
X024122Y012823D01*
X024122Y013222D02*
X024122Y013222D01*
X024122Y013620D02*
X024122Y013620D01*
X024107Y014019D02*
X029807Y014019D01*
X029904Y014417D02*
X026159Y014417D01*
X024842Y014417D02*
X024010Y014417D01*
X023992Y014448D02*
X023936Y014520D01*
X023872Y014585D01*
X023800Y014640D01*
X023721Y014686D01*
X023637Y014720D01*
X023549Y014744D01*
X023459Y014756D01*
X023020Y014756D01*
X023020Y014062D01*
X023020Y014062D01*
X023020Y014062D01*
X023020Y013368D01*
X022581Y013368D01*
X022491Y013380D01*
X022403Y013404D01*
X022319Y013439D01*
X022240Y013484D01*
X022168Y013539D01*
X022104Y013604D01*
X022048Y013676D01*
X022003Y013755D01*
X021968Y013839D01*
X021944Y013926D01*
X021933Y014017D01*
X021933Y014062D01*
X023020Y014062D01*
X024107Y014062D01*
X024107Y014108D01*
X024095Y014198D01*
X024072Y014286D01*
X024037Y014370D01*
X023992Y014448D01*
X024757Y014816D02*
X016019Y014816D01*
X016019Y015214D02*
X024757Y015214D01*
X024757Y015613D02*
X016019Y015613D01*
X016019Y016011D02*
X024901Y016011D01*
X026099Y016011D02*
X032775Y016011D01*
X033973Y016011D02*
X039041Y016011D01*
X039041Y015613D02*
X034118Y015613D01*
X030713Y019122D02*
X030789Y019198D01*
X030855Y019282D01*
X030912Y019372D01*
X030959Y019469D01*
X030994Y019570D01*
X031018Y019674D01*
X031030Y019780D01*
X031030Y019807D01*
X030103Y019807D01*
X030103Y018881D01*
X030131Y018881D01*
X030237Y018893D01*
X030341Y018917D01*
X030442Y018952D01*
X030539Y018999D01*
X030629Y019055D01*
X030713Y019122D01*
X030790Y019199D02*
X039041Y019199D01*
X039041Y018801D02*
X016019Y018801D01*
X016019Y019199D02*
X024191Y019199D01*
X024192Y019198D02*
X024268Y019122D01*
X024352Y019055D01*
X024442Y018999D01*
X024539Y018952D01*
X024640Y018917D01*
X024744Y018893D01*
X024850Y018881D01*
X024877Y018881D01*
X024877Y019807D01*
X023951Y019807D01*
X023951Y019780D01*
X023963Y019674D01*
X023987Y019570D01*
X024022Y019469D01*
X024069Y019372D01*
X024126Y019282D01*
X024192Y019198D01*
X023980Y019598D02*
X016019Y019598D01*
X016019Y019996D02*
X023964Y019996D01*
X023963Y019994D02*
X023951Y019887D01*
X023951Y019860D01*
X024877Y019860D01*
X024877Y019807D01*
X024930Y019807D01*
X024930Y018881D01*
X024957Y018881D01*
X025064Y018893D01*
X025168Y018917D01*
X025269Y018952D01*
X025365Y018999D01*
X025456Y019055D01*
X025540Y019122D01*
X025615Y019198D01*
X025682Y019282D01*
X025739Y019372D01*
X025785Y019469D01*
X025821Y019570D01*
X025845Y019674D01*
X025857Y019780D01*
X025857Y019807D01*
X024930Y019807D01*
X024930Y019860D01*
X024877Y019860D01*
X024877Y020786D01*
X024850Y020786D01*
X024744Y020775D01*
X024640Y020751D01*
X024539Y020715D01*
X024442Y020669D01*
X024352Y020612D01*
X024268Y020545D01*
X024192Y020470D01*
X024126Y020386D01*
X024069Y020295D01*
X024022Y020199D01*
X023987Y020098D01*
X023963Y019994D01*
X024132Y020395D02*
X016019Y020395D01*
X016019Y020793D02*
X025545Y020793D01*
X025550Y020766D02*
X025578Y020679D01*
X025619Y020598D01*
X025672Y020525D01*
X025736Y020460D01*
X025810Y020407D01*
X025891Y020366D01*
X025977Y020338D01*
X026067Y020323D01*
X026112Y020323D01*
X026112Y020901D01*
X026112Y020901D01*
X025535Y020901D01*
X025535Y020946D01*
X025550Y021036D01*
X025578Y021122D01*
X025619Y021203D01*
X025672Y021277D01*
X025736Y021341D01*
X025810Y021394D01*
X025891Y021436D01*
X025977Y021464D01*
X026067Y021478D01*
X026112Y021478D01*
X026112Y020901D01*
X026112Y020901D01*
X025535Y020901D01*
X025535Y020855D01*
X025550Y020766D01*
X025456Y020612D02*
X025365Y020669D01*
X025269Y020715D01*
X025168Y020751D01*
X025064Y020775D01*
X024957Y020786D01*
X024930Y020786D01*
X024930Y019860D01*
X025857Y019860D01*
X025857Y019887D01*
X025845Y019994D01*
X025821Y020098D01*
X025785Y020199D01*
X025739Y020295D01*
X025682Y020386D01*
X025615Y020470D01*
X025540Y020545D01*
X025456Y020612D01*
X025675Y020395D02*
X025834Y020395D01*
X026112Y020395D02*
X026112Y020395D01*
X026112Y020323D02*
X026158Y020323D01*
X026248Y020338D01*
X026334Y020366D01*
X026415Y020407D01*
X026488Y020460D01*
X026553Y020525D01*
X026567Y020544D01*
X026741Y020369D01*
X026972Y020273D01*
X027221Y020273D01*
X027452Y020369D01*
X027490Y020407D01*
X027529Y020369D01*
X027759Y020273D01*
X028009Y020273D01*
X028239Y020369D01*
X028376Y020506D01*
X028513Y020369D01*
X028744Y020273D01*
X028993Y020273D01*
X029224Y020369D01*
X029275Y020421D01*
X029326Y020421D01*
X029299Y020386D01*
X029242Y020295D01*
X029195Y020199D01*
X029160Y020098D01*
X029136Y019994D01*
X029124Y019887D01*
X029124Y019860D01*
X030051Y019860D01*
X030051Y019807D01*
X030103Y019807D01*
X030103Y019860D01*
X031030Y019860D01*
X031030Y019887D01*
X031018Y019994D01*
X030994Y020098D01*
X030959Y020199D01*
X030912Y020295D01*
X030855Y020386D01*
X030828Y020421D01*
X033616Y020421D01*
X033657Y020379D01*
X033859Y020296D01*
X034078Y020296D01*
X034280Y020379D01*
X034435Y020534D01*
X034519Y020736D01*
X034519Y020955D01*
X034435Y021157D01*
X034280Y021312D01*
X034078Y021396D01*
X033985Y021396D01*
X033985Y021522D01*
X033902Y021724D01*
X033747Y021879D01*
X033545Y021962D01*
X033493Y021962D01*
X031718Y023738D01*
X032076Y023738D01*
X032728Y023087D01*
X032728Y023035D01*
X032812Y022833D01*
X032966Y022678D01*
X033168Y022595D01*
X033387Y022595D01*
X033589Y022678D01*
X033744Y022833D01*
X033828Y023035D01*
X033828Y023254D01*
X033744Y023456D01*
X033589Y023611D01*
X033387Y023695D01*
X033336Y023695D01*
X032505Y024526D01*
X037065Y024526D01*
X037065Y024421D01*
X037118Y024292D01*
X037217Y024194D01*
X037345Y024140D01*
X038084Y024140D01*
X038213Y024194D01*
X038312Y024292D01*
X038365Y024421D01*
X038365Y025160D01*
X038312Y025289D01*
X038222Y025378D01*
X038266Y025422D01*
X038365Y025661D01*
X038365Y025920D01*
X038266Y026159D01*
X038134Y026290D01*
X038164Y026320D01*
X038277Y026320D01*
X038450Y026392D01*
X038741Y026683D01*
X038873Y026816D01*
X038945Y026988D01*
X038945Y036545D01*
X038873Y036718D01*
X038741Y036850D01*
X038741Y036850D01*
X037771Y037820D01*
X037771Y037820D01*
X037639Y037953D01*
X037466Y038024D01*
X026649Y038024D01*
X026476Y037953D01*
X025689Y037165D01*
X025557Y037033D01*
X025485Y036860D01*
X025485Y036654D01*
X025479Y036648D01*
X025380Y036409D01*
X025380Y035588D01*
X024653Y036315D01*
X024653Y037246D01*
X024689Y037282D01*
X024773Y037484D01*
X024773Y037703D01*
X024689Y037905D01*
X024552Y038042D01*
X038553Y038042D01*
X038630Y038036D01*
X038775Y037988D01*
X038898Y037899D01*
X038988Y037775D01*
X039035Y037630D01*
X039041Y037554D01*
X039041Y007633D01*
X039035Y007557D01*
X038988Y007412D01*
X038898Y007288D01*
X038775Y007199D01*
X038630Y007152D01*
X038553Y007146D01*
X016544Y007146D01*
X016459Y007170D01*
X016267Y007278D01*
X016117Y007439D01*
X016025Y007639D01*
X016000Y007858D01*
X016010Y007947D01*
X016019Y007967D01*
X016019Y007997D01*
X016025Y008026D01*
X016019Y008056D01*
X016019Y037131D01*
X016025Y037161D01*
X016019Y037190D01*
X016019Y037220D01*
X016010Y037240D01*
X016000Y037329D01*
X016025Y037548D01*
X016117Y037748D01*
X016267Y037910D01*
X016459Y038017D01*
X016544Y038042D01*
X023893Y038042D01*
X023756Y037905D01*
X023673Y037703D01*
X023673Y037484D01*
X023756Y037282D01*
X023793Y037246D01*
X023793Y036051D01*
X023858Y035893D01*
X024738Y035014D01*
X024738Y031603D01*
X024701Y031567D01*
X024618Y031364D01*
X024618Y031146D01*
X024701Y030943D01*
X024856Y030789D01*
X025058Y030705D01*
X025277Y030705D01*
X025437Y030771D01*
X028414Y027794D01*
X028408Y027794D01*
X028184Y027701D01*
X028030Y027547D01*
X027875Y027701D01*
X027651Y027794D01*
X027408Y027794D01*
X027184Y027701D01*
X027030Y027547D01*
X026875Y027701D01*
X026651Y027794D01*
X026408Y027794D01*
X026184Y027701D01*
X026013Y027530D01*
X025920Y027306D01*
X025920Y026543D01*
X026013Y026319D01*
X026136Y026195D01*
X025950Y026009D01*
X025879Y025837D01*
X025879Y025258D01*
X025799Y025065D01*
X025799Y024846D01*
X025882Y024644D01*
X026037Y024490D01*
X026239Y024406D01*
X026458Y024406D01*
X026660Y024490D01*
X026815Y024644D01*
X026899Y024846D01*
X026899Y025040D01*
X026909Y025036D01*
X027127Y025036D01*
X027330Y025119D01*
X027366Y025156D01*
X029084Y025156D01*
X032885Y021354D01*
X032885Y021303D01*
X032899Y021271D01*
X029385Y021271D01*
X029224Y021432D01*
X028993Y021528D01*
X028744Y021528D01*
X028513Y021432D01*
X028376Y021295D01*
X028239Y021432D01*
X028009Y021528D01*
X027759Y021528D01*
X027529Y021432D01*
X027490Y021394D01*
X027452Y021432D01*
X027221Y021528D01*
X026972Y021528D01*
X026741Y021432D01*
X026567Y021258D01*
X026553Y021277D01*
X026488Y021341D01*
X026415Y021394D01*
X026334Y021436D01*
X026248Y021464D01*
X026158Y021478D01*
X026112Y021478D01*
X026112Y020901D01*
X026112Y020901D01*
X026112Y020323D01*
X026390Y020395D02*
X026716Y020395D01*
X027478Y020395D02*
X027503Y020395D01*
X028265Y020395D02*
X028488Y020395D01*
X029249Y020395D02*
X029306Y020395D01*
X029137Y019996D02*
X025844Y019996D01*
X025827Y019598D02*
X029154Y019598D01*
X029160Y019570D02*
X029136Y019674D01*
X029124Y019780D01*
X029124Y019807D01*
X030051Y019807D01*
X030051Y018881D01*
X030024Y018881D01*
X029917Y018893D01*
X029813Y018917D01*
X029712Y018952D01*
X029615Y018999D01*
X029525Y019055D01*
X029441Y019122D01*
X029365Y019198D01*
X029299Y019282D01*
X029242Y019372D01*
X029195Y019469D01*
X029160Y019570D01*
X029365Y019199D02*
X025616Y019199D01*
X024930Y019199D02*
X024877Y019199D01*
X024877Y019598D02*
X024930Y019598D01*
X024930Y019996D02*
X024877Y019996D01*
X024877Y020395D02*
X024930Y020395D01*
X025613Y021192D02*
X016019Y021192D01*
X016019Y021590D02*
X032650Y021590D01*
X032251Y021989D02*
X016019Y021989D01*
X016019Y022387D02*
X031853Y022387D01*
X031454Y022786D02*
X016019Y022786D01*
X016019Y023184D02*
X031056Y023184D01*
X030657Y023583D02*
X016019Y023583D01*
X016019Y023981D02*
X030259Y023981D01*
X029860Y024380D02*
X016019Y024380D01*
X016019Y024778D02*
X025827Y024778D01*
X025845Y025177D02*
X016019Y025177D01*
X016019Y025575D02*
X025879Y025575D01*
X025935Y025974D02*
X021641Y025974D01*
X021665Y025998D02*
X021718Y026126D01*
X021718Y027329D01*
X021665Y027457D01*
X021567Y027556D01*
X021438Y027609D01*
X020236Y027609D01*
X020107Y027556D01*
X020009Y027457D01*
X019955Y027329D01*
X019955Y026126D01*
X020009Y025998D01*
X020107Y025899D01*
X020236Y025846D01*
X021438Y025846D01*
X021567Y025899D01*
X021665Y025998D01*
X021718Y026372D02*
X025991Y026372D01*
X025920Y026771D02*
X021718Y026771D01*
X021718Y027169D02*
X025920Y027169D01*
X026050Y027568D02*
X021538Y027568D01*
X021438Y028011D02*
X021567Y028065D01*
X021665Y028163D01*
X021718Y028292D01*
X021718Y029494D01*
X021665Y029623D01*
X021567Y029721D01*
X021438Y029774D01*
X020236Y029774D01*
X020107Y029721D01*
X020009Y029623D01*
X019955Y029494D01*
X019955Y028292D01*
X020009Y028163D01*
X020107Y028065D01*
X020236Y028011D01*
X021438Y028011D01*
X021718Y028365D02*
X027844Y028365D01*
X027445Y028763D02*
X021718Y028763D01*
X021718Y029162D02*
X027047Y029162D01*
X026648Y029560D02*
X021691Y029560D01*
X019983Y029560D02*
X016019Y029560D01*
X016019Y029162D02*
X019955Y029162D01*
X019955Y028763D02*
X016019Y028763D01*
X016019Y028365D02*
X019955Y028365D01*
X020136Y027568D02*
X016019Y027568D01*
X016019Y027966D02*
X028242Y027966D01*
X028050Y027568D02*
X028009Y027568D01*
X027050Y027568D02*
X027009Y027568D01*
X026250Y029959D02*
X016019Y029959D01*
X016019Y030357D02*
X025851Y030357D01*
X025453Y030756D02*
X025399Y030756D01*
X024936Y030756D02*
X016019Y030756D01*
X016019Y031154D02*
X024618Y031154D01*
X024696Y031553D02*
X016019Y031553D01*
X016019Y031951D02*
X024738Y031951D01*
X024738Y032350D02*
X016019Y032350D01*
X016019Y032748D02*
X024738Y032748D01*
X024738Y033147D02*
X016019Y033147D01*
X016019Y033545D02*
X024738Y033545D01*
X024738Y033944D02*
X016019Y033944D01*
X016019Y034342D02*
X024738Y034342D01*
X024738Y034741D02*
X016019Y034741D01*
X016019Y035139D02*
X017680Y035139D01*
X017554Y035191D02*
X017896Y035049D01*
X018266Y035049D01*
X018608Y035191D01*
X018869Y035453D01*
X019011Y035794D01*
X019011Y036164D01*
X018869Y036506D01*
X018608Y036768D01*
X018266Y036909D01*
X017896Y036909D01*
X017554Y036768D01*
X017293Y036506D01*
X017151Y036164D01*
X017151Y035794D01*
X017293Y035453D01*
X017554Y035191D01*
X017257Y035538D02*
X016019Y035538D01*
X016019Y035936D02*
X017151Y035936D01*
X017222Y036335D02*
X016019Y036335D01*
X016019Y036733D02*
X017520Y036733D01*
X018642Y036733D02*
X023793Y036733D01*
X023793Y036335D02*
X018940Y036335D01*
X019011Y035936D02*
X023840Y035936D01*
X024214Y035538D02*
X018904Y035538D01*
X018482Y035139D02*
X024612Y035139D01*
X025032Y035936D02*
X025380Y035936D01*
X025380Y036335D02*
X024653Y036335D01*
X024653Y036733D02*
X025485Y036733D01*
X025655Y037132D02*
X024653Y037132D01*
X024773Y037530D02*
X026054Y037530D01*
X025689Y037165D02*
X025689Y037165D01*
X026452Y037929D02*
X024666Y037929D01*
X023780Y037929D02*
X016301Y037929D01*
X016023Y037530D02*
X023673Y037530D01*
X023793Y037132D02*
X016019Y037132D01*
X016019Y027169D02*
X019955Y027169D01*
X019955Y026771D02*
X016019Y026771D01*
X016019Y026372D02*
X019955Y026372D01*
X020033Y025974D02*
X016019Y025974D01*
X016019Y018402D02*
X039041Y018402D01*
X039041Y018004D02*
X016019Y018004D01*
X016019Y017605D02*
X039041Y017605D01*
X039041Y017207D02*
X016019Y017207D01*
X016019Y016808D02*
X039041Y016808D01*
X039041Y016410D02*
X016019Y016410D01*
X016019Y014417D02*
X022030Y014417D01*
X022048Y014448D02*
X022003Y014370D01*
X021968Y014286D01*
X021944Y014198D01*
X021933Y014108D01*
X021933Y014062D01*
X023020Y014062D01*
X023020Y014062D01*
X023020Y014062D01*
X023020Y014756D01*
X022581Y014756D01*
X022491Y014744D01*
X022403Y014720D01*
X022319Y014686D01*
X022240Y014640D01*
X022168Y014585D01*
X022104Y014520D01*
X022048Y014448D01*
X021933Y014019D02*
X016019Y014019D01*
X016019Y013620D02*
X022091Y013620D01*
X023020Y013620D02*
X023020Y013620D01*
X023020Y014019D02*
X023020Y014019D01*
X023020Y014417D02*
X023020Y014417D01*
X023086Y013222D02*
X016019Y013222D01*
X016019Y012823D02*
X023047Y012823D01*
X023287Y012425D02*
X016019Y012425D01*
X016019Y012026D02*
X039041Y012026D01*
X039041Y011628D02*
X016019Y011628D01*
X016019Y011229D02*
X039041Y011229D01*
X039041Y010831D02*
X016019Y010831D01*
X016019Y010432D02*
X039041Y010432D01*
X039041Y010034D02*
X037415Y010034D01*
X037505Y009996D02*
X037164Y010138D01*
X036794Y010138D01*
X036452Y009996D01*
X036190Y009735D01*
X036049Y009393D01*
X036049Y009023D01*
X036190Y008681D01*
X036452Y008419D01*
X036794Y008278D01*
X037164Y008278D01*
X037505Y008419D01*
X037767Y008681D01*
X037909Y009023D01*
X037909Y009393D01*
X037767Y009735D01*
X037505Y009996D01*
X037808Y009635D02*
X039041Y009635D01*
X039041Y009237D02*
X037909Y009237D01*
X037832Y008838D02*
X039041Y008838D01*
X039041Y008440D02*
X037526Y008440D01*
X036432Y008440D02*
X018628Y008440D01*
X018608Y008419D02*
X018869Y008681D01*
X019011Y009023D01*
X019011Y009393D01*
X018869Y009735D01*
X018608Y009996D01*
X018266Y010138D01*
X017896Y010138D01*
X017554Y009996D01*
X017293Y009735D01*
X017151Y009393D01*
X017151Y009023D01*
X017293Y008681D01*
X017554Y008419D01*
X017896Y008278D01*
X018266Y008278D01*
X018608Y008419D01*
X018934Y008838D02*
X036125Y008838D01*
X036049Y009237D02*
X019011Y009237D01*
X018911Y009635D02*
X036149Y009635D01*
X036542Y010034D02*
X018517Y010034D01*
X017645Y010034D02*
X016019Y010034D01*
X016019Y009635D02*
X017251Y009635D01*
X017151Y009237D02*
X016019Y009237D01*
X016019Y008838D02*
X017228Y008838D01*
X017534Y008440D02*
X016019Y008440D01*
X016022Y008041D02*
X039041Y008041D01*
X039041Y007643D02*
X016025Y007643D01*
X016327Y007244D02*
X038837Y007244D01*
X029965Y013620D02*
X024732Y013620D01*
X030051Y019199D02*
X030103Y019199D01*
X030103Y019598D02*
X030051Y019598D01*
X031000Y019598D02*
X039041Y019598D01*
X039041Y019996D02*
X031017Y019996D01*
X030848Y020395D02*
X033642Y020395D01*
X034296Y020395D02*
X039041Y020395D01*
X039041Y020793D02*
X034519Y020793D01*
X034401Y021192D02*
X035294Y021192D01*
X035331Y021101D02*
X035486Y020946D01*
X035688Y020862D01*
X035907Y020862D01*
X036100Y020942D01*
X037070Y020942D01*
X037263Y020862D01*
X037482Y020862D01*
X037684Y020946D01*
X037839Y021101D01*
X037922Y021303D01*
X037922Y021522D01*
X037839Y021724D01*
X037684Y021879D01*
X037482Y021962D01*
X037263Y021962D01*
X037070Y021882D01*
X036100Y021882D01*
X035907Y021962D01*
X035688Y021962D01*
X035486Y021879D01*
X035331Y021724D01*
X035248Y021522D01*
X035248Y021303D01*
X035331Y021101D01*
X035276Y021590D02*
X033957Y021590D01*
X033467Y021989D02*
X039041Y021989D01*
X039041Y022387D02*
X033069Y022387D01*
X032859Y022786D02*
X032670Y022786D01*
X032630Y023184D02*
X032272Y023184D01*
X032232Y023583D02*
X031873Y023583D01*
X032651Y024380D02*
X037082Y024380D01*
X038348Y024380D02*
X039041Y024380D01*
X039041Y024778D02*
X038365Y024778D01*
X038358Y025177D02*
X039041Y025177D01*
X039041Y025575D02*
X038329Y025575D01*
X038343Y025974D02*
X039041Y025974D01*
X039041Y026372D02*
X038401Y026372D01*
X038828Y026771D02*
X039041Y026771D01*
X039041Y027169D02*
X038945Y027169D01*
X038945Y027568D02*
X039041Y027568D01*
X039041Y027966D02*
X038945Y027966D01*
X038945Y028365D02*
X039041Y028365D01*
X039041Y028763D02*
X038945Y028763D01*
X038945Y029162D02*
X039041Y029162D01*
X039041Y029560D02*
X038945Y029560D01*
X038945Y029959D02*
X039041Y029959D01*
X039041Y030357D02*
X038945Y030357D01*
X038945Y030756D02*
X039041Y030756D01*
X039041Y031154D02*
X038945Y031154D01*
X038945Y031553D02*
X039041Y031553D01*
X039041Y031951D02*
X038945Y031951D01*
X038945Y032350D02*
X039041Y032350D01*
X039041Y032748D02*
X038945Y032748D01*
X038945Y033147D02*
X039041Y033147D01*
X039041Y033545D02*
X038945Y033545D01*
X038945Y033944D02*
X039041Y033944D01*
X039041Y034342D02*
X038945Y034342D01*
X038945Y034741D02*
X039041Y034741D01*
X039041Y035139D02*
X038945Y035139D01*
X038945Y035538D02*
X039041Y035538D01*
X039041Y035936D02*
X038945Y035936D01*
X038945Y036335D02*
X039041Y036335D01*
X039041Y036733D02*
X038858Y036733D01*
X039041Y037132D02*
X038460Y037132D01*
X038061Y037530D02*
X039041Y037530D01*
X038857Y037929D02*
X037663Y037929D01*
X029462Y024778D02*
X026870Y024778D01*
X026112Y021192D02*
X026112Y021192D01*
X026112Y020793D02*
X026112Y020793D01*
X033050Y023981D02*
X039041Y023981D01*
X039041Y023583D02*
X033618Y023583D01*
X033828Y023184D02*
X039041Y023184D01*
X039041Y022786D02*
X033696Y022786D01*
X037894Y021590D02*
X039041Y021590D01*
X039041Y021192D02*
X037876Y021192D01*
M02*
