G75*
G70*
%OFA0B0*%
%FSLAX24Y24*%
%IPPOS*%
%LPD*%
%AMOC8*
5,1,8,0,0,1.08239X$1,22.5*
%
%ADD10C,0.0000*%
%ADD11C,0.0827*%
%ADD12C,0.1346*%
%ADD13C,0.0594*%
%ADD14C,0.0560*%
%ADD15R,0.0640X0.0640*%
%ADD16C,0.0640*%
%ADD17C,0.1300*%
%ADD18R,0.1103X0.1103*%
%ADD19R,0.0631X0.0552*%
%ADD20R,0.0552X0.0631*%
%ADD21C,0.0780*%
%ADD22R,0.1540X0.0800*%
%ADD23R,0.0276X0.0906*%
%ADD24R,0.0906X0.0276*%
%ADD25R,0.1103X0.0670*%
%ADD26R,0.0591X0.1536*%
%ADD27R,0.1300X0.1300*%
%ADD28R,0.2481X0.2166*%
%ADD29R,0.0670X0.0434*%
%ADD30R,0.0434X0.0591*%
%ADD31R,0.0749X0.1300*%
%ADD32C,0.0640*%
%ADD33R,0.0631X0.0827*%
%ADD34R,0.1536X0.0827*%
%ADD35R,0.1142X0.1536*%
%ADD36R,0.1536X0.1142*%
%ADD37R,0.0985X0.0985*%
%ADD38R,0.0394X0.0316*%
%ADD39C,0.0827*%
%ADD40C,0.0591*%
D10*
X015719Y008027D02*
X015719Y037160D01*
X015718Y037160D02*
X015708Y037220D01*
X015702Y037280D01*
X015699Y037341D01*
X015700Y037401D01*
X015704Y037462D01*
X015713Y037522D01*
X015724Y037581D01*
X015740Y037640D01*
X015759Y037698D01*
X015781Y037754D01*
X015807Y037809D01*
X015836Y037862D01*
X015868Y037914D01*
X015903Y037963D01*
X015941Y038011D01*
X015982Y038055D01*
X016025Y038098D01*
X016071Y038137D01*
X016119Y038174D01*
X016170Y038208D01*
X016222Y038238D01*
X016276Y038266D01*
X016332Y038290D01*
X016389Y038311D01*
X016447Y038328D01*
X016506Y038342D01*
X038553Y038342D01*
X038553Y038341D02*
X038607Y038339D01*
X038660Y038334D01*
X038713Y038325D01*
X038765Y038312D01*
X038817Y038296D01*
X038867Y038276D01*
X038915Y038253D01*
X038962Y038226D01*
X039007Y038197D01*
X039050Y038164D01*
X039090Y038129D01*
X039128Y038091D01*
X039163Y038051D01*
X039196Y038008D01*
X039225Y037963D01*
X039252Y037916D01*
X039275Y037868D01*
X039295Y037818D01*
X039311Y037766D01*
X039324Y037714D01*
X039333Y037661D01*
X039338Y037608D01*
X039340Y037554D01*
X039341Y037554D02*
X039341Y007633D01*
X039340Y007633D02*
X039338Y007579D01*
X039333Y007526D01*
X039324Y007473D01*
X039311Y007421D01*
X039295Y007369D01*
X039275Y007319D01*
X039252Y007271D01*
X039225Y007224D01*
X039196Y007179D01*
X039163Y007136D01*
X039128Y007096D01*
X039090Y007058D01*
X039050Y007023D01*
X039007Y006990D01*
X038962Y006961D01*
X038915Y006934D01*
X038867Y006911D01*
X038817Y006891D01*
X038765Y006875D01*
X038713Y006862D01*
X038660Y006853D01*
X038607Y006848D01*
X038553Y006846D01*
X016506Y006846D01*
X016506Y006845D02*
X016447Y006859D01*
X016389Y006876D01*
X016332Y006897D01*
X016276Y006921D01*
X016222Y006949D01*
X016170Y006979D01*
X016119Y007013D01*
X016071Y007050D01*
X016025Y007089D01*
X015982Y007132D01*
X015941Y007176D01*
X015903Y007224D01*
X015868Y007273D01*
X015836Y007325D01*
X015807Y007378D01*
X015781Y007433D01*
X015759Y007489D01*
X015740Y007547D01*
X015724Y007606D01*
X015713Y007665D01*
X015704Y007725D01*
X015700Y007786D01*
X015699Y007846D01*
X015702Y007907D01*
X015708Y007967D01*
X015718Y008027D01*
X017451Y009208D02*
X017453Y009258D01*
X017459Y009308D01*
X017469Y009357D01*
X017483Y009405D01*
X017500Y009452D01*
X017521Y009497D01*
X017546Y009541D01*
X017574Y009582D01*
X017606Y009621D01*
X017640Y009658D01*
X017677Y009692D01*
X017717Y009722D01*
X017759Y009749D01*
X017803Y009773D01*
X017849Y009794D01*
X017896Y009810D01*
X017944Y009823D01*
X017994Y009832D01*
X018043Y009837D01*
X018094Y009838D01*
X018144Y009835D01*
X018193Y009828D01*
X018242Y009817D01*
X018290Y009802D01*
X018336Y009784D01*
X018381Y009762D01*
X018424Y009736D01*
X018465Y009707D01*
X018504Y009675D01*
X018540Y009640D01*
X018572Y009602D01*
X018602Y009562D01*
X018629Y009519D01*
X018652Y009475D01*
X018671Y009429D01*
X018687Y009381D01*
X018699Y009332D01*
X018707Y009283D01*
X018711Y009233D01*
X018711Y009183D01*
X018707Y009133D01*
X018699Y009084D01*
X018687Y009035D01*
X018671Y008987D01*
X018652Y008941D01*
X018629Y008897D01*
X018602Y008854D01*
X018572Y008814D01*
X018540Y008776D01*
X018504Y008741D01*
X018465Y008709D01*
X018424Y008680D01*
X018381Y008654D01*
X018336Y008632D01*
X018290Y008614D01*
X018242Y008599D01*
X018193Y008588D01*
X018144Y008581D01*
X018094Y008578D01*
X018043Y008579D01*
X017994Y008584D01*
X017944Y008593D01*
X017896Y008606D01*
X017849Y008622D01*
X017803Y008643D01*
X017759Y008667D01*
X017717Y008694D01*
X017677Y008724D01*
X017640Y008758D01*
X017606Y008795D01*
X017574Y008834D01*
X017546Y008875D01*
X017521Y008919D01*
X017500Y008964D01*
X017483Y009011D01*
X017469Y009059D01*
X017459Y009108D01*
X017453Y009158D01*
X017451Y009208D01*
X036349Y009208D02*
X036351Y009258D01*
X036357Y009308D01*
X036367Y009357D01*
X036381Y009405D01*
X036398Y009452D01*
X036419Y009497D01*
X036444Y009541D01*
X036472Y009582D01*
X036504Y009621D01*
X036538Y009658D01*
X036575Y009692D01*
X036615Y009722D01*
X036657Y009749D01*
X036701Y009773D01*
X036747Y009794D01*
X036794Y009810D01*
X036842Y009823D01*
X036892Y009832D01*
X036941Y009837D01*
X036992Y009838D01*
X037042Y009835D01*
X037091Y009828D01*
X037140Y009817D01*
X037188Y009802D01*
X037234Y009784D01*
X037279Y009762D01*
X037322Y009736D01*
X037363Y009707D01*
X037402Y009675D01*
X037438Y009640D01*
X037470Y009602D01*
X037500Y009562D01*
X037527Y009519D01*
X037550Y009475D01*
X037569Y009429D01*
X037585Y009381D01*
X037597Y009332D01*
X037605Y009283D01*
X037609Y009233D01*
X037609Y009183D01*
X037605Y009133D01*
X037597Y009084D01*
X037585Y009035D01*
X037569Y008987D01*
X037550Y008941D01*
X037527Y008897D01*
X037500Y008854D01*
X037470Y008814D01*
X037438Y008776D01*
X037402Y008741D01*
X037363Y008709D01*
X037322Y008680D01*
X037279Y008654D01*
X037234Y008632D01*
X037188Y008614D01*
X037140Y008599D01*
X037091Y008588D01*
X037042Y008581D01*
X036992Y008578D01*
X036941Y008579D01*
X036892Y008584D01*
X036842Y008593D01*
X036794Y008606D01*
X036747Y008622D01*
X036701Y008643D01*
X036657Y008667D01*
X036615Y008694D01*
X036575Y008724D01*
X036538Y008758D01*
X036504Y008795D01*
X036472Y008834D01*
X036444Y008875D01*
X036419Y008919D01*
X036398Y008964D01*
X036381Y009011D01*
X036367Y009059D01*
X036357Y009108D01*
X036351Y009158D01*
X036349Y009208D01*
X036349Y035979D02*
X036351Y036029D01*
X036357Y036079D01*
X036367Y036128D01*
X036381Y036176D01*
X036398Y036223D01*
X036419Y036268D01*
X036444Y036312D01*
X036472Y036353D01*
X036504Y036392D01*
X036538Y036429D01*
X036575Y036463D01*
X036615Y036493D01*
X036657Y036520D01*
X036701Y036544D01*
X036747Y036565D01*
X036794Y036581D01*
X036842Y036594D01*
X036892Y036603D01*
X036941Y036608D01*
X036992Y036609D01*
X037042Y036606D01*
X037091Y036599D01*
X037140Y036588D01*
X037188Y036573D01*
X037234Y036555D01*
X037279Y036533D01*
X037322Y036507D01*
X037363Y036478D01*
X037402Y036446D01*
X037438Y036411D01*
X037470Y036373D01*
X037500Y036333D01*
X037527Y036290D01*
X037550Y036246D01*
X037569Y036200D01*
X037585Y036152D01*
X037597Y036103D01*
X037605Y036054D01*
X037609Y036004D01*
X037609Y035954D01*
X037605Y035904D01*
X037597Y035855D01*
X037585Y035806D01*
X037569Y035758D01*
X037550Y035712D01*
X037527Y035668D01*
X037500Y035625D01*
X037470Y035585D01*
X037438Y035547D01*
X037402Y035512D01*
X037363Y035480D01*
X037322Y035451D01*
X037279Y035425D01*
X037234Y035403D01*
X037188Y035385D01*
X037140Y035370D01*
X037091Y035359D01*
X037042Y035352D01*
X036992Y035349D01*
X036941Y035350D01*
X036892Y035355D01*
X036842Y035364D01*
X036794Y035377D01*
X036747Y035393D01*
X036701Y035414D01*
X036657Y035438D01*
X036615Y035465D01*
X036575Y035495D01*
X036538Y035529D01*
X036504Y035566D01*
X036472Y035605D01*
X036444Y035646D01*
X036419Y035690D01*
X036398Y035735D01*
X036381Y035782D01*
X036367Y035830D01*
X036357Y035879D01*
X036351Y035929D01*
X036349Y035979D01*
X017451Y035979D02*
X017453Y036029D01*
X017459Y036079D01*
X017469Y036128D01*
X017483Y036176D01*
X017500Y036223D01*
X017521Y036268D01*
X017546Y036312D01*
X017574Y036353D01*
X017606Y036392D01*
X017640Y036429D01*
X017677Y036463D01*
X017717Y036493D01*
X017759Y036520D01*
X017803Y036544D01*
X017849Y036565D01*
X017896Y036581D01*
X017944Y036594D01*
X017994Y036603D01*
X018043Y036608D01*
X018094Y036609D01*
X018144Y036606D01*
X018193Y036599D01*
X018242Y036588D01*
X018290Y036573D01*
X018336Y036555D01*
X018381Y036533D01*
X018424Y036507D01*
X018465Y036478D01*
X018504Y036446D01*
X018540Y036411D01*
X018572Y036373D01*
X018602Y036333D01*
X018629Y036290D01*
X018652Y036246D01*
X018671Y036200D01*
X018687Y036152D01*
X018699Y036103D01*
X018707Y036054D01*
X018711Y036004D01*
X018711Y035954D01*
X018707Y035904D01*
X018699Y035855D01*
X018687Y035806D01*
X018671Y035758D01*
X018652Y035712D01*
X018629Y035668D01*
X018602Y035625D01*
X018572Y035585D01*
X018540Y035547D01*
X018504Y035512D01*
X018465Y035480D01*
X018424Y035451D01*
X018381Y035425D01*
X018336Y035403D01*
X018290Y035385D01*
X018242Y035370D01*
X018193Y035359D01*
X018144Y035352D01*
X018094Y035349D01*
X018043Y035350D01*
X017994Y035355D01*
X017944Y035364D01*
X017896Y035377D01*
X017849Y035393D01*
X017803Y035414D01*
X017759Y035438D01*
X017717Y035465D01*
X017677Y035495D01*
X017640Y035529D01*
X017606Y035566D01*
X017574Y035605D01*
X017546Y035646D01*
X017521Y035690D01*
X017500Y035735D01*
X017483Y035782D01*
X017469Y035830D01*
X017459Y035879D01*
X017453Y035929D01*
X017451Y035979D01*
D11*
X025500Y015558D02*
X025500Y014771D01*
X024516Y012960D02*
X023729Y012960D01*
X023414Y014062D02*
X022626Y014062D01*
X030500Y014062D02*
X031288Y014062D01*
X031603Y012960D02*
X032390Y012960D01*
X033374Y014771D02*
X033374Y015558D01*
D12*
X030077Y019834D03*
X024904Y019834D03*
D13*
X026112Y020901D03*
X027097Y020901D03*
X027884Y020901D03*
X028868Y020901D03*
D14*
X028530Y026664D02*
X028530Y027184D01*
X027530Y027184D02*
X027530Y026664D01*
X026530Y026664D02*
X026530Y027184D01*
D15*
X037715Y028790D03*
X037715Y024790D03*
D16*
X037715Y025790D03*
X037715Y026790D03*
X037715Y027790D03*
D17*
X036979Y035979D03*
X018081Y035979D03*
X018081Y009208D03*
X036979Y009208D03*
D18*
X020837Y026727D03*
X020837Y028893D03*
D19*
X025561Y022968D03*
X025561Y022220D03*
X026742Y022220D03*
X026742Y022968D03*
X028317Y022968D03*
X028317Y022220D03*
X029498Y022220D03*
X029498Y022968D03*
X033435Y019818D03*
X033435Y019070D03*
X037372Y018637D03*
X037372Y017889D03*
X037372Y019857D03*
X037372Y020605D03*
X035404Y026550D03*
X035404Y027298D03*
X030679Y030094D03*
X030679Y030842D03*
X029892Y032849D03*
X029892Y033598D03*
X036585Y034031D03*
X036585Y034779D03*
D20*
X034203Y024168D03*
X033455Y024168D03*
X035030Y022594D03*
X035778Y022594D03*
X036998Y022594D03*
X037746Y022594D03*
X036565Y017082D03*
X035817Y017082D03*
X025542Y025743D03*
X024794Y025743D03*
X024794Y026924D03*
X025542Y026924D03*
X023298Y035192D03*
X022549Y035192D03*
X022549Y036373D03*
X023298Y036373D03*
X023298Y037515D03*
X022549Y037515D03*
D21*
X026250Y034113D03*
X026250Y032333D03*
X028810Y032333D03*
X028810Y034113D03*
D22*
X024380Y033893D03*
X024380Y032554D03*
D23*
X026030Y030704D03*
X026530Y030704D03*
X027030Y030704D03*
X027530Y030704D03*
X028030Y030704D03*
X028530Y030704D03*
X029030Y030704D03*
X029030Y028657D03*
X028530Y028657D03*
X028030Y028657D03*
X027530Y028657D03*
X027030Y028657D03*
X026530Y028657D03*
X026030Y028657D03*
X035048Y020468D03*
X035548Y020468D03*
X036048Y020468D03*
X036548Y020468D03*
X036548Y018420D03*
X036048Y018420D03*
X035548Y018420D03*
X035048Y018420D03*
D24*
X030916Y011495D03*
X030916Y010995D03*
X030916Y010495D03*
X030916Y009995D03*
X030916Y009495D03*
X030916Y008995D03*
X030916Y008495D03*
X027294Y008495D03*
X027294Y008995D03*
X027294Y009495D03*
X027294Y009995D03*
X027294Y010495D03*
X027294Y010995D03*
X027294Y011495D03*
D25*
X033042Y009759D03*
X033042Y008657D03*
X031073Y035428D03*
X031073Y036531D03*
D26*
X024774Y011570D03*
X024774Y009208D03*
D27*
X019065Y013578D03*
X019065Y019798D03*
D28*
X031664Y026924D03*
D29*
X034538Y026027D03*
X034538Y027822D03*
D30*
X035798Y024995D03*
X036172Y024129D03*
X035423Y024129D03*
D31*
X035876Y015507D03*
X038081Y015507D03*
D32*
X029030Y035679D02*
X029030Y036279D01*
X028030Y036279D02*
X028030Y035679D01*
X027030Y035679D02*
X027030Y036279D01*
X026030Y036279D02*
X026030Y035679D01*
D33*
X033317Y036432D03*
X034223Y036432D03*
X035128Y036432D03*
D34*
X034223Y033952D03*
D35*
X034735Y030468D03*
X037648Y030468D03*
D36*
X017687Y025625D03*
X017687Y022712D03*
D37*
X020364Y009601D03*
X022097Y009601D03*
D38*
X031860Y030212D03*
X031860Y030723D03*
D39*
X021624Y020625D03*
X030679Y017869D03*
D40*
X034538Y025113D03*
X035404Y028499D03*
X030679Y031649D03*
M02*
