G75*
G70*
%OFA0B0*%
%FSLAX24Y24*%
%IPPOS*%
%LPD*%
%AMOC8*
5,1,8,0,0,1.08239X$1,22.5*
%
%ADD10C,0.0000*%
%ADD11C,0.0787*%
%ADD12C,0.1306*%
%ADD13C,0.0554*%
%ADD14C,0.0520*%
%ADD15R,0.0600X0.0600*%
%ADD16C,0.0600*%
%ADD17R,0.1063X0.1063*%
%ADD18R,0.0591X0.0512*%
%ADD19R,0.0512X0.0591*%
%ADD20C,0.0740*%
%ADD21R,0.1500X0.0760*%
%ADD22R,0.0236X0.0866*%
%ADD23R,0.0866X0.0236*%
%ADD24R,0.1063X0.0630*%
%ADD25R,0.0551X0.1496*%
%ADD26R,0.1260X0.1260*%
%ADD27R,0.2441X0.2126*%
%ADD28R,0.0630X0.0394*%
%ADD29R,0.0394X0.0551*%
%ADD30R,0.0709X0.1260*%
%ADD31C,0.0600*%
%ADD32R,0.0591X0.0787*%
%ADD33R,0.1496X0.0787*%
%ADD34R,0.1102X0.1496*%
%ADD35R,0.1496X0.1102*%
%ADD36R,0.0945X0.0945*%
%ADD37R,0.0354X0.0276*%
%ADD38C,0.0787*%
%ADD39C,0.0551*%
%ADD40C,0.0160*%
%ADD41C,0.0240*%
%ADD42C,0.0320*%
%ADD43C,0.0150*%
%ADD44C,0.0400*%
%ADD45C,0.0400*%
%ADD46C,0.0660*%
%ADD47C,0.0500*%
%ADD48C,0.0560*%
D10*
X015719Y008027D02*
X015719Y037160D01*
X015718Y037160D02*
X015708Y037220D01*
X015702Y037280D01*
X015699Y037341D01*
X015700Y037401D01*
X015704Y037462D01*
X015713Y037522D01*
X015724Y037581D01*
X015740Y037640D01*
X015759Y037698D01*
X015781Y037754D01*
X015807Y037809D01*
X015836Y037862D01*
X015868Y037914D01*
X015903Y037963D01*
X015941Y038011D01*
X015982Y038055D01*
X016025Y038098D01*
X016071Y038137D01*
X016119Y038174D01*
X016170Y038208D01*
X016222Y038238D01*
X016276Y038266D01*
X016332Y038290D01*
X016389Y038311D01*
X016447Y038328D01*
X016506Y038342D01*
X038553Y038342D01*
X038553Y038341D02*
X038607Y038339D01*
X038660Y038334D01*
X038713Y038325D01*
X038765Y038312D01*
X038817Y038296D01*
X038867Y038276D01*
X038915Y038253D01*
X038962Y038226D01*
X039007Y038197D01*
X039050Y038164D01*
X039090Y038129D01*
X039128Y038091D01*
X039163Y038051D01*
X039196Y038008D01*
X039225Y037963D01*
X039252Y037916D01*
X039275Y037868D01*
X039295Y037818D01*
X039311Y037766D01*
X039324Y037714D01*
X039333Y037661D01*
X039338Y037608D01*
X039340Y037554D01*
X039341Y037554D02*
X039341Y007633D01*
X039340Y007633D02*
X039338Y007579D01*
X039333Y007526D01*
X039324Y007473D01*
X039311Y007421D01*
X039295Y007369D01*
X039275Y007319D01*
X039252Y007271D01*
X039225Y007224D01*
X039196Y007179D01*
X039163Y007136D01*
X039128Y007096D01*
X039090Y007058D01*
X039050Y007023D01*
X039007Y006990D01*
X038962Y006961D01*
X038915Y006934D01*
X038867Y006911D01*
X038817Y006891D01*
X038765Y006875D01*
X038713Y006862D01*
X038660Y006853D01*
X038607Y006848D01*
X038553Y006846D01*
X016506Y006846D01*
X016506Y006845D02*
X016447Y006859D01*
X016389Y006876D01*
X016332Y006897D01*
X016276Y006921D01*
X016222Y006949D01*
X016170Y006979D01*
X016119Y007013D01*
X016071Y007050D01*
X016025Y007089D01*
X015982Y007132D01*
X015941Y007176D01*
X015903Y007224D01*
X015868Y007273D01*
X015836Y007325D01*
X015807Y007378D01*
X015781Y007433D01*
X015759Y007489D01*
X015740Y007547D01*
X015724Y007606D01*
X015713Y007665D01*
X015704Y007725D01*
X015700Y007786D01*
X015699Y007846D01*
X015702Y007907D01*
X015708Y007967D01*
X015718Y008027D01*
X017451Y009208D02*
X017453Y009258D01*
X017459Y009308D01*
X017469Y009357D01*
X017483Y009405D01*
X017500Y009452D01*
X017521Y009497D01*
X017546Y009541D01*
X017574Y009582D01*
X017606Y009621D01*
X017640Y009658D01*
X017677Y009692D01*
X017717Y009722D01*
X017759Y009749D01*
X017803Y009773D01*
X017849Y009794D01*
X017896Y009810D01*
X017944Y009823D01*
X017994Y009832D01*
X018043Y009837D01*
X018094Y009838D01*
X018144Y009835D01*
X018193Y009828D01*
X018242Y009817D01*
X018290Y009802D01*
X018336Y009784D01*
X018381Y009762D01*
X018424Y009736D01*
X018465Y009707D01*
X018504Y009675D01*
X018540Y009640D01*
X018572Y009602D01*
X018602Y009562D01*
X018629Y009519D01*
X018652Y009475D01*
X018671Y009429D01*
X018687Y009381D01*
X018699Y009332D01*
X018707Y009283D01*
X018711Y009233D01*
X018711Y009183D01*
X018707Y009133D01*
X018699Y009084D01*
X018687Y009035D01*
X018671Y008987D01*
X018652Y008941D01*
X018629Y008897D01*
X018602Y008854D01*
X018572Y008814D01*
X018540Y008776D01*
X018504Y008741D01*
X018465Y008709D01*
X018424Y008680D01*
X018381Y008654D01*
X018336Y008632D01*
X018290Y008614D01*
X018242Y008599D01*
X018193Y008588D01*
X018144Y008581D01*
X018094Y008578D01*
X018043Y008579D01*
X017994Y008584D01*
X017944Y008593D01*
X017896Y008606D01*
X017849Y008622D01*
X017803Y008643D01*
X017759Y008667D01*
X017717Y008694D01*
X017677Y008724D01*
X017640Y008758D01*
X017606Y008795D01*
X017574Y008834D01*
X017546Y008875D01*
X017521Y008919D01*
X017500Y008964D01*
X017483Y009011D01*
X017469Y009059D01*
X017459Y009108D01*
X017453Y009158D01*
X017451Y009208D01*
X036349Y009208D02*
X036351Y009258D01*
X036357Y009308D01*
X036367Y009357D01*
X036381Y009405D01*
X036398Y009452D01*
X036419Y009497D01*
X036444Y009541D01*
X036472Y009582D01*
X036504Y009621D01*
X036538Y009658D01*
X036575Y009692D01*
X036615Y009722D01*
X036657Y009749D01*
X036701Y009773D01*
X036747Y009794D01*
X036794Y009810D01*
X036842Y009823D01*
X036892Y009832D01*
X036941Y009837D01*
X036992Y009838D01*
X037042Y009835D01*
X037091Y009828D01*
X037140Y009817D01*
X037188Y009802D01*
X037234Y009784D01*
X037279Y009762D01*
X037322Y009736D01*
X037363Y009707D01*
X037402Y009675D01*
X037438Y009640D01*
X037470Y009602D01*
X037500Y009562D01*
X037527Y009519D01*
X037550Y009475D01*
X037569Y009429D01*
X037585Y009381D01*
X037597Y009332D01*
X037605Y009283D01*
X037609Y009233D01*
X037609Y009183D01*
X037605Y009133D01*
X037597Y009084D01*
X037585Y009035D01*
X037569Y008987D01*
X037550Y008941D01*
X037527Y008897D01*
X037500Y008854D01*
X037470Y008814D01*
X037438Y008776D01*
X037402Y008741D01*
X037363Y008709D01*
X037322Y008680D01*
X037279Y008654D01*
X037234Y008632D01*
X037188Y008614D01*
X037140Y008599D01*
X037091Y008588D01*
X037042Y008581D01*
X036992Y008578D01*
X036941Y008579D01*
X036892Y008584D01*
X036842Y008593D01*
X036794Y008606D01*
X036747Y008622D01*
X036701Y008643D01*
X036657Y008667D01*
X036615Y008694D01*
X036575Y008724D01*
X036538Y008758D01*
X036504Y008795D01*
X036472Y008834D01*
X036444Y008875D01*
X036419Y008919D01*
X036398Y008964D01*
X036381Y009011D01*
X036367Y009059D01*
X036357Y009108D01*
X036351Y009158D01*
X036349Y009208D01*
X036349Y035979D02*
X036351Y036029D01*
X036357Y036079D01*
X036367Y036128D01*
X036381Y036176D01*
X036398Y036223D01*
X036419Y036268D01*
X036444Y036312D01*
X036472Y036353D01*
X036504Y036392D01*
X036538Y036429D01*
X036575Y036463D01*
X036615Y036493D01*
X036657Y036520D01*
X036701Y036544D01*
X036747Y036565D01*
X036794Y036581D01*
X036842Y036594D01*
X036892Y036603D01*
X036941Y036608D01*
X036992Y036609D01*
X037042Y036606D01*
X037091Y036599D01*
X037140Y036588D01*
X037188Y036573D01*
X037234Y036555D01*
X037279Y036533D01*
X037322Y036507D01*
X037363Y036478D01*
X037402Y036446D01*
X037438Y036411D01*
X037470Y036373D01*
X037500Y036333D01*
X037527Y036290D01*
X037550Y036246D01*
X037569Y036200D01*
X037585Y036152D01*
X037597Y036103D01*
X037605Y036054D01*
X037609Y036004D01*
X037609Y035954D01*
X037605Y035904D01*
X037597Y035855D01*
X037585Y035806D01*
X037569Y035758D01*
X037550Y035712D01*
X037527Y035668D01*
X037500Y035625D01*
X037470Y035585D01*
X037438Y035547D01*
X037402Y035512D01*
X037363Y035480D01*
X037322Y035451D01*
X037279Y035425D01*
X037234Y035403D01*
X037188Y035385D01*
X037140Y035370D01*
X037091Y035359D01*
X037042Y035352D01*
X036992Y035349D01*
X036941Y035350D01*
X036892Y035355D01*
X036842Y035364D01*
X036794Y035377D01*
X036747Y035393D01*
X036701Y035414D01*
X036657Y035438D01*
X036615Y035465D01*
X036575Y035495D01*
X036538Y035529D01*
X036504Y035566D01*
X036472Y035605D01*
X036444Y035646D01*
X036419Y035690D01*
X036398Y035735D01*
X036381Y035782D01*
X036367Y035830D01*
X036357Y035879D01*
X036351Y035929D01*
X036349Y035979D01*
X017451Y035979D02*
X017453Y036029D01*
X017459Y036079D01*
X017469Y036128D01*
X017483Y036176D01*
X017500Y036223D01*
X017521Y036268D01*
X017546Y036312D01*
X017574Y036353D01*
X017606Y036392D01*
X017640Y036429D01*
X017677Y036463D01*
X017717Y036493D01*
X017759Y036520D01*
X017803Y036544D01*
X017849Y036565D01*
X017896Y036581D01*
X017944Y036594D01*
X017994Y036603D01*
X018043Y036608D01*
X018094Y036609D01*
X018144Y036606D01*
X018193Y036599D01*
X018242Y036588D01*
X018290Y036573D01*
X018336Y036555D01*
X018381Y036533D01*
X018424Y036507D01*
X018465Y036478D01*
X018504Y036446D01*
X018540Y036411D01*
X018572Y036373D01*
X018602Y036333D01*
X018629Y036290D01*
X018652Y036246D01*
X018671Y036200D01*
X018687Y036152D01*
X018699Y036103D01*
X018707Y036054D01*
X018711Y036004D01*
X018711Y035954D01*
X018707Y035904D01*
X018699Y035855D01*
X018687Y035806D01*
X018671Y035758D01*
X018652Y035712D01*
X018629Y035668D01*
X018602Y035625D01*
X018572Y035585D01*
X018540Y035547D01*
X018504Y035512D01*
X018465Y035480D01*
X018424Y035451D01*
X018381Y035425D01*
X018336Y035403D01*
X018290Y035385D01*
X018242Y035370D01*
X018193Y035359D01*
X018144Y035352D01*
X018094Y035349D01*
X018043Y035350D01*
X017994Y035355D01*
X017944Y035364D01*
X017896Y035377D01*
X017849Y035393D01*
X017803Y035414D01*
X017759Y035438D01*
X017717Y035465D01*
X017677Y035495D01*
X017640Y035529D01*
X017606Y035566D01*
X017574Y035605D01*
X017546Y035646D01*
X017521Y035690D01*
X017500Y035735D01*
X017483Y035782D01*
X017469Y035830D01*
X017459Y035879D01*
X017453Y035929D01*
X017451Y035979D01*
D11*
X025500Y015558D02*
X025500Y014771D01*
X024516Y012960D02*
X023729Y012960D01*
X023414Y014062D02*
X022626Y014062D01*
X030500Y014062D02*
X031288Y014062D01*
X031603Y012960D02*
X032390Y012960D01*
X033374Y014771D02*
X033374Y015558D01*
D12*
X030077Y019834D03*
X024904Y019834D03*
D13*
X026112Y020901D03*
X027097Y020901D03*
X027884Y020901D03*
X028868Y020901D03*
D14*
X028530Y026664D02*
X028530Y027184D01*
X027530Y027184D02*
X027530Y026664D01*
X026530Y026664D02*
X026530Y027184D01*
D15*
X037715Y028790D03*
X037715Y024790D03*
D16*
X037715Y025790D03*
X037715Y026790D03*
X037715Y027790D03*
D17*
X020837Y026727D03*
X020837Y028893D03*
D18*
X025561Y022968D03*
X025561Y022220D03*
X026742Y022220D03*
X026742Y022968D03*
X028317Y022968D03*
X028317Y022220D03*
X029498Y022220D03*
X029498Y022968D03*
X033435Y019818D03*
X033435Y019070D03*
X037372Y018637D03*
X037372Y017889D03*
X037372Y019857D03*
X037372Y020605D03*
X035404Y026550D03*
X035404Y027298D03*
X030679Y030094D03*
X030679Y030842D03*
X029892Y032849D03*
X029892Y033598D03*
X036585Y034031D03*
X036585Y034779D03*
D19*
X034203Y024168D03*
X033455Y024168D03*
X035030Y022594D03*
X035778Y022594D03*
X036998Y022594D03*
X037746Y022594D03*
X036565Y017082D03*
X035817Y017082D03*
X025542Y025743D03*
X024794Y025743D03*
X024794Y026924D03*
X025542Y026924D03*
X023298Y035192D03*
X022549Y035192D03*
X022549Y036373D03*
X023298Y036373D03*
X023298Y037515D03*
X022549Y037515D03*
D20*
X026250Y034113D03*
X026250Y032333D03*
X028810Y032333D03*
X028810Y034113D03*
D21*
X024380Y033893D03*
X024380Y032554D03*
D22*
X026030Y030704D03*
X026530Y030704D03*
X027030Y030704D03*
X027530Y030704D03*
X028030Y030704D03*
X028530Y030704D03*
X029030Y030704D03*
X029030Y028657D03*
X028530Y028657D03*
X028030Y028657D03*
X027530Y028657D03*
X027030Y028657D03*
X026530Y028657D03*
X026030Y028657D03*
X035048Y020468D03*
X035548Y020468D03*
X036048Y020468D03*
X036548Y020468D03*
X036548Y018420D03*
X036048Y018420D03*
X035548Y018420D03*
X035048Y018420D03*
D23*
X030916Y011495D03*
X030916Y010995D03*
X030916Y010495D03*
X030916Y009995D03*
X030916Y009495D03*
X030916Y008995D03*
X030916Y008495D03*
X027294Y008495D03*
X027294Y008995D03*
X027294Y009495D03*
X027294Y009995D03*
X027294Y010495D03*
X027294Y010995D03*
X027294Y011495D03*
D24*
X033042Y009759D03*
X033042Y008657D03*
X031073Y035428D03*
X031073Y036531D03*
D25*
X024774Y011570D03*
X024774Y009208D03*
D26*
X019065Y013578D03*
X019065Y019798D03*
D27*
X031664Y026924D03*
D28*
X034538Y026027D03*
X034538Y027822D03*
D29*
X035798Y024995D03*
X036172Y024129D03*
X035423Y024129D03*
D30*
X035876Y015507D03*
X038081Y015507D03*
D31*
X029030Y035679D02*
X029030Y036279D01*
X028030Y036279D02*
X028030Y035679D01*
X027030Y035679D02*
X027030Y036279D01*
X026030Y036279D02*
X026030Y035679D01*
D32*
X033317Y036432D03*
X034223Y036432D03*
X035128Y036432D03*
D33*
X034223Y033952D03*
D34*
X034735Y030468D03*
X037648Y030468D03*
D35*
X017687Y025625D03*
X017687Y022712D03*
D36*
X020364Y009601D03*
X022097Y009601D03*
D37*
X031860Y030212D03*
X031860Y030723D03*
D38*
X021624Y020625D03*
X030679Y017869D03*
D39*
X034538Y025113D03*
X035404Y028499D03*
X030679Y031649D03*
D40*
X029892Y031649D01*
X029892Y030861D02*
X029187Y030861D01*
X029030Y030704D01*
X028530Y030704D02*
X028530Y031436D01*
X027923Y032042D01*
X027923Y033720D01*
X028317Y034113D01*
X028810Y034113D01*
X027530Y035479D02*
X028030Y035979D01*
X027530Y035479D02*
X027530Y031649D01*
X027030Y031149D01*
X027030Y030704D01*
X027530Y030704D02*
X027530Y030153D01*
X027727Y029956D01*
X029813Y029956D01*
X029656Y029483D02*
X030286Y028853D01*
X029656Y029483D02*
X028199Y029483D01*
X028030Y029314D01*
X028030Y028657D01*
X028530Y028657D02*
X028530Y028129D01*
X028750Y027909D01*
X029931Y027909D01*
X027530Y028657D02*
X027530Y029286D01*
X027333Y029483D01*
X025561Y029483D01*
X025168Y029877D01*
X025168Y031255D01*
X025679Y031649D02*
X026030Y031298D01*
X026030Y030704D01*
X026530Y030704D02*
X026530Y031436D01*
X027136Y032042D01*
X027136Y035873D01*
X027030Y035979D01*
X024223Y037594D02*
X023790Y038027D01*
X022805Y038027D01*
X022549Y037771D01*
X022549Y037515D01*
X022549Y036373D01*
X022549Y035192D01*
X023160Y034601D02*
X020443Y034601D01*
X019971Y035074D01*
X023160Y034601D02*
X023298Y034739D01*
X023298Y036373D01*
X029892Y030861D02*
X030679Y030861D01*
X030679Y030842D01*
X030719Y030802D01*
X031860Y030723D01*
X035404Y028499D02*
X035404Y027298D01*
X034538Y026027D02*
X034538Y025113D01*
X033455Y024168D02*
X033278Y023991D01*
X033278Y023145D01*
X033435Y021412D02*
X033435Y019818D01*
X031860Y017869D02*
X031860Y016678D01*
X031860Y017869D02*
X030679Y017869D01*
X027018Y025586D02*
X027030Y025991D01*
X027030Y028657D01*
X021624Y020625D02*
X021624Y018263D01*
D41*
X026349Y024956D02*
X025561Y025743D01*
X025542Y025743D01*
X024794Y025743D02*
X023986Y025743D01*
X023593Y026137D01*
X023593Y028105D01*
X023986Y028499D01*
X025872Y028499D01*
X026030Y028657D01*
X026530Y028657D02*
X026530Y028090D01*
X026152Y027712D01*
X025168Y027712D01*
X024774Y027318D01*
X024774Y026944D01*
X024794Y026924D01*
X025542Y026924D02*
X026530Y026924D01*
X029030Y028657D02*
X029735Y028657D01*
X029892Y028499D01*
X029892Y028460D01*
X029971Y028381D01*
X030798Y028381D01*
X030916Y028499D01*
X030916Y028735D01*
X031309Y029129D01*
X031309Y029464D01*
X030679Y030094D01*
X029892Y030861D02*
X029892Y031649D01*
X029892Y032849D01*
X029892Y033598D02*
X029326Y033598D01*
X028810Y034113D01*
X032648Y031649D02*
X033042Y031649D01*
X034420Y030468D02*
X034735Y030468D01*
X036979Y029798D02*
X037648Y030468D01*
X036979Y029798D02*
X036979Y026649D01*
X036860Y026531D01*
X036585Y026531D01*
X035798Y027318D01*
X035423Y027318D01*
X035404Y027298D01*
X035404Y027318D01*
X035010Y027712D01*
X034648Y027712D01*
X034538Y027822D01*
X035404Y026550D02*
X035404Y026531D01*
X035798Y026531D01*
X035798Y024995D01*
X035423Y024129D02*
X035049Y024129D01*
X035010Y024168D01*
X034203Y024168D01*
X035030Y022594D02*
X035030Y020485D01*
X035048Y020468D01*
X035548Y020468D02*
X035548Y021162D01*
X035798Y021412D01*
X036548Y020468D02*
X036548Y022556D01*
X036585Y022594D01*
X035778Y022594D01*
X036585Y022594D02*
X036998Y022594D01*
X037372Y021412D02*
X037372Y020605D01*
X037372Y019857D02*
X037372Y019247D01*
X036191Y019247D01*
X036048Y019103D01*
X036048Y018420D01*
X035548Y018420D02*
X035522Y018395D01*
X035522Y017672D01*
X035817Y017377D01*
X035817Y017082D01*
X034616Y017082D01*
X033435Y018263D01*
X033435Y019070D01*
X033435Y019818D02*
X034636Y019818D01*
X035048Y019407D01*
X035048Y018420D01*
X037372Y018637D02*
X037372Y019247D01*
X037372Y017889D02*
X037392Y017869D01*
X037766Y017869D01*
X038081Y017554D01*
X038081Y015507D01*
X038081Y014326D01*
X038042Y014286D01*
X033868Y009601D02*
X033849Y009582D01*
X033042Y009759D01*
X033022Y008814D02*
X032254Y008814D01*
X031573Y009495D01*
X030916Y009495D01*
X030392Y009495D01*
X029498Y010389D01*
X028711Y011176D02*
X028081Y010546D01*
X028081Y010507D01*
X028069Y010495D01*
X027294Y010495D01*
X027294Y009995D02*
X027294Y009546D01*
X027266Y009747D01*
X027270Y009326D01*
X027290Y009074D01*
X024774Y009208D01*
X027290Y009074D02*
X027294Y008995D01*
X027294Y009495D02*
X027266Y009747D01*
X030916Y010495D02*
X031967Y010495D01*
X032254Y010783D01*
X033022Y008814D02*
X033042Y008657D01*
X034538Y026027D02*
X034648Y026137D01*
X035010Y026137D01*
X035404Y026531D01*
D42*
X033120Y032849D02*
X030469Y032849D01*
X029892Y032849D01*
X033120Y032849D02*
X034223Y033952D01*
X036506Y033952D01*
X036585Y034031D01*
X027923Y023775D02*
X025955Y023775D01*
X025561Y023381D01*
X025561Y022968D01*
X024754Y022968D01*
X023593Y021806D01*
X023593Y018263D01*
X027097Y020901D02*
X027097Y021865D01*
X026742Y022220D01*
X025561Y022220D01*
X027884Y021786D02*
X027884Y020901D01*
X028711Y020743D02*
X028868Y020901D01*
X028711Y020743D02*
X028711Y018657D01*
X027884Y021786D02*
X028317Y022220D01*
X029498Y022220D01*
X028317Y022968D02*
X028317Y023381D01*
X027923Y023775D01*
X024122Y012960D02*
X023335Y012926D01*
X023357Y009208D01*
X024774Y009208D01*
X023357Y009208D02*
X022097Y009601D01*
X024380Y036767D02*
X023593Y037554D01*
X023298Y037515D01*
D43*
X029030Y035979D02*
X029219Y035846D01*
X030469Y034596D01*
X030469Y032849D01*
X030469Y032846D01*
X036469Y033846D02*
X036469Y027346D01*
X036469Y033846D02*
X036585Y034031D01*
X034969Y020846D02*
X033969Y020846D01*
X034969Y020846D02*
X035048Y020468D01*
X035469Y020596D02*
X035548Y020468D01*
X035469Y020596D02*
X035969Y020596D01*
X036048Y020468D01*
X028711Y013596D02*
X028469Y013596D01*
X026075Y012383D01*
X024894Y011739D01*
X024825Y011670D01*
X024774Y011570D01*
D44*
X033435Y021412D03*
X033969Y020846D03*
X035798Y021412D03*
X037372Y021412D03*
X033278Y023145D03*
X036469Y027346D03*
X032648Y031649D03*
X029813Y029956D03*
X030286Y028853D03*
X029931Y027909D03*
X027018Y025586D03*
X026349Y024956D03*
X027469Y023096D03*
X025168Y031255D03*
X025679Y031649D03*
X024223Y037594D03*
X038042Y014286D03*
X033868Y009601D03*
D45*
X035150Y011139D02*
X034973Y011317D01*
X034742Y011413D01*
X032129Y011413D01*
X031897Y011317D01*
X031720Y011139D01*
X031699Y011088D01*
X031699Y011183D01*
X031673Y011245D01*
X031699Y011307D01*
X031699Y011683D01*
X031645Y011812D01*
X031547Y011910D01*
X031418Y011963D01*
X030413Y011963D01*
X030284Y011910D01*
X030186Y011812D01*
X030133Y011683D01*
X030133Y011307D01*
X030158Y011245D01*
X030133Y011183D01*
X030133Y010807D01*
X030158Y010745D01*
X030133Y010683D01*
X030133Y010419D01*
X030098Y010454D01*
X030098Y013424D01*
X030352Y013318D01*
X030946Y013318D01*
X030859Y013108D01*
X030859Y012812D01*
X030972Y012538D01*
X031181Y012329D01*
X031455Y012216D01*
X032538Y012216D01*
X032811Y012329D01*
X033021Y012538D01*
X033134Y012812D01*
X033134Y013108D01*
X033021Y013381D01*
X032811Y013590D01*
X032538Y013703D01*
X031944Y013703D01*
X032031Y013914D01*
X032031Y014210D01*
X031918Y014483D01*
X031837Y014564D01*
X032655Y014564D01*
X032744Y014349D01*
X032953Y014140D01*
X033226Y014027D01*
X033522Y014027D01*
X033796Y014140D01*
X034005Y014349D01*
X034118Y014623D01*
X034118Y015706D01*
X034005Y015979D01*
X033796Y016189D01*
X033522Y016302D01*
X033226Y016302D01*
X033207Y016294D01*
X032540Y016960D01*
X032540Y025511D01*
X032954Y025511D01*
X033082Y025565D01*
X033181Y025663D01*
X033234Y025792D01*
X033234Y027601D01*
X034586Y029370D01*
X035355Y029370D01*
X035484Y029423D01*
X035582Y029521D01*
X035636Y029650D01*
X035636Y031285D01*
X035582Y031414D01*
X035484Y031512D01*
X035355Y031566D01*
X034114Y031566D01*
X033985Y031512D01*
X033887Y031414D01*
X033833Y031285D01*
X033833Y030829D01*
X033740Y030603D01*
X033740Y030501D01*
X032085Y028337D01*
X030477Y028337D01*
X030597Y028387D01*
X030752Y028542D01*
X030836Y028744D01*
X030836Y028963D01*
X030752Y029165D01*
X030597Y029320D01*
X030395Y029403D01*
X030344Y029403D01*
X030191Y029556D01*
X030221Y029586D01*
X030242Y029572D01*
X030297Y029549D01*
X030355Y029538D01*
X030679Y029538D01*
X030679Y030094D01*
X031275Y030094D01*
X031275Y030333D01*
X031383Y030325D01*
X031383Y030212D01*
X031860Y030212D01*
X031860Y030212D01*
X031383Y030212D01*
X031383Y030044D01*
X031395Y029986D01*
X031417Y029932D01*
X031450Y029883D01*
X031492Y029841D01*
X031541Y029808D01*
X031596Y029785D01*
X031654Y029774D01*
X031860Y029774D01*
X031860Y030212D01*
X031861Y030212D01*
X032338Y030212D01*
X032338Y030379D01*
X032335Y030390D01*
X032388Y030516D01*
X032388Y030931D01*
X032334Y031060D01*
X032236Y031158D01*
X032107Y031211D01*
X031614Y031211D01*
X031531Y031177D01*
X031314Y031192D01*
X031271Y031296D01*
X031228Y031339D01*
X031305Y031524D01*
X031305Y031773D01*
X031210Y032003D01*
X031034Y032179D01*
X030804Y032274D01*
X030555Y032274D01*
X030362Y032194D01*
X030362Y032287D01*
X030386Y032297D01*
X030428Y032339D01*
X033222Y032339D01*
X033409Y032417D01*
X034200Y033208D01*
X035040Y033208D01*
X035169Y033261D01*
X035267Y033360D01*
X035301Y033442D01*
X036044Y033442D01*
X036044Y027725D01*
X036000Y027743D01*
X035996Y027752D01*
X035897Y027851D01*
X035834Y027877D01*
X035834Y028044D01*
X035934Y028145D01*
X036029Y028375D01*
X036029Y028624D01*
X035934Y028853D01*
X035758Y029029D01*
X035528Y029125D01*
X035279Y029125D01*
X035049Y029029D01*
X034873Y028853D01*
X034778Y028624D01*
X034778Y028375D01*
X034781Y028369D01*
X034153Y028369D01*
X034024Y028315D01*
X033926Y028217D01*
X033873Y028088D01*
X033873Y027555D01*
X033926Y027427D01*
X034024Y027328D01*
X034153Y027275D01*
X034474Y027275D01*
X034554Y027242D01*
X034759Y027242D01*
X034759Y026973D01*
X034779Y026924D01*
X034759Y026876D01*
X034759Y026607D01*
X034554Y026607D01*
X034474Y026573D01*
X034153Y026573D01*
X034024Y026520D01*
X033926Y026422D01*
X033873Y026293D01*
X033873Y025760D01*
X033926Y025632D01*
X034024Y025533D01*
X034059Y025519D01*
X034007Y025468D01*
X033912Y025238D01*
X033912Y024989D01*
X033985Y024814D01*
X033877Y024814D01*
X033829Y024794D01*
X033781Y024814D01*
X033129Y024814D01*
X033001Y024760D01*
X032902Y024662D01*
X032849Y024533D01*
X032849Y024080D01*
X032848Y024077D01*
X032848Y023493D01*
X032812Y023456D01*
X032728Y023254D01*
X032728Y023035D01*
X032812Y022833D01*
X032966Y022678D01*
X033168Y022595D01*
X033387Y022595D01*
X033589Y022678D01*
X033744Y022833D01*
X033828Y023035D01*
X033828Y023254D01*
X033744Y023456D01*
X033708Y023493D01*
X033708Y023523D01*
X033781Y023523D01*
X033829Y023543D01*
X033877Y023523D01*
X034529Y023523D01*
X034657Y023576D01*
X034756Y023675D01*
X034765Y023698D01*
X034861Y023698D01*
X034923Y023673D01*
X034930Y023655D01*
X035028Y023557D01*
X035157Y023503D01*
X035690Y023503D01*
X035819Y023557D01*
X035845Y023583D01*
X035844Y023583D01*
X035845Y023583D02*
X035887Y023565D01*
X035945Y023553D01*
X036172Y023553D01*
X036398Y023553D01*
X036456Y023565D01*
X036510Y023588D01*
X036560Y023620D01*
X036601Y023662D01*
X036634Y023711D01*
X036657Y023766D01*
X036668Y023824D01*
X036668Y024129D01*
X036668Y024434D01*
X036657Y024492D01*
X036634Y024547D01*
X036601Y024596D01*
X036560Y024638D01*
X036510Y024670D01*
X036456Y024693D01*
X036398Y024705D01*
X036344Y024705D01*
X036344Y025340D01*
X036291Y025469D01*
X036268Y025493D01*
X036268Y026183D01*
X036319Y026132D01*
X036491Y026061D01*
X036954Y026061D01*
X037127Y026132D01*
X037326Y026331D01*
X037332Y026327D01*
X037164Y026159D01*
X037065Y025920D01*
X037065Y025661D01*
X037164Y025422D01*
X037208Y025378D01*
X037118Y025289D01*
X037065Y025160D01*
X037065Y024421D01*
X037118Y024292D01*
X037217Y024194D01*
X037345Y024140D01*
X038084Y024140D01*
X038213Y024194D01*
X038312Y024292D01*
X038365Y024421D01*
X038365Y025160D01*
X038312Y025289D01*
X038222Y025378D01*
X038266Y025422D01*
X038365Y025661D01*
X038365Y025920D01*
X038266Y026159D01*
X038098Y026327D01*
X038106Y026333D01*
X038172Y026400D01*
X038228Y026476D01*
X038271Y026560D01*
X038300Y026650D01*
X038315Y026743D01*
X038315Y026790D01*
X037715Y026790D01*
X037715Y026790D01*
X038315Y026790D01*
X038315Y026838D01*
X038300Y026931D01*
X038271Y027021D01*
X038228Y027105D01*
X038172Y027181D01*
X038106Y027248D01*
X038098Y027254D01*
X038266Y027422D01*
X038365Y027661D01*
X038365Y027920D01*
X038266Y028159D01*
X038222Y028203D01*
X038312Y028292D01*
X038365Y028421D01*
X038365Y029160D01*
X038312Y029289D01*
X038231Y029370D01*
X038269Y029370D01*
X038397Y029423D01*
X038496Y029521D01*
X038549Y029650D01*
X038549Y030683D01*
X039041Y031174D01*
X039041Y007633D01*
X039035Y007557D01*
X038988Y007412D01*
X038898Y007288D01*
X038775Y007199D01*
X038630Y007152D01*
X038553Y007146D01*
X035059Y007146D01*
X035095Y007181D01*
X035179Y007260D01*
X035183Y007269D01*
X035190Y007276D01*
X035234Y007383D01*
X035537Y008057D01*
X035544Y008063D01*
X035589Y008170D01*
X035636Y008276D01*
X035636Y008286D01*
X035640Y008295D01*
X035640Y008411D01*
X035644Y008527D01*
X035640Y008536D01*
X035640Y010514D01*
X035544Y010746D01*
X035150Y011139D01*
X035061Y011229D02*
X039041Y011229D01*
X039041Y010831D02*
X035459Y010831D01*
X035640Y010432D02*
X039041Y010432D01*
X039041Y010034D02*
X037415Y010034D01*
X037505Y009996D02*
X037164Y010138D01*
X036794Y010138D01*
X036452Y009996D01*
X036190Y009735D01*
X036049Y009393D01*
X036049Y009023D01*
X036190Y008681D01*
X036452Y008419D01*
X036794Y008278D01*
X037164Y008278D01*
X037505Y008419D01*
X037767Y008681D01*
X037909Y009023D01*
X037909Y009393D01*
X037767Y009735D01*
X037505Y009996D01*
X037808Y009635D02*
X039041Y009635D01*
X039041Y009237D02*
X037909Y009237D01*
X037832Y008838D02*
X039041Y008838D01*
X039041Y008440D02*
X037526Y008440D01*
X036432Y008440D02*
X035641Y008440D01*
X035640Y008838D02*
X036125Y008838D01*
X036049Y009237D02*
X035640Y009237D01*
X035640Y009635D02*
X036149Y009635D01*
X036542Y010034D02*
X035640Y010034D01*
X035530Y008041D02*
X039041Y008041D01*
X039041Y007643D02*
X035351Y007643D01*
X035162Y007244D02*
X038837Y007244D01*
X039041Y011628D02*
X031699Y011628D01*
X031680Y011229D02*
X031810Y011229D01*
X031086Y012425D02*
X030098Y012425D01*
X030098Y012823D02*
X030859Y012823D01*
X030906Y013222D02*
X030098Y013222D01*
X030098Y012026D02*
X039041Y012026D01*
X039041Y012425D02*
X032907Y012425D01*
X033134Y012823D02*
X039041Y012823D01*
X039041Y013222D02*
X033087Y013222D01*
X032739Y013620D02*
X039041Y013620D01*
X039041Y014019D02*
X038526Y014019D01*
X038508Y013975D02*
X038592Y014177D01*
X038592Y014396D01*
X038551Y014494D01*
X038551Y014546D01*
X038634Y014580D01*
X038732Y014679D01*
X038785Y014807D01*
X038785Y016206D01*
X038732Y016335D01*
X038634Y016434D01*
X038551Y016468D01*
X038551Y017648D01*
X038479Y017820D01*
X038164Y018135D01*
X038032Y018268D01*
X038004Y018279D01*
X038018Y018311D01*
X038018Y018962D01*
X037964Y019091D01*
X037866Y019189D01*
X037842Y019199D01*
X037842Y019295D01*
X037866Y019305D01*
X037964Y019403D01*
X038018Y019532D01*
X038018Y020183D01*
X037997Y020231D01*
X038018Y020280D01*
X038018Y020931D01*
X037964Y021060D01*
X037866Y021158D01*
X037863Y021159D01*
X037922Y021303D01*
X037922Y021522D01*
X037839Y021724D01*
X037684Y021879D01*
X037482Y021962D01*
X037358Y021962D01*
X037450Y022000D01*
X037461Y021998D01*
X037746Y021998D01*
X037746Y022594D01*
X037746Y023189D01*
X037461Y023189D01*
X037450Y023187D01*
X037324Y023239D01*
X036673Y023239D01*
X036544Y023186D01*
X036446Y023087D01*
X036436Y023064D01*
X036340Y023064D01*
X036330Y023087D01*
X036232Y023186D01*
X036103Y023239D01*
X035452Y023239D01*
X035404Y023219D01*
X035355Y023239D01*
X034704Y023239D01*
X034576Y023186D01*
X034477Y023087D01*
X034424Y022958D01*
X034424Y022229D01*
X034477Y022100D01*
X034560Y022017D01*
X034560Y021271D01*
X034322Y021271D01*
X034280Y021312D01*
X034078Y021396D01*
X033985Y021396D01*
X033985Y021522D01*
X033902Y021724D01*
X033747Y021879D01*
X033545Y021962D01*
X033326Y021962D01*
X033124Y021879D01*
X032969Y021724D01*
X032885Y021522D01*
X032885Y021303D01*
X032969Y021101D01*
X033005Y021065D01*
X033005Y020397D01*
X032942Y020371D01*
X032843Y020272D01*
X032790Y020144D01*
X032790Y019492D01*
X032810Y019444D01*
X032790Y019395D01*
X032790Y018744D01*
X032843Y018616D01*
X032942Y018517D01*
X032965Y018508D01*
X032965Y018169D01*
X033037Y017997D01*
X034218Y016816D01*
X034218Y016816D01*
X034350Y016683D01*
X034523Y016612D01*
X035255Y016612D01*
X035265Y016588D01*
X035363Y016490D01*
X035491Y016437D01*
X035434Y016425D01*
X035380Y016403D01*
X035331Y016370D01*
X035289Y016328D01*
X035256Y016279D01*
X035233Y016224D01*
X035222Y016166D01*
X035222Y015507D01*
X035876Y015507D01*
X035876Y015507D01*
X035222Y015507D01*
X035222Y014847D01*
X035233Y014790D01*
X035256Y014735D01*
X035289Y014686D01*
X035331Y014644D01*
X035380Y014611D01*
X035434Y014589D01*
X035492Y014577D01*
X035876Y014577D01*
X035876Y015507D01*
X035876Y015507D01*
X035876Y014577D01*
X036260Y014577D01*
X036318Y014589D01*
X036373Y014611D01*
X036422Y014644D01*
X036464Y014686D01*
X036496Y014735D01*
X036519Y014790D01*
X036531Y014847D01*
X036531Y015507D01*
X036531Y016166D01*
X036519Y016224D01*
X036496Y016279D01*
X036464Y016328D01*
X036422Y016370D01*
X036373Y016403D01*
X036318Y016425D01*
X036260Y016437D01*
X036144Y016437D01*
X036269Y016489D01*
X036280Y016486D01*
X036565Y016486D01*
X036565Y017082D01*
X036565Y017677D01*
X036331Y017677D01*
X036364Y017691D01*
X036367Y017694D01*
X036400Y017687D01*
X036547Y017687D01*
X036547Y018420D01*
X036548Y018420D01*
X036548Y017687D01*
X036695Y017687D01*
X036727Y017694D01*
X036727Y017677D01*
X036565Y017677D01*
X036565Y017082D01*
X036565Y017082D01*
X036719Y017096D01*
X036565Y017096D01*
X036565Y017082D02*
X037121Y017082D01*
X037121Y017283D01*
X037611Y017283D01*
X037611Y016468D01*
X037528Y016434D01*
X037430Y016335D01*
X037377Y016206D01*
X037377Y014807D01*
X037430Y014679D01*
X037528Y014580D01*
X037562Y014566D01*
X037492Y014396D01*
X037492Y014177D01*
X037575Y013975D01*
X037730Y013820D01*
X037932Y013736D01*
X038151Y013736D01*
X038353Y013820D01*
X038508Y013975D01*
X038583Y014417D02*
X039041Y014417D01*
X039041Y014816D02*
X038785Y014816D01*
X038785Y015214D02*
X039041Y015214D01*
X039041Y015613D02*
X038785Y015613D01*
X038785Y016011D02*
X039041Y016011D01*
X039041Y016410D02*
X038658Y016410D01*
X038551Y016808D02*
X039041Y016808D01*
X039041Y017207D02*
X038551Y017207D01*
X038551Y017605D02*
X039041Y017605D01*
X039041Y018004D02*
X038296Y018004D01*
X038018Y018402D02*
X039041Y018402D01*
X039041Y018801D02*
X038018Y018801D01*
X037843Y019199D02*
X039041Y019199D01*
X039041Y019598D02*
X038018Y019598D01*
X038018Y019996D02*
X039041Y019996D01*
X039041Y020395D02*
X038018Y020395D01*
X038018Y020793D02*
X039041Y020793D01*
X039041Y021192D02*
X037876Y021192D01*
X037894Y021590D02*
X039041Y021590D01*
X039041Y021989D02*
X037421Y021989D01*
X037746Y021998D02*
X037746Y022594D01*
X037746Y022594D01*
X037746Y023189D01*
X038032Y023189D01*
X038090Y023177D01*
X038144Y023155D01*
X038193Y023122D01*
X038235Y023080D01*
X038268Y023031D01*
X038291Y022976D01*
X038302Y022918D01*
X038302Y022594D01*
X037746Y022594D01*
X037746Y022594D01*
X037746Y022594D01*
X038302Y022594D01*
X038302Y022269D01*
X038291Y022211D01*
X038268Y022156D01*
X038235Y022107D01*
X038193Y022065D01*
X038144Y022032D01*
X038090Y022010D01*
X038032Y021998D01*
X037746Y021998D01*
X037746Y022387D02*
X037746Y022387D01*
X037746Y022786D02*
X037746Y022786D01*
X037746Y023184D02*
X037746Y023184D01*
X038056Y023184D02*
X039041Y023184D01*
X039041Y022786D02*
X038302Y022786D01*
X038302Y022387D02*
X039041Y022387D01*
X039041Y023583D02*
X036498Y023583D01*
X036172Y023583D02*
X036172Y023583D01*
X036172Y023553D02*
X036172Y024129D01*
X036668Y024129D01*
X036172Y024129D01*
X036172Y024129D01*
X036172Y024129D01*
X036172Y023553D01*
X036233Y023184D02*
X036543Y023184D01*
X036668Y023981D02*
X039041Y023981D01*
X039041Y024380D02*
X038348Y024380D01*
X038365Y024778D02*
X039041Y024778D01*
X039041Y025177D02*
X038358Y025177D01*
X038329Y025575D02*
X039041Y025575D01*
X039041Y025974D02*
X038343Y025974D01*
X038145Y026372D02*
X039041Y026372D01*
X039041Y026771D02*
X038315Y026771D01*
X038181Y027169D02*
X039041Y027169D01*
X039041Y027568D02*
X038326Y027568D01*
X038346Y027966D02*
X039041Y027966D01*
X039041Y028365D02*
X038342Y028365D01*
X038365Y028763D02*
X039041Y028763D01*
X039041Y029162D02*
X038364Y029162D01*
X038512Y029560D02*
X039041Y029560D01*
X039041Y029959D02*
X038549Y029959D01*
X038549Y030357D02*
X039041Y030357D01*
X039041Y030756D02*
X038622Y030756D01*
X039020Y031154D02*
X039041Y031154D01*
X037766Y030861D02*
X037719Y030596D01*
X037648Y030468D01*
X037027Y031566D02*
X036898Y031512D01*
X036894Y031508D01*
X036894Y033425D01*
X036950Y033425D01*
X037078Y033478D01*
X037177Y033576D01*
X037230Y033705D01*
X037230Y034356D01*
X037178Y034482D01*
X037180Y034493D01*
X037180Y034779D01*
X037180Y035056D01*
X037505Y035191D01*
X037767Y035453D01*
X037909Y035794D01*
X037909Y036164D01*
X037767Y036506D01*
X037505Y036768D01*
X037164Y036909D01*
X036794Y036909D01*
X036452Y036768D01*
X036190Y036506D01*
X036049Y036164D01*
X036049Y035794D01*
X036190Y035453D01*
X036308Y035335D01*
X036260Y035335D01*
X036202Y035323D01*
X036148Y035300D01*
X036098Y035268D01*
X036057Y035226D01*
X036024Y035177D01*
X036001Y035122D01*
X035990Y035064D01*
X035990Y034779D01*
X036585Y034779D01*
X037180Y034779D01*
X036585Y034779D01*
X036585Y034779D01*
X036585Y034779D01*
X035990Y034779D01*
X035990Y034493D01*
X035992Y034482D01*
X035983Y034462D01*
X035301Y034462D01*
X035267Y034544D01*
X035169Y034642D01*
X035040Y034696D01*
X033405Y034696D01*
X033276Y034642D01*
X033178Y034544D01*
X033125Y034415D01*
X033125Y033575D01*
X032909Y033359D01*
X030894Y033359D01*
X030894Y034680D01*
X030839Y034813D01*
X031073Y034813D01*
X031073Y035428D01*
X031073Y035428D01*
X030242Y035428D01*
X030242Y035424D01*
X029680Y035986D01*
X029680Y036409D01*
X029581Y036648D01*
X029398Y036830D01*
X029159Y036929D01*
X028900Y036929D01*
X028662Y036830D01*
X028530Y036699D01*
X028398Y036830D01*
X028159Y036929D01*
X027900Y036929D01*
X027662Y036830D01*
X027530Y036699D01*
X027398Y036830D01*
X027159Y036929D01*
X026900Y036929D01*
X026662Y036830D01*
X026493Y036662D01*
X026487Y036670D01*
X026421Y036737D01*
X026344Y036793D01*
X026260Y036835D01*
X026170Y036865D01*
X026077Y036879D01*
X026030Y036879D01*
X026030Y035979D01*
X026030Y035079D01*
X026077Y035079D01*
X026170Y035094D01*
X026260Y035123D01*
X026344Y035166D01*
X026421Y035222D01*
X026487Y035289D01*
X026493Y035297D01*
X026662Y035128D01*
X026706Y035110D01*
X026706Y034675D01*
X026658Y034724D01*
X026393Y034833D01*
X026107Y034833D01*
X025842Y034724D01*
X025639Y034521D01*
X025530Y034257D01*
X025530Y033970D01*
X025639Y033706D01*
X025842Y033503D01*
X026107Y033393D01*
X026393Y033393D01*
X026658Y033503D01*
X026706Y033552D01*
X026706Y032825D01*
X026692Y032838D01*
X026623Y032892D01*
X026547Y032936D01*
X026466Y032969D01*
X026381Y032992D01*
X026294Y033003D01*
X026250Y033003D01*
X026250Y032334D01*
X026250Y032334D01*
X026250Y033003D01*
X026206Y033003D01*
X026119Y032992D01*
X026034Y032969D01*
X025953Y032936D01*
X025877Y032892D01*
X025807Y032838D01*
X025745Y032776D01*
X025692Y032707D01*
X025648Y032630D01*
X025614Y032549D01*
X025591Y032464D01*
X025580Y032377D01*
X025580Y032333D01*
X025580Y032290D01*
X025591Y032203D01*
X025592Y032199D01*
X025570Y032199D01*
X025480Y032161D01*
X025480Y033004D01*
X025427Y033132D01*
X025336Y033223D01*
X025427Y033315D01*
X025480Y033443D01*
X025480Y034342D01*
X025565Y034342D01*
X025480Y034342D02*
X025427Y034471D01*
X025328Y034569D01*
X025200Y034623D01*
X025060Y034623D01*
X025060Y036419D01*
X026017Y037110D01*
X030312Y037110D01*
X030245Y037044D01*
X030192Y036915D01*
X030192Y036146D01*
X030245Y036017D01*
X030318Y035944D01*
X030309Y035934D01*
X030276Y035885D01*
X030253Y035831D01*
X030242Y035773D01*
X030242Y035428D01*
X031073Y035428D01*
X031073Y035428D01*
X031073Y034813D01*
X031634Y034813D01*
X031692Y034825D01*
X031747Y034847D01*
X031796Y034880D01*
X031838Y034922D01*
X031870Y034971D01*
X031893Y035026D01*
X031905Y035084D01*
X031905Y035428D01*
X031073Y035428D01*
X031073Y035428D01*
X030969Y035346D01*
X031073Y035346D01*
X031073Y035428D02*
X031905Y035428D01*
X031905Y035773D01*
X031893Y035831D01*
X031870Y035885D01*
X031838Y035934D01*
X031828Y035944D01*
X031901Y036017D01*
X031955Y036146D01*
X031955Y036859D01*
X032672Y036121D01*
X032672Y035969D01*
X032725Y035840D01*
X032824Y035742D01*
X032952Y035688D01*
X033682Y035688D01*
X033770Y035725D01*
X033858Y035688D01*
X034588Y035688D01*
X034716Y035742D01*
X034731Y035756D01*
X034745Y035750D01*
X034803Y035738D01*
X035128Y035738D01*
X035128Y036432D01*
X035128Y036432D01*
X035128Y035738D01*
X035453Y035738D01*
X035469Y035846D01*
X035511Y035750D02*
X035453Y035738D01*
X035511Y035750D02*
X035566Y035773D01*
X035615Y035805D01*
X035657Y035847D01*
X035689Y035896D01*
X035712Y035951D01*
X035723Y036009D01*
X035723Y036432D01*
X035128Y036432D01*
X034969Y036096D01*
X035128Y036096D01*
X035128Y035936D02*
X035128Y035936D01*
X035128Y036335D02*
X035128Y036335D01*
X035128Y036432D02*
X035128Y036432D01*
X035723Y036432D01*
X035723Y036855D01*
X035712Y036913D01*
X035689Y036968D01*
X035657Y037017D01*
X035615Y037059D01*
X035566Y037092D01*
X035520Y037110D01*
X037422Y037110D01*
X037992Y036587D01*
X037992Y032048D01*
X037509Y031566D01*
X037027Y031566D01*
X036996Y031553D02*
X036894Y031553D01*
X036894Y031951D02*
X037894Y031951D01*
X037992Y032350D02*
X036894Y032350D01*
X036894Y032748D02*
X037992Y032748D01*
X037992Y033147D02*
X036894Y033147D01*
X037146Y033545D02*
X037992Y033545D01*
X037992Y033944D02*
X037230Y033944D01*
X037230Y034342D02*
X037992Y034342D01*
X037992Y034741D02*
X037180Y034741D01*
X037380Y035139D02*
X037992Y035139D01*
X037992Y035538D02*
X037802Y035538D01*
X037909Y035936D02*
X037992Y035936D01*
X037992Y036335D02*
X037838Y036335D01*
X037832Y036733D02*
X037540Y036733D01*
X036417Y036733D02*
X035723Y036733D01*
X035723Y036335D02*
X036119Y036335D01*
X036049Y035936D02*
X035706Y035936D01*
X036155Y035538D02*
X031905Y035538D01*
X031905Y035139D02*
X036008Y035139D01*
X035990Y034741D02*
X030869Y034741D01*
X030894Y034342D02*
X033125Y034342D01*
X033125Y033944D02*
X030894Y033944D01*
X030894Y033545D02*
X033095Y033545D01*
X033740Y032748D02*
X036044Y032748D01*
X036044Y032350D02*
X033246Y032350D01*
X034082Y031553D02*
X031305Y031553D01*
X031231Y031951D02*
X036044Y031951D01*
X036044Y031553D02*
X035387Y031553D01*
X035636Y031154D02*
X036044Y031154D01*
X036044Y030756D02*
X035636Y030756D01*
X035636Y030357D02*
X036044Y030357D01*
X036044Y029959D02*
X035636Y029959D01*
X035598Y029560D02*
X036044Y029560D01*
X036044Y029162D02*
X034427Y029162D01*
X034123Y028763D02*
X034836Y028763D01*
X034143Y028365D02*
X033818Y028365D01*
X033873Y027966D02*
X033513Y027966D01*
X033234Y027568D02*
X033873Y027568D01*
X033234Y027169D02*
X034759Y027169D01*
X034759Y026771D02*
X033234Y026771D01*
X033234Y026372D02*
X033905Y026372D01*
X033873Y025974D02*
X033234Y025974D01*
X033093Y025575D02*
X033982Y025575D01*
X033912Y025177D02*
X032540Y025177D01*
X032540Y024778D02*
X033044Y024778D01*
X032849Y024380D02*
X032540Y024380D01*
X032540Y023981D02*
X032848Y023981D01*
X032848Y023583D02*
X032540Y023583D01*
X032540Y023184D02*
X032728Y023184D01*
X032859Y022786D02*
X032540Y022786D01*
X032540Y022387D02*
X034424Y022387D01*
X034424Y022786D02*
X033696Y022786D01*
X033828Y023184D02*
X034574Y023184D01*
X034663Y023583D02*
X035003Y023583D01*
X036172Y023981D02*
X036172Y023981D01*
X036668Y024380D02*
X037082Y024380D01*
X037065Y024778D02*
X036344Y024778D01*
X036344Y025177D02*
X037072Y025177D01*
X037100Y025575D02*
X036268Y025575D01*
X036268Y025974D02*
X037087Y025974D01*
X036044Y027966D02*
X035834Y027966D01*
X036025Y028365D02*
X036044Y028365D01*
X036044Y028763D02*
X035972Y028763D01*
X033803Y030756D02*
X032388Y030756D01*
X032338Y030357D02*
X033630Y030357D01*
X033325Y029959D02*
X032315Y029959D01*
X032304Y029932D02*
X032326Y029986D01*
X032338Y030044D01*
X032338Y030212D01*
X031861Y030212D01*
X031861Y030212D01*
X031861Y029774D01*
X032067Y029774D01*
X032125Y029785D01*
X032180Y029808D01*
X032229Y029841D01*
X032271Y029883D01*
X032304Y029932D01*
X031861Y029959D02*
X031860Y029959D01*
X031406Y029959D02*
X031275Y029959D01*
X031275Y030094D02*
X031275Y029808D01*
X031263Y029750D01*
X031241Y029696D01*
X031208Y029646D01*
X031166Y029605D01*
X031117Y029572D01*
X031062Y029549D01*
X031004Y029538D01*
X030679Y029538D01*
X030679Y030094D01*
X030679Y030094D01*
X030679Y030094D01*
X031275Y030094D01*
X030679Y029959D02*
X030679Y029959D01*
X030679Y029560D02*
X030679Y029560D01*
X030753Y029162D02*
X032715Y029162D01*
X033020Y029560D02*
X031088Y029560D01*
X030836Y028763D02*
X032411Y028763D01*
X032106Y028365D02*
X030543Y028365D01*
X029903Y028459D02*
X029822Y028459D01*
X029620Y028375D01*
X029584Y028339D01*
X029448Y028339D01*
X029448Y028657D01*
X029448Y029053D01*
X029478Y029053D01*
X029736Y028795D01*
X029736Y028744D01*
X029819Y028542D01*
X029903Y028459D01*
X029610Y028365D02*
X029448Y028365D01*
X029448Y028657D02*
X029030Y028657D01*
X029448Y028657D01*
X029448Y028763D02*
X029736Y028763D01*
X029030Y028657D02*
X029030Y028657D01*
X028177Y027873D02*
X028301Y027750D01*
X028184Y027701D01*
X028013Y027530D01*
X027998Y027493D01*
X027957Y027549D01*
X027895Y027611D01*
X027823Y027663D01*
X027745Y027703D01*
X027661Y027730D01*
X027574Y027744D01*
X027530Y027744D01*
X027530Y026924D01*
X027530Y026104D01*
X027574Y026104D01*
X027661Y026118D01*
X027745Y026145D01*
X027823Y026185D01*
X027895Y026237D01*
X027957Y026299D01*
X027998Y026355D01*
X028013Y026319D01*
X028184Y026147D01*
X028408Y026054D01*
X028651Y026054D01*
X028875Y026147D01*
X029047Y026319D01*
X029140Y026543D01*
X029140Y027306D01*
X029068Y027479D01*
X029584Y027479D01*
X029620Y027442D01*
X029822Y027359D01*
X030041Y027359D01*
X030093Y027380D01*
X030093Y025792D01*
X030146Y025663D01*
X030245Y025565D01*
X030374Y025511D01*
X031180Y025511D01*
X031180Y018420D01*
X031101Y018500D01*
X030827Y018613D01*
X030531Y018613D01*
X030258Y018500D01*
X030049Y018290D01*
X029936Y018017D01*
X029936Y017721D01*
X030049Y017448D01*
X030258Y017239D01*
X030531Y017125D01*
X030827Y017125D01*
X031101Y017239D01*
X031180Y017319D01*
X031180Y016543D01*
X031284Y016293D01*
X031813Y015764D01*
X029773Y015764D01*
X029552Y015673D01*
X029383Y015504D01*
X029311Y015432D01*
X029311Y018328D01*
X029391Y018521D01*
X029391Y018792D01*
X029287Y019042D01*
X029221Y019108D01*
X029221Y019280D01*
X029227Y019266D01*
X029509Y018984D01*
X029878Y018831D01*
X030276Y018831D01*
X030645Y018984D01*
X030927Y019266D01*
X031080Y019634D01*
X031080Y020033D01*
X030927Y020402D01*
X030769Y020560D01*
X030769Y022955D01*
X030685Y023157D01*
X030530Y023312D01*
X030328Y023396D01*
X030101Y023396D01*
X030090Y023422D01*
X029992Y023520D01*
X029863Y023573D01*
X029133Y023573D01*
X029005Y023520D01*
X028908Y023423D01*
X028812Y023519D01*
X028750Y023670D01*
X028356Y024064D01*
X028212Y024207D01*
X028025Y024285D01*
X025854Y024285D01*
X025666Y024207D01*
X025272Y023813D01*
X025129Y023670D01*
X025066Y023519D01*
X025025Y023478D01*
X024653Y023478D01*
X024465Y023400D01*
X023304Y022239D01*
X023160Y022095D01*
X023083Y021908D01*
X023083Y018943D01*
X022054Y018943D01*
X022054Y020003D01*
X022255Y020204D01*
X022368Y020477D01*
X022368Y020773D01*
X022255Y021046D01*
X022046Y021256D01*
X021772Y021369D01*
X021476Y021369D01*
X021203Y021256D01*
X020994Y021046D01*
X020881Y020773D01*
X020881Y020477D01*
X020994Y020204D01*
X021194Y020003D01*
X021194Y018943D01*
X019965Y018943D01*
X019992Y018970D01*
X020045Y019099D01*
X020045Y020498D01*
X019992Y020626D01*
X019893Y020725D01*
X019765Y020778D01*
X018366Y020778D01*
X018237Y020725D01*
X018139Y020626D01*
X018085Y020498D01*
X018085Y019099D01*
X018139Y018970D01*
X018237Y018872D01*
X018366Y018818D01*
X018385Y018818D01*
X018385Y018718D01*
X018489Y018468D01*
X018680Y018277D01*
X018680Y018277D01*
X019079Y017878D01*
X019079Y017878D01*
X019271Y017686D01*
X019521Y017583D01*
X028111Y017583D01*
X028111Y013891D01*
X025953Y012797D01*
X025946Y012797D01*
X025877Y012759D01*
X025808Y012724D01*
X025803Y012719D01*
X025362Y012478D01*
X025346Y012516D01*
X025248Y012615D01*
X025188Y012639D01*
X025260Y012812D01*
X025260Y013108D01*
X025146Y013381D01*
X024937Y013590D01*
X024664Y013703D01*
X024070Y013703D01*
X024157Y013914D01*
X024157Y014210D01*
X024044Y014483D01*
X023835Y014693D01*
X023562Y014806D01*
X022478Y014806D01*
X022205Y014693D01*
X021996Y014483D01*
X021883Y014210D01*
X021883Y013914D01*
X021996Y013641D01*
X022205Y013432D01*
X022478Y013318D01*
X023003Y013318D01*
X022966Y013278D01*
X022901Y013213D01*
X022897Y013204D01*
X022891Y013197D01*
X022859Y013110D01*
X022824Y013025D01*
X022824Y013015D01*
X022821Y013006D01*
X022825Y012914D01*
X022840Y010298D01*
X022767Y010371D01*
X022639Y010424D01*
X021555Y010424D01*
X021426Y010371D01*
X021328Y010272D01*
X021274Y010144D01*
X021274Y009059D01*
X021328Y008931D01*
X021426Y008832D01*
X021555Y008779D01*
X022639Y008779D01*
X022767Y008832D01*
X022787Y008852D01*
X023183Y008728D01*
X023255Y008698D01*
X023257Y008698D01*
X023258Y008697D01*
X023280Y008697D01*
X023301Y008691D01*
X023379Y008698D01*
X024148Y008698D01*
X024148Y008390D01*
X024201Y008263D01*
X021176Y008263D01*
X020994Y008408D01*
X020994Y008815D01*
X021035Y008832D01*
X021134Y008931D01*
X021187Y009059D01*
X021187Y010144D01*
X021134Y010272D01*
X021035Y010371D01*
X020906Y010424D01*
X019942Y010424D01*
X019942Y012700D01*
X019992Y012750D01*
X020045Y012878D01*
X020045Y014277D01*
X019992Y014406D01*
X019893Y014504D01*
X019765Y014558D01*
X018366Y014558D01*
X018237Y014504D01*
X018139Y014406D01*
X018085Y014277D01*
X018085Y012878D01*
X018139Y012750D01*
X018237Y012651D01*
X018366Y012598D01*
X018582Y012598D01*
X018582Y010007D01*
X018266Y010138D01*
X017896Y010138D01*
X017554Y009996D01*
X017293Y009735D01*
X017151Y009393D01*
X017151Y009023D01*
X017293Y008681D01*
X017554Y008419D01*
X017896Y008278D01*
X018266Y008278D01*
X018608Y008419D01*
X018869Y008681D01*
X019011Y009023D01*
X019011Y009285D01*
X019271Y009025D01*
X019521Y008921D01*
X019605Y008921D01*
X019694Y008832D01*
X019734Y008815D01*
X019734Y008195D01*
X019724Y008160D01*
X019734Y008070D01*
X019734Y007980D01*
X019748Y007947D01*
X019752Y007911D01*
X019796Y007832D01*
X019830Y007749D01*
X019856Y007723D01*
X019873Y007692D01*
X019944Y007635D01*
X020008Y007571D01*
X020041Y007558D01*
X020534Y007163D01*
X020551Y007146D01*
X016544Y007146D01*
X016459Y007170D01*
X016267Y007278D01*
X016117Y007439D01*
X016025Y007639D01*
X016000Y007858D01*
X016010Y007947D01*
X016019Y007967D01*
X016019Y007997D01*
X016025Y008026D01*
X016019Y008056D01*
X016019Y037131D01*
X016025Y037161D01*
X016019Y037190D01*
X016019Y037220D01*
X016010Y037240D01*
X016000Y037329D01*
X016025Y037548D01*
X016117Y037748D01*
X016267Y037910D01*
X016459Y038017D01*
X016544Y038042D01*
X022030Y038042D01*
X021997Y038008D01*
X021944Y037880D01*
X021944Y037150D01*
X021997Y037021D01*
X022074Y036944D01*
X021997Y036867D01*
X021944Y036738D01*
X021944Y036008D01*
X021997Y035880D01*
X022094Y035783D01*
X021997Y035686D01*
X021944Y035557D01*
X021944Y034827D01*
X021997Y034698D01*
X022004Y034691D01*
X019127Y034691D01*
X018877Y034587D01*
X018686Y034396D01*
X017111Y032821D01*
X017007Y032571D01*
X017007Y026526D01*
X016870Y026526D01*
X016741Y026473D01*
X016643Y026375D01*
X016589Y026246D01*
X016589Y025004D01*
X016643Y024876D01*
X016741Y024777D01*
X016870Y024724D01*
X018505Y024724D01*
X018634Y024777D01*
X018732Y024876D01*
X018785Y025004D01*
X018785Y026246D01*
X018732Y026375D01*
X018634Y026473D01*
X018505Y026526D01*
X018367Y026526D01*
X018367Y032154D01*
X019544Y033331D01*
X023327Y033331D01*
X023333Y033315D01*
X023425Y033223D01*
X023333Y033132D01*
X023327Y033116D01*
X022276Y033116D01*
X022026Y033013D01*
X021835Y032821D01*
X020260Y031246D01*
X020157Y030997D01*
X020157Y029742D01*
X020107Y029721D01*
X020009Y029623D01*
X019955Y029494D01*
X019955Y028292D01*
X020009Y028163D01*
X020107Y028065D01*
X020236Y028011D01*
X021438Y028011D01*
X021567Y028065D01*
X021665Y028163D01*
X021718Y028292D01*
X021718Y029494D01*
X021665Y029623D01*
X021567Y029721D01*
X021517Y029742D01*
X021517Y030580D01*
X022693Y031756D01*
X024515Y031756D01*
X024680Y031824D01*
X025157Y031824D01*
X025149Y031805D01*
X025058Y031805D01*
X024856Y031721D01*
X024701Y031567D01*
X024618Y031364D01*
X024618Y031146D01*
X024701Y030943D01*
X024738Y030907D01*
X024738Y029792D01*
X024803Y029633D01*
X024924Y029512D01*
X025197Y029240D01*
X025318Y029119D01*
X025476Y029053D01*
X025562Y029053D01*
X025562Y028969D01*
X023893Y028969D01*
X023720Y028898D01*
X023588Y028765D01*
X023194Y028372D01*
X023123Y028199D01*
X023123Y026043D01*
X023194Y025871D01*
X023327Y025738D01*
X023720Y025345D01*
X023893Y025273D01*
X024231Y025273D01*
X024241Y025250D01*
X024339Y025151D01*
X024468Y025098D01*
X025119Y025098D01*
X025168Y025118D01*
X025216Y025098D01*
X025542Y025098D01*
X025802Y024837D01*
X025882Y024644D01*
X026037Y024490D01*
X026239Y024406D01*
X026458Y024406D01*
X026660Y024490D01*
X026815Y024644D01*
X026899Y024846D01*
X026899Y025040D01*
X026909Y025036D01*
X027127Y025036D01*
X027330Y025119D01*
X027484Y025274D01*
X027568Y025476D01*
X027568Y025695D01*
X027484Y025897D01*
X027460Y025922D01*
X027460Y025985D01*
X027462Y026064D01*
X027460Y026070D01*
X027460Y026108D01*
X027486Y026104D01*
X027530Y026104D01*
X027530Y026924D01*
X027530Y026924D01*
X027530Y026924D01*
X027530Y027744D01*
X027486Y027744D01*
X027460Y027740D01*
X027460Y027873D01*
X027718Y027873D01*
X027780Y027899D01*
X027842Y027873D01*
X028177Y027873D01*
X028050Y027568D02*
X027938Y027568D01*
X027530Y027568D02*
X027530Y027568D01*
X027530Y027169D02*
X027530Y027169D01*
X027530Y026771D02*
X027530Y026771D01*
X027530Y026372D02*
X027530Y026372D01*
X027460Y025974D02*
X030093Y025974D01*
X030093Y026372D02*
X029069Y026372D01*
X029140Y026771D02*
X030093Y026771D01*
X030093Y027169D02*
X029140Y027169D01*
X030234Y025575D02*
X027568Y025575D01*
X027387Y025177D02*
X031180Y025177D01*
X031180Y024778D02*
X026870Y024778D01*
X025827Y024778D02*
X018634Y024778D01*
X018785Y025177D02*
X024314Y025177D01*
X023490Y025575D02*
X018785Y025575D01*
X018785Y025974D02*
X020103Y025974D01*
X020114Y025963D02*
X020163Y025930D01*
X020218Y025907D01*
X020276Y025896D01*
X020837Y025896D01*
X021398Y025896D01*
X021456Y025907D01*
X021510Y025930D01*
X021560Y025963D01*
X021601Y026005D01*
X021634Y026054D01*
X021657Y026108D01*
X021668Y026166D01*
X021668Y026727D01*
X020837Y026727D01*
X020837Y025896D01*
X020837Y026727D01*
X020837Y026727D01*
X020837Y026727D01*
X020005Y026727D01*
X020005Y026166D01*
X020017Y026108D01*
X020040Y026054D01*
X020072Y026005D01*
X020114Y025963D01*
X020005Y026372D02*
X018733Y026372D01*
X018367Y026771D02*
X020005Y026771D01*
X020005Y026727D02*
X020837Y026727D01*
X020837Y026727D01*
X020719Y026596D01*
X020969Y026596D01*
X020837Y026727D02*
X021668Y026727D01*
X021668Y027288D01*
X021657Y027346D01*
X021634Y027401D01*
X021601Y027450D01*
X021560Y027492D01*
X021510Y027525D01*
X021456Y027547D01*
X021398Y027559D01*
X020837Y027559D01*
X020837Y026727D01*
X020837Y026727D01*
X020837Y027559D01*
X020276Y027559D01*
X020218Y027547D01*
X020163Y027525D01*
X020114Y027492D01*
X020072Y027450D01*
X020040Y027401D01*
X020017Y027346D01*
X020005Y027288D01*
X020005Y026727D01*
X020005Y027169D02*
X018367Y027169D01*
X018367Y027568D02*
X023123Y027568D01*
X023123Y027966D02*
X018367Y027966D01*
X018367Y028365D02*
X019955Y028365D01*
X019955Y028763D02*
X018367Y028763D01*
X018367Y029162D02*
X019955Y029162D01*
X019983Y029560D02*
X018367Y029560D01*
X018367Y029959D02*
X020157Y029959D01*
X020157Y030357D02*
X018367Y030357D01*
X018367Y030756D02*
X020157Y030756D01*
X020222Y031154D02*
X018367Y031154D01*
X018367Y031553D02*
X020566Y031553D01*
X020965Y031951D02*
X018367Y031951D01*
X018562Y032350D02*
X021363Y032350D01*
X021762Y032748D02*
X018961Y032748D01*
X019359Y033147D02*
X023348Y033147D01*
X023298Y034691D02*
X023297Y034691D01*
X023297Y035192D01*
X023297Y035787D01*
X023297Y036373D01*
X023298Y036373D01*
X023298Y035192D01*
X023297Y035192D01*
X023298Y035192D01*
X023298Y034691D01*
X023297Y034741D02*
X023298Y034741D01*
X023297Y035139D02*
X023298Y035139D01*
X023297Y035538D02*
X023298Y035538D01*
X023297Y035936D02*
X023298Y035936D01*
X023297Y036335D02*
X023298Y036335D01*
X021944Y036335D02*
X018940Y036335D01*
X019011Y036164D02*
X018869Y036506D01*
X018608Y036768D01*
X018266Y036909D01*
X017896Y036909D01*
X017554Y036768D01*
X017293Y036506D01*
X017151Y036164D01*
X017151Y035794D01*
X017293Y035453D01*
X017554Y035191D01*
X017896Y035049D01*
X018266Y035049D01*
X018608Y035191D01*
X018869Y035453D01*
X019011Y035794D01*
X019011Y036164D01*
X019011Y035936D02*
X021973Y035936D01*
X021944Y035538D02*
X018904Y035538D01*
X018482Y035139D02*
X021944Y035139D01*
X021979Y034741D02*
X016019Y034741D01*
X016019Y035139D02*
X017680Y035139D01*
X017257Y035538D02*
X016019Y035538D01*
X016019Y035936D02*
X017151Y035936D01*
X017222Y036335D02*
X016019Y036335D01*
X016019Y036733D02*
X017520Y036733D01*
X018642Y036733D02*
X021944Y036733D01*
X021951Y037132D02*
X016019Y037132D01*
X016023Y037530D02*
X021944Y037530D01*
X021964Y037929D02*
X016301Y037929D01*
X016019Y034342D02*
X018632Y034342D01*
X018233Y033944D02*
X016019Y033944D01*
X016019Y033545D02*
X017835Y033545D01*
X017436Y033147D02*
X016019Y033147D01*
X016019Y032748D02*
X017080Y032748D01*
X017007Y032350D02*
X016019Y032350D01*
X016019Y031951D02*
X017007Y031951D01*
X017007Y031553D02*
X016019Y031553D01*
X016019Y031154D02*
X017007Y031154D01*
X017007Y030756D02*
X016019Y030756D01*
X016019Y030357D02*
X017007Y030357D01*
X017007Y029959D02*
X016019Y029959D01*
X016019Y029560D02*
X017007Y029560D01*
X017007Y029162D02*
X016019Y029162D01*
X016019Y028763D02*
X017007Y028763D01*
X017007Y028365D02*
X016019Y028365D01*
X016019Y027966D02*
X017007Y027966D01*
X017007Y027568D02*
X016019Y027568D01*
X016019Y027169D02*
X017007Y027169D01*
X017007Y026771D02*
X016019Y026771D01*
X016019Y026372D02*
X016642Y026372D01*
X016589Y025974D02*
X016019Y025974D01*
X016019Y025575D02*
X016589Y025575D01*
X016589Y025177D02*
X016019Y025177D01*
X016019Y024778D02*
X016740Y024778D01*
X016019Y024380D02*
X031180Y024380D01*
X031180Y023981D02*
X028438Y023981D01*
X028786Y023583D02*
X031180Y023583D01*
X031180Y023184D02*
X030658Y023184D01*
X030769Y022786D02*
X031180Y022786D01*
X031180Y022387D02*
X030769Y022387D01*
X030769Y021989D02*
X031180Y021989D01*
X031180Y021590D02*
X030769Y021590D01*
X030769Y021192D02*
X031180Y021192D01*
X031180Y020793D02*
X030769Y020793D01*
X030930Y020395D02*
X031180Y020395D01*
X031180Y019996D02*
X031080Y019996D01*
X031065Y019598D02*
X031180Y019598D01*
X031180Y019199D02*
X030860Y019199D01*
X031180Y018801D02*
X029387Y018801D01*
X029341Y018402D02*
X030161Y018402D01*
X029936Y018004D02*
X029311Y018004D01*
X029311Y017605D02*
X029984Y017605D01*
X030336Y017207D02*
X029311Y017207D01*
X029311Y016808D02*
X031180Y016808D01*
X031180Y017207D02*
X031023Y017207D01*
X031236Y016410D02*
X029311Y016410D01*
X029311Y016011D02*
X031566Y016011D01*
X032692Y016808D02*
X034225Y016808D01*
X033827Y017207D02*
X032540Y017207D01*
X032540Y017605D02*
X033428Y017605D01*
X033034Y018004D02*
X032540Y018004D01*
X032540Y018402D02*
X032965Y018402D01*
X032790Y018801D02*
X032540Y018801D01*
X032540Y019199D02*
X032790Y019199D01*
X032790Y019598D02*
X032540Y019598D01*
X032540Y019996D02*
X032790Y019996D01*
X033000Y020395D02*
X032540Y020395D01*
X032540Y020793D02*
X033005Y020793D01*
X032931Y021192D02*
X032540Y021192D01*
X032540Y021590D02*
X032914Y021590D01*
X032540Y021989D02*
X034560Y021989D01*
X034560Y021590D02*
X033957Y021590D01*
X036547Y018402D02*
X036548Y018402D01*
X036547Y018004D02*
X036548Y018004D01*
X036469Y017677D02*
X036469Y017596D01*
X036565Y017605D02*
X036565Y017605D01*
X036565Y017207D02*
X036565Y017207D01*
X036565Y017082D02*
X036565Y017082D01*
X036565Y017082D01*
X036565Y016486D01*
X036851Y016486D01*
X036909Y016498D01*
X036963Y016521D01*
X037012Y016553D01*
X037054Y016595D01*
X037087Y016644D01*
X037110Y016699D01*
X037121Y016757D01*
X037121Y017082D01*
X036565Y017082D01*
X036565Y016808D02*
X036565Y016808D01*
X036356Y016410D02*
X037504Y016410D01*
X037611Y016808D02*
X037121Y016808D01*
X037121Y017207D02*
X037611Y017207D01*
X037377Y016011D02*
X036531Y016011D01*
X036531Y015613D02*
X037377Y015613D01*
X037377Y015214D02*
X036531Y015214D01*
X036531Y015507D02*
X035876Y015507D01*
X036531Y015507D01*
X036524Y014816D02*
X037377Y014816D01*
X037500Y014417D02*
X034033Y014417D01*
X034118Y014816D02*
X035228Y014816D01*
X035222Y015214D02*
X034118Y015214D01*
X034118Y015613D02*
X035222Y015613D01*
X035222Y016011D02*
X033973Y016011D01*
X033091Y016410D02*
X035396Y016410D01*
X035876Y015507D02*
X035876Y015507D01*
X035876Y015214D02*
X035876Y015214D01*
X035876Y014816D02*
X035876Y014816D01*
X037557Y014019D02*
X032031Y014019D01*
X031946Y014417D02*
X032716Y014417D01*
X030133Y011628D02*
X030098Y011628D01*
X030098Y011229D02*
X030152Y011229D01*
X030133Y010831D02*
X030098Y010831D01*
X030120Y010432D02*
X030133Y010432D01*
X027577Y013620D02*
X024865Y013620D01*
X025213Y013222D02*
X026790Y013222D01*
X026003Y012823D02*
X025260Y012823D01*
X025352Y014027D02*
X025648Y014027D01*
X025922Y014140D01*
X026131Y014349D01*
X026244Y014623D01*
X026244Y015706D01*
X026131Y015979D01*
X025922Y016189D01*
X025648Y016302D01*
X025352Y016302D01*
X025079Y016189D01*
X024870Y015979D01*
X024757Y015706D01*
X024757Y014623D01*
X024870Y014349D01*
X025079Y014140D01*
X025352Y014027D01*
X024842Y014417D02*
X024072Y014417D01*
X024157Y014019D02*
X028111Y014019D01*
X028111Y014417D02*
X026159Y014417D01*
X026244Y014816D02*
X028111Y014816D01*
X028111Y015214D02*
X026244Y015214D01*
X026244Y015613D02*
X028111Y015613D01*
X028111Y016011D02*
X026099Y016011D01*
X024901Y016011D02*
X016019Y016011D01*
X016019Y015613D02*
X024757Y015613D01*
X024757Y015214D02*
X016019Y015214D01*
X016019Y014816D02*
X024757Y014816D01*
X022910Y013222D02*
X020045Y013222D01*
X020045Y013620D02*
X022017Y013620D01*
X021883Y014019D02*
X020045Y014019D01*
X019981Y014417D02*
X021968Y014417D01*
X022826Y012823D02*
X020022Y012823D01*
X019942Y012425D02*
X022828Y012425D01*
X022830Y012026D02*
X019942Y012026D01*
X019942Y011628D02*
X022832Y011628D01*
X022835Y011229D02*
X019942Y011229D01*
X019942Y010831D02*
X022837Y010831D01*
X022839Y010432D02*
X019942Y010432D01*
X019059Y009237D02*
X019011Y009237D01*
X018934Y008838D02*
X019688Y008838D01*
X019734Y008440D02*
X018628Y008440D01*
X017534Y008440D02*
X016019Y008440D01*
X016019Y008838D02*
X017228Y008838D01*
X017151Y009237D02*
X016019Y009237D01*
X016019Y009635D02*
X017251Y009635D01*
X017645Y010034D02*
X016019Y010034D01*
X016019Y010432D02*
X018582Y010432D01*
X018582Y010034D02*
X018517Y010034D01*
X018582Y010831D02*
X016019Y010831D01*
X016019Y011229D02*
X018582Y011229D01*
X018582Y011628D02*
X016019Y011628D01*
X016019Y012026D02*
X018582Y012026D01*
X018582Y012425D02*
X016019Y012425D01*
X016019Y012823D02*
X018108Y012823D01*
X018085Y013222D02*
X016019Y013222D01*
X016019Y013620D02*
X018085Y013620D01*
X018085Y014019D02*
X016019Y014019D01*
X016019Y014417D02*
X018150Y014417D01*
X016019Y016410D02*
X028111Y016410D01*
X028111Y016808D02*
X016019Y016808D01*
X016019Y017207D02*
X028111Y017207D01*
X029311Y015613D02*
X029492Y015613D01*
X029294Y019199D02*
X029221Y019199D01*
X030077Y019834D02*
X030219Y019846D01*
X030219Y022846D01*
X029719Y022846D01*
X029498Y022968D01*
X027469Y023096D02*
X026969Y023096D01*
X026742Y022968D01*
X025440Y023981D02*
X016019Y023981D01*
X016019Y023583D02*
X025093Y023583D01*
X024249Y023184D02*
X018735Y023184D01*
X018735Y023292D02*
X018724Y023350D01*
X018701Y023405D01*
X018668Y023454D01*
X018627Y023496D01*
X018577Y023529D01*
X018523Y023551D01*
X018465Y023563D01*
X017763Y023563D01*
X017763Y022787D01*
X018735Y022787D01*
X018735Y023292D01*
X018735Y022636D02*
X018735Y022131D01*
X018724Y022073D01*
X018701Y022018D01*
X018668Y021969D01*
X018627Y021927D01*
X018577Y021895D01*
X018523Y021872D01*
X018465Y021860D01*
X017763Y021860D01*
X017763Y022636D01*
X017763Y022787D01*
X017612Y022787D01*
X017612Y022636D01*
X017763Y022636D01*
X018735Y022636D01*
X018735Y022387D02*
X023452Y022387D01*
X023116Y021989D02*
X018681Y021989D01*
X017763Y021989D02*
X017612Y021989D01*
X017612Y021860D02*
X017612Y022636D01*
X016639Y022636D01*
X016639Y022131D01*
X016651Y022073D01*
X016673Y022018D01*
X016706Y021969D01*
X016748Y021927D01*
X016797Y021895D01*
X016852Y021872D01*
X016910Y021860D01*
X017612Y021860D01*
X017612Y022387D02*
X017763Y022387D01*
X017763Y022786D02*
X023851Y022786D01*
X023083Y021590D02*
X016019Y021590D01*
X016019Y021192D02*
X021139Y021192D01*
X020889Y020793D02*
X016019Y020793D01*
X016019Y020395D02*
X018085Y020395D01*
X018085Y019996D02*
X016019Y019996D01*
X016019Y019598D02*
X018085Y019598D01*
X018085Y019199D02*
X016019Y019199D01*
X016019Y018801D02*
X018385Y018801D01*
X018555Y018402D02*
X016019Y018402D01*
X016019Y018004D02*
X018953Y018004D01*
X019467Y017605D02*
X016019Y017605D01*
X020045Y019199D02*
X021194Y019199D01*
X021194Y019598D02*
X020045Y019598D01*
X020045Y019996D02*
X021194Y019996D01*
X020915Y020395D02*
X020045Y020395D01*
X022054Y019996D02*
X023083Y019996D01*
X023083Y019598D02*
X022054Y019598D01*
X022054Y019199D02*
X023083Y019199D01*
X023083Y020395D02*
X022334Y020395D01*
X022360Y020793D02*
X023083Y020793D01*
X023083Y021192D02*
X022110Y021192D01*
X017612Y022786D02*
X016019Y022786D01*
X016019Y023184D02*
X016639Y023184D01*
X016639Y023292D02*
X016639Y022787D01*
X017612Y022787D01*
X017612Y023563D01*
X016910Y023563D01*
X016852Y023551D01*
X016797Y023529D01*
X016748Y023496D01*
X016706Y023454D01*
X016673Y023405D01*
X016651Y023350D01*
X016639Y023292D01*
X016639Y022387D02*
X016019Y022387D01*
X016019Y021989D02*
X016693Y021989D01*
X017612Y023184D02*
X017763Y023184D01*
X020837Y025974D02*
X020837Y025974D01*
X020837Y026372D02*
X020837Y026372D01*
X020837Y026771D02*
X020837Y026771D01*
X020837Y027169D02*
X020837Y027169D01*
X021668Y027169D02*
X023123Y027169D01*
X023123Y026771D02*
X021668Y026771D01*
X021668Y026372D02*
X023123Y026372D01*
X023152Y025974D02*
X021570Y025974D01*
X021668Y026346D02*
X021469Y026346D01*
X021718Y028365D02*
X023191Y028365D01*
X023586Y028763D02*
X021718Y028763D01*
X021718Y029162D02*
X025275Y029162D01*
X024876Y029560D02*
X021691Y029560D01*
X021517Y029959D02*
X024738Y029959D01*
X024738Y030357D02*
X021517Y030357D01*
X021693Y030756D02*
X024738Y030756D01*
X024618Y031154D02*
X022091Y031154D01*
X022490Y031553D02*
X024696Y031553D01*
X025480Y032350D02*
X025580Y032350D01*
X025580Y032333D02*
X026250Y032333D01*
X025580Y032333D01*
X025480Y032748D02*
X025723Y032748D01*
X025413Y033147D02*
X026706Y033147D01*
X026700Y033545D02*
X026706Y033545D01*
X026250Y032748D02*
X026250Y032748D01*
X026250Y032350D02*
X026250Y032350D01*
X026250Y032333D02*
X026250Y032333D01*
X025800Y033545D02*
X025480Y033545D01*
X025480Y033944D02*
X025541Y033944D01*
X025882Y034741D02*
X025060Y034741D01*
X025060Y035139D02*
X025769Y035139D01*
X025799Y035123D02*
X025889Y035094D01*
X025983Y035079D01*
X026030Y035079D01*
X026030Y035979D01*
X026030Y035979D01*
X025430Y035979D01*
X025430Y035632D01*
X025445Y035539D01*
X025474Y035449D01*
X025517Y035365D01*
X025572Y035289D01*
X025639Y035222D01*
X025715Y035166D01*
X025799Y035123D01*
X026030Y035139D02*
X026030Y035139D01*
X026291Y035139D02*
X026651Y035139D01*
X026617Y034741D02*
X026706Y034741D01*
X026030Y035538D02*
X026030Y035538D01*
X026030Y035936D02*
X026030Y035936D01*
X026030Y035979D02*
X026030Y035979D01*
X026030Y035979D01*
X025430Y035979D01*
X025430Y036327D01*
X025445Y036420D01*
X025474Y036510D01*
X025517Y036594D01*
X025572Y036670D01*
X025639Y036737D01*
X025715Y036793D01*
X025799Y036835D01*
X025889Y036865D01*
X025983Y036879D01*
X026030Y036879D01*
X026030Y035979D01*
X026030Y036335D02*
X026030Y036335D01*
X026030Y036733D02*
X026030Y036733D01*
X026425Y036733D02*
X026564Y036733D01*
X025635Y036733D02*
X025495Y036733D01*
X025431Y036335D02*
X025060Y036335D01*
X025060Y035936D02*
X025430Y035936D01*
X025445Y035538D02*
X025060Y035538D01*
X027495Y036733D02*
X027564Y036733D01*
X028495Y036733D02*
X028564Y036733D01*
X029495Y036733D02*
X030192Y036733D01*
X030192Y036335D02*
X029680Y036335D01*
X029729Y035936D02*
X030310Y035936D01*
X030242Y035538D02*
X030128Y035538D01*
X031073Y035139D02*
X031073Y035139D01*
X031836Y035936D02*
X032685Y035936D01*
X032464Y036335D02*
X031955Y036335D01*
X031955Y036733D02*
X032077Y036733D01*
X034139Y033147D02*
X036044Y033147D01*
X033833Y031154D02*
X032240Y031154D01*
X030270Y029560D02*
X030195Y029560D01*
X028810Y032334D02*
X028810Y032334D01*
X028810Y033003D01*
X028854Y033003D01*
X028941Y032992D01*
X029026Y032969D01*
X029107Y032936D01*
X029183Y032892D01*
X029247Y032843D01*
X029247Y033128D01*
X029232Y033128D01*
X029060Y033199D01*
X028865Y033393D01*
X028667Y033393D01*
X028402Y033503D01*
X028358Y033547D01*
X028353Y033542D01*
X028353Y032825D01*
X028367Y032838D01*
X028437Y032892D01*
X028513Y032936D01*
X028594Y032969D01*
X028679Y032992D01*
X028766Y033003D01*
X028810Y033003D01*
X028810Y032334D01*
X028810Y032350D02*
X028810Y032350D01*
X028810Y032748D02*
X028810Y032748D01*
X029186Y033147D02*
X028353Y033147D01*
X028357Y033545D02*
X028360Y033545D01*
X021274Y010034D02*
X021187Y010034D01*
X021187Y009635D02*
X021274Y009635D01*
X021274Y009237D02*
X021187Y009237D01*
X021041Y008838D02*
X021420Y008838D01*
X020994Y008440D02*
X024148Y008440D01*
X022830Y008838D02*
X022773Y008838D01*
X020433Y007244D02*
X016327Y007244D01*
X016025Y007643D02*
X019934Y007643D01*
X019734Y008041D02*
X016022Y008041D01*
D46*
X019262Y009995D02*
X019262Y013381D01*
X019065Y013578D01*
X019262Y009995D02*
X019656Y009601D01*
X020364Y009601D01*
X019656Y018263D02*
X021624Y018263D01*
X023593Y018263D01*
X028317Y018263D01*
X028711Y018657D01*
X031860Y016678D02*
X033374Y015164D01*
X031860Y016678D02*
X031860Y026924D01*
X031664Y026727D01*
X031664Y026924D01*
X031860Y026924D01*
X034420Y030271D01*
X034420Y030468D01*
X037766Y030468D02*
X037766Y030861D01*
X038672Y031767D01*
X038672Y036885D01*
X037687Y037790D01*
X032136Y037790D01*
X031988Y037761D01*
X031998Y037790D01*
X033317Y036432D01*
X031998Y037790D02*
X031073Y037790D01*
X031073Y036531D01*
X031073Y037790D02*
X025798Y037790D01*
X024380Y036767D01*
X024380Y034011D01*
X024380Y033893D01*
X024380Y034011D02*
X019262Y034011D01*
X017687Y032436D01*
X017687Y025625D01*
X020837Y028893D02*
X020837Y030861D01*
X022412Y032436D01*
X024380Y032436D01*
X024380Y032554D01*
X019065Y019798D02*
X019065Y018853D01*
X019656Y018263D01*
D47*
X028711Y018657D02*
X028711Y013596D01*
X028711Y011176D01*
X029498Y010389D02*
X029498Y014771D01*
X029892Y015164D01*
X033374Y015164D01*
D48*
X032254Y010783D02*
X034616Y010783D01*
X035010Y010389D01*
X035010Y008420D01*
X034656Y007633D01*
X020955Y007633D01*
X020364Y008105D01*
X020364Y009601D01*
M02*
