G75*
G70*
%OFA0B0*%
%FSLAX24Y24*%
%IPPOS*%
%LPD*%
%AMOC8*
5,1,8,0,0,1.08239X$1,22.5*
%
%ADD10C,0.0060*%
%ADD11C,0.0000*%
%ADD12C,0.0040*%
%ADD13C,0.0050*%
%ADD14C,0.0100*%
%ADD15C,0.0080*%
%ADD16R,0.0060X0.0010*%
%ADD17R,0.0230X0.0010*%
%ADD18R,0.0270X0.0010*%
%ADD19R,0.0210X0.0010*%
%ADD20R,0.0320X0.0010*%
%ADD21R,0.0250X0.0010*%
%ADD22R,0.0390X0.0010*%
%ADD23R,0.0760X0.0010*%
%ADD24R,0.0890X0.0010*%
%ADD25R,0.0940X0.0010*%
%ADD26R,0.0990X0.0010*%
%ADD27R,0.0490X0.0010*%
%ADD28R,0.0160X0.0010*%
%ADD29R,0.0440X0.0010*%
%ADD30R,0.0080X0.0010*%
%ADD31R,0.0420X0.0010*%
%ADD32R,0.0090X0.0010*%
%ADD33R,0.0380X0.0010*%
%ADD34R,0.0010X0.0010*%
%ADD35R,0.0280X0.0010*%
%ADD36R,0.0200X0.0010*%
%ADD37R,0.0100X0.0010*%
%ADD38R,0.0170X0.0010*%
%ADD39R,0.0120X0.0010*%
%ADD40R,0.0150X0.0010*%
%ADD41R,0.0240X0.0010*%
%ADD42R,0.0140X0.0010*%
%ADD43R,0.0110X0.0010*%
%ADD44R,0.0040X0.0010*%
%ADD45R,0.0180X0.0010*%
%ADD46R,0.0190X0.0010*%
%ADD47R,0.0070X0.0010*%
%ADD48R,0.0260X0.0010*%
%ADD49R,0.0290X0.0010*%
%ADD50R,0.0220X0.0010*%
%ADD51R,0.0020X0.0010*%
%ADD52R,0.0030X0.0010*%
%ADD53R,0.0050X0.0010*%
%ADD54R,0.0130X0.0010*%
%ADD55R,0.1810X0.0010*%
%ADD56R,0.1830X0.0010*%
%ADD57R,0.1870X0.0010*%
%ADD58R,0.1910X0.0010*%
%ADD59R,0.1940X0.0010*%
%ADD60R,0.1970X0.0010*%
%ADD61R,0.2000X0.0010*%
%ADD62R,0.2040X0.0010*%
%ADD63R,0.2070X0.0010*%
%ADD64R,0.2090X0.0010*%
%ADD65R,0.2100X0.0010*%
%ADD66R,0.2110X0.0010*%
%ADD67R,0.2120X0.0010*%
%ADD68R,0.0300X0.0010*%
%ADD69R,0.2130X0.0010*%
%ADD70R,0.0310X0.0010*%
%ADD71R,0.1960X0.0010*%
%ADD72R,0.0520X0.0010*%
%ADD73R,0.0410X0.0010*%
%ADD74R,0.0350X0.0010*%
%ADD75R,0.0330X0.0010*%
%ADD76R,0.2210X0.0010*%
%ADD77R,0.2200X0.0010*%
%ADD78R,0.2190X0.0010*%
%ADD79R,0.2180X0.0010*%
%ADD80R,0.0340X0.0010*%
%ADD81R,0.1980X0.0010*%
%ADD82R,0.1820X0.0010*%
%ADD83R,0.1950X0.0010*%
%ADD84R,0.0360X0.0010*%
%ADD85R,0.0370X0.0010*%
%ADD86R,0.2080X0.0010*%
%ADD87R,0.2060X0.0010*%
%ADD88R,0.2020X0.0010*%
%ADD89R,0.1990X0.0010*%
%ADD90R,0.1550X0.0010*%
%ADD91R,0.0400X0.0010*%
%ADD92R,0.0430X0.0010*%
%ADD93R,0.0450X0.0010*%
%ADD94R,0.0460X0.0010*%
%ADD95R,0.0470X0.0010*%
%ADD96R,0.0480X0.0010*%
%ADD97R,0.0500X0.0010*%
%ADD98R,0.0510X0.0010*%
%ADD99R,0.0530X0.0010*%
%ADD100R,0.0540X0.0010*%
%ADD101R,0.0550X0.0010*%
%ADD102R,0.0560X0.0010*%
%ADD103R,0.0570X0.0010*%
%ADD104R,0.0580X0.0010*%
%ADD105R,0.0590X0.0010*%
%ADD106R,0.0600X0.0010*%
%ADD107R,0.0620X0.0010*%
%ADD108R,0.0630X0.0010*%
%ADD109R,0.0700X0.0010*%
%ADD110R,0.0640X0.0010*%
%ADD111R,0.0750X0.0010*%
%ADD112R,0.0650X0.0010*%
%ADD113R,0.0810X0.0010*%
%ADD114R,0.0850X0.0010*%
%ADD115R,0.0660X0.0010*%
%ADD116R,0.0910X0.0010*%
%ADD117R,0.0670X0.0010*%
%ADD118R,0.1010X0.0010*%
%ADD119R,0.1030X0.0010*%
%ADD120R,0.0680X0.0010*%
%ADD121R,0.1040X0.0010*%
%ADD122R,0.0690X0.0010*%
%ADD123R,0.1050X0.0010*%
%ADD124R,0.0710X0.0010*%
%ADD125R,0.1150X0.0010*%
%ADD126R,0.1180X0.0010*%
%ADD127R,0.0720X0.0010*%
%ADD128R,0.1930X0.0010*%
%ADD129R,0.2010X0.0010*%
%ADD130R,0.2030X0.0010*%
%ADD131R,0.2050X0.0010*%
%ADD132R,0.2140X0.0010*%
%ADD133R,0.2150X0.0010*%
%ADD134R,0.2160X0.0010*%
%ADD135R,0.2170X0.0010*%
%ADD136R,0.3130X0.0010*%
%ADD137R,0.3120X0.0010*%
%ADD138R,0.3110X0.0010*%
%ADD139R,0.3100X0.0010*%
%ADD140R,0.3080X0.0010*%
%ADD141R,0.3060X0.0010*%
%ADD142R,0.3030X0.0010*%
%ADD143R,0.3010X0.0010*%
%ADD144R,0.2990X0.0010*%
%ADD145R,0.2970X0.0010*%
%ADD146R,0.2950X0.0010*%
%ADD147R,0.2920X0.0010*%
%ADD148R,0.2910X0.0010*%
%ADD149R,0.2880X0.0010*%
%ADD150R,0.2850X0.0010*%
%ADD151R,0.2830X0.0010*%
%ADD152R,0.2800X0.0010*%
%ADD153R,0.2780X0.0010*%
%ADD154R,0.2740X0.0010*%
%ADD155R,0.2690X0.0010*%
%ADD156R,0.2630X0.0010*%
%ADD157R,0.2570X0.0010*%
%ADD158R,0.2540X0.0010*%
%ADD159R,0.2520X0.0010*%
%ADD160R,0.2500X0.0010*%
%ADD161R,0.2480X0.0010*%
%ADD162R,0.2360X0.0010*%
%ADD163R,0.2350X0.0010*%
%ADD164R,0.2310X0.0010*%
%ADD165R,0.2290X0.0010*%
%ADD166R,0.2260X0.0010*%
%ADD167R,0.2220X0.0010*%
%ADD168R,0.1860X0.0010*%
%ADD169R,0.1800X0.0010*%
%ADD170R,0.1770X0.0010*%
%ADD171R,0.1740X0.0010*%
%ADD172R,0.1690X0.0010*%
%ADD173R,0.1630X0.0010*%
%ADD174R,0.1610X0.0010*%
%ADD175R,0.1580X0.0010*%
%ADD176R,0.1560X0.0010*%
%ADD177R,0.1530X0.0010*%
%ADD178R,0.1490X0.0010*%
%ADD179R,0.1460X0.0010*%
%ADD180R,0.1430X0.0010*%
%ADD181R,0.1400X0.0010*%
%ADD182R,0.1370X0.0010*%
%ADD183R,0.1320X0.0010*%
%ADD184R,0.1280X0.0010*%
%ADD185R,0.1230X0.0010*%
%ADD186R,0.1190X0.0010*%
%ADD187R,0.1160X0.0010*%
%ADD188R,0.1100X0.0010*%
%ADD189R,0.1070X0.0010*%
%ADD190R,0.1000X0.0010*%
%ADD191R,0.0960X0.0010*%
%ADD192R,0.0920X0.0010*%
%ADD193R,0.0800X0.0010*%
D10*
X023176Y008555D02*
X023282Y008448D01*
X023389Y008448D01*
X023176Y008555D02*
X023176Y009089D01*
X023603Y009089D02*
X023603Y008769D01*
X023496Y008662D01*
X023176Y008662D01*
X023819Y009089D02*
X023926Y009089D01*
X024140Y008875D01*
X024140Y008662D02*
X024140Y009089D01*
X024357Y008982D02*
X024464Y009089D01*
X024678Y009089D01*
X024784Y008982D01*
X024784Y008769D01*
X024678Y008662D01*
X024464Y008662D01*
X024357Y008875D02*
X024784Y008875D01*
X025001Y008662D02*
X025107Y008769D01*
X025107Y009196D01*
X025001Y009089D02*
X025214Y009089D01*
X025430Y009089D02*
X025644Y009089D01*
X025537Y009196D02*
X025537Y008769D01*
X025430Y008662D01*
X025861Y008662D02*
X026182Y008662D01*
X026288Y008769D01*
X026182Y008875D01*
X025861Y008875D01*
X025861Y008982D02*
X025861Y008662D01*
X025861Y008982D02*
X025968Y009089D01*
X026182Y009089D01*
X026506Y009089D02*
X026613Y008982D01*
X026933Y008982D01*
X026933Y008662D02*
X026613Y008662D01*
X026506Y008769D01*
X026506Y008875D01*
X026613Y008982D01*
X026506Y009089D02*
X026506Y009196D01*
X026613Y009302D01*
X026933Y009302D01*
X026933Y008662D01*
X027365Y008252D02*
X027258Y008146D01*
X027258Y008039D01*
X027365Y007932D01*
X027258Y007825D01*
X027258Y007719D01*
X027365Y007612D01*
X027578Y007612D01*
X027685Y007719D01*
X027902Y007612D02*
X028329Y007612D01*
X028116Y007612D02*
X028116Y008252D01*
X028329Y008039D01*
X028547Y008146D02*
X028974Y007719D01*
X028867Y007612D01*
X028654Y007612D01*
X028547Y007719D01*
X028547Y008146D01*
X028654Y008252D01*
X028867Y008252D01*
X028974Y008146D01*
X028974Y007719D01*
X029191Y007612D02*
X029618Y007612D01*
X029191Y008039D01*
X029191Y008146D01*
X029298Y008252D01*
X029512Y008252D01*
X029618Y008146D01*
X029511Y008662D02*
X029511Y009089D01*
X029191Y009089D01*
X029084Y008982D01*
X029084Y008662D01*
X028866Y008769D02*
X028760Y008662D01*
X028546Y008662D01*
X028439Y008769D01*
X028439Y008982D01*
X028546Y009089D01*
X028760Y009089D01*
X028866Y008982D01*
X028866Y008769D01*
X028222Y008662D02*
X027795Y009089D01*
X028222Y009089D02*
X027795Y008662D01*
X027578Y008252D02*
X027365Y008252D01*
X027578Y008252D02*
X027685Y008146D01*
X027471Y007932D02*
X027365Y007932D01*
X029727Y008662D02*
X029941Y008662D01*
X029834Y008662D02*
X029834Y009089D01*
X029941Y009089D01*
X030158Y009089D02*
X030158Y008662D01*
X030479Y008662D01*
X030585Y008769D01*
X030585Y009089D01*
X030803Y009089D02*
X031123Y009089D01*
X031230Y008982D01*
X031230Y008769D01*
X031123Y008662D01*
X030803Y008662D01*
X030803Y008448D02*
X030803Y009089D01*
X031445Y008769D02*
X031445Y008662D01*
X031552Y008662D01*
X031552Y008769D01*
X031445Y008769D01*
X031770Y008875D02*
X032197Y008875D01*
X032197Y008769D02*
X032197Y008982D01*
X032090Y009089D01*
X031876Y009089D01*
X031770Y008982D01*
X031770Y008875D01*
X031876Y008662D02*
X032090Y008662D01*
X032197Y008769D01*
X032197Y008252D02*
X031876Y008252D01*
X031770Y008146D01*
X031770Y008039D01*
X031876Y007932D01*
X032197Y007932D01*
X032197Y007612D02*
X031876Y007612D01*
X031770Y007719D01*
X031770Y007825D01*
X031876Y007932D01*
X031552Y007932D02*
X031552Y007719D01*
X031445Y007612D01*
X031232Y007612D01*
X031125Y007719D01*
X031125Y007932D01*
X031232Y008039D01*
X031445Y008039D01*
X031552Y007932D01*
X032197Y007612D02*
X032197Y008252D01*
X030908Y008039D02*
X030481Y007612D01*
X030908Y007612D02*
X030481Y008039D01*
X029834Y009302D02*
X029834Y009409D01*
X024357Y008982D02*
X024357Y008875D01*
X026590Y026584D02*
X026613Y026526D01*
X026640Y026469D01*
X026670Y026414D01*
X026704Y026361D01*
X026741Y026310D01*
X026781Y026262D01*
X026824Y026216D01*
X026869Y026173D01*
X026918Y026133D01*
X026969Y026097D01*
X027022Y026063D01*
X027077Y026033D01*
X027133Y026006D01*
X027192Y025983D01*
X027251Y025964D01*
X027312Y025948D01*
X027374Y025936D01*
X027436Y025928D01*
X027499Y025924D01*
X027561Y025924D01*
X027624Y025928D01*
X027686Y025936D01*
X027748Y025948D01*
X027809Y025964D01*
X027868Y025983D01*
X027927Y026006D01*
X027983Y026033D01*
X028038Y026063D01*
X028091Y026097D01*
X028142Y026133D01*
X028191Y026173D01*
X028236Y026216D01*
X028279Y026262D01*
X028319Y026310D01*
X028356Y026361D01*
X028390Y026414D01*
X028420Y026469D01*
X028447Y026526D01*
X028470Y026584D01*
X028470Y027264D02*
X028447Y027322D01*
X028420Y027379D01*
X028390Y027434D01*
X028356Y027487D01*
X028319Y027538D01*
X028279Y027586D01*
X028236Y027632D01*
X028191Y027675D01*
X028142Y027715D01*
X028091Y027751D01*
X028038Y027785D01*
X027983Y027815D01*
X027927Y027842D01*
X027868Y027865D01*
X027809Y027884D01*
X027748Y027900D01*
X027686Y027912D01*
X027624Y027920D01*
X027561Y027924D01*
X027499Y027924D01*
X027436Y027920D01*
X027374Y027912D01*
X027312Y027900D01*
X027251Y027884D01*
X027192Y027865D01*
X027133Y027842D01*
X027077Y027815D01*
X027022Y027785D01*
X026969Y027751D01*
X026918Y027715D01*
X026869Y027675D01*
X026824Y027632D01*
X026781Y027586D01*
X026741Y027538D01*
X026704Y027487D01*
X026670Y027434D01*
X026640Y027379D01*
X026613Y027322D01*
X026590Y027264D01*
D11*
X017451Y035979D02*
X017453Y036029D01*
X017459Y036079D01*
X017469Y036128D01*
X017483Y036176D01*
X017500Y036223D01*
X017521Y036268D01*
X017546Y036312D01*
X017574Y036353D01*
X017606Y036392D01*
X017640Y036429D01*
X017677Y036463D01*
X017717Y036493D01*
X017759Y036520D01*
X017803Y036544D01*
X017849Y036565D01*
X017896Y036581D01*
X017944Y036594D01*
X017994Y036603D01*
X018043Y036608D01*
X018094Y036609D01*
X018144Y036606D01*
X018193Y036599D01*
X018242Y036588D01*
X018290Y036573D01*
X018336Y036555D01*
X018381Y036533D01*
X018424Y036507D01*
X018465Y036478D01*
X018504Y036446D01*
X018540Y036411D01*
X018572Y036373D01*
X018602Y036333D01*
X018629Y036290D01*
X018652Y036246D01*
X018671Y036200D01*
X018687Y036152D01*
X018699Y036103D01*
X018707Y036054D01*
X018711Y036004D01*
X018711Y035954D01*
X018707Y035904D01*
X018699Y035855D01*
X018687Y035806D01*
X018671Y035758D01*
X018652Y035712D01*
X018629Y035668D01*
X018602Y035625D01*
X018572Y035585D01*
X018540Y035547D01*
X018504Y035512D01*
X018465Y035480D01*
X018424Y035451D01*
X018381Y035425D01*
X018336Y035403D01*
X018290Y035385D01*
X018242Y035370D01*
X018193Y035359D01*
X018144Y035352D01*
X018094Y035349D01*
X018043Y035350D01*
X017994Y035355D01*
X017944Y035364D01*
X017896Y035377D01*
X017849Y035393D01*
X017803Y035414D01*
X017759Y035438D01*
X017717Y035465D01*
X017677Y035495D01*
X017640Y035529D01*
X017606Y035566D01*
X017574Y035605D01*
X017546Y035646D01*
X017521Y035690D01*
X017500Y035735D01*
X017483Y035782D01*
X017469Y035830D01*
X017459Y035879D01*
X017453Y035929D01*
X017451Y035979D01*
X015718Y037160D02*
X015708Y037220D01*
X015702Y037280D01*
X015699Y037341D01*
X015700Y037401D01*
X015704Y037462D01*
X015713Y037522D01*
X015724Y037581D01*
X015740Y037640D01*
X015759Y037698D01*
X015781Y037754D01*
X015807Y037809D01*
X015836Y037862D01*
X015868Y037914D01*
X015903Y037963D01*
X015941Y038011D01*
X015982Y038055D01*
X016025Y038098D01*
X016071Y038137D01*
X016119Y038174D01*
X016170Y038208D01*
X016222Y038238D01*
X016276Y038266D01*
X016332Y038290D01*
X016389Y038311D01*
X016447Y038328D01*
X016506Y038342D01*
X038553Y038342D01*
X038553Y038341D02*
X038607Y038339D01*
X038660Y038334D01*
X038713Y038325D01*
X038765Y038312D01*
X038817Y038296D01*
X038867Y038276D01*
X038915Y038253D01*
X038962Y038226D01*
X039007Y038197D01*
X039050Y038164D01*
X039090Y038129D01*
X039128Y038091D01*
X039163Y038051D01*
X039196Y038008D01*
X039225Y037963D01*
X039252Y037916D01*
X039275Y037868D01*
X039295Y037818D01*
X039311Y037766D01*
X039324Y037714D01*
X039333Y037661D01*
X039338Y037608D01*
X039340Y037554D01*
X039341Y037554D02*
X039341Y007633D01*
X039340Y007633D02*
X039338Y007579D01*
X039333Y007526D01*
X039324Y007473D01*
X039311Y007421D01*
X039295Y007369D01*
X039275Y007319D01*
X039252Y007271D01*
X039225Y007224D01*
X039196Y007179D01*
X039163Y007136D01*
X039128Y007096D01*
X039090Y007058D01*
X039050Y007023D01*
X039007Y006990D01*
X038962Y006961D01*
X038915Y006934D01*
X038867Y006911D01*
X038817Y006891D01*
X038765Y006875D01*
X038713Y006862D01*
X038660Y006853D01*
X038607Y006848D01*
X038553Y006846D01*
X016506Y006846D01*
X016506Y006845D02*
X016447Y006859D01*
X016389Y006876D01*
X016332Y006897D01*
X016276Y006921D01*
X016222Y006949D01*
X016170Y006979D01*
X016119Y007013D01*
X016071Y007050D01*
X016025Y007089D01*
X015982Y007132D01*
X015941Y007176D01*
X015903Y007224D01*
X015868Y007273D01*
X015836Y007325D01*
X015807Y007378D01*
X015781Y007433D01*
X015759Y007489D01*
X015740Y007547D01*
X015724Y007606D01*
X015713Y007665D01*
X015704Y007725D01*
X015700Y007786D01*
X015699Y007846D01*
X015702Y007907D01*
X015708Y007967D01*
X015718Y008027D01*
X015719Y008027D02*
X015719Y037160D01*
X036349Y035979D02*
X036351Y036029D01*
X036357Y036079D01*
X036367Y036128D01*
X036381Y036176D01*
X036398Y036223D01*
X036419Y036268D01*
X036444Y036312D01*
X036472Y036353D01*
X036504Y036392D01*
X036538Y036429D01*
X036575Y036463D01*
X036615Y036493D01*
X036657Y036520D01*
X036701Y036544D01*
X036747Y036565D01*
X036794Y036581D01*
X036842Y036594D01*
X036892Y036603D01*
X036941Y036608D01*
X036992Y036609D01*
X037042Y036606D01*
X037091Y036599D01*
X037140Y036588D01*
X037188Y036573D01*
X037234Y036555D01*
X037279Y036533D01*
X037322Y036507D01*
X037363Y036478D01*
X037402Y036446D01*
X037438Y036411D01*
X037470Y036373D01*
X037500Y036333D01*
X037527Y036290D01*
X037550Y036246D01*
X037569Y036200D01*
X037585Y036152D01*
X037597Y036103D01*
X037605Y036054D01*
X037609Y036004D01*
X037609Y035954D01*
X037605Y035904D01*
X037597Y035855D01*
X037585Y035806D01*
X037569Y035758D01*
X037550Y035712D01*
X037527Y035668D01*
X037500Y035625D01*
X037470Y035585D01*
X037438Y035547D01*
X037402Y035512D01*
X037363Y035480D01*
X037322Y035451D01*
X037279Y035425D01*
X037234Y035403D01*
X037188Y035385D01*
X037140Y035370D01*
X037091Y035359D01*
X037042Y035352D01*
X036992Y035349D01*
X036941Y035350D01*
X036892Y035355D01*
X036842Y035364D01*
X036794Y035377D01*
X036747Y035393D01*
X036701Y035414D01*
X036657Y035438D01*
X036615Y035465D01*
X036575Y035495D01*
X036538Y035529D01*
X036504Y035566D01*
X036472Y035605D01*
X036444Y035646D01*
X036419Y035690D01*
X036398Y035735D01*
X036381Y035782D01*
X036367Y035830D01*
X036357Y035879D01*
X036351Y035929D01*
X036349Y035979D01*
X036349Y009208D02*
X036351Y009258D01*
X036357Y009308D01*
X036367Y009357D01*
X036381Y009405D01*
X036398Y009452D01*
X036419Y009497D01*
X036444Y009541D01*
X036472Y009582D01*
X036504Y009621D01*
X036538Y009658D01*
X036575Y009692D01*
X036615Y009722D01*
X036657Y009749D01*
X036701Y009773D01*
X036747Y009794D01*
X036794Y009810D01*
X036842Y009823D01*
X036892Y009832D01*
X036941Y009837D01*
X036992Y009838D01*
X037042Y009835D01*
X037091Y009828D01*
X037140Y009817D01*
X037188Y009802D01*
X037234Y009784D01*
X037279Y009762D01*
X037322Y009736D01*
X037363Y009707D01*
X037402Y009675D01*
X037438Y009640D01*
X037470Y009602D01*
X037500Y009562D01*
X037527Y009519D01*
X037550Y009475D01*
X037569Y009429D01*
X037585Y009381D01*
X037597Y009332D01*
X037605Y009283D01*
X037609Y009233D01*
X037609Y009183D01*
X037605Y009133D01*
X037597Y009084D01*
X037585Y009035D01*
X037569Y008987D01*
X037550Y008941D01*
X037527Y008897D01*
X037500Y008854D01*
X037470Y008814D01*
X037438Y008776D01*
X037402Y008741D01*
X037363Y008709D01*
X037322Y008680D01*
X037279Y008654D01*
X037234Y008632D01*
X037188Y008614D01*
X037140Y008599D01*
X037091Y008588D01*
X037042Y008581D01*
X036992Y008578D01*
X036941Y008579D01*
X036892Y008584D01*
X036842Y008593D01*
X036794Y008606D01*
X036747Y008622D01*
X036701Y008643D01*
X036657Y008667D01*
X036615Y008694D01*
X036575Y008724D01*
X036538Y008758D01*
X036504Y008795D01*
X036472Y008834D01*
X036444Y008875D01*
X036419Y008919D01*
X036398Y008964D01*
X036381Y009011D01*
X036367Y009059D01*
X036357Y009108D01*
X036351Y009158D01*
X036349Y009208D01*
X017451Y009208D02*
X017453Y009258D01*
X017459Y009308D01*
X017469Y009357D01*
X017483Y009405D01*
X017500Y009452D01*
X017521Y009497D01*
X017546Y009541D01*
X017574Y009582D01*
X017606Y009621D01*
X017640Y009658D01*
X017677Y009692D01*
X017717Y009722D01*
X017759Y009749D01*
X017803Y009773D01*
X017849Y009794D01*
X017896Y009810D01*
X017944Y009823D01*
X017994Y009832D01*
X018043Y009837D01*
X018094Y009838D01*
X018144Y009835D01*
X018193Y009828D01*
X018242Y009817D01*
X018290Y009802D01*
X018336Y009784D01*
X018381Y009762D01*
X018424Y009736D01*
X018465Y009707D01*
X018504Y009675D01*
X018540Y009640D01*
X018572Y009602D01*
X018602Y009562D01*
X018629Y009519D01*
X018652Y009475D01*
X018671Y009429D01*
X018687Y009381D01*
X018699Y009332D01*
X018707Y009283D01*
X018711Y009233D01*
X018711Y009183D01*
X018707Y009133D01*
X018699Y009084D01*
X018687Y009035D01*
X018671Y008987D01*
X018652Y008941D01*
X018629Y008897D01*
X018602Y008854D01*
X018572Y008814D01*
X018540Y008776D01*
X018504Y008741D01*
X018465Y008709D01*
X018424Y008680D01*
X018381Y008654D01*
X018336Y008632D01*
X018290Y008614D01*
X018242Y008599D01*
X018193Y008588D01*
X018144Y008581D01*
X018094Y008578D01*
X018043Y008579D01*
X017994Y008584D01*
X017944Y008593D01*
X017896Y008606D01*
X017849Y008622D01*
X017803Y008643D01*
X017759Y008667D01*
X017717Y008694D01*
X017677Y008724D01*
X017640Y008758D01*
X017606Y008795D01*
X017574Y008834D01*
X017546Y008875D01*
X017521Y008919D01*
X017500Y008964D01*
X017483Y009011D01*
X017469Y009059D01*
X017459Y009108D01*
X017453Y009158D01*
X017451Y009208D01*
D12*
X021096Y016995D02*
X021403Y016995D01*
X021250Y016995D02*
X021250Y017456D01*
X021403Y017302D01*
X021557Y016919D02*
X021864Y016919D01*
X022171Y016995D02*
X022171Y017456D01*
X022324Y017456D02*
X022017Y017456D01*
X022478Y017456D02*
X022478Y017072D01*
X022554Y016995D01*
X022708Y016995D01*
X022785Y017072D01*
X022785Y017456D01*
X022938Y017379D02*
X023015Y017456D01*
X023168Y017456D01*
X023245Y017379D01*
X023245Y017072D01*
X023168Y016995D01*
X023015Y016995D01*
X022938Y017072D01*
X022938Y017379D01*
X023398Y016919D02*
X023705Y016919D01*
X023859Y017149D02*
X023859Y017456D01*
X024166Y017456D02*
X024166Y017149D01*
X024012Y016995D01*
X023859Y017149D01*
X024319Y017302D02*
X024319Y017379D01*
X024396Y017456D01*
X024549Y017456D01*
X024626Y017379D01*
X024319Y017302D02*
X024626Y016995D01*
X024319Y016995D01*
X024780Y016995D02*
X025087Y016995D01*
X024933Y016995D02*
X024933Y017456D01*
X025087Y017302D01*
X025130Y018476D02*
X025206Y018553D01*
X025130Y018476D02*
X024976Y018476D01*
X024899Y018553D01*
X024899Y018629D01*
X024976Y018706D01*
X025130Y018706D01*
X025206Y018783D01*
X025206Y018860D01*
X025130Y018936D01*
X024976Y018936D01*
X024899Y018860D01*
X024746Y018936D02*
X024516Y018936D01*
X024439Y018860D01*
X024439Y018783D01*
X024516Y018706D01*
X024746Y018706D01*
X024746Y018476D02*
X024746Y018936D01*
X024516Y018706D02*
X024439Y018629D01*
X024439Y018553D01*
X024516Y018476D01*
X024746Y018476D01*
X025360Y018553D02*
X025360Y018936D01*
X025374Y019029D02*
X026959Y019029D01*
X026974Y019031D01*
X026988Y019036D01*
X027001Y019044D01*
X027011Y019054D01*
X027019Y019067D01*
X027024Y019081D01*
X027026Y019096D01*
X027027Y019096D02*
X027027Y019417D01*
X027963Y019417D01*
X028258Y019417D01*
X028291Y019383D01*
X028291Y019256D01*
X028292Y019243D01*
X028297Y019230D01*
X028304Y019219D01*
X028313Y019210D01*
X028324Y019203D01*
X028337Y019198D01*
X028350Y019197D01*
X028958Y019197D01*
X028971Y019199D01*
X028984Y019204D01*
X028994Y019212D01*
X029002Y019223D01*
X029007Y019235D01*
X029009Y019248D01*
X029008Y019248D02*
X029008Y019366D01*
X029042Y019408D01*
X029683Y019408D01*
X029683Y019096D01*
X029682Y019096D02*
X029680Y019081D01*
X029675Y019067D01*
X029667Y019054D01*
X029657Y019044D01*
X029644Y019036D01*
X029630Y019031D01*
X029615Y019029D01*
X028039Y019029D01*
X028024Y019030D01*
X028010Y019035D01*
X027997Y019042D01*
X027985Y019051D01*
X027976Y019063D01*
X027969Y019076D01*
X027964Y019090D01*
X027963Y019105D01*
X027963Y019256D01*
X027963Y019417D01*
X027963Y019256D02*
X027035Y019256D01*
X027027Y019417D02*
X026732Y019417D01*
X026698Y019383D01*
X026698Y019256D01*
X026697Y019243D01*
X026692Y019230D01*
X026685Y019219D01*
X026676Y019210D01*
X026665Y019203D01*
X026652Y019198D01*
X026639Y019197D01*
X026032Y019197D01*
X026019Y019199D01*
X026007Y019204D01*
X025996Y019212D01*
X025988Y019223D01*
X025983Y019235D01*
X025981Y019248D01*
X025981Y019366D01*
X025947Y019408D01*
X025306Y019408D01*
X025306Y019417D02*
X025306Y019096D01*
X025307Y019096D02*
X025309Y019081D01*
X025314Y019067D01*
X025322Y019054D01*
X025332Y019044D01*
X025345Y019036D01*
X025359Y019031D01*
X025374Y019029D01*
X025667Y018936D02*
X025667Y018553D01*
X025590Y018476D01*
X025437Y018476D01*
X025360Y018553D01*
X025939Y019417D02*
X026074Y019585D01*
X026588Y019585D01*
X026732Y019417D01*
X026841Y019906D02*
X027355Y019906D01*
X027355Y020395D01*
X027625Y020403D02*
X027625Y019906D01*
X028140Y019906D01*
X028140Y020412D01*
X028603Y020412D02*
X028603Y019906D01*
X029118Y019906D01*
X029118Y020412D01*
X029464Y020572D02*
X029464Y020934D01*
X029598Y021052D01*
X029658Y020926D02*
X029658Y020420D01*
X029649Y020420D01*
X029464Y020572D01*
X025526Y020572D01*
X025517Y020934D01*
X025391Y021044D01*
X025315Y020884D02*
X025315Y020420D01*
X025526Y020572D01*
X025315Y020420D02*
X029649Y020420D01*
X029818Y020622D02*
X029919Y020732D01*
X029936Y021179D02*
X030222Y021179D01*
X030241Y021177D01*
X030260Y021172D01*
X030277Y021164D01*
X030293Y021153D01*
X030306Y021140D01*
X030317Y021124D01*
X030325Y021107D01*
X030330Y021088D01*
X030332Y021069D01*
X030096Y021187D02*
X030096Y021398D01*
X030094Y021423D01*
X030089Y021448D01*
X030080Y021472D01*
X030068Y021494D01*
X030053Y021514D01*
X030035Y021532D01*
X030015Y021547D01*
X029993Y021559D01*
X029969Y021568D01*
X029944Y021573D01*
X029919Y021575D01*
X029683Y021575D01*
X029683Y021719D01*
X029682Y021719D02*
X029680Y021735D01*
X029676Y021751D01*
X029668Y021766D01*
X029657Y021778D01*
X029645Y021789D01*
X029630Y021797D01*
X029614Y021801D01*
X029598Y021803D01*
X028039Y021803D01*
X028024Y021802D01*
X028010Y021797D01*
X027997Y021790D01*
X027985Y021781D01*
X027976Y021769D01*
X027969Y021756D01*
X027964Y021742D01*
X027963Y021727D01*
X027963Y021575D01*
X027035Y021575D01*
X027027Y021702D02*
X027027Y021415D01*
X028258Y021415D01*
X028291Y021449D01*
X028291Y021626D01*
X029008Y021626D01*
X029008Y021466D01*
X028907Y021280D01*
X028915Y021272D02*
X028831Y021499D01*
X028460Y021499D01*
X028410Y021272D01*
X028300Y021474D01*
X028258Y021415D02*
X028393Y021255D01*
X028924Y021255D01*
X029059Y021415D01*
X029683Y021415D01*
X029683Y021575D01*
X029683Y021415D02*
X029860Y021415D01*
X029875Y021413D01*
X029889Y021408D01*
X029902Y021400D01*
X029912Y021390D01*
X029920Y021377D01*
X029925Y021363D01*
X029927Y021348D01*
X029658Y020926D02*
X029656Y020954D01*
X029651Y020981D01*
X029642Y021007D01*
X029630Y021032D01*
X029614Y021054D01*
X029596Y021075D01*
X029575Y021093D01*
X029553Y021109D01*
X029528Y021121D01*
X029502Y021130D01*
X029475Y021135D01*
X029447Y021137D01*
X029059Y021415D02*
X029008Y021466D01*
X027963Y021415D02*
X027963Y021575D01*
X027027Y021415D02*
X026723Y021415D01*
X026681Y021474D01*
X026580Y021297D01*
X026512Y021516D01*
X026150Y021516D01*
X026074Y021272D01*
X026065Y021263D02*
X026588Y021263D01*
X026723Y021415D01*
X026681Y021474D02*
X026681Y021617D01*
X026680Y021624D01*
X026676Y021629D01*
X026671Y021633D01*
X026664Y021634D01*
X026023Y021634D01*
X026010Y021633D01*
X025997Y021628D01*
X025986Y021621D01*
X025977Y021612D01*
X025970Y021601D01*
X025965Y021588D01*
X025964Y021575D01*
X025964Y021474D01*
X025930Y021415D01*
X025930Y021415D01*
X025129Y021415D01*
X025070Y021576D02*
X025044Y021574D01*
X025018Y021568D01*
X024993Y021559D01*
X024969Y021546D01*
X024948Y021531D01*
X024929Y021512D01*
X024914Y021491D01*
X024901Y021467D01*
X024892Y021442D01*
X024886Y021416D01*
X024884Y021390D01*
X024885Y021390D02*
X024885Y021187D01*
X024750Y021179D02*
X025045Y021179D01*
X025045Y021331D01*
X025047Y021347D01*
X025051Y021363D01*
X025059Y021378D01*
X025070Y021390D01*
X025082Y021401D01*
X025097Y021409D01*
X025113Y021413D01*
X025129Y021415D01*
X025070Y021575D02*
X025306Y021575D01*
X025306Y021415D01*
X025306Y021575D02*
X025306Y021735D01*
X025307Y021735D02*
X025309Y021750D01*
X025314Y021764D01*
X025322Y021777D01*
X025332Y021787D01*
X025345Y021795D01*
X025359Y021800D01*
X025374Y021802D01*
X025374Y021803D02*
X026925Y021803D01*
X026943Y021801D01*
X026960Y021797D01*
X026976Y021789D01*
X026990Y021779D01*
X027002Y021767D01*
X027012Y021753D01*
X027020Y021737D01*
X027024Y021720D01*
X027026Y021702D01*
X026074Y021314D02*
X025973Y021491D01*
X025930Y021407D02*
X026065Y021263D01*
X025568Y021137D02*
X025538Y021135D01*
X025507Y021130D01*
X025478Y021121D01*
X025450Y021108D01*
X025424Y021092D01*
X025400Y021073D01*
X025379Y021052D01*
X025360Y021028D01*
X025344Y021002D01*
X025331Y020974D01*
X025322Y020945D01*
X025317Y020914D01*
X025315Y020884D01*
X025163Y020639D02*
X025053Y020740D01*
X024666Y021095D02*
X024668Y021111D01*
X024672Y021127D01*
X024680Y021142D01*
X024691Y021154D01*
X024703Y021165D01*
X024718Y021173D01*
X024734Y021177D01*
X024750Y021179D01*
X025863Y020403D02*
X025863Y019906D01*
X026386Y019906D01*
X026386Y020403D01*
X026833Y020412D02*
X026841Y020412D01*
X026841Y019906D01*
X028258Y019417D02*
X028401Y019585D01*
X028915Y019585D01*
X029050Y019417D01*
X029047Y017456D02*
X029201Y017456D01*
X029277Y017379D01*
X029047Y017456D02*
X028971Y017379D01*
X028971Y017302D01*
X029277Y016995D01*
X028971Y016995D01*
X029431Y016919D02*
X029738Y016919D01*
X030045Y016995D02*
X030045Y017456D01*
X030198Y017456D02*
X029891Y017456D01*
X030352Y017456D02*
X030352Y017072D01*
X030428Y016995D01*
X030582Y016995D01*
X030659Y017072D01*
X030659Y017456D01*
X030812Y017379D02*
X030889Y017456D01*
X031042Y017456D01*
X031119Y017379D01*
X031119Y017072D01*
X031042Y016995D01*
X030889Y016995D01*
X030812Y017072D01*
X030812Y017379D01*
X031272Y016919D02*
X031579Y016919D01*
X031733Y017149D02*
X031733Y017456D01*
X032040Y017456D02*
X032040Y017149D01*
X031886Y016995D01*
X031733Y017149D01*
X032193Y017302D02*
X032193Y017379D01*
X032270Y017456D01*
X032423Y017456D01*
X032500Y017379D01*
X032193Y017302D02*
X032500Y016995D01*
X032193Y016995D01*
X032654Y016995D02*
X032961Y016995D01*
X032807Y016995D02*
X032807Y017456D01*
X032961Y017302D01*
D13*
X015581Y011708D02*
X015581Y006708D01*
X020581Y006708D01*
X020581Y011708D01*
X015581Y011708D01*
X016073Y011688D02*
X016073Y006727D01*
X017201Y009208D02*
X017203Y009267D01*
X017209Y009325D01*
X017219Y009383D01*
X017232Y009440D01*
X017250Y009497D01*
X017271Y009552D01*
X017296Y009605D01*
X017324Y009656D01*
X017355Y009706D01*
X017390Y009753D01*
X017428Y009798D01*
X017469Y009841D01*
X017513Y009880D01*
X017559Y009916D01*
X017607Y009950D01*
X017658Y009980D01*
X017711Y010006D01*
X017765Y010029D01*
X017820Y010048D01*
X017877Y010064D01*
X017935Y010076D01*
X017993Y010084D01*
X018052Y010088D01*
X018110Y010088D01*
X018169Y010084D01*
X018227Y010076D01*
X018285Y010064D01*
X018342Y010048D01*
X018397Y010029D01*
X018451Y010006D01*
X018504Y009980D01*
X018555Y009950D01*
X018603Y009916D01*
X018649Y009880D01*
X018693Y009841D01*
X018734Y009798D01*
X018772Y009753D01*
X018807Y009706D01*
X018838Y009656D01*
X018866Y009605D01*
X018891Y009552D01*
X018912Y009497D01*
X018930Y009440D01*
X018943Y009383D01*
X018953Y009325D01*
X018959Y009267D01*
X018961Y009208D01*
X018959Y009149D01*
X018953Y009091D01*
X018943Y009033D01*
X018930Y008976D01*
X018912Y008919D01*
X018891Y008864D01*
X018866Y008811D01*
X018838Y008760D01*
X018807Y008710D01*
X018772Y008663D01*
X018734Y008618D01*
X018693Y008575D01*
X018649Y008536D01*
X018603Y008500D01*
X018555Y008466D01*
X018504Y008436D01*
X018451Y008410D01*
X018397Y008387D01*
X018342Y008368D01*
X018285Y008352D01*
X018227Y008340D01*
X018169Y008332D01*
X018110Y008328D01*
X018052Y008328D01*
X017993Y008332D01*
X017935Y008340D01*
X017877Y008352D01*
X017820Y008368D01*
X017765Y008387D01*
X017711Y008410D01*
X017658Y008436D01*
X017607Y008466D01*
X017559Y008500D01*
X017513Y008536D01*
X017469Y008575D01*
X017428Y008618D01*
X017390Y008663D01*
X017355Y008710D01*
X017324Y008760D01*
X017296Y008811D01*
X017271Y008864D01*
X017250Y008919D01*
X017232Y008976D01*
X017219Y009033D01*
X017209Y009091D01*
X017203Y009149D01*
X017201Y009208D01*
X021799Y012566D02*
X021799Y016897D01*
X025343Y016897D01*
X025343Y012566D01*
X021799Y012566D01*
X023158Y015086D02*
X023160Y015126D01*
X023166Y015167D01*
X023176Y015206D01*
X023189Y015244D01*
X023207Y015281D01*
X023228Y015315D01*
X023252Y015348D01*
X023279Y015378D01*
X023309Y015405D01*
X023342Y015429D01*
X023376Y015450D01*
X023413Y015468D01*
X023451Y015481D01*
X023490Y015491D01*
X023531Y015497D01*
X023571Y015499D01*
X023611Y015497D01*
X023652Y015491D01*
X023691Y015481D01*
X023729Y015468D01*
X023766Y015450D01*
X023800Y015429D01*
X023833Y015405D01*
X023863Y015378D01*
X023890Y015348D01*
X023914Y015315D01*
X023935Y015281D01*
X023953Y015244D01*
X023966Y015206D01*
X023976Y015167D01*
X023982Y015126D01*
X023984Y015086D01*
X023982Y015046D01*
X023976Y015005D01*
X023966Y014966D01*
X023953Y014928D01*
X023935Y014891D01*
X023914Y014857D01*
X023890Y014824D01*
X023863Y014794D01*
X023833Y014767D01*
X023800Y014743D01*
X023766Y014722D01*
X023729Y014704D01*
X023691Y014691D01*
X023652Y014681D01*
X023611Y014675D01*
X023571Y014673D01*
X023531Y014675D01*
X023490Y014681D01*
X023451Y014691D01*
X023413Y014704D01*
X023376Y014722D01*
X023342Y014743D01*
X023309Y014767D01*
X023279Y014794D01*
X023252Y014824D01*
X023228Y014857D01*
X023207Y014891D01*
X023189Y014928D01*
X023176Y014966D01*
X023166Y015005D01*
X023160Y015046D01*
X023158Y015086D01*
X022311Y015086D02*
X022313Y015157D01*
X022319Y015227D01*
X022329Y015297D01*
X022343Y015366D01*
X022360Y015435D01*
X022382Y015502D01*
X022407Y015568D01*
X022436Y015633D01*
X022468Y015695D01*
X022504Y015756D01*
X022543Y015815D01*
X022586Y015872D01*
X022631Y015926D01*
X022680Y015977D01*
X022731Y016026D01*
X022785Y016071D01*
X022842Y016114D01*
X022901Y016153D01*
X022962Y016189D01*
X023024Y016221D01*
X023089Y016250D01*
X023155Y016275D01*
X023222Y016297D01*
X023291Y016314D01*
X023360Y016328D01*
X023430Y016338D01*
X023500Y016344D01*
X023571Y016346D01*
X023642Y016344D01*
X023712Y016338D01*
X023782Y016328D01*
X023851Y016314D01*
X023920Y016297D01*
X023987Y016275D01*
X024053Y016250D01*
X024118Y016221D01*
X024180Y016189D01*
X024241Y016153D01*
X024300Y016114D01*
X024357Y016071D01*
X024411Y016026D01*
X024462Y015977D01*
X024511Y015926D01*
X024556Y015872D01*
X024599Y015815D01*
X024638Y015756D01*
X024674Y015695D01*
X024706Y015633D01*
X024735Y015568D01*
X024760Y015502D01*
X024782Y015435D01*
X024799Y015366D01*
X024813Y015297D01*
X024823Y015227D01*
X024829Y015157D01*
X024831Y015086D01*
X024829Y015015D01*
X024823Y014945D01*
X024813Y014875D01*
X024799Y014806D01*
X024782Y014737D01*
X024760Y014670D01*
X024735Y014604D01*
X024706Y014539D01*
X024674Y014477D01*
X024638Y014416D01*
X024599Y014357D01*
X024556Y014300D01*
X024511Y014246D01*
X024462Y014195D01*
X024411Y014146D01*
X024357Y014101D01*
X024300Y014058D01*
X024241Y014019D01*
X024180Y013983D01*
X024118Y013951D01*
X024053Y013922D01*
X023987Y013897D01*
X023920Y013875D01*
X023851Y013858D01*
X023782Y013844D01*
X023712Y013834D01*
X023642Y013828D01*
X023571Y013826D01*
X023500Y013828D01*
X023430Y013834D01*
X023360Y013844D01*
X023291Y013858D01*
X023222Y013875D01*
X023155Y013897D01*
X023089Y013922D01*
X023024Y013951D01*
X022962Y013983D01*
X022901Y014019D01*
X022842Y014058D01*
X022785Y014101D01*
X022731Y014146D01*
X022680Y014195D01*
X022631Y014246D01*
X022586Y014300D01*
X022543Y014357D01*
X022504Y014416D01*
X022468Y014477D01*
X022436Y014539D01*
X022407Y014604D01*
X022382Y014670D01*
X022360Y014737D01*
X022343Y014806D01*
X022329Y014875D01*
X022319Y014945D01*
X022313Y015015D01*
X022311Y015086D01*
X021799Y016503D02*
X025343Y016503D01*
X029673Y016503D02*
X033217Y016503D01*
X033217Y016897D02*
X029673Y016897D01*
X029673Y012566D01*
X033217Y012566D01*
X033217Y016897D01*
X031032Y015086D02*
X031034Y015126D01*
X031040Y015167D01*
X031050Y015206D01*
X031063Y015244D01*
X031081Y015281D01*
X031102Y015315D01*
X031126Y015348D01*
X031153Y015378D01*
X031183Y015405D01*
X031216Y015429D01*
X031250Y015450D01*
X031287Y015468D01*
X031325Y015481D01*
X031364Y015491D01*
X031405Y015497D01*
X031445Y015499D01*
X031485Y015497D01*
X031526Y015491D01*
X031565Y015481D01*
X031603Y015468D01*
X031640Y015450D01*
X031674Y015429D01*
X031707Y015405D01*
X031737Y015378D01*
X031764Y015348D01*
X031788Y015315D01*
X031809Y015281D01*
X031827Y015244D01*
X031840Y015206D01*
X031850Y015167D01*
X031856Y015126D01*
X031858Y015086D01*
X031856Y015046D01*
X031850Y015005D01*
X031840Y014966D01*
X031827Y014928D01*
X031809Y014891D01*
X031788Y014857D01*
X031764Y014824D01*
X031737Y014794D01*
X031707Y014767D01*
X031674Y014743D01*
X031640Y014722D01*
X031603Y014704D01*
X031565Y014691D01*
X031526Y014681D01*
X031485Y014675D01*
X031445Y014673D01*
X031405Y014675D01*
X031364Y014681D01*
X031325Y014691D01*
X031287Y014704D01*
X031250Y014722D01*
X031216Y014743D01*
X031183Y014767D01*
X031153Y014794D01*
X031126Y014824D01*
X031102Y014857D01*
X031081Y014891D01*
X031063Y014928D01*
X031050Y014966D01*
X031040Y015005D01*
X031034Y015046D01*
X031032Y015086D01*
X030185Y015086D02*
X030187Y015157D01*
X030193Y015227D01*
X030203Y015297D01*
X030217Y015366D01*
X030234Y015435D01*
X030256Y015502D01*
X030281Y015568D01*
X030310Y015633D01*
X030342Y015695D01*
X030378Y015756D01*
X030417Y015815D01*
X030460Y015872D01*
X030505Y015926D01*
X030554Y015977D01*
X030605Y016026D01*
X030659Y016071D01*
X030716Y016114D01*
X030775Y016153D01*
X030836Y016189D01*
X030898Y016221D01*
X030963Y016250D01*
X031029Y016275D01*
X031096Y016297D01*
X031165Y016314D01*
X031234Y016328D01*
X031304Y016338D01*
X031374Y016344D01*
X031445Y016346D01*
X031516Y016344D01*
X031586Y016338D01*
X031656Y016328D01*
X031725Y016314D01*
X031794Y016297D01*
X031861Y016275D01*
X031927Y016250D01*
X031992Y016221D01*
X032054Y016189D01*
X032115Y016153D01*
X032174Y016114D01*
X032231Y016071D01*
X032285Y016026D01*
X032336Y015977D01*
X032385Y015926D01*
X032430Y015872D01*
X032473Y015815D01*
X032512Y015756D01*
X032548Y015695D01*
X032580Y015633D01*
X032609Y015568D01*
X032634Y015502D01*
X032656Y015435D01*
X032673Y015366D01*
X032687Y015297D01*
X032697Y015227D01*
X032703Y015157D01*
X032705Y015086D01*
X032703Y015015D01*
X032697Y014945D01*
X032687Y014875D01*
X032673Y014806D01*
X032656Y014737D01*
X032634Y014670D01*
X032609Y014604D01*
X032580Y014539D01*
X032548Y014477D01*
X032512Y014416D01*
X032473Y014357D01*
X032430Y014300D01*
X032385Y014246D01*
X032336Y014195D01*
X032285Y014146D01*
X032231Y014101D01*
X032174Y014058D01*
X032115Y014019D01*
X032054Y013983D01*
X031992Y013951D01*
X031927Y013922D01*
X031861Y013897D01*
X031794Y013875D01*
X031725Y013858D01*
X031656Y013844D01*
X031586Y013834D01*
X031516Y013828D01*
X031445Y013826D01*
X031374Y013828D01*
X031304Y013834D01*
X031234Y013844D01*
X031165Y013858D01*
X031096Y013875D01*
X031029Y013897D01*
X030963Y013922D01*
X030898Y013951D01*
X030836Y013983D01*
X030775Y014019D01*
X030716Y014058D01*
X030659Y014101D01*
X030605Y014146D01*
X030554Y014195D01*
X030505Y014246D01*
X030460Y014300D01*
X030417Y014357D01*
X030378Y014416D01*
X030342Y014477D01*
X030310Y014539D01*
X030281Y014604D01*
X030256Y014670D01*
X030234Y014737D01*
X030217Y014806D01*
X030203Y014875D01*
X030193Y014945D01*
X030187Y015015D01*
X030185Y015086D01*
X034479Y011708D02*
X039479Y011708D01*
X039479Y006708D01*
X034479Y006708D01*
X034479Y011708D01*
X034971Y011688D02*
X034971Y006727D01*
X036099Y009208D02*
X036101Y009267D01*
X036107Y009325D01*
X036117Y009383D01*
X036130Y009440D01*
X036148Y009497D01*
X036169Y009552D01*
X036194Y009605D01*
X036222Y009656D01*
X036253Y009706D01*
X036288Y009753D01*
X036326Y009798D01*
X036367Y009841D01*
X036411Y009880D01*
X036457Y009916D01*
X036505Y009950D01*
X036556Y009980D01*
X036609Y010006D01*
X036663Y010029D01*
X036718Y010048D01*
X036775Y010064D01*
X036833Y010076D01*
X036891Y010084D01*
X036950Y010088D01*
X037008Y010088D01*
X037067Y010084D01*
X037125Y010076D01*
X037183Y010064D01*
X037240Y010048D01*
X037295Y010029D01*
X037349Y010006D01*
X037402Y009980D01*
X037453Y009950D01*
X037501Y009916D01*
X037547Y009880D01*
X037591Y009841D01*
X037632Y009798D01*
X037670Y009753D01*
X037705Y009706D01*
X037736Y009656D01*
X037764Y009605D01*
X037789Y009552D01*
X037810Y009497D01*
X037828Y009440D01*
X037841Y009383D01*
X037851Y009325D01*
X037857Y009267D01*
X037859Y009208D01*
X037857Y009149D01*
X037851Y009091D01*
X037841Y009033D01*
X037828Y008976D01*
X037810Y008919D01*
X037789Y008864D01*
X037764Y008811D01*
X037736Y008760D01*
X037705Y008710D01*
X037670Y008663D01*
X037632Y008618D01*
X037591Y008575D01*
X037547Y008536D01*
X037501Y008500D01*
X037453Y008466D01*
X037402Y008436D01*
X037349Y008410D01*
X037295Y008387D01*
X037240Y008368D01*
X037183Y008352D01*
X037125Y008340D01*
X037067Y008332D01*
X037008Y008328D01*
X036950Y008328D01*
X036891Y008332D01*
X036833Y008340D01*
X036775Y008352D01*
X036718Y008368D01*
X036663Y008387D01*
X036609Y008410D01*
X036556Y008436D01*
X036505Y008466D01*
X036457Y008500D01*
X036411Y008536D01*
X036367Y008575D01*
X036326Y008618D01*
X036288Y008663D01*
X036253Y008710D01*
X036222Y008760D01*
X036194Y008811D01*
X036169Y008864D01*
X036148Y008919D01*
X036130Y008976D01*
X036117Y009033D01*
X036107Y009091D01*
X036101Y009149D01*
X036099Y009208D01*
X026005Y027949D02*
X025705Y027949D01*
X025544Y027949D02*
X025319Y027949D01*
X025244Y028024D01*
X025244Y028325D01*
X025319Y028400D01*
X025544Y028400D01*
X025544Y027949D01*
X025084Y027949D02*
X024784Y027949D01*
X024934Y027949D02*
X024934Y028400D01*
X025084Y028250D01*
X026005Y028400D02*
X026005Y027949D01*
X020581Y033479D02*
X015581Y033479D01*
X015581Y038479D01*
X020581Y038479D01*
X020581Y033479D01*
X017201Y035979D02*
X017203Y036038D01*
X017209Y036096D01*
X017219Y036154D01*
X017232Y036211D01*
X017250Y036268D01*
X017271Y036323D01*
X017296Y036376D01*
X017324Y036427D01*
X017355Y036477D01*
X017390Y036524D01*
X017428Y036569D01*
X017469Y036612D01*
X017513Y036651D01*
X017559Y036687D01*
X017607Y036721D01*
X017658Y036751D01*
X017711Y036777D01*
X017765Y036800D01*
X017820Y036819D01*
X017877Y036835D01*
X017935Y036847D01*
X017993Y036855D01*
X018052Y036859D01*
X018110Y036859D01*
X018169Y036855D01*
X018227Y036847D01*
X018285Y036835D01*
X018342Y036819D01*
X018397Y036800D01*
X018451Y036777D01*
X018504Y036751D01*
X018555Y036721D01*
X018603Y036687D01*
X018649Y036651D01*
X018693Y036612D01*
X018734Y036569D01*
X018772Y036524D01*
X018807Y036477D01*
X018838Y036427D01*
X018866Y036376D01*
X018891Y036323D01*
X018912Y036268D01*
X018930Y036211D01*
X018943Y036154D01*
X018953Y036096D01*
X018959Y036038D01*
X018961Y035979D01*
X018959Y035920D01*
X018953Y035862D01*
X018943Y035804D01*
X018930Y035747D01*
X018912Y035690D01*
X018891Y035635D01*
X018866Y035582D01*
X018838Y035531D01*
X018807Y035481D01*
X018772Y035434D01*
X018734Y035389D01*
X018693Y035346D01*
X018649Y035307D01*
X018603Y035271D01*
X018555Y035237D01*
X018504Y035207D01*
X018451Y035181D01*
X018397Y035158D01*
X018342Y035139D01*
X018285Y035123D01*
X018227Y035111D01*
X018169Y035103D01*
X018110Y035099D01*
X018052Y035099D01*
X017993Y035103D01*
X017935Y035111D01*
X017877Y035123D01*
X017820Y035139D01*
X017765Y035158D01*
X017711Y035181D01*
X017658Y035207D01*
X017607Y035237D01*
X017559Y035271D01*
X017513Y035307D01*
X017469Y035346D01*
X017428Y035389D01*
X017390Y035434D01*
X017355Y035481D01*
X017324Y035531D01*
X017296Y035582D01*
X017271Y035635D01*
X017250Y035690D01*
X017232Y035747D01*
X017219Y035804D01*
X017209Y035862D01*
X017203Y035920D01*
X017201Y035979D01*
X016073Y033499D02*
X016073Y038460D01*
X025903Y035199D02*
X025903Y034748D01*
X026053Y034899D01*
X026203Y034748D01*
X026203Y035199D01*
X026363Y035124D02*
X026363Y034824D01*
X026438Y034748D01*
X026588Y034748D01*
X026663Y034824D01*
X026663Y035124D01*
X026588Y035199D01*
X026438Y035199D01*
X026363Y035124D01*
X026823Y035124D02*
X026823Y034974D01*
X026898Y034899D01*
X027124Y034899D01*
X027124Y034748D02*
X027124Y035199D01*
X026898Y035199D01*
X026823Y035124D01*
X027284Y034673D02*
X027584Y034673D01*
X027744Y034748D02*
X027744Y035199D01*
X028044Y035199D02*
X028044Y034748D01*
X027894Y034899D01*
X027744Y034748D01*
X028205Y034824D02*
X028205Y034899D01*
X028280Y034974D01*
X028430Y034974D01*
X028505Y035049D01*
X028505Y035124D01*
X028430Y035199D01*
X028280Y035199D01*
X028205Y035124D01*
X028205Y034824D02*
X028280Y034748D01*
X028430Y034748D01*
X028505Y034824D01*
X034479Y033479D02*
X034479Y038479D01*
X039479Y038479D01*
X039479Y033479D01*
X034479Y033479D01*
X034971Y033499D02*
X034971Y038460D01*
X036099Y035979D02*
X036101Y036038D01*
X036107Y036096D01*
X036117Y036154D01*
X036130Y036211D01*
X036148Y036268D01*
X036169Y036323D01*
X036194Y036376D01*
X036222Y036427D01*
X036253Y036477D01*
X036288Y036524D01*
X036326Y036569D01*
X036367Y036612D01*
X036411Y036651D01*
X036457Y036687D01*
X036505Y036721D01*
X036556Y036751D01*
X036609Y036777D01*
X036663Y036800D01*
X036718Y036819D01*
X036775Y036835D01*
X036833Y036847D01*
X036891Y036855D01*
X036950Y036859D01*
X037008Y036859D01*
X037067Y036855D01*
X037125Y036847D01*
X037183Y036835D01*
X037240Y036819D01*
X037295Y036800D01*
X037349Y036777D01*
X037402Y036751D01*
X037453Y036721D01*
X037501Y036687D01*
X037547Y036651D01*
X037591Y036612D01*
X037632Y036569D01*
X037670Y036524D01*
X037705Y036477D01*
X037736Y036427D01*
X037764Y036376D01*
X037789Y036323D01*
X037810Y036268D01*
X037828Y036211D01*
X037841Y036154D01*
X037851Y036096D01*
X037857Y036038D01*
X037859Y035979D01*
X037857Y035920D01*
X037851Y035862D01*
X037841Y035804D01*
X037828Y035747D01*
X037810Y035690D01*
X037789Y035635D01*
X037764Y035582D01*
X037736Y035531D01*
X037705Y035481D01*
X037670Y035434D01*
X037632Y035389D01*
X037591Y035346D01*
X037547Y035307D01*
X037501Y035271D01*
X037453Y035237D01*
X037402Y035207D01*
X037349Y035181D01*
X037295Y035158D01*
X037240Y035139D01*
X037183Y035123D01*
X037125Y035111D01*
X037067Y035103D01*
X037008Y035099D01*
X036950Y035099D01*
X036891Y035103D01*
X036833Y035111D01*
X036775Y035123D01*
X036718Y035139D01*
X036663Y035158D01*
X036609Y035181D01*
X036556Y035207D01*
X036505Y035237D01*
X036457Y035271D01*
X036411Y035307D01*
X036367Y035346D01*
X036326Y035389D01*
X036288Y035434D01*
X036253Y035481D01*
X036222Y035531D01*
X036194Y035582D01*
X036169Y035635D01*
X036148Y035690D01*
X036130Y035747D01*
X036117Y035804D01*
X036107Y035862D01*
X036101Y035920D01*
X036099Y035979D01*
D14*
X028630Y027264D02*
X028608Y027327D01*
X028583Y027389D01*
X028554Y027449D01*
X028522Y027508D01*
X028486Y027565D01*
X028447Y027619D01*
X028406Y027671D01*
X028361Y027721D01*
X028313Y027768D01*
X028263Y027812D01*
X028210Y027853D01*
X028155Y027891D01*
X028098Y027925D01*
X028039Y027957D01*
X027978Y027984D01*
X027916Y028009D01*
X027852Y028029D01*
X027787Y028046D01*
X027722Y028059D01*
X027655Y028068D01*
X027589Y028074D01*
X027522Y028075D01*
X027455Y028073D01*
X027388Y028066D01*
X027322Y028056D01*
X027257Y028042D01*
X027193Y028024D01*
X027129Y028003D01*
X027067Y027978D01*
X027007Y027949D01*
X026948Y027917D01*
X026892Y027882D01*
X026837Y027843D01*
X026785Y027801D01*
X026735Y027756D01*
X026688Y027709D01*
X026644Y027659D01*
X026603Y027606D01*
X026565Y027551D01*
X026530Y027494D01*
X026530Y027274D01*
X026530Y026574D02*
X026530Y026354D01*
X026565Y026297D01*
X026603Y026242D01*
X026644Y026189D01*
X026688Y026139D01*
X026735Y026091D01*
X026785Y026047D01*
X026837Y026005D01*
X026892Y025966D01*
X026948Y025931D01*
X027007Y025899D01*
X027067Y025870D01*
X027129Y025845D01*
X027193Y025824D01*
X027257Y025806D01*
X027322Y025792D01*
X027389Y025782D01*
X027455Y025775D01*
X027522Y025773D01*
X027589Y025774D01*
X027655Y025780D01*
X027722Y025789D01*
X027787Y025802D01*
X027852Y025819D01*
X027915Y025839D01*
X027978Y025864D01*
X028039Y025891D01*
X028098Y025923D01*
X028155Y025957D01*
X028210Y025995D01*
X028263Y026036D01*
X028313Y026080D01*
X028361Y026127D01*
X028406Y026177D01*
X028447Y026229D01*
X028486Y026283D01*
X028522Y026340D01*
X028554Y026399D01*
X028583Y026459D01*
X028608Y026521D01*
X028630Y026584D01*
D15*
X028380Y032023D02*
X026680Y032023D01*
X026330Y032823D02*
X026330Y033616D01*
X026680Y034423D02*
X028380Y034423D01*
X028730Y033628D02*
X028730Y032823D01*
X026830Y033223D02*
X026832Y033275D01*
X026838Y033327D01*
X026848Y033379D01*
X026861Y033429D01*
X026878Y033479D01*
X026899Y033527D01*
X026924Y033573D01*
X026952Y033617D01*
X026983Y033659D01*
X027017Y033699D01*
X027054Y033736D01*
X027094Y033770D01*
X027136Y033801D01*
X027180Y033829D01*
X027226Y033854D01*
X027274Y033875D01*
X027324Y033892D01*
X027374Y033905D01*
X027426Y033915D01*
X027478Y033921D01*
X027530Y033923D01*
X027582Y033921D01*
X027634Y033915D01*
X027686Y033905D01*
X027736Y033892D01*
X027786Y033875D01*
X027834Y033854D01*
X027880Y033829D01*
X027924Y033801D01*
X027966Y033770D01*
X028006Y033736D01*
X028043Y033699D01*
X028077Y033659D01*
X028108Y033617D01*
X028136Y033573D01*
X028161Y033527D01*
X028182Y033479D01*
X028199Y033429D01*
X028212Y033379D01*
X028222Y033327D01*
X028228Y033275D01*
X028230Y033223D01*
X028228Y033171D01*
X028222Y033119D01*
X028212Y033067D01*
X028199Y033017D01*
X028182Y032967D01*
X028161Y032919D01*
X028136Y032873D01*
X028108Y032829D01*
X028077Y032787D01*
X028043Y032747D01*
X028006Y032710D01*
X027966Y032676D01*
X027924Y032645D01*
X027880Y032617D01*
X027834Y032592D01*
X027786Y032571D01*
X027736Y032554D01*
X027686Y032541D01*
X027634Y032531D01*
X027582Y032525D01*
X027530Y032523D01*
X027478Y032525D01*
X027426Y032531D01*
X027374Y032541D01*
X027324Y032554D01*
X027274Y032571D01*
X027226Y032592D01*
X027180Y032617D01*
X027136Y032645D01*
X027094Y032676D01*
X027054Y032710D01*
X027017Y032747D01*
X026983Y032787D01*
X026952Y032829D01*
X026924Y032873D01*
X026899Y032919D01*
X026878Y032967D01*
X026861Y033017D01*
X026848Y033067D01*
X026838Y033119D01*
X026832Y033171D01*
X026830Y033223D01*
D16*
X031395Y030701D03*
X031395Y030691D03*
X031545Y031011D03*
X031545Y031021D03*
X031585Y031061D03*
X031595Y031081D03*
X031595Y031091D03*
X031595Y031101D03*
X031705Y031251D03*
X031715Y031261D03*
X031715Y031271D03*
X031725Y031281D03*
X031735Y031301D03*
X031745Y031311D03*
X031755Y031321D03*
X031765Y031331D03*
X031775Y031351D03*
X031785Y031361D03*
X031795Y031371D03*
X031805Y031381D03*
X031815Y031391D03*
X031825Y031401D03*
X031835Y031411D03*
X031845Y031421D03*
X031845Y031431D03*
X031855Y031441D03*
X031865Y031451D03*
X031935Y031521D03*
X031995Y031561D03*
X032085Y031651D03*
X035545Y031141D03*
X035965Y028761D03*
X035955Y028751D03*
X033775Y027251D03*
X032715Y027521D03*
X032445Y027591D03*
D17*
X032210Y027761D03*
X032180Y027781D03*
X032170Y027791D03*
X031800Y028121D03*
X031670Y028281D03*
X031670Y028291D03*
X031620Y028361D03*
X031610Y028371D03*
X031600Y028381D03*
X031590Y028391D03*
X031580Y028401D03*
X031580Y028411D03*
X031570Y028421D03*
X031570Y028431D03*
X033220Y029631D03*
X033220Y029961D03*
X032610Y032011D03*
X036160Y029071D03*
X036150Y029051D03*
X033820Y027261D03*
D18*
X033800Y027271D03*
X031960Y027951D03*
X031890Y028011D03*
X031860Y028041D03*
X031740Y028171D03*
X033190Y029461D03*
X033200Y029981D03*
X033190Y029991D03*
X032640Y032031D03*
X036240Y029271D03*
X036230Y029251D03*
X036220Y029221D03*
X036220Y029211D03*
X036210Y029201D03*
D19*
X036140Y029021D03*
X033390Y027281D03*
X032920Y027441D03*
X032900Y027451D03*
X032240Y027741D03*
X032230Y027751D03*
X032160Y027801D03*
X032150Y027811D03*
X032140Y027831D03*
X031940Y028001D03*
X031650Y028321D03*
X031640Y028331D03*
X031560Y028441D03*
X031510Y028521D03*
X031510Y028531D03*
X033230Y029581D03*
X033230Y029591D03*
X033230Y029611D03*
X033230Y029621D03*
X033230Y029861D03*
X033230Y029871D03*
X033230Y029951D03*
D20*
X033175Y029651D03*
X032175Y029831D03*
X032705Y032061D03*
X036315Y029721D03*
X036315Y029711D03*
X036305Y029641D03*
X036305Y029631D03*
X036305Y029621D03*
X036305Y029611D03*
X036305Y029601D03*
X036295Y029531D03*
X036295Y029521D03*
X036295Y029511D03*
X036295Y029501D03*
X036295Y029491D03*
X036295Y029481D03*
X036285Y029451D03*
X036285Y029441D03*
X036285Y029431D03*
X036285Y029421D03*
X036285Y029411D03*
X036285Y029401D03*
X036275Y029391D03*
X033775Y027281D03*
D21*
X033400Y027291D03*
X032190Y027771D03*
X032060Y027871D03*
X032050Y027891D03*
X032010Y027921D03*
X031950Y027971D03*
X031850Y028061D03*
X031710Y028211D03*
X031700Y028221D03*
X031690Y028241D03*
X031690Y028251D03*
X031680Y028261D03*
X033210Y029471D03*
X033210Y029971D03*
X036190Y029151D03*
X036190Y029141D03*
X036200Y029161D03*
X036200Y029171D03*
X036180Y029101D03*
D22*
X036310Y030141D03*
X036310Y030151D03*
X036310Y030161D03*
X036310Y030171D03*
X036310Y030181D03*
X036310Y030191D03*
X036310Y030201D03*
X036310Y030211D03*
X036310Y030221D03*
X036310Y030231D03*
X035020Y031001D03*
X033790Y027291D03*
D23*
X033645Y027301D03*
D24*
X033610Y027311D03*
D25*
X033605Y027321D03*
X034765Y032821D03*
D26*
X033580Y027331D03*
D27*
X033220Y027341D03*
X033090Y029831D03*
X033070Y030041D03*
X032920Y032141D03*
X036250Y030571D03*
D28*
X036085Y028941D03*
X036075Y028921D03*
X036075Y028911D03*
X034005Y027341D03*
X032455Y027621D03*
X032325Y027721D03*
X031505Y028581D03*
X031505Y028591D03*
X031495Y028601D03*
X031485Y028611D03*
X031475Y028621D03*
X031465Y028641D03*
X031455Y028671D03*
X031385Y028801D03*
X031385Y028811D03*
X031375Y028821D03*
X031375Y028831D03*
X031365Y028841D03*
X031365Y028851D03*
X031355Y028871D03*
X031355Y028881D03*
X031355Y028891D03*
X031275Y029221D03*
X031205Y029651D03*
X033255Y029551D03*
X033255Y029521D03*
X032385Y031881D03*
X032475Y031931D03*
X032495Y031941D03*
X032505Y031951D03*
D29*
X034735Y032901D03*
X036285Y030421D03*
X036285Y030411D03*
X036285Y030401D03*
X033185Y027351D03*
D30*
X034055Y027351D03*
X031305Y029111D03*
X031225Y029521D03*
X031225Y029531D03*
X031225Y029541D03*
X031345Y030571D03*
X031345Y030581D03*
X031345Y030591D03*
X031355Y030611D03*
X031375Y030631D03*
X031385Y030661D03*
X031405Y030731D03*
X031405Y030741D03*
X031415Y030751D03*
X031415Y030761D03*
X031485Y030911D03*
X031495Y030921D03*
X031505Y030941D03*
X031505Y030951D03*
X031605Y031131D03*
X031615Y031151D03*
X031625Y031161D03*
X031635Y031171D03*
X031645Y031181D03*
X031675Y031231D03*
X032015Y031591D03*
X032025Y031601D03*
X032055Y031631D03*
X032065Y031641D03*
X032105Y031671D03*
D31*
X032775Y032101D03*
X036295Y030321D03*
X036295Y030311D03*
X033175Y027361D03*
D32*
X032930Y027391D03*
X032440Y027601D03*
X032180Y027721D03*
X031310Y029091D03*
X031300Y029121D03*
X031300Y029131D03*
X031230Y029471D03*
X031230Y029481D03*
X031230Y029491D03*
X031230Y029501D03*
X031230Y029511D03*
X031220Y029551D03*
X031220Y029561D03*
X031310Y030481D03*
X031320Y030501D03*
X031330Y030511D03*
X031330Y030521D03*
X031330Y030531D03*
X031340Y030541D03*
X031340Y030551D03*
X031340Y030561D03*
X031350Y030601D03*
X031420Y030771D03*
X031420Y030781D03*
X031450Y030831D03*
X031450Y030841D03*
X031450Y030851D03*
X031460Y030871D03*
X031460Y030881D03*
X031470Y030901D03*
X031500Y030931D03*
X032120Y031681D03*
X032130Y031691D03*
X032350Y031851D03*
X036020Y028841D03*
X036010Y028821D03*
X034180Y027361D03*
D33*
X033145Y027371D03*
X036315Y030111D03*
X036315Y030121D03*
X036315Y030131D03*
X032755Y032091D03*
D34*
X033620Y032541D03*
X034780Y032921D03*
X031980Y029831D03*
X031910Y029831D03*
X031300Y030621D03*
X031450Y030981D03*
X032630Y027571D03*
X032780Y027501D03*
X034200Y027371D03*
X035740Y028361D03*
X035900Y028621D03*
D35*
X036225Y029231D03*
X036225Y029241D03*
X036235Y029261D03*
X036245Y029281D03*
X036245Y029291D03*
X036245Y029301D03*
X036255Y029311D03*
X036255Y029321D03*
X033185Y029451D03*
X033185Y030001D03*
X031745Y028161D03*
X031745Y028151D03*
X031755Y028141D03*
X031765Y028131D03*
X031865Y028031D03*
X031875Y028021D03*
X031965Y027941D03*
X033075Y027381D03*
X032655Y032041D03*
D36*
X033235Y029941D03*
X033235Y029931D03*
X033235Y029881D03*
X033235Y029601D03*
X033235Y029571D03*
X033235Y029561D03*
X033235Y029491D03*
X031555Y028451D03*
X031405Y028741D03*
X032145Y027821D03*
X032935Y027431D03*
X033095Y027391D03*
X036135Y029011D03*
D37*
X036035Y028861D03*
X036025Y028851D03*
X036015Y028831D03*
X032925Y027401D03*
X032815Y027491D03*
X031305Y029081D03*
X031295Y029141D03*
X031225Y029451D03*
X031225Y029461D03*
X031215Y029571D03*
X031215Y029871D03*
X031215Y029881D03*
X031215Y029891D03*
X031215Y029901D03*
X031215Y029911D03*
X031225Y030041D03*
X031225Y030051D03*
X031305Y030471D03*
X031315Y030491D03*
X031415Y030791D03*
X031455Y030861D03*
X031465Y030891D03*
X032145Y031701D03*
X032155Y031711D03*
X032175Y031721D03*
X032185Y031731D03*
X032195Y031741D03*
X032205Y031751D03*
X032215Y031761D03*
D38*
X032460Y031921D03*
X031240Y029391D03*
X031360Y028861D03*
X031390Y028791D03*
X031390Y028781D03*
X031440Y028691D03*
X031450Y028681D03*
X031460Y028661D03*
X031460Y028651D03*
X031470Y028631D03*
X032430Y027651D03*
X033090Y027401D03*
X036080Y028931D03*
X036090Y028951D03*
X036100Y028971D03*
D39*
X036045Y028871D03*
X032915Y027411D03*
X032835Y027471D03*
X031335Y028961D03*
X031335Y028971D03*
X031325Y028991D03*
X031325Y029001D03*
X031305Y029071D03*
X031225Y029441D03*
X031205Y029581D03*
X031215Y029831D03*
X031215Y029841D03*
X031205Y029961D03*
X031205Y029971D03*
X031215Y030021D03*
X031225Y030061D03*
X031245Y030241D03*
X031245Y030251D03*
X031245Y030261D03*
X031285Y030421D03*
X031285Y030431D03*
X031425Y030821D03*
X031625Y029831D03*
X032245Y031781D03*
X032255Y031791D03*
X032265Y031801D03*
X032325Y031841D03*
D40*
X031230Y029821D03*
X031200Y029641D03*
X031200Y029631D03*
X031230Y029401D03*
X031270Y029211D03*
X031270Y029201D03*
X031270Y029191D03*
X031310Y029041D03*
X031350Y028921D03*
X031350Y028911D03*
X031350Y028901D03*
X032330Y027711D03*
X032340Y027701D03*
X032370Y027691D03*
X032410Y027661D03*
X033080Y027411D03*
X033260Y029531D03*
X036070Y028901D03*
D41*
X036155Y029061D03*
X036165Y029081D03*
X036175Y029091D03*
X036185Y029111D03*
X036185Y029121D03*
X036185Y029131D03*
X032965Y027421D03*
X032255Y027731D03*
X032035Y027901D03*
X032025Y027911D03*
X031945Y027981D03*
X031835Y028071D03*
X031825Y028081D03*
X031815Y028091D03*
X031815Y028101D03*
X031805Y028111D03*
X031675Y028271D03*
X031515Y028481D03*
X031515Y028491D03*
X031515Y028501D03*
X032625Y032021D03*
D42*
X032445Y031911D03*
X032435Y031901D03*
X032305Y031831D03*
X031265Y030351D03*
X031255Y030331D03*
X031245Y030321D03*
X031245Y030311D03*
X031245Y030301D03*
X031245Y030291D03*
X031245Y030221D03*
X031195Y029621D03*
X031195Y029611D03*
X031225Y029411D03*
X031275Y029181D03*
X031275Y029171D03*
X031305Y029061D03*
X031305Y029051D03*
X031315Y029031D03*
X031315Y029021D03*
X031345Y028931D03*
X032395Y027681D03*
X032405Y027671D03*
X032845Y027461D03*
X033265Y029541D03*
X036055Y028881D03*
X036065Y028891D03*
D43*
X032830Y027481D03*
X032440Y027611D03*
X031330Y028981D03*
X031290Y029151D03*
X031210Y029851D03*
X031210Y029861D03*
X031210Y029921D03*
X031210Y029931D03*
X031210Y029941D03*
X031210Y029951D03*
X031210Y029981D03*
X031210Y029991D03*
X031210Y030001D03*
X031210Y030011D03*
X031220Y030031D03*
X031290Y030441D03*
X031290Y030451D03*
X031300Y030461D03*
X031420Y030801D03*
X031420Y030811D03*
X032230Y031771D03*
X032360Y031861D03*
X034680Y032921D03*
D44*
X032685Y032171D03*
X032625Y032131D03*
X031915Y031491D03*
X031905Y031481D03*
X031885Y031471D03*
X031575Y031051D03*
X031565Y031041D03*
X033075Y029631D03*
X032185Y027701D03*
X032635Y027561D03*
X032635Y027551D03*
X032735Y027511D03*
X035905Y028651D03*
X035905Y028661D03*
X035935Y028701D03*
X035945Y028721D03*
X035945Y028731D03*
X035975Y028781D03*
D45*
X036095Y028961D03*
X036105Y028981D03*
X036115Y028991D03*
X033245Y029511D03*
X031505Y028571D03*
X031505Y028561D03*
X031425Y028701D03*
X031395Y028771D03*
X031215Y029661D03*
X032535Y031961D03*
X032555Y031971D03*
X032565Y031981D03*
X032455Y027631D03*
D46*
X032440Y027641D03*
X031550Y028461D03*
X031550Y028471D03*
X031510Y028541D03*
X031510Y028551D03*
X031420Y028711D03*
X031410Y028721D03*
X031410Y028731D03*
X031400Y028751D03*
X031400Y028761D03*
X033240Y029501D03*
X033240Y029891D03*
X033240Y029901D03*
X033240Y029911D03*
X033240Y029921D03*
X032580Y031991D03*
X036120Y029001D03*
D47*
X036000Y028811D03*
X035010Y030981D03*
X032100Y031661D03*
X032050Y031621D03*
X032040Y031611D03*
X032010Y031581D03*
X032000Y031571D03*
X031960Y031541D03*
X031950Y031531D03*
X031730Y031291D03*
X031690Y031241D03*
X031670Y031221D03*
X031660Y031211D03*
X031660Y031201D03*
X031650Y031191D03*
X031610Y031141D03*
X031600Y031121D03*
X031600Y031111D03*
X031540Y031001D03*
X031540Y030991D03*
X031540Y030981D03*
X031530Y030971D03*
X031520Y030961D03*
X031400Y030721D03*
X031400Y030711D03*
X031390Y030681D03*
X031390Y030671D03*
X031380Y030651D03*
X031380Y030641D03*
X031370Y030621D03*
X031310Y029101D03*
X032180Y027711D03*
D48*
X032105Y027841D03*
X032085Y027851D03*
X032075Y027861D03*
X032055Y027881D03*
X031955Y027961D03*
X031855Y028051D03*
X031735Y028181D03*
X031725Y028191D03*
X031715Y028201D03*
X031695Y028231D03*
X036205Y029181D03*
X036205Y029191D03*
D49*
X036260Y029331D03*
X036260Y029341D03*
X034720Y032911D03*
X032670Y032051D03*
X031980Y027931D03*
D50*
X031945Y027991D03*
X031665Y028301D03*
X031655Y028311D03*
X031635Y028341D03*
X031625Y028351D03*
X031515Y028511D03*
X033225Y029481D03*
X033225Y029851D03*
X035015Y030991D03*
X036145Y029041D03*
X036145Y029031D03*
X032595Y032001D03*
D51*
X033255Y032461D03*
X031295Y030631D03*
X031145Y030221D03*
X031415Y028471D03*
X031415Y028461D03*
X035735Y028351D03*
X035915Y028681D03*
X035495Y031061D03*
X035495Y031071D03*
D52*
X035490Y031081D03*
X035550Y031131D03*
X035940Y028711D03*
X035930Y028691D03*
X035910Y028671D03*
X035900Y028641D03*
X035900Y028631D03*
X032320Y031891D03*
X031380Y030831D03*
D53*
X031550Y031031D03*
X031590Y031071D03*
X031770Y031341D03*
X031870Y031461D03*
X031920Y031501D03*
X031930Y031511D03*
X031980Y031551D03*
X033250Y032451D03*
X034820Y032921D03*
X035980Y028801D03*
X035980Y028791D03*
X035970Y028771D03*
X035950Y028741D03*
D54*
X032420Y031891D03*
X032370Y031871D03*
X032290Y031821D03*
X032280Y031811D03*
X031280Y030411D03*
X031280Y030401D03*
X031270Y030391D03*
X031270Y030381D03*
X031270Y030371D03*
X031270Y030361D03*
X031260Y030341D03*
X031240Y030281D03*
X031240Y030271D03*
X031250Y030231D03*
X031200Y029601D03*
X031200Y029591D03*
X031220Y029431D03*
X031220Y029421D03*
X031280Y029161D03*
X031320Y029011D03*
X031340Y028951D03*
X031340Y028941D03*
D55*
X032100Y029231D03*
D56*
X032110Y029241D03*
X034650Y032571D03*
D57*
X032130Y029251D03*
D58*
X032150Y029261D03*
X032090Y030211D03*
X034630Y032551D03*
D59*
X032155Y029271D03*
D60*
X032160Y029281D03*
X034930Y032111D03*
X034920Y032121D03*
X035340Y031191D03*
D61*
X034945Y032051D03*
X034945Y032071D03*
X032165Y029291D03*
D62*
X032175Y029301D03*
X032155Y030171D03*
X034975Y031961D03*
X034975Y031971D03*
X034965Y031981D03*
X034945Y032011D03*
X034945Y032021D03*
X034865Y032171D03*
X035275Y031281D03*
X035285Y031271D03*
X035285Y031261D03*
D63*
X035260Y031321D03*
X034970Y031931D03*
X032180Y029311D03*
D64*
X032190Y029321D03*
X032190Y030131D03*
X034980Y031911D03*
X035240Y031351D03*
X035250Y031341D03*
D65*
X034995Y031891D03*
X034985Y031901D03*
X032195Y030121D03*
X032195Y029331D03*
D66*
X032200Y029341D03*
X032210Y029361D03*
X032220Y029371D03*
X032210Y030091D03*
X032210Y030101D03*
X032200Y030111D03*
X035010Y031851D03*
X035010Y031861D03*
X035000Y031871D03*
X035000Y031881D03*
X034820Y032181D03*
X035230Y031361D03*
D67*
X035225Y031371D03*
X035215Y031381D03*
X035205Y031391D03*
X035195Y031411D03*
X035185Y031421D03*
X035165Y031451D03*
X035025Y031821D03*
X035015Y031831D03*
X035015Y031841D03*
X034565Y032521D03*
X032215Y030081D03*
X032205Y029351D03*
D68*
X033175Y029441D03*
X033185Y029641D03*
X036265Y029371D03*
X036265Y029361D03*
X036265Y029351D03*
D69*
X035200Y031401D03*
X035180Y031431D03*
X035170Y031441D03*
X035160Y031461D03*
X035150Y031471D03*
X035150Y031481D03*
X035030Y031801D03*
X035030Y031811D03*
X032220Y030071D03*
X032230Y029381D03*
D70*
X033180Y029841D03*
X033170Y030011D03*
X036300Y029591D03*
X036300Y029581D03*
X036300Y029571D03*
X036300Y029561D03*
X036300Y029551D03*
X036300Y029541D03*
X036270Y029381D03*
D71*
X034615Y032541D03*
X032355Y029661D03*
X032325Y029391D03*
D72*
X033055Y029401D03*
X036175Y030761D03*
X036185Y030741D03*
X036195Y030721D03*
X036205Y030711D03*
X036235Y030641D03*
D73*
X036300Y030301D03*
X036300Y030291D03*
X036300Y030281D03*
X033110Y030031D03*
X033110Y029411D03*
D74*
X033140Y029421D03*
X033150Y029431D03*
X033150Y030021D03*
X032730Y032071D03*
X036320Y030051D03*
X036320Y030041D03*
X036320Y030031D03*
X036320Y030021D03*
X036320Y030011D03*
X036320Y030001D03*
X036320Y029991D03*
X036320Y029981D03*
X036320Y029971D03*
X036320Y029961D03*
X036320Y029951D03*
X036320Y029941D03*
X036320Y029931D03*
X036320Y029921D03*
X036330Y029911D03*
X036330Y029901D03*
X036330Y029891D03*
X036330Y029881D03*
X036330Y029871D03*
X036330Y029861D03*
X036330Y029841D03*
D75*
X036320Y029781D03*
X036320Y029771D03*
X036320Y029761D03*
X036320Y029751D03*
X036320Y029741D03*
X036320Y029731D03*
X036310Y029701D03*
X036310Y029691D03*
X036310Y029681D03*
X036310Y029671D03*
X036310Y029661D03*
X036310Y029651D03*
X036290Y029471D03*
X036290Y029461D03*
D76*
X032230Y029671D03*
X032230Y029681D03*
X032230Y029691D03*
X032230Y029701D03*
X032230Y029711D03*
X032230Y029721D03*
X032230Y029731D03*
D77*
X032235Y029741D03*
D78*
X032240Y029751D03*
X032240Y029761D03*
D79*
X032245Y029771D03*
X032245Y029781D03*
X032245Y029791D03*
X032245Y029801D03*
X032245Y029811D03*
D80*
X036325Y029811D03*
X036325Y029801D03*
X036325Y029791D03*
X036325Y029821D03*
X036325Y029831D03*
X036325Y029851D03*
D81*
X034935Y032101D03*
X034915Y032131D03*
X034905Y032141D03*
X034905Y032151D03*
X032345Y029821D03*
D82*
X032395Y030051D03*
X034655Y032581D03*
D83*
X035360Y031181D03*
X032320Y030061D03*
X032110Y030201D03*
D84*
X036315Y030091D03*
X036315Y030081D03*
X036315Y030071D03*
X036315Y030061D03*
D85*
X036310Y030101D03*
X032740Y032081D03*
D86*
X032185Y030141D03*
X034975Y031921D03*
X035255Y031331D03*
D87*
X035265Y031311D03*
X032175Y030151D03*
X032165Y030161D03*
D88*
X032145Y030181D03*
X035295Y031241D03*
X035305Y031231D03*
D89*
X035320Y031211D03*
X035330Y031201D03*
X034950Y032061D03*
X034940Y032081D03*
X034940Y032091D03*
X034890Y032161D03*
X032130Y030191D03*
D90*
X032220Y030221D03*
D91*
X036305Y030241D03*
X036305Y030251D03*
X036305Y030261D03*
X036305Y030271D03*
D92*
X036290Y030331D03*
X036290Y030341D03*
X036290Y030351D03*
X036290Y030361D03*
X036290Y030371D03*
X036290Y030381D03*
X032890Y032131D03*
D93*
X036280Y030441D03*
X036280Y030431D03*
X036290Y030391D03*
D94*
X036275Y030451D03*
X036275Y030461D03*
X036275Y030471D03*
X036265Y030481D03*
X036265Y030491D03*
X036265Y030501D03*
X036265Y030511D03*
X035015Y031011D03*
X032805Y032111D03*
D95*
X036260Y030541D03*
X036260Y030531D03*
X036260Y030521D03*
D96*
X036255Y030551D03*
X036255Y030561D03*
X032825Y032121D03*
D97*
X036245Y030591D03*
X036245Y030581D03*
D98*
X036240Y030601D03*
X036240Y030611D03*
X036240Y030621D03*
X036240Y030631D03*
X036190Y030731D03*
X034740Y032891D03*
D99*
X036170Y030781D03*
X036170Y030771D03*
X036180Y030751D03*
X036210Y030701D03*
X036220Y030691D03*
X036230Y030661D03*
X036230Y030651D03*
D100*
X036225Y030671D03*
X036225Y030681D03*
X036165Y030791D03*
X036165Y030801D03*
D101*
X036160Y030811D03*
X036160Y030821D03*
X035000Y031021D03*
X032940Y032151D03*
D102*
X036155Y030851D03*
X036155Y030831D03*
D103*
X036160Y030841D03*
X036150Y030861D03*
X034750Y032881D03*
D104*
X036125Y030901D03*
X036135Y030891D03*
X036145Y030881D03*
X036145Y030871D03*
D105*
X036120Y030911D03*
X036120Y030921D03*
X036110Y030931D03*
X036110Y030941D03*
X033040Y032171D03*
D106*
X036095Y030961D03*
X036105Y030951D03*
D107*
X036085Y030971D03*
X036075Y030981D03*
X036075Y030991D03*
X036075Y031001D03*
X034755Y032871D03*
X032965Y032161D03*
D108*
X034990Y031031D03*
X036060Y031031D03*
X036060Y031021D03*
X036070Y031011D03*
D109*
X034995Y031041D03*
X034765Y032861D03*
D110*
X036055Y031041D03*
D111*
X034990Y031051D03*
D112*
X036040Y031051D03*
X036040Y031061D03*
D113*
X034990Y031061D03*
D114*
X034990Y031071D03*
X034750Y032841D03*
D115*
X036025Y031091D03*
X036035Y031071D03*
X033075Y032181D03*
D116*
X034980Y031081D03*
D117*
X036010Y031111D03*
X036020Y031101D03*
X036030Y031081D03*
D118*
X035000Y031091D03*
D119*
X034990Y031101D03*
X034980Y031111D03*
X034980Y031121D03*
D120*
X036005Y031121D03*
D121*
X034975Y031131D03*
D122*
X036000Y031131D03*
D123*
X034970Y031141D03*
D124*
X035980Y031151D03*
X035990Y031141D03*
D125*
X035010Y031151D03*
D126*
X035005Y031161D03*
D127*
X035975Y031161D03*
D128*
X035370Y031171D03*
D129*
X035310Y031221D03*
X034950Y032041D03*
D130*
X034950Y032031D03*
X035290Y031251D03*
D131*
X035270Y031291D03*
X035270Y031301D03*
X034970Y031941D03*
X034970Y031951D03*
X034960Y031991D03*
X034950Y032001D03*
X034590Y032531D03*
D132*
X035035Y031791D03*
X035035Y031781D03*
X035135Y031501D03*
X035145Y031491D03*
D133*
X035130Y031511D03*
X035130Y031521D03*
X035120Y031531D03*
X035120Y031541D03*
X035050Y031741D03*
X035050Y031751D03*
X035040Y031761D03*
X035040Y031771D03*
D134*
X035055Y031731D03*
X035055Y031721D03*
X035065Y031711D03*
X035065Y031701D03*
X035065Y031691D03*
X035075Y031671D03*
X035095Y031611D03*
X035115Y031551D03*
D135*
X035110Y031561D03*
X035110Y031571D03*
X035110Y031581D03*
X035100Y031591D03*
X035100Y031601D03*
X035090Y031621D03*
X035090Y031631D03*
X035090Y031641D03*
X035080Y031651D03*
X035080Y031661D03*
X035070Y031681D03*
X034550Y032511D03*
D136*
X034310Y032191D03*
D137*
X034305Y032201D03*
D138*
X034310Y032211D03*
D139*
X034305Y032221D03*
D140*
X034315Y032231D03*
D141*
X034315Y032241D03*
D142*
X034320Y032251D03*
D143*
X034320Y032261D03*
D144*
X034320Y032271D03*
D145*
X034330Y032281D03*
D146*
X034330Y032291D03*
D147*
X034335Y032301D03*
D148*
X034340Y032311D03*
D149*
X034345Y032321D03*
D150*
X034350Y032331D03*
D151*
X034350Y032341D03*
D152*
X034355Y032351D03*
D153*
X034355Y032361D03*
D154*
X034365Y032371D03*
D155*
X034390Y032381D03*
D156*
X034410Y032391D03*
D157*
X034440Y032401D03*
D158*
X034445Y032411D03*
D159*
X034455Y032421D03*
D160*
X034455Y032431D03*
D161*
X034455Y032441D03*
D162*
X034505Y032451D03*
D163*
X034510Y032461D03*
D164*
X034510Y032471D03*
D165*
X034520Y032481D03*
D166*
X034525Y032491D03*
D167*
X034535Y032501D03*
D168*
X034645Y032561D03*
D169*
X034655Y032591D03*
D170*
X034660Y032601D03*
D171*
X034675Y032611D03*
D172*
X034680Y032621D03*
D173*
X034700Y032631D03*
D174*
X034700Y032641D03*
D175*
X034705Y032651D03*
D176*
X034705Y032661D03*
D177*
X034710Y032671D03*
D178*
X034720Y032681D03*
D179*
X034715Y032691D03*
D180*
X034710Y032701D03*
D181*
X034715Y032711D03*
D182*
X034720Y032721D03*
D183*
X034725Y032731D03*
D184*
X034725Y032741D03*
D185*
X034730Y032751D03*
D186*
X034730Y032761D03*
D187*
X034725Y032771D03*
D188*
X034725Y032781D03*
D189*
X034730Y032791D03*
D190*
X034745Y032801D03*
D191*
X034755Y032811D03*
D192*
X034755Y032831D03*
D193*
X034755Y032851D03*
M02*
