%
M48
M72
T01C0.0236
T02C0.0240
T03C0.0320
T04C0.0354
T05C0.0400
T06C0.0709
T07C0.0906
T08C0.1260
%
T01
X26349Y24956
X27018Y25586
X29931Y27909
X30286Y28853
X29813Y29956
X32648Y31649
X25679Y31649
X25168Y31255
X24223Y37594
X33278Y23145
X33435Y21412
X35798Y21412
X37372Y21412
X38042Y14286
X33868Y9601
T02
X33969Y20846
X27469Y23096
X35288Y29038
T03
X28530Y26924
X27530Y26924
X26530Y26924
X25500Y15164
X24122Y12960
X23020Y14062
X30894Y14062
X31996Y12960
X33374Y15164
T04
X28868Y20901
X27884Y20901
X27097Y20901
X26112Y20901
T05
X26250Y32333
X26250Y34113
X26030Y35979
X27030Y35979
X28030Y35979
X29030Y35979
X28810Y34113
X28810Y32333
X37715Y28790
X37715Y27790
X37715Y26790
X37715Y25790
X37715Y24790
T06
X20837Y26727
X20837Y28893
T07
X24904Y19834
X30077Y19834
T08
X18081Y9208
X36979Y9208
X36979Y35979
X18081Y35979
M30
