G75*
G70*
%OFA0B0*%
%FSLAX24Y24*%
%IPPOS*%
%LPD*%
%AMOC8*
5,1,8,0,0,1.08239X$1,22.5*
%
%ADD10C,0.0000*%
D10*
X015719Y008027D02*
X015719Y037160D01*
X015718Y037160D02*
X015708Y037220D01*
X015702Y037280D01*
X015699Y037341D01*
X015700Y037401D01*
X015704Y037462D01*
X015713Y037522D01*
X015724Y037581D01*
X015740Y037640D01*
X015759Y037698D01*
X015781Y037754D01*
X015807Y037809D01*
X015836Y037862D01*
X015868Y037914D01*
X015903Y037963D01*
X015941Y038011D01*
X015982Y038055D01*
X016025Y038098D01*
X016071Y038137D01*
X016119Y038174D01*
X016170Y038208D01*
X016222Y038238D01*
X016276Y038266D01*
X016332Y038290D01*
X016389Y038311D01*
X016447Y038328D01*
X016506Y038342D01*
X038553Y038342D01*
X038553Y038341D02*
X038607Y038339D01*
X038660Y038334D01*
X038713Y038325D01*
X038765Y038312D01*
X038817Y038296D01*
X038867Y038276D01*
X038915Y038253D01*
X038962Y038226D01*
X039007Y038197D01*
X039050Y038164D01*
X039090Y038129D01*
X039128Y038091D01*
X039163Y038051D01*
X039196Y038008D01*
X039225Y037963D01*
X039252Y037916D01*
X039275Y037868D01*
X039295Y037818D01*
X039311Y037766D01*
X039324Y037714D01*
X039333Y037661D01*
X039338Y037608D01*
X039340Y037554D01*
X039341Y037554D02*
X039341Y007633D01*
X039340Y007633D02*
X039338Y007579D01*
X039333Y007526D01*
X039324Y007473D01*
X039311Y007421D01*
X039295Y007369D01*
X039275Y007319D01*
X039252Y007271D01*
X039225Y007224D01*
X039196Y007179D01*
X039163Y007136D01*
X039128Y007096D01*
X039090Y007058D01*
X039050Y007023D01*
X039007Y006990D01*
X038962Y006961D01*
X038915Y006934D01*
X038867Y006911D01*
X038817Y006891D01*
X038765Y006875D01*
X038713Y006862D01*
X038660Y006853D01*
X038607Y006848D01*
X038553Y006846D01*
X016506Y006846D01*
X016506Y006845D02*
X016447Y006859D01*
X016389Y006876D01*
X016332Y006897D01*
X016276Y006921D01*
X016222Y006949D01*
X016170Y006979D01*
X016119Y007013D01*
X016071Y007050D01*
X016025Y007089D01*
X015982Y007132D01*
X015941Y007176D01*
X015903Y007224D01*
X015868Y007273D01*
X015836Y007325D01*
X015807Y007378D01*
X015781Y007433D01*
X015759Y007489D01*
X015740Y007547D01*
X015724Y007606D01*
X015713Y007665D01*
X015704Y007725D01*
X015700Y007786D01*
X015699Y007846D01*
X015702Y007907D01*
X015708Y007967D01*
X015718Y008027D01*
X017451Y009208D02*
X017453Y009258D01*
X017459Y009308D01*
X017469Y009357D01*
X017483Y009405D01*
X017500Y009452D01*
X017521Y009497D01*
X017546Y009541D01*
X017574Y009582D01*
X017606Y009621D01*
X017640Y009658D01*
X017677Y009692D01*
X017717Y009722D01*
X017759Y009749D01*
X017803Y009773D01*
X017849Y009794D01*
X017896Y009810D01*
X017944Y009823D01*
X017994Y009832D01*
X018043Y009837D01*
X018094Y009838D01*
X018144Y009835D01*
X018193Y009828D01*
X018242Y009817D01*
X018290Y009802D01*
X018336Y009784D01*
X018381Y009762D01*
X018424Y009736D01*
X018465Y009707D01*
X018504Y009675D01*
X018540Y009640D01*
X018572Y009602D01*
X018602Y009562D01*
X018629Y009519D01*
X018652Y009475D01*
X018671Y009429D01*
X018687Y009381D01*
X018699Y009332D01*
X018707Y009283D01*
X018711Y009233D01*
X018711Y009183D01*
X018707Y009133D01*
X018699Y009084D01*
X018687Y009035D01*
X018671Y008987D01*
X018652Y008941D01*
X018629Y008897D01*
X018602Y008854D01*
X018572Y008814D01*
X018540Y008776D01*
X018504Y008741D01*
X018465Y008709D01*
X018424Y008680D01*
X018381Y008654D01*
X018336Y008632D01*
X018290Y008614D01*
X018242Y008599D01*
X018193Y008588D01*
X018144Y008581D01*
X018094Y008578D01*
X018043Y008579D01*
X017994Y008584D01*
X017944Y008593D01*
X017896Y008606D01*
X017849Y008622D01*
X017803Y008643D01*
X017759Y008667D01*
X017717Y008694D01*
X017677Y008724D01*
X017640Y008758D01*
X017606Y008795D01*
X017574Y008834D01*
X017546Y008875D01*
X017521Y008919D01*
X017500Y008964D01*
X017483Y009011D01*
X017469Y009059D01*
X017459Y009108D01*
X017453Y009158D01*
X017451Y009208D01*
X022571Y013905D02*
X023477Y013905D01*
X023499Y013907D01*
X023521Y013911D01*
X023542Y013919D01*
X023562Y013930D01*
X023580Y013943D01*
X023596Y013959D01*
X023609Y013977D01*
X023620Y013997D01*
X023628Y014018D01*
X023632Y014040D01*
X023634Y014062D01*
X023632Y014084D01*
X023628Y014106D01*
X023620Y014127D01*
X023609Y014147D01*
X023596Y014165D01*
X023580Y014181D01*
X023562Y014194D01*
X023542Y014205D01*
X023521Y014213D01*
X023499Y014217D01*
X023477Y014219D01*
X023477Y014220D02*
X022571Y014220D01*
X022414Y014062D02*
X022416Y014040D01*
X022420Y014018D01*
X022428Y013997D01*
X022439Y013977D01*
X022452Y013959D01*
X022468Y013943D01*
X022486Y013930D01*
X022506Y013919D01*
X022527Y013911D01*
X022549Y013907D01*
X022571Y013905D01*
X022414Y014062D02*
X022416Y014084D01*
X022420Y014106D01*
X022428Y014127D01*
X022439Y014147D01*
X022452Y014165D01*
X022468Y014181D01*
X022486Y014194D01*
X022506Y014205D01*
X022527Y014213D01*
X022549Y014217D01*
X022571Y014219D01*
X023673Y013117D02*
X024579Y013117D01*
X024601Y013115D01*
X024623Y013111D01*
X024644Y013103D01*
X024664Y013092D01*
X024682Y013079D01*
X024698Y013063D01*
X024711Y013045D01*
X024722Y013025D01*
X024730Y013004D01*
X024734Y012982D01*
X024736Y012960D01*
X024734Y012938D01*
X024730Y012916D01*
X024722Y012895D01*
X024711Y012875D01*
X024698Y012857D01*
X024682Y012841D01*
X024664Y012828D01*
X024644Y012817D01*
X024623Y012809D01*
X024601Y012805D01*
X024579Y012803D01*
X024579Y012802D02*
X023673Y012802D01*
X023516Y012960D02*
X023518Y012982D01*
X023522Y013004D01*
X023530Y013025D01*
X023541Y013045D01*
X023554Y013063D01*
X023570Y013079D01*
X023588Y013092D01*
X023608Y013103D01*
X023629Y013111D01*
X023651Y013115D01*
X023673Y013117D01*
X023516Y012960D02*
X023518Y012938D01*
X023522Y012916D01*
X023530Y012895D01*
X023541Y012875D01*
X023554Y012857D01*
X023570Y012841D01*
X023588Y012828D01*
X023608Y012817D01*
X023629Y012809D01*
X023651Y012805D01*
X023673Y012803D01*
X025343Y014731D02*
X025343Y015637D01*
X025345Y015659D01*
X025349Y015681D01*
X025357Y015702D01*
X025368Y015722D01*
X025381Y015740D01*
X025397Y015756D01*
X025415Y015769D01*
X025435Y015780D01*
X025456Y015788D01*
X025478Y015792D01*
X025500Y015794D01*
X025522Y015792D01*
X025544Y015788D01*
X025565Y015780D01*
X025585Y015769D01*
X025603Y015756D01*
X025619Y015740D01*
X025632Y015722D01*
X025643Y015702D01*
X025651Y015681D01*
X025655Y015659D01*
X025657Y015637D01*
X025658Y015637D02*
X025658Y014731D01*
X025500Y014574D02*
X025478Y014576D01*
X025456Y014580D01*
X025435Y014588D01*
X025415Y014599D01*
X025397Y014612D01*
X025381Y014628D01*
X025368Y014646D01*
X025357Y014666D01*
X025349Y014687D01*
X025345Y014709D01*
X025343Y014731D01*
X025500Y014574D02*
X025522Y014576D01*
X025544Y014580D01*
X025565Y014588D01*
X025585Y014599D01*
X025603Y014612D01*
X025619Y014628D01*
X025632Y014646D01*
X025643Y014666D01*
X025651Y014687D01*
X025655Y014709D01*
X025657Y014731D01*
X030445Y014220D02*
X031351Y014220D01*
X031508Y014062D02*
X031506Y014040D01*
X031502Y014018D01*
X031494Y013997D01*
X031483Y013977D01*
X031470Y013959D01*
X031454Y013943D01*
X031436Y013930D01*
X031416Y013919D01*
X031395Y013911D01*
X031373Y013907D01*
X031351Y013905D01*
X030445Y013905D01*
X030423Y013907D01*
X030401Y013911D01*
X030380Y013919D01*
X030360Y013930D01*
X030342Y013943D01*
X030326Y013959D01*
X030313Y013977D01*
X030302Y013997D01*
X030294Y014018D01*
X030290Y014040D01*
X030288Y014062D01*
X030290Y014084D01*
X030294Y014106D01*
X030302Y014127D01*
X030313Y014147D01*
X030326Y014165D01*
X030342Y014181D01*
X030360Y014194D01*
X030380Y014205D01*
X030401Y014213D01*
X030423Y014217D01*
X030445Y014219D01*
X031351Y014219D02*
X031373Y014217D01*
X031395Y014213D01*
X031416Y014205D01*
X031436Y014194D01*
X031454Y014181D01*
X031470Y014165D01*
X031483Y014147D01*
X031494Y014127D01*
X031502Y014106D01*
X031506Y014084D01*
X031508Y014062D01*
X031548Y013117D02*
X032453Y013117D01*
X032475Y013115D01*
X032497Y013111D01*
X032518Y013103D01*
X032538Y013092D01*
X032556Y013079D01*
X032572Y013063D01*
X032585Y013045D01*
X032596Y013025D01*
X032604Y013004D01*
X032608Y012982D01*
X032610Y012960D01*
X032608Y012938D01*
X032604Y012916D01*
X032596Y012895D01*
X032585Y012875D01*
X032572Y012857D01*
X032556Y012841D01*
X032538Y012828D01*
X032518Y012817D01*
X032497Y012809D01*
X032475Y012805D01*
X032453Y012803D01*
X032453Y012802D02*
X031548Y012802D01*
X031391Y012960D02*
X031393Y012982D01*
X031397Y013004D01*
X031405Y013025D01*
X031416Y013045D01*
X031429Y013063D01*
X031445Y013079D01*
X031463Y013092D01*
X031483Y013103D01*
X031504Y013111D01*
X031526Y013115D01*
X031548Y013117D01*
X031391Y012960D02*
X031393Y012938D01*
X031397Y012916D01*
X031405Y012895D01*
X031416Y012875D01*
X031429Y012857D01*
X031445Y012841D01*
X031463Y012828D01*
X031483Y012817D01*
X031504Y012809D01*
X031526Y012805D01*
X031548Y012803D01*
X033217Y014731D02*
X033217Y015637D01*
X033219Y015659D01*
X033223Y015681D01*
X033231Y015702D01*
X033242Y015722D01*
X033255Y015740D01*
X033271Y015756D01*
X033289Y015769D01*
X033309Y015780D01*
X033330Y015788D01*
X033352Y015792D01*
X033374Y015794D01*
X033396Y015792D01*
X033418Y015788D01*
X033439Y015780D01*
X033459Y015769D01*
X033477Y015756D01*
X033493Y015740D01*
X033506Y015722D01*
X033517Y015702D01*
X033525Y015681D01*
X033529Y015659D01*
X033531Y015637D01*
X033532Y015637D02*
X033532Y014731D01*
X033374Y014574D02*
X033352Y014576D01*
X033330Y014580D01*
X033309Y014588D01*
X033289Y014599D01*
X033271Y014612D01*
X033255Y014628D01*
X033242Y014646D01*
X033231Y014666D01*
X033223Y014687D01*
X033219Y014709D01*
X033217Y014731D01*
X033374Y014574D02*
X033396Y014576D01*
X033418Y014580D01*
X033439Y014588D01*
X033459Y014599D01*
X033477Y014612D01*
X033493Y014628D01*
X033506Y014646D01*
X033517Y014666D01*
X033525Y014687D01*
X033529Y014709D01*
X033531Y014731D01*
X036349Y009208D02*
X036351Y009258D01*
X036357Y009308D01*
X036367Y009357D01*
X036381Y009405D01*
X036398Y009452D01*
X036419Y009497D01*
X036444Y009541D01*
X036472Y009582D01*
X036504Y009621D01*
X036538Y009658D01*
X036575Y009692D01*
X036615Y009722D01*
X036657Y009749D01*
X036701Y009773D01*
X036747Y009794D01*
X036794Y009810D01*
X036842Y009823D01*
X036892Y009832D01*
X036941Y009837D01*
X036992Y009838D01*
X037042Y009835D01*
X037091Y009828D01*
X037140Y009817D01*
X037188Y009802D01*
X037234Y009784D01*
X037279Y009762D01*
X037322Y009736D01*
X037363Y009707D01*
X037402Y009675D01*
X037438Y009640D01*
X037470Y009602D01*
X037500Y009562D01*
X037527Y009519D01*
X037550Y009475D01*
X037569Y009429D01*
X037585Y009381D01*
X037597Y009332D01*
X037605Y009283D01*
X037609Y009233D01*
X037609Y009183D01*
X037605Y009133D01*
X037597Y009084D01*
X037585Y009035D01*
X037569Y008987D01*
X037550Y008941D01*
X037527Y008897D01*
X037500Y008854D01*
X037470Y008814D01*
X037438Y008776D01*
X037402Y008741D01*
X037363Y008709D01*
X037322Y008680D01*
X037279Y008654D01*
X037234Y008632D01*
X037188Y008614D01*
X037140Y008599D01*
X037091Y008588D01*
X037042Y008581D01*
X036992Y008578D01*
X036941Y008579D01*
X036892Y008584D01*
X036842Y008593D01*
X036794Y008606D01*
X036747Y008622D01*
X036701Y008643D01*
X036657Y008667D01*
X036615Y008694D01*
X036575Y008724D01*
X036538Y008758D01*
X036504Y008795D01*
X036472Y008834D01*
X036444Y008875D01*
X036419Y008919D01*
X036398Y008964D01*
X036381Y009011D01*
X036367Y009059D01*
X036357Y009108D01*
X036351Y009158D01*
X036349Y009208D01*
X036349Y035979D02*
X036351Y036029D01*
X036357Y036079D01*
X036367Y036128D01*
X036381Y036176D01*
X036398Y036223D01*
X036419Y036268D01*
X036444Y036312D01*
X036472Y036353D01*
X036504Y036392D01*
X036538Y036429D01*
X036575Y036463D01*
X036615Y036493D01*
X036657Y036520D01*
X036701Y036544D01*
X036747Y036565D01*
X036794Y036581D01*
X036842Y036594D01*
X036892Y036603D01*
X036941Y036608D01*
X036992Y036609D01*
X037042Y036606D01*
X037091Y036599D01*
X037140Y036588D01*
X037188Y036573D01*
X037234Y036555D01*
X037279Y036533D01*
X037322Y036507D01*
X037363Y036478D01*
X037402Y036446D01*
X037438Y036411D01*
X037470Y036373D01*
X037500Y036333D01*
X037527Y036290D01*
X037550Y036246D01*
X037569Y036200D01*
X037585Y036152D01*
X037597Y036103D01*
X037605Y036054D01*
X037609Y036004D01*
X037609Y035954D01*
X037605Y035904D01*
X037597Y035855D01*
X037585Y035806D01*
X037569Y035758D01*
X037550Y035712D01*
X037527Y035668D01*
X037500Y035625D01*
X037470Y035585D01*
X037438Y035547D01*
X037402Y035512D01*
X037363Y035480D01*
X037322Y035451D01*
X037279Y035425D01*
X037234Y035403D01*
X037188Y035385D01*
X037140Y035370D01*
X037091Y035359D01*
X037042Y035352D01*
X036992Y035349D01*
X036941Y035350D01*
X036892Y035355D01*
X036842Y035364D01*
X036794Y035377D01*
X036747Y035393D01*
X036701Y035414D01*
X036657Y035438D01*
X036615Y035465D01*
X036575Y035495D01*
X036538Y035529D01*
X036504Y035566D01*
X036472Y035605D01*
X036444Y035646D01*
X036419Y035690D01*
X036398Y035735D01*
X036381Y035782D01*
X036367Y035830D01*
X036357Y035879D01*
X036351Y035929D01*
X036349Y035979D01*
X017451Y035979D02*
X017453Y036029D01*
X017459Y036079D01*
X017469Y036128D01*
X017483Y036176D01*
X017500Y036223D01*
X017521Y036268D01*
X017546Y036312D01*
X017574Y036353D01*
X017606Y036392D01*
X017640Y036429D01*
X017677Y036463D01*
X017717Y036493D01*
X017759Y036520D01*
X017803Y036544D01*
X017849Y036565D01*
X017896Y036581D01*
X017944Y036594D01*
X017994Y036603D01*
X018043Y036608D01*
X018094Y036609D01*
X018144Y036606D01*
X018193Y036599D01*
X018242Y036588D01*
X018290Y036573D01*
X018336Y036555D01*
X018381Y036533D01*
X018424Y036507D01*
X018465Y036478D01*
X018504Y036446D01*
X018540Y036411D01*
X018572Y036373D01*
X018602Y036333D01*
X018629Y036290D01*
X018652Y036246D01*
X018671Y036200D01*
X018687Y036152D01*
X018699Y036103D01*
X018707Y036054D01*
X018711Y036004D01*
X018711Y035954D01*
X018707Y035904D01*
X018699Y035855D01*
X018687Y035806D01*
X018671Y035758D01*
X018652Y035712D01*
X018629Y035668D01*
X018602Y035625D01*
X018572Y035585D01*
X018540Y035547D01*
X018504Y035512D01*
X018465Y035480D01*
X018424Y035451D01*
X018381Y035425D01*
X018336Y035403D01*
X018290Y035385D01*
X018242Y035370D01*
X018193Y035359D01*
X018144Y035352D01*
X018094Y035349D01*
X018043Y035350D01*
X017994Y035355D01*
X017944Y035364D01*
X017896Y035377D01*
X017849Y035393D01*
X017803Y035414D01*
X017759Y035438D01*
X017717Y035465D01*
X017677Y035495D01*
X017640Y035529D01*
X017606Y035566D01*
X017574Y035605D01*
X017546Y035646D01*
X017521Y035690D01*
X017500Y035735D01*
X017483Y035782D01*
X017469Y035830D01*
X017459Y035879D01*
X017453Y035929D01*
X017451Y035979D01*
M02*
