%
M48
M72
T01C0.0240
T02C0.0315
T03C0.0320
T04C0.0354
T05C0.0400
T06C0.0472
T07C0.0906
T08C0.1260
%
T01
X24219Y25846
X25469Y26346
X25969Y25346
X25469Y23846
X24969Y21596
X27969Y24846
X29469Y26846
X30719Y26346
X31469Y25846
X28719Y22596
X33219Y19596
X34719Y21346
X35219Y20596
X35969Y20596
X36969Y19346
X37719Y20096
X35719Y19096
X33719Y17346
X35798Y13932
X35469Y12096
X34219Y11596
X32219Y13846
X29219Y12346
X27219Y16596
X34223Y22594
X34969Y24596
X37719Y26596
X31219Y33596
X30719Y31596
X29469Y30346
X28711Y30074
X26969Y30096
X25469Y31846
X25469Y28346
X26969Y27846
X23719Y28346
X26469Y35596
T02
X20837Y28105
X20837Y25940
T03
X26530Y26924
X27530Y26924
X28530Y26924
X25500Y15164
X24122Y12960
X23020Y14062
X30894Y14062
X31996Y12960
X33374Y15164
T04
X28868Y20901
X27884Y20901
X27097Y20901
X26112Y20901
T05
X26250Y32333
X26250Y34113
X28810Y34113
X28810Y32333
X29030Y37160
X28030Y37160
X27030Y37160
X26030Y37160
X37715Y25641
X37715Y24641
X37715Y23641
X37715Y22641
X37715Y21641
T06
X32823Y16031
X30067Y16031
X30067Y12960
X32823Y12960
X24949Y12960
X22193Y12960
X22193Y16031
X24949Y16031
T07
X24904Y19834
X30077Y19834
T08
X18081Y9208
X36979Y9208
X22609Y29759
X19065Y29759
X18081Y35979
X36979Y35979
M30
