%
M48
M72
T01C0.0315
T02C0.0320
T03C0.0354
T04C0.0400
T05C0.0472
T06C0.0906
T07C0.1260
%
T01
X20835Y25960
X20835Y28125
T02
X26528Y26944
X27528Y26944
X28528Y26944
X25498Y15184
X24120Y12979
X23018Y14082
X30892Y14082
X31994Y12979
X33372Y15184
T03
X28906Y19857
X27922Y19857
X27134Y19857
X26150Y19857
T04
X26248Y32353
X26248Y34133
X28808Y34133
X28808Y32353
X37713Y25660
X37713Y24660
X37713Y23660
X37713Y22660
X37713Y21660
T05
X32821Y16050
X30065Y16050
X30065Y12979
X32821Y12979
X24947Y12979
X22191Y12979
X22191Y16050
X24947Y16050
T06
X24941Y20924
X30114Y20924
T07
X18079Y9227
X36977Y9227
X22607Y29779
X19063Y29779
X18079Y35999
X36977Y35999
M30
