G75*
G70*
%OFA0B0*%
%FSLAX24Y24*%
%IPPOS*%
%LPD*%
%AMOC8*
5,1,8,0,0,1.08239X$1,22.5*
%
%ADD10C,0.0000*%
%ADD11C,0.0787*%
%ADD12C,0.1306*%
%ADD13C,0.0654*%
%ADD14R,0.0591X0.0512*%
%ADD15C,0.0620*%
%ADD16R,0.0700X0.0700*%
%ADD17C,0.0700*%
%ADD18R,0.0866X0.0236*%
%ADD19R,0.0615X0.0615*%
%ADD20R,0.0512X0.0591*%
%ADD21C,0.0740*%
%ADD22C,0.0150*%
%ADD23C,0.0160*%
%ADD24C,0.0560*%
%ADD25C,0.0500*%
%ADD26C,0.0320*%
D10*
X015717Y008046D02*
X015717Y037968D01*
X015734Y038013D01*
X015755Y038058D01*
X015779Y038100D01*
X015807Y038140D01*
X015837Y038179D01*
X015871Y038214D01*
X015907Y038247D01*
X015945Y038277D01*
X015986Y038304D01*
X016029Y038327D01*
X016073Y038347D01*
X016119Y038364D01*
X016166Y038377D01*
X016214Y038386D01*
X016263Y038391D01*
X016312Y038393D01*
X016361Y038391D01*
X016409Y038385D01*
X016457Y038375D01*
X016504Y038361D01*
X038551Y038361D01*
X038605Y038359D01*
X038658Y038354D01*
X038711Y038345D01*
X038763Y038332D01*
X038815Y038316D01*
X038865Y038296D01*
X038913Y038273D01*
X038960Y038246D01*
X039005Y038217D01*
X039048Y038184D01*
X039088Y038149D01*
X039126Y038111D01*
X039161Y038071D01*
X039194Y038028D01*
X039223Y037983D01*
X039250Y037936D01*
X039273Y037888D01*
X039293Y037838D01*
X039309Y037786D01*
X039322Y037734D01*
X039331Y037681D01*
X039336Y037628D01*
X039338Y037574D01*
X039339Y037574D02*
X039339Y007653D01*
X039338Y007653D02*
X039336Y007599D01*
X039331Y007546D01*
X039322Y007493D01*
X039309Y007441D01*
X039293Y007389D01*
X039273Y007339D01*
X039250Y007291D01*
X039223Y007244D01*
X039194Y007199D01*
X039161Y007156D01*
X039126Y007116D01*
X039088Y007078D01*
X039048Y007043D01*
X039005Y007010D01*
X038960Y006981D01*
X038913Y006954D01*
X038865Y006931D01*
X038815Y006911D01*
X038763Y006895D01*
X038711Y006882D01*
X038658Y006873D01*
X038605Y006868D01*
X038551Y006866D01*
X038551Y006865D02*
X016504Y006865D01*
X016504Y006864D02*
X016445Y006878D01*
X016387Y006895D01*
X016330Y006916D01*
X016274Y006940D01*
X016220Y006968D01*
X016168Y006998D01*
X016117Y007032D01*
X016069Y007069D01*
X016023Y007108D01*
X015980Y007151D01*
X015939Y007195D01*
X015901Y007243D01*
X015866Y007292D01*
X015834Y007344D01*
X015805Y007397D01*
X015779Y007452D01*
X015757Y007508D01*
X015738Y007566D01*
X015722Y007625D01*
X015711Y007684D01*
X015702Y007744D01*
X015698Y007805D01*
X015697Y007865D01*
X015700Y007926D01*
X015706Y007986D01*
X015716Y008046D01*
X017449Y009227D02*
X017451Y009277D01*
X017457Y009327D01*
X017467Y009376D01*
X017481Y009424D01*
X017498Y009471D01*
X017519Y009516D01*
X017544Y009560D01*
X017572Y009601D01*
X017604Y009640D01*
X017638Y009677D01*
X017675Y009711D01*
X017715Y009741D01*
X017757Y009768D01*
X017801Y009792D01*
X017847Y009813D01*
X017894Y009829D01*
X017942Y009842D01*
X017992Y009851D01*
X018041Y009856D01*
X018092Y009857D01*
X018142Y009854D01*
X018191Y009847D01*
X018240Y009836D01*
X018288Y009821D01*
X018334Y009803D01*
X018379Y009781D01*
X018422Y009755D01*
X018463Y009726D01*
X018502Y009694D01*
X018538Y009659D01*
X018570Y009621D01*
X018600Y009581D01*
X018627Y009538D01*
X018650Y009494D01*
X018669Y009448D01*
X018685Y009400D01*
X018697Y009351D01*
X018705Y009302D01*
X018709Y009252D01*
X018709Y009202D01*
X018705Y009152D01*
X018697Y009103D01*
X018685Y009054D01*
X018669Y009006D01*
X018650Y008960D01*
X018627Y008916D01*
X018600Y008873D01*
X018570Y008833D01*
X018538Y008795D01*
X018502Y008760D01*
X018463Y008728D01*
X018422Y008699D01*
X018379Y008673D01*
X018334Y008651D01*
X018288Y008633D01*
X018240Y008618D01*
X018191Y008607D01*
X018142Y008600D01*
X018092Y008597D01*
X018041Y008598D01*
X017992Y008603D01*
X017942Y008612D01*
X017894Y008625D01*
X017847Y008641D01*
X017801Y008662D01*
X017757Y008686D01*
X017715Y008713D01*
X017675Y008743D01*
X017638Y008777D01*
X017604Y008814D01*
X017572Y008853D01*
X017544Y008894D01*
X017519Y008938D01*
X017498Y008983D01*
X017481Y009030D01*
X017467Y009078D01*
X017457Y009127D01*
X017451Y009177D01*
X017449Y009227D01*
X021955Y012979D02*
X021957Y013009D01*
X021963Y013039D01*
X021972Y013068D01*
X021985Y013095D01*
X022002Y013120D01*
X022021Y013143D01*
X022044Y013164D01*
X022069Y013181D01*
X022095Y013195D01*
X022124Y013205D01*
X022153Y013212D01*
X022183Y013215D01*
X022214Y013214D01*
X022244Y013209D01*
X022273Y013200D01*
X022300Y013188D01*
X022326Y013173D01*
X022350Y013154D01*
X022371Y013132D01*
X022389Y013108D01*
X022404Y013081D01*
X022415Y013053D01*
X022423Y013024D01*
X022427Y012994D01*
X022427Y012964D01*
X022423Y012934D01*
X022415Y012905D01*
X022404Y012877D01*
X022389Y012850D01*
X022371Y012826D01*
X022350Y012804D01*
X022326Y012785D01*
X022300Y012770D01*
X022273Y012758D01*
X022244Y012749D01*
X022214Y012744D01*
X022183Y012743D01*
X022153Y012746D01*
X022124Y012753D01*
X022095Y012763D01*
X022069Y012777D01*
X022044Y012794D01*
X022021Y012815D01*
X022002Y012838D01*
X021985Y012863D01*
X021972Y012890D01*
X021963Y012919D01*
X021957Y012949D01*
X021955Y012979D01*
X024711Y012979D02*
X024713Y013009D01*
X024719Y013039D01*
X024728Y013068D01*
X024741Y013095D01*
X024758Y013120D01*
X024777Y013143D01*
X024800Y013164D01*
X024825Y013181D01*
X024851Y013195D01*
X024880Y013205D01*
X024909Y013212D01*
X024939Y013215D01*
X024970Y013214D01*
X025000Y013209D01*
X025029Y013200D01*
X025056Y013188D01*
X025082Y013173D01*
X025106Y013154D01*
X025127Y013132D01*
X025145Y013108D01*
X025160Y013081D01*
X025171Y013053D01*
X025179Y013024D01*
X025183Y012994D01*
X025183Y012964D01*
X025179Y012934D01*
X025171Y012905D01*
X025160Y012877D01*
X025145Y012850D01*
X025127Y012826D01*
X025106Y012804D01*
X025082Y012785D01*
X025056Y012770D01*
X025029Y012758D01*
X025000Y012749D01*
X024970Y012744D01*
X024939Y012743D01*
X024909Y012746D01*
X024880Y012753D01*
X024851Y012763D01*
X024825Y012777D01*
X024800Y012794D01*
X024777Y012815D01*
X024758Y012838D01*
X024741Y012863D01*
X024728Y012890D01*
X024719Y012919D01*
X024713Y012949D01*
X024711Y012979D01*
X024711Y016050D02*
X024713Y016080D01*
X024719Y016110D01*
X024728Y016139D01*
X024741Y016166D01*
X024758Y016191D01*
X024777Y016214D01*
X024800Y016235D01*
X024825Y016252D01*
X024851Y016266D01*
X024880Y016276D01*
X024909Y016283D01*
X024939Y016286D01*
X024970Y016285D01*
X025000Y016280D01*
X025029Y016271D01*
X025056Y016259D01*
X025082Y016244D01*
X025106Y016225D01*
X025127Y016203D01*
X025145Y016179D01*
X025160Y016152D01*
X025171Y016124D01*
X025179Y016095D01*
X025183Y016065D01*
X025183Y016035D01*
X025179Y016005D01*
X025171Y015976D01*
X025160Y015948D01*
X025145Y015921D01*
X025127Y015897D01*
X025106Y015875D01*
X025082Y015856D01*
X025056Y015841D01*
X025029Y015829D01*
X025000Y015820D01*
X024970Y015815D01*
X024939Y015814D01*
X024909Y015817D01*
X024880Y015824D01*
X024851Y015834D01*
X024825Y015848D01*
X024800Y015865D01*
X024777Y015886D01*
X024758Y015909D01*
X024741Y015934D01*
X024728Y015961D01*
X024719Y015990D01*
X024713Y016020D01*
X024711Y016050D01*
X021955Y016050D02*
X021957Y016080D01*
X021963Y016110D01*
X021972Y016139D01*
X021985Y016166D01*
X022002Y016191D01*
X022021Y016214D01*
X022044Y016235D01*
X022069Y016252D01*
X022095Y016266D01*
X022124Y016276D01*
X022153Y016283D01*
X022183Y016286D01*
X022214Y016285D01*
X022244Y016280D01*
X022273Y016271D01*
X022300Y016259D01*
X022326Y016244D01*
X022350Y016225D01*
X022371Y016203D01*
X022389Y016179D01*
X022404Y016152D01*
X022415Y016124D01*
X022423Y016095D01*
X022427Y016065D01*
X022427Y016035D01*
X022423Y016005D01*
X022415Y015976D01*
X022404Y015948D01*
X022389Y015921D01*
X022371Y015897D01*
X022350Y015875D01*
X022326Y015856D01*
X022300Y015841D01*
X022273Y015829D01*
X022244Y015820D01*
X022214Y015815D01*
X022183Y015814D01*
X022153Y015817D01*
X022124Y015824D01*
X022095Y015834D01*
X022069Y015848D01*
X022044Y015865D01*
X022021Y015886D01*
X022002Y015909D01*
X021985Y015934D01*
X021972Y015961D01*
X021963Y015990D01*
X021957Y016020D01*
X021955Y016050D01*
X029829Y016050D02*
X029831Y016080D01*
X029837Y016110D01*
X029846Y016139D01*
X029859Y016166D01*
X029876Y016191D01*
X029895Y016214D01*
X029918Y016235D01*
X029943Y016252D01*
X029969Y016266D01*
X029998Y016276D01*
X030027Y016283D01*
X030057Y016286D01*
X030088Y016285D01*
X030118Y016280D01*
X030147Y016271D01*
X030174Y016259D01*
X030200Y016244D01*
X030224Y016225D01*
X030245Y016203D01*
X030263Y016179D01*
X030278Y016152D01*
X030289Y016124D01*
X030297Y016095D01*
X030301Y016065D01*
X030301Y016035D01*
X030297Y016005D01*
X030289Y015976D01*
X030278Y015948D01*
X030263Y015921D01*
X030245Y015897D01*
X030224Y015875D01*
X030200Y015856D01*
X030174Y015841D01*
X030147Y015829D01*
X030118Y015820D01*
X030088Y015815D01*
X030057Y015814D01*
X030027Y015817D01*
X029998Y015824D01*
X029969Y015834D01*
X029943Y015848D01*
X029918Y015865D01*
X029895Y015886D01*
X029876Y015909D01*
X029859Y015934D01*
X029846Y015961D01*
X029837Y015990D01*
X029831Y016020D01*
X029829Y016050D01*
X032585Y016050D02*
X032587Y016080D01*
X032593Y016110D01*
X032602Y016139D01*
X032615Y016166D01*
X032632Y016191D01*
X032651Y016214D01*
X032674Y016235D01*
X032699Y016252D01*
X032725Y016266D01*
X032754Y016276D01*
X032783Y016283D01*
X032813Y016286D01*
X032844Y016285D01*
X032874Y016280D01*
X032903Y016271D01*
X032930Y016259D01*
X032956Y016244D01*
X032980Y016225D01*
X033001Y016203D01*
X033019Y016179D01*
X033034Y016152D01*
X033045Y016124D01*
X033053Y016095D01*
X033057Y016065D01*
X033057Y016035D01*
X033053Y016005D01*
X033045Y015976D01*
X033034Y015948D01*
X033019Y015921D01*
X033001Y015897D01*
X032980Y015875D01*
X032956Y015856D01*
X032930Y015841D01*
X032903Y015829D01*
X032874Y015820D01*
X032844Y015815D01*
X032813Y015814D01*
X032783Y015817D01*
X032754Y015824D01*
X032725Y015834D01*
X032699Y015848D01*
X032674Y015865D01*
X032651Y015886D01*
X032632Y015909D01*
X032615Y015934D01*
X032602Y015961D01*
X032593Y015990D01*
X032587Y016020D01*
X032585Y016050D01*
X032585Y012979D02*
X032587Y013009D01*
X032593Y013039D01*
X032602Y013068D01*
X032615Y013095D01*
X032632Y013120D01*
X032651Y013143D01*
X032674Y013164D01*
X032699Y013181D01*
X032725Y013195D01*
X032754Y013205D01*
X032783Y013212D01*
X032813Y013215D01*
X032844Y013214D01*
X032874Y013209D01*
X032903Y013200D01*
X032930Y013188D01*
X032956Y013173D01*
X032980Y013154D01*
X033001Y013132D01*
X033019Y013108D01*
X033034Y013081D01*
X033045Y013053D01*
X033053Y013024D01*
X033057Y012994D01*
X033057Y012964D01*
X033053Y012934D01*
X033045Y012905D01*
X033034Y012877D01*
X033019Y012850D01*
X033001Y012826D01*
X032980Y012804D01*
X032956Y012785D01*
X032930Y012770D01*
X032903Y012758D01*
X032874Y012749D01*
X032844Y012744D01*
X032813Y012743D01*
X032783Y012746D01*
X032754Y012753D01*
X032725Y012763D01*
X032699Y012777D01*
X032674Y012794D01*
X032651Y012815D01*
X032632Y012838D01*
X032615Y012863D01*
X032602Y012890D01*
X032593Y012919D01*
X032587Y012949D01*
X032585Y012979D01*
X029829Y012979D02*
X029831Y013009D01*
X029837Y013039D01*
X029846Y013068D01*
X029859Y013095D01*
X029876Y013120D01*
X029895Y013143D01*
X029918Y013164D01*
X029943Y013181D01*
X029969Y013195D01*
X029998Y013205D01*
X030027Y013212D01*
X030057Y013215D01*
X030088Y013214D01*
X030118Y013209D01*
X030147Y013200D01*
X030174Y013188D01*
X030200Y013173D01*
X030224Y013154D01*
X030245Y013132D01*
X030263Y013108D01*
X030278Y013081D01*
X030289Y013053D01*
X030297Y013024D01*
X030301Y012994D01*
X030301Y012964D01*
X030297Y012934D01*
X030289Y012905D01*
X030278Y012877D01*
X030263Y012850D01*
X030245Y012826D01*
X030224Y012804D01*
X030200Y012785D01*
X030174Y012770D01*
X030147Y012758D01*
X030118Y012749D01*
X030088Y012744D01*
X030057Y012743D01*
X030027Y012746D01*
X029998Y012753D01*
X029969Y012763D01*
X029943Y012777D01*
X029918Y012794D01*
X029895Y012815D01*
X029876Y012838D01*
X029859Y012863D01*
X029846Y012890D01*
X029837Y012919D01*
X029831Y012949D01*
X029829Y012979D01*
X036347Y009227D02*
X036349Y009277D01*
X036355Y009327D01*
X036365Y009376D01*
X036379Y009424D01*
X036396Y009471D01*
X036417Y009516D01*
X036442Y009560D01*
X036470Y009601D01*
X036502Y009640D01*
X036536Y009677D01*
X036573Y009711D01*
X036613Y009741D01*
X036655Y009768D01*
X036699Y009792D01*
X036745Y009813D01*
X036792Y009829D01*
X036840Y009842D01*
X036890Y009851D01*
X036939Y009856D01*
X036990Y009857D01*
X037040Y009854D01*
X037089Y009847D01*
X037138Y009836D01*
X037186Y009821D01*
X037232Y009803D01*
X037277Y009781D01*
X037320Y009755D01*
X037361Y009726D01*
X037400Y009694D01*
X037436Y009659D01*
X037468Y009621D01*
X037498Y009581D01*
X037525Y009538D01*
X037548Y009494D01*
X037567Y009448D01*
X037583Y009400D01*
X037595Y009351D01*
X037603Y009302D01*
X037607Y009252D01*
X037607Y009202D01*
X037603Y009152D01*
X037595Y009103D01*
X037583Y009054D01*
X037567Y009006D01*
X037548Y008960D01*
X037525Y008916D01*
X037498Y008873D01*
X037468Y008833D01*
X037436Y008795D01*
X037400Y008760D01*
X037361Y008728D01*
X037320Y008699D01*
X037277Y008673D01*
X037232Y008651D01*
X037186Y008633D01*
X037138Y008618D01*
X037089Y008607D01*
X037040Y008600D01*
X036990Y008597D01*
X036939Y008598D01*
X036890Y008603D01*
X036840Y008612D01*
X036792Y008625D01*
X036745Y008641D01*
X036699Y008662D01*
X036655Y008686D01*
X036613Y008713D01*
X036573Y008743D01*
X036536Y008777D01*
X036502Y008814D01*
X036470Y008853D01*
X036442Y008894D01*
X036417Y008938D01*
X036396Y008983D01*
X036379Y009030D01*
X036365Y009078D01*
X036355Y009127D01*
X036349Y009177D01*
X036347Y009227D01*
X021977Y029779D02*
X021979Y029829D01*
X021985Y029879D01*
X021995Y029928D01*
X022009Y029976D01*
X022026Y030023D01*
X022047Y030068D01*
X022072Y030112D01*
X022100Y030153D01*
X022132Y030192D01*
X022166Y030229D01*
X022203Y030263D01*
X022243Y030293D01*
X022285Y030320D01*
X022329Y030344D01*
X022375Y030365D01*
X022422Y030381D01*
X022470Y030394D01*
X022520Y030403D01*
X022569Y030408D01*
X022620Y030409D01*
X022670Y030406D01*
X022719Y030399D01*
X022768Y030388D01*
X022816Y030373D01*
X022862Y030355D01*
X022907Y030333D01*
X022950Y030307D01*
X022991Y030278D01*
X023030Y030246D01*
X023066Y030211D01*
X023098Y030173D01*
X023128Y030133D01*
X023155Y030090D01*
X023178Y030046D01*
X023197Y030000D01*
X023213Y029952D01*
X023225Y029903D01*
X023233Y029854D01*
X023237Y029804D01*
X023237Y029754D01*
X023233Y029704D01*
X023225Y029655D01*
X023213Y029606D01*
X023197Y029558D01*
X023178Y029512D01*
X023155Y029468D01*
X023128Y029425D01*
X023098Y029385D01*
X023066Y029347D01*
X023030Y029312D01*
X022991Y029280D01*
X022950Y029251D01*
X022907Y029225D01*
X022862Y029203D01*
X022816Y029185D01*
X022768Y029170D01*
X022719Y029159D01*
X022670Y029152D01*
X022620Y029149D01*
X022569Y029150D01*
X022520Y029155D01*
X022470Y029164D01*
X022422Y029177D01*
X022375Y029193D01*
X022329Y029214D01*
X022285Y029238D01*
X022243Y029265D01*
X022203Y029295D01*
X022166Y029329D01*
X022132Y029366D01*
X022100Y029405D01*
X022072Y029446D01*
X022047Y029490D01*
X022026Y029535D01*
X022009Y029582D01*
X021995Y029630D01*
X021985Y029679D01*
X021979Y029729D01*
X021977Y029779D01*
X018433Y029779D02*
X018435Y029829D01*
X018441Y029879D01*
X018451Y029928D01*
X018465Y029976D01*
X018482Y030023D01*
X018503Y030068D01*
X018528Y030112D01*
X018556Y030153D01*
X018588Y030192D01*
X018622Y030229D01*
X018659Y030263D01*
X018699Y030293D01*
X018741Y030320D01*
X018785Y030344D01*
X018831Y030365D01*
X018878Y030381D01*
X018926Y030394D01*
X018976Y030403D01*
X019025Y030408D01*
X019076Y030409D01*
X019126Y030406D01*
X019175Y030399D01*
X019224Y030388D01*
X019272Y030373D01*
X019318Y030355D01*
X019363Y030333D01*
X019406Y030307D01*
X019447Y030278D01*
X019486Y030246D01*
X019522Y030211D01*
X019554Y030173D01*
X019584Y030133D01*
X019611Y030090D01*
X019634Y030046D01*
X019653Y030000D01*
X019669Y029952D01*
X019681Y029903D01*
X019689Y029854D01*
X019693Y029804D01*
X019693Y029754D01*
X019689Y029704D01*
X019681Y029655D01*
X019669Y029606D01*
X019653Y029558D01*
X019634Y029512D01*
X019611Y029468D01*
X019584Y029425D01*
X019554Y029385D01*
X019522Y029347D01*
X019486Y029312D01*
X019447Y029280D01*
X019406Y029251D01*
X019363Y029225D01*
X019318Y029203D01*
X019272Y029185D01*
X019224Y029170D01*
X019175Y029159D01*
X019126Y029152D01*
X019076Y029149D01*
X019025Y029150D01*
X018976Y029155D01*
X018926Y029164D01*
X018878Y029177D01*
X018831Y029193D01*
X018785Y029214D01*
X018741Y029238D01*
X018699Y029265D01*
X018659Y029295D01*
X018622Y029329D01*
X018588Y029366D01*
X018556Y029405D01*
X018528Y029446D01*
X018503Y029490D01*
X018482Y029535D01*
X018465Y029582D01*
X018451Y029630D01*
X018441Y029679D01*
X018435Y029729D01*
X018433Y029779D01*
X017449Y035999D02*
X017451Y036049D01*
X017457Y036099D01*
X017467Y036148D01*
X017481Y036196D01*
X017498Y036243D01*
X017519Y036288D01*
X017544Y036332D01*
X017572Y036373D01*
X017604Y036412D01*
X017638Y036449D01*
X017675Y036483D01*
X017715Y036513D01*
X017757Y036540D01*
X017801Y036564D01*
X017847Y036585D01*
X017894Y036601D01*
X017942Y036614D01*
X017992Y036623D01*
X018041Y036628D01*
X018092Y036629D01*
X018142Y036626D01*
X018191Y036619D01*
X018240Y036608D01*
X018288Y036593D01*
X018334Y036575D01*
X018379Y036553D01*
X018422Y036527D01*
X018463Y036498D01*
X018502Y036466D01*
X018538Y036431D01*
X018570Y036393D01*
X018600Y036353D01*
X018627Y036310D01*
X018650Y036266D01*
X018669Y036220D01*
X018685Y036172D01*
X018697Y036123D01*
X018705Y036074D01*
X018709Y036024D01*
X018709Y035974D01*
X018705Y035924D01*
X018697Y035875D01*
X018685Y035826D01*
X018669Y035778D01*
X018650Y035732D01*
X018627Y035688D01*
X018600Y035645D01*
X018570Y035605D01*
X018538Y035567D01*
X018502Y035532D01*
X018463Y035500D01*
X018422Y035471D01*
X018379Y035445D01*
X018334Y035423D01*
X018288Y035405D01*
X018240Y035390D01*
X018191Y035379D01*
X018142Y035372D01*
X018092Y035369D01*
X018041Y035370D01*
X017992Y035375D01*
X017942Y035384D01*
X017894Y035397D01*
X017847Y035413D01*
X017801Y035434D01*
X017757Y035458D01*
X017715Y035485D01*
X017675Y035515D01*
X017638Y035549D01*
X017604Y035586D01*
X017572Y035625D01*
X017544Y035666D01*
X017519Y035710D01*
X017498Y035755D01*
X017481Y035802D01*
X017467Y035850D01*
X017457Y035899D01*
X017451Y035949D01*
X017449Y035999D01*
X036347Y035999D02*
X036349Y036049D01*
X036355Y036099D01*
X036365Y036148D01*
X036379Y036196D01*
X036396Y036243D01*
X036417Y036288D01*
X036442Y036332D01*
X036470Y036373D01*
X036502Y036412D01*
X036536Y036449D01*
X036573Y036483D01*
X036613Y036513D01*
X036655Y036540D01*
X036699Y036564D01*
X036745Y036585D01*
X036792Y036601D01*
X036840Y036614D01*
X036890Y036623D01*
X036939Y036628D01*
X036990Y036629D01*
X037040Y036626D01*
X037089Y036619D01*
X037138Y036608D01*
X037186Y036593D01*
X037232Y036575D01*
X037277Y036553D01*
X037320Y036527D01*
X037361Y036498D01*
X037400Y036466D01*
X037436Y036431D01*
X037468Y036393D01*
X037498Y036353D01*
X037525Y036310D01*
X037548Y036266D01*
X037567Y036220D01*
X037583Y036172D01*
X037595Y036123D01*
X037603Y036074D01*
X037607Y036024D01*
X037607Y035974D01*
X037603Y035924D01*
X037595Y035875D01*
X037583Y035826D01*
X037567Y035778D01*
X037548Y035732D01*
X037525Y035688D01*
X037498Y035645D01*
X037468Y035605D01*
X037436Y035567D01*
X037400Y035532D01*
X037361Y035500D01*
X037320Y035471D01*
X037277Y035445D01*
X037232Y035423D01*
X037186Y035405D01*
X037138Y035390D01*
X037089Y035379D01*
X037040Y035372D01*
X036990Y035369D01*
X036939Y035370D01*
X036890Y035375D01*
X036840Y035384D01*
X036792Y035397D01*
X036745Y035413D01*
X036699Y035434D01*
X036655Y035458D01*
X036613Y035485D01*
X036573Y035515D01*
X036536Y035549D01*
X036502Y035586D01*
X036470Y035625D01*
X036442Y035666D01*
X036417Y035710D01*
X036396Y035755D01*
X036379Y035802D01*
X036365Y035850D01*
X036355Y035899D01*
X036349Y035949D01*
X036347Y035999D01*
D11*
X033372Y015578D02*
X033372Y014790D01*
X032388Y012979D02*
X031601Y012979D01*
X031286Y014082D02*
X030498Y014082D01*
X025498Y014790D02*
X025498Y015578D01*
X023412Y014082D02*
X022624Y014082D01*
X023727Y012979D02*
X024514Y012979D01*
D12*
X024941Y020924D03*
X030114Y020924D03*
D13*
X028906Y019857D03*
X027922Y019857D03*
X027134Y019857D03*
X026150Y019857D03*
D14*
X019544Y023893D03*
X019544Y024641D03*
X026347Y028538D03*
X026347Y029286D03*
X028709Y029286D03*
X028709Y028538D03*
D15*
X028528Y027254D02*
X028528Y026634D01*
X027528Y026634D02*
X027528Y027254D01*
X026528Y027254D02*
X026528Y026634D01*
D16*
X037713Y021660D03*
D17*
X037713Y022660D03*
X037713Y023660D03*
X037713Y024660D03*
X037713Y025660D03*
D18*
X035705Y025322D03*
X035705Y024822D03*
X035705Y024322D03*
X035705Y023822D03*
X035705Y023322D03*
X035705Y022822D03*
X035705Y022322D03*
X033658Y022322D03*
X033658Y022822D03*
X033658Y023322D03*
X033658Y023822D03*
X033658Y024322D03*
X033658Y024822D03*
X033658Y025322D03*
D19*
X020835Y025960D03*
X020835Y028125D03*
D20*
X025973Y023401D03*
X026721Y023401D03*
X026721Y021826D03*
X025973Y021826D03*
X028335Y021826D03*
X029083Y021826D03*
X029083Y023401D03*
X028335Y023401D03*
D21*
X028808Y032353D03*
X028808Y034133D03*
X026248Y034133D03*
X026248Y032353D03*
D22*
X035717Y022365D02*
X035705Y022322D01*
X035717Y022365D02*
X036217Y022365D01*
X036717Y022865D01*
X037717Y022865D01*
X037713Y022660D01*
D23*
X038113Y022240D02*
X038205Y022332D01*
X038293Y022545D01*
X038293Y022776D01*
X038205Y022989D01*
X038041Y023152D01*
X037954Y023188D01*
X037991Y023207D01*
X038058Y023256D01*
X038117Y023315D01*
X038166Y023383D01*
X038204Y023457D01*
X038230Y023536D01*
X038243Y023619D01*
X038243Y023640D01*
X037733Y023640D01*
X037733Y023680D01*
X038243Y023680D01*
X038243Y023702D01*
X038230Y023785D01*
X038204Y023864D01*
X038166Y023938D01*
X038117Y024006D01*
X038058Y024065D01*
X037991Y024114D01*
X037954Y024133D01*
X038041Y024169D01*
X038205Y024332D01*
X038293Y024545D01*
X038293Y024776D01*
X038205Y024989D01*
X038041Y025152D01*
X038021Y025160D01*
X038041Y025169D01*
X038205Y025332D01*
X038293Y025545D01*
X038293Y025776D01*
X038205Y025989D01*
X038041Y026152D01*
X037828Y026240D01*
X037597Y026240D01*
X037384Y026152D01*
X037221Y025989D01*
X037133Y025776D01*
X037133Y025545D01*
X037221Y025332D01*
X037384Y025169D01*
X037404Y025160D01*
X037384Y025152D01*
X037221Y024989D01*
X037133Y024776D01*
X037133Y024545D01*
X037221Y024332D01*
X037384Y024169D01*
X037472Y024133D01*
X037435Y024114D01*
X037368Y024065D01*
X037309Y024006D01*
X037260Y023938D01*
X037222Y023864D01*
X037196Y023785D01*
X037183Y023702D01*
X037183Y023680D01*
X037693Y023680D01*
X037693Y023640D01*
X037183Y023640D01*
X037183Y023619D01*
X037196Y023536D01*
X037222Y023457D01*
X037260Y023383D01*
X037309Y023315D01*
X037368Y023256D01*
X037435Y023207D01*
X037472Y023188D01*
X037428Y023170D01*
X036656Y023170D01*
X036544Y023124D01*
X036458Y023038D01*
X036368Y022948D01*
X036368Y023035D01*
X036331Y023072D01*
X036368Y023109D01*
X036368Y023535D01*
X036331Y023572D01*
X036368Y023609D01*
X036368Y024035D01*
X036331Y024072D01*
X036368Y024109D01*
X036368Y024535D01*
X036331Y024572D01*
X036368Y024609D01*
X036368Y025035D01*
X036331Y025072D01*
X036368Y025109D01*
X036368Y025535D01*
X036233Y025670D01*
X035177Y025670D01*
X035042Y025535D01*
X035042Y025109D01*
X035079Y025072D01*
X035042Y025035D01*
X035042Y024609D01*
X035079Y024572D01*
X035042Y024535D01*
X035042Y024109D01*
X035079Y024072D01*
X035042Y024035D01*
X035042Y023609D01*
X035079Y023572D01*
X035042Y023535D01*
X035042Y023109D01*
X035079Y023072D01*
X035042Y023035D01*
X035042Y022609D01*
X035079Y022572D01*
X035042Y022535D01*
X035042Y022109D01*
X035177Y021974D01*
X036233Y021974D01*
X036350Y022090D01*
X036390Y022107D01*
X036843Y022560D01*
X037133Y022560D01*
X037133Y022545D01*
X037221Y022332D01*
X037313Y022240D01*
X037268Y022240D01*
X037133Y022106D01*
X037133Y021215D01*
X037268Y021080D01*
X038158Y021080D01*
X038293Y021215D01*
X038293Y022106D01*
X038158Y022240D01*
X038113Y022240D01*
X038159Y022240D02*
X038859Y022240D01*
X038859Y022398D02*
X038232Y022398D01*
X038293Y022557D02*
X038859Y022557D01*
X038859Y022715D02*
X038293Y022715D01*
X038252Y022874D02*
X038859Y022874D01*
X038859Y023032D02*
X038161Y023032D01*
X037958Y023191D02*
X038859Y023191D01*
X038859Y023349D02*
X038142Y023349D01*
X038221Y023508D02*
X038859Y023508D01*
X038859Y023666D02*
X037733Y023666D01*
X037693Y023666D02*
X036368Y023666D01*
X036368Y023508D02*
X037205Y023508D01*
X037284Y023349D02*
X036368Y023349D01*
X036368Y023191D02*
X037467Y023191D01*
X037209Y023825D02*
X036368Y023825D01*
X036368Y023983D02*
X037292Y023983D01*
X037450Y024142D02*
X036368Y024142D01*
X036368Y024300D02*
X037253Y024300D01*
X037169Y024459D02*
X036368Y024459D01*
X036368Y024617D02*
X037133Y024617D01*
X037133Y024776D02*
X036368Y024776D01*
X036368Y024934D02*
X037198Y024934D01*
X037325Y025093D02*
X036352Y025093D01*
X036368Y025251D02*
X037302Y025251D01*
X037189Y025410D02*
X036368Y025410D01*
X036335Y025568D02*
X037133Y025568D01*
X037133Y025727D02*
X030280Y025727D01*
X030280Y025885D02*
X037178Y025885D01*
X037276Y026044D02*
X030280Y026044D01*
X030280Y026202D02*
X037505Y026202D01*
X037921Y026202D02*
X038859Y026202D01*
X038859Y026044D02*
X038150Y026044D01*
X038248Y025885D02*
X038859Y025885D01*
X038859Y025727D02*
X038293Y025727D01*
X038293Y025568D02*
X038859Y025568D01*
X038859Y025410D02*
X038237Y025410D01*
X038124Y025251D02*
X038859Y025251D01*
X038859Y025093D02*
X038101Y025093D01*
X038227Y024934D02*
X038859Y024934D01*
X038859Y024776D02*
X038293Y024776D01*
X038293Y024617D02*
X038859Y024617D01*
X038859Y024459D02*
X038257Y024459D01*
X038173Y024300D02*
X038859Y024300D01*
X038859Y024142D02*
X037976Y024142D01*
X038133Y023983D02*
X038859Y023983D01*
X038859Y023825D02*
X038217Y023825D01*
X037133Y022557D02*
X036840Y022557D01*
X036681Y022398D02*
X037194Y022398D01*
X037267Y022240D02*
X036523Y022240D01*
X036341Y022081D02*
X037133Y022081D01*
X037133Y021923D02*
X029519Y021923D01*
X029519Y021874D02*
X029519Y022145D01*
X029507Y022191D01*
X029488Y022223D01*
X029574Y022223D01*
X029717Y022283D01*
X029827Y022392D01*
X030221Y022786D01*
X030280Y022929D01*
X030280Y028990D01*
X030221Y029133D01*
X030111Y029243D01*
X029717Y029637D01*
X029574Y029696D01*
X029419Y029696D01*
X029371Y029676D01*
X029195Y029676D01*
X029099Y029772D01*
X028318Y029772D01*
X028222Y029676D01*
X026833Y029676D01*
X026737Y029772D01*
X025956Y029772D01*
X025821Y029638D01*
X025821Y028935D01*
X025844Y028912D01*
X025821Y028890D01*
X025821Y028187D01*
X025956Y028053D01*
X026138Y028053D01*
X026138Y027628D01*
X026070Y027560D01*
X025988Y027361D01*
X025988Y026527D01*
X026070Y026328D01*
X026222Y026176D01*
X026420Y026094D01*
X026635Y026094D01*
X026834Y026176D01*
X026986Y026328D01*
X027056Y026499D01*
X027074Y026446D01*
X027109Y026377D01*
X027154Y026315D01*
X027209Y026260D01*
X027271Y026215D01*
X027340Y026180D01*
X027413Y026156D01*
X027489Y026144D01*
X027528Y026144D01*
X027528Y026944D01*
X027528Y026944D01*
X027528Y027744D01*
X027566Y027744D01*
X027643Y027732D01*
X027716Y027708D01*
X027785Y027673D01*
X027847Y027628D01*
X027902Y027573D01*
X027947Y027511D01*
X027982Y027442D01*
X027999Y027389D01*
X028070Y027560D01*
X028138Y027628D01*
X028138Y028435D01*
X028184Y028546D01*
X028184Y028890D01*
X028191Y028896D01*
X026865Y028896D01*
X026872Y028890D01*
X026872Y028546D01*
X026918Y028435D01*
X026918Y027628D01*
X026986Y027560D01*
X027056Y027389D01*
X027074Y027442D01*
X027109Y027511D01*
X027154Y027573D01*
X027209Y027628D01*
X027271Y027673D01*
X027340Y027708D01*
X027413Y027732D01*
X027489Y027744D01*
X027528Y027744D01*
X027528Y026944D01*
X027528Y026944D01*
X027528Y026144D01*
X027566Y026144D01*
X027643Y026156D01*
X027716Y026180D01*
X027785Y026215D01*
X027847Y026260D01*
X027902Y026315D01*
X027947Y026377D01*
X027982Y026446D01*
X027999Y026499D01*
X028070Y026328D01*
X028222Y026176D01*
X028420Y026094D01*
X028635Y026094D01*
X028834Y026176D01*
X028986Y026328D01*
X029068Y026527D01*
X029068Y027361D01*
X028986Y027560D01*
X028918Y027628D01*
X028918Y028053D01*
X029099Y028053D01*
X029234Y028187D01*
X029234Y028890D01*
X029227Y028896D01*
X029354Y028896D01*
X029500Y028751D01*
X029500Y023777D01*
X029483Y023806D01*
X029449Y023840D01*
X029408Y023864D01*
X029363Y023876D01*
X029131Y023876D01*
X029131Y023449D01*
X029035Y023449D01*
X029035Y023876D01*
X028803Y023876D01*
X028758Y023864D01*
X028752Y023860D01*
X028686Y023926D01*
X028361Y023926D01*
X027768Y024519D01*
X027625Y024578D01*
X024694Y024578D01*
X024551Y024519D01*
X024441Y024409D01*
X023260Y023228D01*
X023201Y023085D01*
X023201Y020567D01*
X023260Y020424D01*
X025338Y018346D01*
X025482Y018286D01*
X027605Y018286D01*
X027749Y018346D01*
X027858Y018455D01*
X028252Y018849D01*
X028312Y018992D01*
X028312Y019459D01*
X028394Y019542D01*
X028440Y019654D01*
X028472Y019592D01*
X028519Y019527D01*
X028575Y019471D01*
X028640Y019424D01*
X028711Y019387D01*
X028787Y019363D01*
X028866Y019350D01*
X028897Y019350D01*
X028897Y019849D01*
X028914Y019849D01*
X028914Y019350D01*
X028946Y019350D01*
X029025Y019363D01*
X029100Y019387D01*
X029172Y019424D01*
X029236Y019471D01*
X029293Y019527D01*
X029340Y019592D01*
X029376Y019663D01*
X029400Y019739D01*
X029413Y019817D01*
X029413Y019849D01*
X028914Y019849D01*
X028914Y019866D01*
X028897Y019866D01*
X028897Y020365D01*
X028866Y020365D01*
X028787Y020352D01*
X028711Y020327D01*
X028640Y020291D01*
X028575Y020244D01*
X028519Y020188D01*
X028472Y020123D01*
X028440Y020061D01*
X028394Y020173D01*
X028237Y020330D01*
X028032Y020415D01*
X027811Y020415D01*
X027606Y020330D01*
X027528Y020252D01*
X027524Y020255D01*
X027524Y021436D01*
X027849Y021436D01*
X027849Y021435D01*
X027984Y021301D01*
X028686Y021301D01*
X028752Y021366D01*
X028758Y021363D01*
X028803Y021351D01*
X029035Y021351D01*
X029035Y021778D01*
X029131Y021778D01*
X029131Y021874D01*
X029519Y021874D01*
X029519Y021778D02*
X029131Y021778D01*
X029131Y021351D01*
X029363Y021351D01*
X029406Y021362D01*
X029366Y021293D01*
X029324Y021193D01*
X029296Y021087D01*
X029285Y021004D01*
X030034Y021004D01*
X030034Y020844D01*
X029285Y020844D01*
X029296Y020761D01*
X029324Y020656D01*
X029366Y020555D01*
X029421Y020461D01*
X029487Y020374D01*
X029564Y020297D01*
X029651Y020230D01*
X029745Y020176D01*
X029846Y020134D01*
X029952Y020106D01*
X030034Y020095D01*
X030034Y020844D01*
X030194Y020844D01*
X030194Y020095D01*
X030277Y020106D01*
X030383Y020134D01*
X030484Y020176D01*
X030578Y020230D01*
X030665Y020297D01*
X030742Y020374D01*
X030808Y020461D01*
X030863Y020555D01*
X030905Y020656D01*
X030933Y020761D01*
X030944Y020844D01*
X030194Y020844D01*
X030194Y021004D01*
X030034Y021004D01*
X030034Y021754D01*
X029952Y021743D01*
X029846Y021715D01*
X029745Y021673D01*
X029651Y021618D01*
X029564Y021552D01*
X029519Y021506D01*
X029519Y021507D01*
X029519Y021778D01*
X029519Y021764D02*
X037133Y021764D01*
X037133Y021606D02*
X030594Y021606D01*
X030578Y021618D02*
X030484Y021673D01*
X030383Y021715D01*
X030277Y021743D01*
X030194Y021754D01*
X030194Y021004D01*
X030944Y021004D01*
X030933Y021087D01*
X030905Y021193D01*
X030863Y021293D01*
X030808Y021388D01*
X030742Y021475D01*
X030665Y021552D01*
X030578Y021618D01*
X030763Y021447D02*
X037133Y021447D01*
X037133Y021289D02*
X030865Y021289D01*
X030921Y021130D02*
X037218Y021130D01*
X038208Y021130D02*
X038859Y021130D01*
X038859Y020972D02*
X030194Y020972D01*
X030194Y021130D02*
X030034Y021130D01*
X030034Y020972D02*
X027524Y020972D01*
X027524Y021130D02*
X029307Y021130D01*
X029364Y021289D02*
X027524Y021289D01*
X027524Y020813D02*
X029289Y020813D01*
X029325Y020655D02*
X027524Y020655D01*
X027524Y020496D02*
X029400Y020496D01*
X029523Y020338D02*
X029068Y020338D01*
X029100Y020327D02*
X029025Y020352D01*
X028946Y020365D01*
X028914Y020365D01*
X028914Y019866D01*
X029413Y019866D01*
X029413Y019897D01*
X029400Y019976D01*
X029376Y020052D01*
X029340Y020123D01*
X029293Y020188D01*
X029236Y020244D01*
X029172Y020291D01*
X029100Y020327D01*
X028914Y020338D02*
X028897Y020338D01*
X028743Y020338D02*
X028218Y020338D01*
X028388Y020179D02*
X028513Y020179D01*
X028897Y020179D02*
X028914Y020179D01*
X028897Y020021D02*
X028914Y020021D01*
X028914Y019862D02*
X038859Y019862D01*
X038859Y019704D02*
X029389Y019704D01*
X029306Y019545D02*
X038859Y019545D01*
X038859Y019387D02*
X029099Y019387D01*
X028914Y019387D02*
X028897Y019387D01*
X028897Y019545D02*
X028914Y019545D01*
X028897Y019704D02*
X028914Y019704D01*
X028713Y019387D02*
X028312Y019387D01*
X028312Y019228D02*
X038859Y019228D01*
X038859Y019070D02*
X028312Y019070D01*
X028278Y018911D02*
X038859Y018911D01*
X038859Y018753D02*
X028156Y018753D01*
X027997Y018594D02*
X038859Y018594D01*
X038859Y018436D02*
X027839Y018436D01*
X027366Y019066D02*
X025721Y019066D01*
X024639Y020148D01*
X024673Y020134D01*
X024778Y020106D01*
X024861Y020095D01*
X024861Y020844D01*
X025021Y020844D01*
X025021Y020095D01*
X025104Y020106D01*
X025209Y020134D01*
X025310Y020176D01*
X025405Y020230D01*
X025491Y020297D01*
X025563Y020368D01*
X025563Y019977D01*
X025593Y019905D01*
X025593Y019747D01*
X025678Y019542D01*
X025834Y019385D01*
X026039Y019300D01*
X026261Y019300D01*
X026465Y019385D01*
X026622Y019542D01*
X026642Y019590D01*
X026662Y019542D01*
X026819Y019385D01*
X027023Y019300D01*
X027245Y019300D01*
X027450Y019385D01*
X027528Y019463D01*
X027532Y019459D01*
X027532Y019231D01*
X027366Y019066D01*
X027370Y019070D02*
X025717Y019070D01*
X025559Y019228D02*
X027528Y019228D01*
X027532Y019387D02*
X027451Y019387D01*
X026817Y019387D02*
X026467Y019387D01*
X026624Y019545D02*
X026660Y019545D01*
X025833Y019387D02*
X025400Y019387D01*
X025242Y019545D02*
X025676Y019545D01*
X025610Y019704D02*
X025083Y019704D01*
X024925Y019862D02*
X025593Y019862D01*
X025563Y020021D02*
X024766Y020021D01*
X024861Y020179D02*
X025021Y020179D01*
X025021Y020338D02*
X024861Y020338D01*
X024861Y020496D02*
X025021Y020496D01*
X025021Y020655D02*
X024861Y020655D01*
X024861Y020813D02*
X025021Y020813D01*
X024861Y020844D02*
X024112Y020844D01*
X024123Y020761D01*
X024151Y020656D01*
X024165Y020622D01*
X023981Y020806D01*
X023981Y022845D01*
X024933Y023798D01*
X025494Y023798D01*
X025487Y023791D01*
X025487Y023010D01*
X025583Y022914D01*
X025583Y022312D01*
X025487Y022216D01*
X025487Y021555D01*
X025405Y021618D01*
X025310Y021673D01*
X025209Y021715D01*
X025104Y021743D01*
X025021Y021754D01*
X025021Y021004D01*
X024861Y021004D01*
X024861Y020844D01*
X024861Y020972D02*
X023981Y020972D01*
X024112Y021004D02*
X024123Y021087D01*
X024151Y021193D01*
X024193Y021293D01*
X024247Y021388D01*
X024314Y021475D01*
X024391Y021552D01*
X024478Y021618D01*
X024572Y021673D01*
X024673Y021715D01*
X024778Y021743D01*
X024861Y021754D01*
X024861Y021004D01*
X024112Y021004D01*
X024134Y021130D02*
X023981Y021130D01*
X023981Y021289D02*
X024191Y021289D01*
X024293Y021447D02*
X023981Y021447D01*
X023981Y021606D02*
X024461Y021606D01*
X024861Y021606D02*
X025021Y021606D01*
X025021Y021447D02*
X024861Y021447D01*
X024861Y021289D02*
X025021Y021289D01*
X025021Y021130D02*
X024861Y021130D01*
X024116Y020813D02*
X023981Y020813D01*
X024132Y020655D02*
X024151Y020655D01*
X023663Y020021D02*
X022815Y020021D01*
X022656Y020179D02*
X023505Y020179D01*
X023346Y020338D02*
X022498Y020338D01*
X022339Y020496D02*
X023230Y020496D01*
X023201Y020655D02*
X022181Y020655D01*
X022022Y020813D02*
X023201Y020813D01*
X023201Y020972D02*
X021864Y020972D01*
X021705Y021130D02*
X023201Y021130D01*
X023201Y021289D02*
X021547Y021289D01*
X021388Y021447D02*
X023201Y021447D01*
X023201Y021606D02*
X021230Y021606D01*
X021071Y021764D02*
X023201Y021764D01*
X023201Y021923D02*
X020913Y021923D01*
X020754Y022081D02*
X023201Y022081D01*
X023201Y022240D02*
X020596Y022240D01*
X020437Y022398D02*
X023201Y022398D01*
X023201Y022557D02*
X020279Y022557D01*
X020120Y022715D02*
X023201Y022715D01*
X023201Y022874D02*
X020054Y022874D01*
X020054Y022782D02*
X020054Y023526D01*
X020069Y023542D01*
X020069Y024244D01*
X020046Y024267D01*
X020069Y024290D01*
X020069Y024992D01*
X020049Y025012D01*
X020029Y026632D01*
X021013Y027588D01*
X021238Y027588D01*
X021372Y027722D01*
X021372Y028528D01*
X021238Y028663D01*
X020432Y028663D01*
X020297Y028528D01*
X020297Y028314D01*
X019228Y027277D01*
X019222Y027274D01*
X019156Y027207D01*
X019088Y027141D01*
X019085Y027134D01*
X019080Y027129D01*
X019045Y027041D01*
X019008Y026955D01*
X019007Y026947D01*
X019005Y026941D01*
X019006Y026846D01*
X019005Y026752D01*
X019007Y026745D01*
X019029Y025003D01*
X019018Y024992D01*
X019018Y024290D01*
X019041Y024267D01*
X019018Y024244D01*
X019018Y023542D01*
X019034Y023526D01*
X019034Y022512D01*
X019111Y022324D01*
X019255Y022181D01*
X019327Y022151D01*
X024739Y016739D01*
X024541Y016657D01*
X024340Y016456D01*
X024231Y016193D01*
X024231Y015908D01*
X024340Y015645D01*
X024541Y015443D01*
X024805Y015334D01*
X024875Y015334D01*
X024875Y014666D01*
X024970Y014437D01*
X025145Y014262D01*
X025374Y014167D01*
X025622Y014167D01*
X025852Y014262D01*
X026027Y014437D01*
X026122Y014666D01*
X026122Y014704D01*
X032749Y014704D01*
X032749Y014666D01*
X032844Y014437D01*
X033019Y014262D01*
X033248Y014167D01*
X033496Y014167D01*
X033726Y014262D01*
X033901Y014437D01*
X033996Y014666D01*
X033996Y015702D01*
X033901Y015931D01*
X033726Y016107D01*
X033537Y016185D01*
X033537Y016193D01*
X033428Y016456D01*
X033227Y016657D01*
X032964Y016766D01*
X032679Y016766D01*
X032415Y016657D01*
X032214Y016456D01*
X032105Y016193D01*
X032105Y015908D01*
X032206Y015664D01*
X030681Y015664D01*
X030781Y015908D01*
X030781Y016193D01*
X030672Y016456D01*
X030471Y016657D01*
X030208Y016766D01*
X029923Y016766D01*
X029660Y016657D01*
X029458Y016456D01*
X029349Y016193D01*
X029349Y015908D01*
X029450Y015664D01*
X026122Y015664D01*
X026122Y015702D01*
X026027Y015931D01*
X025978Y015980D01*
X025978Y016754D01*
X025905Y016930D01*
X020054Y022782D01*
X020054Y023032D02*
X023201Y023032D01*
X023245Y023191D02*
X020054Y023191D01*
X020054Y023349D02*
X023382Y023349D01*
X023540Y023508D02*
X020054Y023508D01*
X020069Y023666D02*
X023699Y023666D01*
X023857Y023825D02*
X020069Y023825D01*
X020069Y023983D02*
X024016Y023983D01*
X024174Y024142D02*
X020069Y024142D01*
X020069Y024300D02*
X024333Y024300D01*
X024441Y024409D02*
X024441Y024409D01*
X024491Y024459D02*
X020069Y024459D01*
X020069Y024617D02*
X029500Y024617D01*
X029500Y024459D02*
X027828Y024459D01*
X027987Y024300D02*
X029500Y024300D01*
X029500Y024142D02*
X028145Y024142D01*
X028304Y023983D02*
X029500Y023983D01*
X029500Y023825D02*
X029465Y023825D01*
X029131Y023825D02*
X029035Y023825D01*
X029035Y023666D02*
X029131Y023666D01*
X029131Y023508D02*
X029035Y023508D01*
X029991Y022557D02*
X033016Y022557D01*
X033031Y022572D02*
X032995Y022535D01*
X032995Y022109D01*
X033129Y021974D01*
X034186Y021974D01*
X034321Y022109D01*
X034321Y022535D01*
X034284Y022572D01*
X034321Y022609D01*
X034321Y023035D01*
X034284Y023072D01*
X034321Y023109D01*
X034321Y023535D01*
X034284Y023572D01*
X034321Y023609D01*
X034321Y024035D01*
X034284Y024072D01*
X034321Y024109D01*
X034321Y024535D01*
X034284Y024572D01*
X034321Y024609D01*
X034321Y025035D01*
X034284Y025072D01*
X034321Y025109D01*
X034321Y025535D01*
X034186Y025670D01*
X033129Y025670D01*
X032995Y025535D01*
X032995Y025109D01*
X033031Y025072D01*
X032995Y025035D01*
X032995Y024609D01*
X033031Y024572D01*
X032995Y024535D01*
X032995Y024109D01*
X033031Y024072D01*
X032995Y024035D01*
X032995Y023609D01*
X033031Y023572D01*
X032995Y023535D01*
X032995Y023109D01*
X033031Y023072D01*
X032995Y023035D01*
X032995Y022609D01*
X033031Y022572D01*
X032995Y022715D02*
X030150Y022715D01*
X030257Y022874D02*
X032995Y022874D01*
X032995Y023032D02*
X030280Y023032D01*
X030280Y023191D02*
X032995Y023191D01*
X032995Y023349D02*
X030280Y023349D01*
X030280Y023508D02*
X032995Y023508D01*
X032995Y023666D02*
X030280Y023666D01*
X030280Y023825D02*
X032995Y023825D01*
X032995Y023983D02*
X030280Y023983D01*
X030280Y024142D02*
X032995Y024142D01*
X032995Y024300D02*
X030280Y024300D01*
X030280Y024459D02*
X032995Y024459D01*
X032995Y024617D02*
X030280Y024617D01*
X030280Y024776D02*
X032995Y024776D01*
X032995Y024934D02*
X030280Y024934D01*
X030280Y025093D02*
X033010Y025093D01*
X032995Y025251D02*
X030280Y025251D01*
X030280Y025410D02*
X032995Y025410D01*
X033028Y025568D02*
X030280Y025568D01*
X029500Y025568D02*
X021302Y025568D01*
X021310Y025583D02*
X021322Y025629D01*
X021322Y025960D01*
X021322Y026291D01*
X021310Y026337D01*
X021286Y026378D01*
X021253Y026411D01*
X021212Y026435D01*
X021166Y026447D01*
X020835Y026447D01*
X020835Y025960D01*
X020835Y025960D01*
X020835Y026447D01*
X020504Y026447D01*
X020458Y026435D01*
X020417Y026411D01*
X020383Y026378D01*
X020360Y026337D01*
X020347Y026291D01*
X020347Y025960D01*
X020835Y025960D01*
X021322Y025960D01*
X020835Y025960D01*
X020835Y025960D01*
X020835Y025960D01*
X020347Y025960D01*
X020347Y025629D01*
X020360Y025583D01*
X020383Y025542D01*
X020417Y025508D01*
X020458Y025484D01*
X020504Y025472D01*
X020835Y025472D01*
X021166Y025472D01*
X021212Y025484D01*
X021253Y025508D01*
X021286Y025542D01*
X021310Y025583D01*
X021322Y025727D02*
X029500Y025727D01*
X029500Y025885D02*
X021322Y025885D01*
X021322Y026044D02*
X029500Y026044D01*
X029500Y026202D02*
X028860Y026202D01*
X028999Y026361D02*
X029500Y026361D01*
X029500Y026519D02*
X029065Y026519D01*
X029068Y026678D02*
X029500Y026678D01*
X029500Y026836D02*
X029068Y026836D01*
X029068Y026995D02*
X029500Y026995D01*
X029500Y027153D02*
X029068Y027153D01*
X029068Y027312D02*
X029500Y027312D01*
X029500Y027470D02*
X029023Y027470D01*
X028918Y027629D02*
X029500Y027629D01*
X029500Y027787D02*
X028918Y027787D01*
X028918Y027946D02*
X029500Y027946D01*
X029500Y028104D02*
X029151Y028104D01*
X029234Y028263D02*
X029500Y028263D01*
X029500Y028421D02*
X029234Y028421D01*
X029234Y028580D02*
X029500Y028580D01*
X029500Y028738D02*
X029234Y028738D01*
X029183Y029689D02*
X029402Y029689D01*
X029591Y029689D02*
X038859Y029689D01*
X038859Y029531D02*
X029823Y029531D01*
X029982Y029372D02*
X038859Y029372D01*
X038859Y029214D02*
X030140Y029214D01*
X030253Y029055D02*
X038859Y029055D01*
X038859Y028897D02*
X030280Y028897D01*
X030280Y028738D02*
X038859Y028738D01*
X038859Y028580D02*
X030280Y028580D01*
X030280Y028421D02*
X038859Y028421D01*
X038859Y028263D02*
X030280Y028263D01*
X030280Y028104D02*
X038859Y028104D01*
X038859Y027946D02*
X030280Y027946D01*
X030280Y027787D02*
X038859Y027787D01*
X038859Y027629D02*
X030280Y027629D01*
X030280Y027470D02*
X038859Y027470D01*
X038859Y027312D02*
X030280Y027312D01*
X030280Y027153D02*
X038859Y027153D01*
X038859Y026995D02*
X030280Y026995D01*
X030280Y026836D02*
X038859Y026836D01*
X038859Y026678D02*
X030280Y026678D01*
X030280Y026519D02*
X038859Y026519D01*
X038859Y026361D02*
X030280Y026361D01*
X029500Y025410D02*
X020044Y025410D01*
X020042Y025568D02*
X020368Y025568D01*
X020347Y025727D02*
X020040Y025727D01*
X020038Y025885D02*
X020347Y025885D01*
X020347Y026044D02*
X020036Y026044D01*
X020034Y026202D02*
X020347Y026202D01*
X020374Y026361D02*
X020032Y026361D01*
X020030Y026519D02*
X025991Y026519D01*
X025988Y026678D02*
X020075Y026678D01*
X020239Y026836D02*
X025988Y026836D01*
X025988Y026995D02*
X020402Y026995D01*
X020566Y027153D02*
X025988Y027153D01*
X025988Y027312D02*
X020729Y027312D01*
X020892Y027470D02*
X026033Y027470D01*
X026138Y027629D02*
X021279Y027629D01*
X021372Y027787D02*
X026138Y027787D01*
X026138Y027946D02*
X021372Y027946D01*
X021372Y028104D02*
X025904Y028104D01*
X025821Y028263D02*
X021372Y028263D01*
X021372Y028421D02*
X025821Y028421D01*
X025821Y028580D02*
X021320Y028580D01*
X021760Y029055D02*
X019910Y029055D01*
X019951Y029097D02*
X020098Y029350D01*
X020173Y029632D01*
X020173Y029925D01*
X020098Y030207D01*
X019951Y030460D01*
X019745Y030667D01*
X019492Y030813D01*
X019209Y030889D01*
X018917Y030889D01*
X018635Y030813D01*
X018382Y030667D01*
X018175Y030460D01*
X018029Y030207D01*
X017953Y029925D01*
X017953Y029632D01*
X018029Y029350D01*
X018175Y029097D01*
X018382Y028890D01*
X018635Y028744D01*
X018917Y028669D01*
X019209Y028669D01*
X019492Y028744D01*
X019745Y028890D01*
X019951Y029097D01*
X020019Y029214D02*
X021651Y029214D01*
X021718Y029097D02*
X021572Y029350D01*
X021497Y029632D01*
X021497Y029925D01*
X021572Y030207D01*
X021718Y030460D01*
X021925Y030667D01*
X022178Y030813D01*
X022460Y030889D01*
X022753Y030889D01*
X023035Y030813D01*
X023288Y030667D01*
X023495Y030460D01*
X023641Y030207D01*
X023716Y029925D01*
X023716Y029632D01*
X023641Y029350D01*
X023495Y029097D01*
X023288Y028890D01*
X023035Y028744D01*
X022753Y028669D01*
X022460Y028669D01*
X022178Y028744D01*
X021925Y028890D01*
X021718Y029097D01*
X021919Y028897D02*
X019751Y028897D01*
X019469Y028738D02*
X022201Y028738D01*
X021566Y029372D02*
X020103Y029372D01*
X020146Y029531D02*
X021524Y029531D01*
X021497Y029689D02*
X020173Y029689D01*
X020173Y029848D02*
X021497Y029848D01*
X021518Y030006D02*
X020151Y030006D01*
X020109Y030165D02*
X021561Y030165D01*
X021639Y030323D02*
X020030Y030323D01*
X019930Y030482D02*
X021740Y030482D01*
X021899Y030640D02*
X019771Y030640D01*
X019516Y030799D02*
X022154Y030799D01*
X023059Y030799D02*
X038859Y030799D01*
X038859Y030957D02*
X016197Y030957D01*
X016197Y030799D02*
X018610Y030799D01*
X018355Y030640D02*
X016197Y030640D01*
X016197Y030482D02*
X018197Y030482D01*
X018096Y030323D02*
X016197Y030323D01*
X016197Y030165D02*
X018018Y030165D01*
X017975Y030006D02*
X016197Y030006D01*
X016197Y029848D02*
X017953Y029848D01*
X017953Y029689D02*
X016197Y029689D01*
X016197Y029531D02*
X017981Y029531D01*
X018023Y029372D02*
X016197Y029372D01*
X016197Y029214D02*
X018108Y029214D01*
X018217Y029055D02*
X016197Y029055D01*
X016197Y028897D02*
X018375Y028897D01*
X018657Y028738D02*
X016197Y028738D01*
X016197Y028580D02*
X020349Y028580D01*
X020297Y028421D02*
X016197Y028421D01*
X016197Y028263D02*
X020244Y028263D01*
X020081Y028104D02*
X016197Y028104D01*
X016197Y027946D02*
X019918Y027946D01*
X019754Y027787D02*
X016197Y027787D01*
X016197Y027629D02*
X019591Y027629D01*
X019428Y027470D02*
X016197Y027470D01*
X016197Y027312D02*
X019264Y027312D01*
X019101Y027153D02*
X016197Y027153D01*
X016197Y026995D02*
X019025Y026995D01*
X019006Y026836D02*
X016197Y026836D01*
X016197Y026678D02*
X019008Y026678D01*
X019010Y026519D02*
X016197Y026519D01*
X016197Y026361D02*
X019012Y026361D01*
X019014Y026202D02*
X016197Y026202D01*
X016197Y026044D02*
X019016Y026044D01*
X019018Y025885D02*
X016197Y025885D01*
X016197Y025727D02*
X019020Y025727D01*
X019022Y025568D02*
X016197Y025568D01*
X016197Y025410D02*
X019024Y025410D01*
X019026Y025251D02*
X016197Y025251D01*
X016197Y025093D02*
X019028Y025093D01*
X019018Y024934D02*
X016197Y024934D01*
X016197Y024776D02*
X019018Y024776D01*
X019018Y024617D02*
X016197Y024617D01*
X016197Y024459D02*
X019018Y024459D01*
X019018Y024300D02*
X016197Y024300D01*
X016197Y024142D02*
X019018Y024142D01*
X019018Y023983D02*
X016197Y023983D01*
X016197Y023825D02*
X019018Y023825D01*
X019018Y023666D02*
X016197Y023666D01*
X016197Y023508D02*
X019034Y023508D01*
X019034Y023349D02*
X016197Y023349D01*
X016197Y023191D02*
X019034Y023191D01*
X019034Y023032D02*
X016197Y023032D01*
X016197Y022874D02*
X019034Y022874D01*
X019034Y022715D02*
X016197Y022715D01*
X016197Y022557D02*
X019034Y022557D01*
X019081Y022398D02*
X016197Y022398D01*
X016197Y022240D02*
X019196Y022240D01*
X019397Y022081D02*
X016197Y022081D01*
X016197Y021923D02*
X019555Y021923D01*
X019714Y021764D02*
X016197Y021764D01*
X016197Y021606D02*
X019872Y021606D01*
X020031Y021447D02*
X016197Y021447D01*
X016197Y021289D02*
X020189Y021289D01*
X020348Y021130D02*
X016197Y021130D01*
X016197Y020972D02*
X020506Y020972D01*
X020665Y020813D02*
X016197Y020813D01*
X016197Y020655D02*
X020823Y020655D01*
X020982Y020496D02*
X016197Y020496D01*
X016197Y020338D02*
X021140Y020338D01*
X021299Y020179D02*
X016197Y020179D01*
X016197Y020021D02*
X021457Y020021D01*
X021616Y019862D02*
X016197Y019862D01*
X016197Y019704D02*
X021774Y019704D01*
X021933Y019545D02*
X016197Y019545D01*
X016197Y019387D02*
X022091Y019387D01*
X022250Y019228D02*
X016197Y019228D01*
X016197Y019070D02*
X022408Y019070D01*
X022567Y018911D02*
X016197Y018911D01*
X016197Y018753D02*
X022725Y018753D01*
X022884Y018594D02*
X016197Y018594D01*
X016197Y018436D02*
X023042Y018436D01*
X023201Y018277D02*
X016197Y018277D01*
X016197Y018119D02*
X023359Y018119D01*
X023518Y017960D02*
X016197Y017960D01*
X016197Y017802D02*
X023676Y017802D01*
X023835Y017643D02*
X016197Y017643D01*
X016197Y017485D02*
X023993Y017485D01*
X024152Y017326D02*
X016197Y017326D01*
X016197Y017168D02*
X024310Y017168D01*
X024469Y017009D02*
X016197Y017009D01*
X016197Y016851D02*
X024627Y016851D01*
X024625Y016692D02*
X022513Y016692D01*
X022597Y016657D02*
X022334Y016766D01*
X022049Y016766D01*
X021785Y016657D01*
X021584Y016456D01*
X021475Y016193D01*
X021475Y015908D01*
X021584Y015645D01*
X021785Y015443D01*
X022049Y015334D01*
X022334Y015334D01*
X022597Y015443D01*
X022798Y015645D01*
X022907Y015908D01*
X022907Y016193D01*
X022798Y016456D01*
X022597Y016657D01*
X022721Y016534D02*
X024418Y016534D01*
X024306Y016375D02*
X022832Y016375D01*
X022897Y016217D02*
X024241Y016217D01*
X024231Y016058D02*
X022907Y016058D01*
X022904Y015900D02*
X024234Y015900D01*
X024300Y015741D02*
X022838Y015741D01*
X022737Y015583D02*
X024402Y015583D01*
X024587Y015424D02*
X022551Y015424D01*
X021831Y015424D02*
X016197Y015424D01*
X016197Y015266D02*
X024875Y015266D01*
X024875Y015107D02*
X016197Y015107D01*
X016197Y014949D02*
X024875Y014949D01*
X024875Y014790D02*
X016197Y014790D01*
X016197Y014632D02*
X022460Y014632D01*
X022490Y014641D02*
X022404Y014613D01*
X022324Y014572D01*
X022251Y014519D01*
X022187Y014455D01*
X022134Y014382D01*
X022093Y014302D01*
X022065Y014216D01*
X022051Y014127D01*
X022051Y014082D01*
X023018Y014082D01*
X023018Y014082D01*
X023018Y014655D01*
X022579Y014655D01*
X022490Y014641D01*
X022204Y014473D02*
X016197Y014473D01*
X016197Y014315D02*
X022099Y014315D01*
X022055Y014156D02*
X016197Y014156D01*
X016197Y013998D02*
X022057Y013998D01*
X022051Y014037D02*
X022065Y013947D01*
X022093Y013862D01*
X022134Y013781D01*
X022187Y013708D01*
X022199Y013696D01*
X022049Y013696D01*
X021785Y013587D01*
X021584Y013385D01*
X021475Y013122D01*
X021475Y012837D01*
X021584Y012574D01*
X021785Y012372D01*
X022049Y012263D01*
X022334Y012263D01*
X022597Y012372D01*
X022798Y012574D01*
X022907Y012837D01*
X022907Y013122D01*
X022798Y013385D01*
X022675Y013508D01*
X023018Y013508D01*
X023457Y013508D01*
X023536Y013521D01*
X023506Y013511D01*
X023426Y013470D01*
X023353Y013417D01*
X023289Y013353D01*
X023236Y013280D01*
X023195Y013200D01*
X023167Y013114D01*
X023153Y013025D01*
X023153Y012979D01*
X023153Y012934D01*
X023167Y012845D01*
X023195Y012759D01*
X023236Y012679D01*
X023289Y012606D01*
X023353Y012542D01*
X023426Y012489D01*
X023506Y012448D01*
X023592Y012420D01*
X023681Y012406D01*
X024120Y012406D01*
X024120Y012979D01*
X024120Y012979D01*
X023153Y012979D01*
X024120Y012979D01*
X024120Y012979D01*
X024120Y012406D01*
X024508Y012406D01*
X024541Y012372D01*
X024805Y012263D01*
X025090Y012263D01*
X025353Y012372D01*
X025554Y012574D01*
X025663Y012837D01*
X025663Y013122D01*
X025554Y013385D01*
X025353Y013587D01*
X025090Y013696D01*
X024805Y013696D01*
X024541Y013587D01*
X024508Y013553D01*
X024120Y013553D01*
X023681Y013553D01*
X023603Y013541D01*
X023632Y013550D01*
X023712Y013591D01*
X023785Y013644D01*
X023849Y013708D01*
X023902Y013781D01*
X023943Y013862D01*
X023971Y013947D01*
X023985Y014037D01*
X023985Y014082D01*
X023985Y014127D01*
X023971Y014216D01*
X023943Y014302D01*
X023902Y014382D01*
X023849Y014455D01*
X023785Y014519D01*
X023712Y014572D01*
X023632Y014613D01*
X023546Y014641D01*
X023457Y014655D01*
X023018Y014655D01*
X023018Y014082D01*
X023985Y014082D01*
X023018Y014082D01*
X023018Y014082D01*
X023018Y014082D01*
X022051Y014082D01*
X022051Y014037D01*
X022104Y013839D02*
X016197Y013839D01*
X016197Y013681D02*
X022013Y013681D01*
X021721Y013522D02*
X016197Y013522D01*
X016197Y013364D02*
X021575Y013364D01*
X021510Y013205D02*
X016197Y013205D01*
X016197Y013047D02*
X021475Y013047D01*
X021475Y012888D02*
X016197Y012888D01*
X016197Y012730D02*
X021519Y012730D01*
X021586Y012571D02*
X016197Y012571D01*
X016197Y012413D02*
X021745Y012413D01*
X022637Y012413D02*
X023637Y012413D01*
X023323Y012571D02*
X022796Y012571D01*
X022863Y012730D02*
X023210Y012730D01*
X023160Y012888D02*
X022907Y012888D01*
X022907Y013047D02*
X023156Y013047D01*
X023198Y013205D02*
X022873Y013205D01*
X022807Y013364D02*
X023300Y013364D01*
X023018Y013508D02*
X023018Y014082D01*
X023018Y014082D01*
X023018Y013508D01*
X023018Y013522D02*
X023018Y013522D01*
X023018Y013681D02*
X023018Y013681D01*
X023018Y013839D02*
X023018Y013839D01*
X023018Y013998D02*
X023018Y013998D01*
X023018Y014156D02*
X023018Y014156D01*
X023018Y014315D02*
X023018Y014315D01*
X023018Y014473D02*
X023018Y014473D01*
X023018Y014632D02*
X023018Y014632D01*
X023576Y014632D02*
X024889Y014632D01*
X024955Y014473D02*
X023832Y014473D01*
X023937Y014315D02*
X025092Y014315D01*
X025126Y013681D02*
X029887Y013681D01*
X029923Y013696D02*
X029660Y013587D01*
X029458Y013385D01*
X029349Y013122D01*
X029349Y012837D01*
X029458Y012574D01*
X029660Y012372D01*
X029923Y012263D01*
X030208Y012263D01*
X030471Y012372D01*
X030672Y012574D01*
X030781Y012837D01*
X030781Y013122D01*
X030672Y013385D01*
X030549Y013508D01*
X030892Y013508D01*
X031331Y013508D01*
X031410Y013521D01*
X031380Y013511D01*
X031300Y013470D01*
X031227Y013417D01*
X031163Y013353D01*
X031110Y013280D01*
X031069Y013200D01*
X031041Y013114D01*
X031027Y013025D01*
X031027Y012979D01*
X031027Y012934D01*
X031041Y012845D01*
X031069Y012759D01*
X031110Y012679D01*
X031163Y012606D01*
X031227Y012542D01*
X031300Y012489D01*
X031380Y012448D01*
X031466Y012420D01*
X031556Y012406D01*
X031994Y012406D01*
X031994Y012979D01*
X031994Y012979D01*
X031027Y012979D01*
X031994Y012979D01*
X031994Y012979D01*
X031994Y012406D01*
X032382Y012406D01*
X032415Y012372D01*
X032679Y012263D01*
X032964Y012263D01*
X033227Y012372D01*
X033428Y012574D01*
X033537Y012837D01*
X033537Y013122D01*
X033428Y013385D01*
X033227Y013587D01*
X032964Y013696D01*
X032679Y013696D01*
X032415Y013587D01*
X032382Y013553D01*
X031994Y013553D01*
X031556Y013553D01*
X031477Y013541D01*
X031506Y013550D01*
X031586Y013591D01*
X031659Y013644D01*
X031723Y013708D01*
X031776Y013781D01*
X031817Y013862D01*
X031845Y013947D01*
X031859Y014037D01*
X031859Y014082D01*
X031859Y014127D01*
X031845Y014216D01*
X031817Y014302D01*
X031776Y014382D01*
X031723Y014455D01*
X031659Y014519D01*
X031586Y014572D01*
X031506Y014613D01*
X031420Y014641D01*
X031331Y014655D01*
X030892Y014655D01*
X030453Y014655D01*
X030364Y014641D01*
X030278Y014613D01*
X030198Y014572D01*
X030125Y014519D01*
X030061Y014455D01*
X030008Y014382D01*
X029967Y014302D01*
X029939Y014216D01*
X029925Y014127D01*
X029925Y014082D01*
X030892Y014082D01*
X030892Y014655D01*
X030892Y014082D01*
X030892Y014082D01*
X030892Y014082D01*
X031859Y014082D01*
X030892Y014082D01*
X030892Y014082D01*
X029925Y014082D01*
X029925Y014037D01*
X029939Y013947D01*
X029967Y013862D01*
X030008Y013781D01*
X030061Y013708D01*
X030073Y013696D01*
X029923Y013696D01*
X029978Y013839D02*
X023932Y013839D01*
X023979Y013998D02*
X029931Y013998D01*
X029929Y014156D02*
X023981Y014156D01*
X023822Y013681D02*
X024769Y013681D01*
X024120Y013553D02*
X024120Y012979D01*
X024120Y013553D01*
X024120Y013522D02*
X024120Y013522D01*
X024120Y013364D02*
X024120Y013364D01*
X024120Y013205D02*
X024120Y013205D01*
X024120Y013047D02*
X024120Y013047D01*
X024120Y012979D02*
X024120Y012979D01*
X024120Y012888D02*
X024120Y012888D01*
X024120Y012730D02*
X024120Y012730D01*
X024120Y012571D02*
X024120Y012571D01*
X024120Y012413D02*
X024120Y012413D01*
X025393Y012413D02*
X029619Y012413D01*
X029460Y012571D02*
X025552Y012571D01*
X025619Y012730D02*
X029393Y012730D01*
X029349Y012888D02*
X025663Y012888D01*
X025663Y013047D02*
X029349Y013047D01*
X029384Y013205D02*
X025629Y013205D01*
X025563Y013364D02*
X029449Y013364D01*
X029595Y013522D02*
X025417Y013522D01*
X025905Y014315D02*
X029973Y014315D01*
X030078Y014473D02*
X026042Y014473D01*
X026108Y014632D02*
X030334Y014632D01*
X030892Y014632D02*
X030892Y014632D01*
X030892Y014473D02*
X030892Y014473D01*
X030892Y014315D02*
X030892Y014315D01*
X030892Y014156D02*
X030892Y014156D01*
X030892Y014082D02*
X030892Y013508D01*
X030892Y014082D01*
X030892Y014082D01*
X030892Y013998D02*
X030892Y013998D01*
X030892Y013839D02*
X030892Y013839D01*
X030892Y013681D02*
X030892Y013681D01*
X030892Y013522D02*
X030892Y013522D01*
X030681Y013364D02*
X031174Y013364D01*
X031072Y013205D02*
X030747Y013205D01*
X030781Y013047D02*
X031030Y013047D01*
X031034Y012888D02*
X030781Y012888D01*
X030737Y012730D02*
X031084Y012730D01*
X031197Y012571D02*
X030670Y012571D01*
X030511Y012413D02*
X031511Y012413D01*
X031994Y012413D02*
X031994Y012413D01*
X031994Y012571D02*
X031994Y012571D01*
X031994Y012730D02*
X031994Y012730D01*
X031994Y012888D02*
X031994Y012888D01*
X031994Y012979D02*
X031994Y013553D01*
X031994Y012979D01*
X031994Y012979D01*
X031994Y013047D02*
X031994Y013047D01*
X031994Y013205D02*
X031994Y013205D01*
X031994Y013364D02*
X031994Y013364D01*
X031994Y013522D02*
X031994Y013522D01*
X031696Y013681D02*
X032643Y013681D01*
X033000Y013681D02*
X038859Y013681D01*
X038859Y013839D02*
X031806Y013839D01*
X031853Y013998D02*
X038859Y013998D01*
X038859Y014156D02*
X031855Y014156D01*
X031811Y014315D02*
X032966Y014315D01*
X032829Y014473D02*
X031706Y014473D01*
X031450Y014632D02*
X032763Y014632D01*
X033291Y013522D02*
X038859Y013522D01*
X038859Y013364D02*
X033437Y013364D01*
X033503Y013205D02*
X038859Y013205D01*
X038859Y013047D02*
X033537Y013047D01*
X033537Y012888D02*
X038859Y012888D01*
X038859Y012730D02*
X033493Y012730D01*
X033426Y012571D02*
X038859Y012571D01*
X038859Y012413D02*
X033267Y012413D01*
X033779Y014315D02*
X038859Y014315D01*
X038859Y014473D02*
X033916Y014473D01*
X033982Y014632D02*
X038859Y014632D01*
X038859Y014790D02*
X033996Y014790D01*
X033996Y014949D02*
X038859Y014949D01*
X038859Y015107D02*
X033996Y015107D01*
X033996Y015266D02*
X038859Y015266D01*
X038859Y015424D02*
X033996Y015424D01*
X033996Y015583D02*
X038859Y015583D01*
X038859Y015741D02*
X033980Y015741D01*
X033914Y015900D02*
X038859Y015900D01*
X038859Y016058D02*
X033774Y016058D01*
X033527Y016217D02*
X038859Y016217D01*
X038859Y016375D02*
X033462Y016375D01*
X033351Y016534D02*
X038859Y016534D01*
X038859Y016692D02*
X033143Y016692D01*
X032499Y016692D02*
X030387Y016692D01*
X030595Y016534D02*
X032292Y016534D01*
X032181Y016375D02*
X030706Y016375D01*
X030771Y016217D02*
X032115Y016217D01*
X032105Y016058D02*
X030781Y016058D01*
X030778Y015900D02*
X032108Y015900D01*
X032174Y015741D02*
X030712Y015741D01*
X029418Y015741D02*
X026106Y015741D01*
X026040Y015900D02*
X029352Y015900D01*
X029349Y016058D02*
X025978Y016058D01*
X025978Y016217D02*
X029359Y016217D01*
X029425Y016375D02*
X025978Y016375D01*
X025978Y016534D02*
X029536Y016534D01*
X029744Y016692D02*
X025978Y016692D01*
X025938Y016851D02*
X038859Y016851D01*
X038859Y017009D02*
X025826Y017009D01*
X025668Y017168D02*
X038859Y017168D01*
X038859Y017326D02*
X025509Y017326D01*
X025351Y017485D02*
X038859Y017485D01*
X038859Y017643D02*
X025192Y017643D01*
X025034Y017802D02*
X038859Y017802D01*
X038859Y017960D02*
X024875Y017960D01*
X024717Y018119D02*
X038859Y018119D01*
X038859Y018277D02*
X024558Y018277D01*
X024400Y018436D02*
X025248Y018436D01*
X025090Y018594D02*
X024241Y018594D01*
X024083Y018753D02*
X024931Y018753D01*
X024773Y018911D02*
X023924Y018911D01*
X023766Y019070D02*
X024614Y019070D01*
X024456Y019228D02*
X023607Y019228D01*
X023449Y019387D02*
X024297Y019387D01*
X024139Y019545D02*
X023290Y019545D01*
X023132Y019704D02*
X023980Y019704D01*
X023822Y019862D02*
X022973Y019862D01*
X023981Y021764D02*
X025487Y021764D01*
X025487Y021606D02*
X025421Y021606D01*
X025487Y021923D02*
X023981Y021923D01*
X023981Y022081D02*
X025487Y022081D01*
X025510Y022240D02*
X023981Y022240D01*
X023981Y022398D02*
X025583Y022398D01*
X025583Y022557D02*
X023981Y022557D01*
X023981Y022715D02*
X025583Y022715D01*
X025583Y022874D02*
X024009Y022874D01*
X024168Y023032D02*
X025487Y023032D01*
X025487Y023191D02*
X024326Y023191D01*
X024485Y023349D02*
X025487Y023349D01*
X025487Y023508D02*
X024643Y023508D01*
X024802Y023666D02*
X025487Y023666D01*
X026196Y026202D02*
X021322Y026202D01*
X021296Y026361D02*
X026056Y026361D01*
X026860Y026202D02*
X027296Y026202D01*
X027528Y026202D02*
X027528Y026202D01*
X027528Y026361D02*
X027528Y026361D01*
X027528Y026519D02*
X027528Y026519D01*
X027528Y026678D02*
X027528Y026678D01*
X027528Y026836D02*
X027528Y026836D01*
X027528Y026995D02*
X027528Y026995D01*
X027528Y027153D02*
X027528Y027153D01*
X027528Y027312D02*
X027528Y027312D01*
X027528Y027470D02*
X027528Y027470D01*
X027528Y027629D02*
X027528Y027629D01*
X027846Y027629D02*
X028138Y027629D01*
X028138Y027787D02*
X026918Y027787D01*
X026918Y027629D02*
X027210Y027629D01*
X027088Y027470D02*
X027023Y027470D01*
X026918Y027946D02*
X028138Y027946D01*
X028138Y028104D02*
X026918Y028104D01*
X026918Y028263D02*
X028138Y028263D01*
X028138Y028421D02*
X026918Y028421D01*
X026872Y028580D02*
X028184Y028580D01*
X028184Y028738D02*
X026872Y028738D01*
X026820Y029689D02*
X028235Y029689D01*
X028688Y031753D02*
X028927Y031753D01*
X029148Y031845D01*
X029316Y032013D01*
X029408Y032234D01*
X029408Y032473D01*
X029316Y032693D01*
X029148Y032862D01*
X028927Y032953D01*
X028688Y032953D01*
X028468Y032862D01*
X028299Y032693D01*
X028208Y032473D01*
X028208Y032234D01*
X028299Y032013D01*
X028468Y031845D01*
X028688Y031753D01*
X028404Y031908D02*
X026651Y031908D01*
X026588Y031845D02*
X026756Y032013D01*
X026848Y032234D01*
X026848Y032473D01*
X026756Y032693D01*
X026588Y032862D01*
X026367Y032953D01*
X026128Y032953D01*
X025908Y032862D01*
X025739Y032693D01*
X025648Y032473D01*
X025648Y032234D01*
X025739Y032013D01*
X025908Y031845D01*
X026128Y031753D01*
X026367Y031753D01*
X026588Y031845D01*
X026779Y032067D02*
X028277Y032067D01*
X028211Y032225D02*
X026844Y032225D01*
X026848Y032384D02*
X028208Y032384D01*
X028237Y032542D02*
X026819Y032542D01*
X026749Y032701D02*
X028307Y032701D01*
X028465Y032859D02*
X026590Y032859D01*
X025905Y032859D02*
X016197Y032859D01*
X016197Y032701D02*
X025747Y032701D01*
X025677Y032542D02*
X016197Y032542D01*
X016197Y032384D02*
X025648Y032384D01*
X025651Y032225D02*
X016197Y032225D01*
X016197Y032067D02*
X025717Y032067D01*
X025844Y031908D02*
X016197Y031908D01*
X016197Y031750D02*
X038859Y031750D01*
X038859Y031908D02*
X029211Y031908D01*
X029339Y032067D02*
X038859Y032067D01*
X038859Y032225D02*
X029404Y032225D01*
X029408Y032384D02*
X038859Y032384D01*
X038859Y032542D02*
X029379Y032542D01*
X029309Y032701D02*
X038859Y032701D01*
X038859Y032859D02*
X029150Y032859D01*
X028927Y033533D02*
X028688Y033533D01*
X028468Y033625D01*
X028299Y033793D01*
X028208Y034014D01*
X028208Y034253D01*
X028299Y034473D01*
X028468Y034642D01*
X028688Y034733D01*
X028927Y034733D01*
X029148Y034642D01*
X029316Y034473D01*
X029408Y034253D01*
X029408Y034014D01*
X029316Y033793D01*
X029148Y033625D01*
X028927Y033533D01*
X029175Y033652D02*
X038859Y033652D01*
X038859Y033810D02*
X029324Y033810D01*
X029389Y033969D02*
X038859Y033969D01*
X038859Y034127D02*
X029408Y034127D01*
X029394Y034286D02*
X038859Y034286D01*
X038859Y034444D02*
X029328Y034444D01*
X029187Y034603D02*
X038859Y034603D01*
X038859Y034761D02*
X016197Y034761D01*
X016197Y034603D02*
X025869Y034603D01*
X025908Y034642D02*
X025739Y034473D01*
X025648Y034253D01*
X025648Y034014D01*
X025739Y033793D01*
X025908Y033625D01*
X026128Y033533D01*
X026367Y033533D01*
X026588Y033625D01*
X026756Y033793D01*
X026848Y034014D01*
X026848Y034253D01*
X026756Y034473D01*
X026588Y034642D01*
X026367Y034733D01*
X026128Y034733D01*
X025908Y034642D01*
X025727Y034444D02*
X016197Y034444D01*
X016197Y034286D02*
X025662Y034286D01*
X025648Y034127D02*
X016197Y034127D01*
X016197Y033969D02*
X025666Y033969D01*
X025732Y033810D02*
X016197Y033810D01*
X016197Y033652D02*
X025881Y033652D01*
X026615Y033652D02*
X028441Y033652D01*
X028292Y033810D02*
X026764Y033810D01*
X026829Y033969D02*
X028226Y033969D01*
X028208Y034127D02*
X026848Y034127D01*
X026834Y034286D02*
X028222Y034286D01*
X028287Y034444D02*
X026768Y034444D01*
X026627Y034603D02*
X028429Y034603D01*
X025873Y029689D02*
X023716Y029689D01*
X023716Y029848D02*
X038859Y029848D01*
X038859Y030006D02*
X023695Y030006D01*
X023652Y030165D02*
X038859Y030165D01*
X038859Y030323D02*
X023574Y030323D01*
X023473Y030482D02*
X038859Y030482D01*
X038859Y030640D02*
X023315Y030640D01*
X023689Y029531D02*
X025821Y029531D01*
X025821Y029372D02*
X023647Y029372D01*
X023562Y029214D02*
X025821Y029214D01*
X025821Y029055D02*
X023453Y029055D01*
X023294Y028897D02*
X025829Y028897D01*
X025821Y028738D02*
X023012Y028738D01*
X020835Y026361D02*
X020835Y026361D01*
X020835Y026202D02*
X020835Y026202D01*
X020835Y026044D02*
X020835Y026044D01*
X020835Y025960D02*
X020835Y025472D01*
X020835Y025960D01*
X020835Y025960D01*
X020835Y025885D02*
X020835Y025885D01*
X020835Y025727D02*
X020835Y025727D01*
X020835Y025568D02*
X020835Y025568D01*
X020046Y025251D02*
X029500Y025251D01*
X029500Y025093D02*
X020048Y025093D01*
X020069Y024934D02*
X029500Y024934D01*
X029500Y024776D02*
X020069Y024776D01*
X025316Y020179D02*
X025563Y020179D01*
X025563Y020338D02*
X025532Y020338D01*
X027524Y020338D02*
X027625Y020338D01*
X028395Y019545D02*
X028506Y019545D01*
X029386Y020021D02*
X038859Y020021D01*
X038859Y020179D02*
X030490Y020179D01*
X030706Y020338D02*
X038859Y020338D01*
X038859Y020496D02*
X030829Y020496D01*
X030904Y020655D02*
X038859Y020655D01*
X038859Y020813D02*
X030940Y020813D01*
X030194Y020813D02*
X030034Y020813D01*
X030034Y020655D02*
X030194Y020655D01*
X030194Y020496D02*
X030034Y020496D01*
X030034Y020338D02*
X030194Y020338D01*
X030194Y020179D02*
X030034Y020179D01*
X029739Y020179D02*
X029299Y020179D01*
X029131Y021447D02*
X029035Y021447D01*
X029035Y021606D02*
X029131Y021606D01*
X029131Y021764D02*
X029035Y021764D01*
X029519Y021606D02*
X029635Y021606D01*
X030034Y021606D02*
X030194Y021606D01*
X030194Y021447D02*
X030034Y021447D01*
X030034Y021289D02*
X030194Y021289D01*
X029519Y022081D02*
X033022Y022081D01*
X032995Y022240D02*
X029614Y022240D01*
X029833Y022398D02*
X032995Y022398D01*
X034299Y022557D02*
X035063Y022557D01*
X035042Y022715D02*
X034321Y022715D01*
X034321Y022874D02*
X035042Y022874D01*
X035042Y023032D02*
X034321Y023032D01*
X034321Y023191D02*
X035042Y023191D01*
X035042Y023349D02*
X034321Y023349D01*
X034321Y023508D02*
X035042Y023508D01*
X035042Y023666D02*
X034321Y023666D01*
X034321Y023825D02*
X035042Y023825D01*
X035042Y023983D02*
X034321Y023983D01*
X034321Y024142D02*
X035042Y024142D01*
X035042Y024300D02*
X034321Y024300D01*
X034321Y024459D02*
X035042Y024459D01*
X035042Y024617D02*
X034321Y024617D01*
X034321Y024776D02*
X035042Y024776D01*
X035042Y024934D02*
X034321Y024934D01*
X034305Y025093D02*
X035058Y025093D01*
X035042Y025251D02*
X034321Y025251D01*
X034321Y025410D02*
X035042Y025410D01*
X035075Y025568D02*
X034288Y025568D01*
X036368Y023032D02*
X036452Y023032D01*
X035042Y022398D02*
X034321Y022398D01*
X034321Y022240D02*
X035042Y022240D01*
X035069Y022081D02*
X034294Y022081D01*
X038293Y022081D02*
X038859Y022081D01*
X038859Y021923D02*
X038293Y021923D01*
X038293Y021764D02*
X038859Y021764D01*
X038859Y021606D02*
X038293Y021606D01*
X038293Y021447D02*
X038859Y021447D01*
X038859Y021289D02*
X038293Y021289D01*
X038859Y012254D02*
X016197Y012254D01*
X016197Y012096D02*
X038859Y012096D01*
X038859Y011937D02*
X016197Y011937D01*
X016197Y011779D02*
X038859Y011779D01*
X038859Y011620D02*
X016197Y011620D01*
X016197Y011462D02*
X038859Y011462D01*
X038859Y011303D02*
X016197Y011303D01*
X016197Y011145D02*
X038859Y011145D01*
X038859Y010986D02*
X016197Y010986D01*
X016197Y010828D02*
X038859Y010828D01*
X038859Y010669D02*
X016197Y010669D01*
X016197Y010511D02*
X038859Y010511D01*
X038859Y010352D02*
X016197Y010352D01*
X016197Y010194D02*
X017533Y010194D01*
X017651Y010262D02*
X017397Y010116D01*
X017191Y009909D01*
X017045Y009656D01*
X016969Y009374D01*
X016969Y009081D01*
X017045Y008799D01*
X017191Y008546D01*
X017397Y008339D01*
X017651Y008193D01*
X017933Y008118D01*
X018225Y008118D01*
X018507Y008193D01*
X018761Y008339D01*
X018967Y008546D01*
X019113Y008799D01*
X019189Y009081D01*
X019189Y009374D01*
X019113Y009656D01*
X018967Y009909D01*
X018761Y010116D01*
X018507Y010262D01*
X018225Y010337D01*
X017933Y010337D01*
X017651Y010262D01*
X017317Y010035D02*
X016197Y010035D01*
X016197Y009877D02*
X017172Y009877D01*
X017081Y009718D02*
X016197Y009718D01*
X016197Y009560D02*
X017019Y009560D01*
X016976Y009401D02*
X016197Y009401D01*
X016197Y009243D02*
X016969Y009243D01*
X016969Y009084D02*
X016197Y009084D01*
X016197Y008926D02*
X017011Y008926D01*
X017063Y008767D02*
X016197Y008767D01*
X016197Y008609D02*
X017155Y008609D01*
X017287Y008450D02*
X016197Y008450D01*
X016197Y008292D02*
X017480Y008292D01*
X017874Y008133D02*
X016197Y008133D01*
X016197Y008093D02*
X016197Y037858D01*
X016207Y037872D01*
X016244Y037898D01*
X016286Y037912D01*
X016331Y037911D01*
X016345Y037908D01*
X016409Y037881D01*
X016426Y037881D01*
X016443Y037876D01*
X016521Y037881D01*
X038551Y037881D01*
X038600Y037878D01*
X038691Y037848D01*
X038769Y037791D01*
X038825Y037713D01*
X038855Y037622D01*
X038859Y037574D01*
X038859Y007653D01*
X038855Y007605D01*
X038825Y007513D01*
X038769Y007435D01*
X038691Y007379D01*
X038600Y007349D01*
X038551Y007345D01*
X016564Y007345D01*
X016532Y007354D01*
X016410Y007414D01*
X016307Y007505D01*
X016231Y007618D01*
X016187Y007748D01*
X016178Y007884D01*
X016183Y007917D01*
X016197Y007951D01*
X016197Y007999D01*
X016206Y008046D01*
X016197Y008093D01*
X016197Y007975D02*
X038859Y007975D01*
X038859Y008133D02*
X037181Y008133D01*
X037123Y008118D02*
X037405Y008193D01*
X037658Y008339D01*
X037865Y008546D01*
X038011Y008799D01*
X038087Y009081D01*
X038087Y009374D01*
X038011Y009656D01*
X037865Y009909D01*
X037658Y010116D01*
X037405Y010262D01*
X037123Y010337D01*
X036831Y010337D01*
X036548Y010262D01*
X036295Y010116D01*
X036088Y009909D01*
X035942Y009656D01*
X035867Y009374D01*
X035867Y009081D01*
X035942Y008799D01*
X036088Y008546D01*
X036295Y008339D01*
X036548Y008193D01*
X036831Y008118D01*
X037123Y008118D01*
X036772Y008133D02*
X018284Y008133D01*
X018678Y008292D02*
X036377Y008292D01*
X036184Y008450D02*
X018871Y008450D01*
X019003Y008609D02*
X036052Y008609D01*
X035961Y008767D02*
X019095Y008767D01*
X019147Y008926D02*
X035908Y008926D01*
X035867Y009084D02*
X019189Y009084D01*
X019189Y009243D02*
X035867Y009243D01*
X035874Y009401D02*
X019182Y009401D01*
X019139Y009560D02*
X035917Y009560D01*
X035978Y009718D02*
X019077Y009718D01*
X018986Y009877D02*
X036070Y009877D01*
X036215Y010035D02*
X018841Y010035D01*
X018625Y010194D02*
X036430Y010194D01*
X037523Y010194D02*
X038859Y010194D01*
X038859Y010035D02*
X037739Y010035D01*
X037883Y009877D02*
X038859Y009877D01*
X038859Y009718D02*
X037975Y009718D01*
X038037Y009560D02*
X038859Y009560D01*
X038859Y009401D02*
X038079Y009401D01*
X038087Y009243D02*
X038859Y009243D01*
X038859Y009084D02*
X038087Y009084D01*
X038045Y008926D02*
X038859Y008926D01*
X038859Y008767D02*
X037993Y008767D01*
X037901Y008609D02*
X038859Y008609D01*
X038859Y008450D02*
X037769Y008450D01*
X037576Y008292D02*
X038859Y008292D01*
X038859Y007816D02*
X016183Y007816D01*
X016218Y007658D02*
X038859Y007658D01*
X038815Y007499D02*
X016313Y007499D01*
X016197Y015583D02*
X021646Y015583D01*
X021544Y015741D02*
X016197Y015741D01*
X016197Y015900D02*
X021478Y015900D01*
X021475Y016058D02*
X016197Y016058D01*
X016197Y016217D02*
X021485Y016217D01*
X021551Y016375D02*
X016197Y016375D01*
X016197Y016534D02*
X021662Y016534D01*
X021870Y016692D02*
X016197Y016692D01*
X026999Y026361D02*
X027121Y026361D01*
X027760Y026202D02*
X028196Y026202D01*
X028056Y026361D02*
X027935Y026361D01*
X027968Y027470D02*
X028033Y027470D01*
X035904Y035712D02*
X019151Y035712D01*
X019113Y035571D02*
X019189Y035853D01*
X019189Y036145D01*
X019113Y036427D01*
X018967Y036681D01*
X018761Y036887D01*
X018507Y037033D01*
X018225Y037109D01*
X017933Y037109D01*
X017651Y037033D01*
X017397Y036887D01*
X017191Y036681D01*
X017045Y036427D01*
X016969Y036145D01*
X016969Y035853D01*
X017045Y035571D01*
X017191Y035318D01*
X017397Y035111D01*
X017651Y034965D01*
X017933Y034889D01*
X018225Y034889D01*
X018507Y034965D01*
X018761Y035111D01*
X018967Y035318D01*
X019113Y035571D01*
X019104Y035554D02*
X035952Y035554D01*
X035942Y035571D02*
X036088Y035318D01*
X036295Y035111D01*
X036548Y034965D01*
X036831Y034889D01*
X037123Y034889D01*
X037405Y034965D01*
X037658Y035111D01*
X037865Y035318D01*
X038011Y035571D01*
X038087Y035853D01*
X038087Y036145D01*
X038011Y036427D01*
X037865Y036681D01*
X037658Y036887D01*
X037405Y037033D01*
X037123Y037109D01*
X036831Y037109D01*
X036548Y037033D01*
X036295Y036887D01*
X036088Y036681D01*
X035942Y036427D01*
X035867Y036145D01*
X035867Y035853D01*
X035942Y035571D01*
X036044Y035395D02*
X019012Y035395D01*
X018886Y035237D02*
X036169Y035237D01*
X036352Y035078D02*
X018704Y035078D01*
X018339Y034920D02*
X036716Y034920D01*
X037237Y034920D02*
X038859Y034920D01*
X038859Y035078D02*
X037602Y035078D01*
X037784Y035237D02*
X038859Y035237D01*
X038859Y035395D02*
X037910Y035395D01*
X038001Y035554D02*
X038859Y035554D01*
X038859Y035712D02*
X038049Y035712D01*
X038087Y035871D02*
X038859Y035871D01*
X038859Y036029D02*
X038087Y036029D01*
X038075Y036188D02*
X038859Y036188D01*
X038859Y036346D02*
X038033Y036346D01*
X037966Y036505D02*
X038859Y036505D01*
X038859Y036663D02*
X037875Y036663D01*
X037724Y036822D02*
X038859Y036822D01*
X038859Y036980D02*
X037497Y036980D01*
X036456Y036980D02*
X018599Y036980D01*
X018826Y036822D02*
X036230Y036822D01*
X036078Y036663D02*
X018977Y036663D01*
X019069Y036505D02*
X035987Y036505D01*
X035921Y036346D02*
X019135Y036346D01*
X019178Y036188D02*
X035878Y036188D01*
X035867Y036029D02*
X019189Y036029D01*
X019189Y035871D02*
X035867Y035871D01*
X038859Y037139D02*
X016197Y037139D01*
X016197Y037297D02*
X038859Y037297D01*
X038859Y037456D02*
X016197Y037456D01*
X016197Y037614D02*
X038856Y037614D01*
X038782Y037773D02*
X016197Y037773D01*
X016197Y036980D02*
X017559Y036980D01*
X017332Y036822D02*
X016197Y036822D01*
X016197Y036663D02*
X017181Y036663D01*
X017089Y036505D02*
X016197Y036505D01*
X016197Y036346D02*
X017023Y036346D01*
X016980Y036188D02*
X016197Y036188D01*
X016197Y036029D02*
X016969Y036029D01*
X016969Y035871D02*
X016197Y035871D01*
X016197Y035712D02*
X017007Y035712D01*
X017054Y035554D02*
X016197Y035554D01*
X016197Y035395D02*
X017146Y035395D01*
X017272Y035237D02*
X016197Y035237D01*
X016197Y035078D02*
X017454Y035078D01*
X017819Y034920D02*
X016197Y034920D01*
X016197Y033493D02*
X038859Y033493D01*
X038859Y033335D02*
X016197Y033335D01*
X016197Y033176D02*
X038859Y033176D01*
X038859Y033018D02*
X016197Y033018D01*
X016197Y031591D02*
X038859Y031591D01*
X038859Y031433D02*
X016197Y031433D01*
X016197Y031274D02*
X038859Y031274D01*
X038859Y031116D02*
X016197Y031116D01*
D24*
X019516Y026846D02*
X020835Y028125D01*
X019516Y026846D02*
X019544Y024641D01*
X019544Y023893D02*
X019544Y022613D01*
D25*
X025498Y016659D01*
X025498Y015184D01*
X033372Y015184D01*
D26*
X027922Y019070D02*
X027528Y018676D01*
X025559Y018676D01*
X023591Y020645D01*
X023591Y023007D01*
X024772Y024188D01*
X027548Y024188D01*
X028335Y023401D01*
X026721Y023401D01*
X025973Y023401D02*
X025973Y022613D01*
X029496Y022613D01*
X029890Y023007D01*
X029890Y028912D01*
X029496Y029306D01*
X029477Y029286D01*
X028709Y029286D01*
X026347Y029286D01*
X026347Y028538D02*
X026528Y028357D01*
X026528Y026944D01*
X028528Y026944D02*
X028528Y028357D01*
X028709Y028538D01*
X025973Y022613D02*
X025973Y021826D01*
X025973Y021452D01*
X025953Y021432D01*
X025953Y020054D01*
X026150Y019857D01*
X027134Y019857D02*
X027134Y021412D01*
X026721Y021826D01*
X028335Y021826D01*
X027922Y019857D02*
X027922Y019070D01*
M02*
