G75*
G70*
%OFA0B0*%
%FSLAX24Y24*%
%IPPOS*%
%LPD*%
%AMOC8*
5,1,8,0,0,1.08239X$1,22.5*
%
%ADD10C,0.0000*%
%ADD11C,0.0787*%
%ADD12C,0.1306*%
%ADD13C,0.0554*%
%ADD14C,0.0520*%
%ADD15R,0.0600X0.0600*%
%ADD16C,0.0600*%
%ADD17R,0.0515X0.0515*%
%ADD18R,0.0591X0.0512*%
%ADD19R,0.0512X0.0591*%
%ADD20C,0.0740*%
%ADD21R,0.1500X0.0760*%
%ADD22R,0.0394X0.0236*%
%ADD23R,0.0236X0.0866*%
%ADD24R,0.0866X0.0236*%
%ADD25R,0.1260X0.1260*%
%ADD26R,0.0394X0.0551*%
%ADD27R,0.2441X0.2126*%
%ADD28R,0.0630X0.0394*%
%ADD29R,0.0551X0.0394*%
%ADD30R,0.1260X0.0709*%
%ADD31C,0.0600*%
%ADD32C,0.0150*%
%ADD33C,0.0360*%
%ADD34C,0.0400*%
D10*
X015719Y008027D02*
X015719Y037948D01*
X015736Y037993D01*
X015757Y038038D01*
X015781Y038080D01*
X015809Y038120D01*
X015839Y038159D01*
X015873Y038194D01*
X015909Y038227D01*
X015947Y038257D01*
X015988Y038284D01*
X016031Y038307D01*
X016075Y038327D01*
X016121Y038344D01*
X016168Y038357D01*
X016216Y038366D01*
X016265Y038371D01*
X016314Y038373D01*
X016363Y038371D01*
X016411Y038365D01*
X016459Y038355D01*
X016506Y038341D01*
X016506Y038342D02*
X038553Y038342D01*
X038553Y038341D02*
X038607Y038339D01*
X038660Y038334D01*
X038713Y038325D01*
X038765Y038312D01*
X038817Y038296D01*
X038867Y038276D01*
X038915Y038253D01*
X038962Y038226D01*
X039007Y038197D01*
X039050Y038164D01*
X039090Y038129D01*
X039128Y038091D01*
X039163Y038051D01*
X039196Y038008D01*
X039225Y037963D01*
X039252Y037916D01*
X039275Y037868D01*
X039295Y037818D01*
X039311Y037766D01*
X039324Y037714D01*
X039333Y037661D01*
X039338Y037608D01*
X039340Y037554D01*
X039341Y037554D02*
X039341Y007633D01*
X039340Y007633D02*
X039338Y007579D01*
X039333Y007526D01*
X039324Y007473D01*
X039311Y007421D01*
X039295Y007369D01*
X039275Y007319D01*
X039252Y007271D01*
X039225Y007224D01*
X039196Y007179D01*
X039163Y007136D01*
X039128Y007096D01*
X039090Y007058D01*
X039050Y007023D01*
X039007Y006990D01*
X038962Y006961D01*
X038915Y006934D01*
X038867Y006911D01*
X038817Y006891D01*
X038765Y006875D01*
X038713Y006862D01*
X038660Y006853D01*
X038607Y006848D01*
X038553Y006846D01*
X016506Y006846D01*
X016506Y006845D02*
X016447Y006859D01*
X016389Y006876D01*
X016332Y006897D01*
X016276Y006921D01*
X016222Y006949D01*
X016170Y006979D01*
X016119Y007013D01*
X016071Y007050D01*
X016025Y007089D01*
X015982Y007132D01*
X015941Y007176D01*
X015903Y007224D01*
X015868Y007273D01*
X015836Y007325D01*
X015807Y007378D01*
X015781Y007433D01*
X015759Y007489D01*
X015740Y007547D01*
X015724Y007606D01*
X015713Y007665D01*
X015704Y007725D01*
X015700Y007786D01*
X015699Y007846D01*
X015702Y007907D01*
X015708Y007967D01*
X015718Y008027D01*
X017451Y009208D02*
X017453Y009258D01*
X017459Y009308D01*
X017469Y009357D01*
X017483Y009405D01*
X017500Y009452D01*
X017521Y009497D01*
X017546Y009541D01*
X017574Y009582D01*
X017606Y009621D01*
X017640Y009658D01*
X017677Y009692D01*
X017717Y009722D01*
X017759Y009749D01*
X017803Y009773D01*
X017849Y009794D01*
X017896Y009810D01*
X017944Y009823D01*
X017994Y009832D01*
X018043Y009837D01*
X018094Y009838D01*
X018144Y009835D01*
X018193Y009828D01*
X018242Y009817D01*
X018290Y009802D01*
X018336Y009784D01*
X018381Y009762D01*
X018424Y009736D01*
X018465Y009707D01*
X018504Y009675D01*
X018540Y009640D01*
X018572Y009602D01*
X018602Y009562D01*
X018629Y009519D01*
X018652Y009475D01*
X018671Y009429D01*
X018687Y009381D01*
X018699Y009332D01*
X018707Y009283D01*
X018711Y009233D01*
X018711Y009183D01*
X018707Y009133D01*
X018699Y009084D01*
X018687Y009035D01*
X018671Y008987D01*
X018652Y008941D01*
X018629Y008897D01*
X018602Y008854D01*
X018572Y008814D01*
X018540Y008776D01*
X018504Y008741D01*
X018465Y008709D01*
X018424Y008680D01*
X018381Y008654D01*
X018336Y008632D01*
X018290Y008614D01*
X018242Y008599D01*
X018193Y008588D01*
X018144Y008581D01*
X018094Y008578D01*
X018043Y008579D01*
X017994Y008584D01*
X017944Y008593D01*
X017896Y008606D01*
X017849Y008622D01*
X017803Y008643D01*
X017759Y008667D01*
X017717Y008694D01*
X017677Y008724D01*
X017640Y008758D01*
X017606Y008795D01*
X017574Y008834D01*
X017546Y008875D01*
X017521Y008919D01*
X017500Y008964D01*
X017483Y009011D01*
X017469Y009059D01*
X017459Y009108D01*
X017453Y009158D01*
X017451Y009208D01*
X021957Y012960D02*
X021959Y012990D01*
X021965Y013020D01*
X021974Y013049D01*
X021987Y013076D01*
X022004Y013101D01*
X022023Y013124D01*
X022046Y013145D01*
X022071Y013162D01*
X022097Y013176D01*
X022126Y013186D01*
X022155Y013193D01*
X022185Y013196D01*
X022216Y013195D01*
X022246Y013190D01*
X022275Y013181D01*
X022302Y013169D01*
X022328Y013154D01*
X022352Y013135D01*
X022373Y013113D01*
X022391Y013089D01*
X022406Y013062D01*
X022417Y013034D01*
X022425Y013005D01*
X022429Y012975D01*
X022429Y012945D01*
X022425Y012915D01*
X022417Y012886D01*
X022406Y012858D01*
X022391Y012831D01*
X022373Y012807D01*
X022352Y012785D01*
X022328Y012766D01*
X022302Y012751D01*
X022275Y012739D01*
X022246Y012730D01*
X022216Y012725D01*
X022185Y012724D01*
X022155Y012727D01*
X022126Y012734D01*
X022097Y012744D01*
X022071Y012758D01*
X022046Y012775D01*
X022023Y012796D01*
X022004Y012819D01*
X021987Y012844D01*
X021974Y012871D01*
X021965Y012900D01*
X021959Y012930D01*
X021957Y012960D01*
X024713Y012960D02*
X024715Y012990D01*
X024721Y013020D01*
X024730Y013049D01*
X024743Y013076D01*
X024760Y013101D01*
X024779Y013124D01*
X024802Y013145D01*
X024827Y013162D01*
X024853Y013176D01*
X024882Y013186D01*
X024911Y013193D01*
X024941Y013196D01*
X024972Y013195D01*
X025002Y013190D01*
X025031Y013181D01*
X025058Y013169D01*
X025084Y013154D01*
X025108Y013135D01*
X025129Y013113D01*
X025147Y013089D01*
X025162Y013062D01*
X025173Y013034D01*
X025181Y013005D01*
X025185Y012975D01*
X025185Y012945D01*
X025181Y012915D01*
X025173Y012886D01*
X025162Y012858D01*
X025147Y012831D01*
X025129Y012807D01*
X025108Y012785D01*
X025084Y012766D01*
X025058Y012751D01*
X025031Y012739D01*
X025002Y012730D01*
X024972Y012725D01*
X024941Y012724D01*
X024911Y012727D01*
X024882Y012734D01*
X024853Y012744D01*
X024827Y012758D01*
X024802Y012775D01*
X024779Y012796D01*
X024760Y012819D01*
X024743Y012844D01*
X024730Y012871D01*
X024721Y012900D01*
X024715Y012930D01*
X024713Y012960D01*
X024713Y016031D02*
X024715Y016061D01*
X024721Y016091D01*
X024730Y016120D01*
X024743Y016147D01*
X024760Y016172D01*
X024779Y016195D01*
X024802Y016216D01*
X024827Y016233D01*
X024853Y016247D01*
X024882Y016257D01*
X024911Y016264D01*
X024941Y016267D01*
X024972Y016266D01*
X025002Y016261D01*
X025031Y016252D01*
X025058Y016240D01*
X025084Y016225D01*
X025108Y016206D01*
X025129Y016184D01*
X025147Y016160D01*
X025162Y016133D01*
X025173Y016105D01*
X025181Y016076D01*
X025185Y016046D01*
X025185Y016016D01*
X025181Y015986D01*
X025173Y015957D01*
X025162Y015929D01*
X025147Y015902D01*
X025129Y015878D01*
X025108Y015856D01*
X025084Y015837D01*
X025058Y015822D01*
X025031Y015810D01*
X025002Y015801D01*
X024972Y015796D01*
X024941Y015795D01*
X024911Y015798D01*
X024882Y015805D01*
X024853Y015815D01*
X024827Y015829D01*
X024802Y015846D01*
X024779Y015867D01*
X024760Y015890D01*
X024743Y015915D01*
X024730Y015942D01*
X024721Y015971D01*
X024715Y016001D01*
X024713Y016031D01*
X021957Y016031D02*
X021959Y016061D01*
X021965Y016091D01*
X021974Y016120D01*
X021987Y016147D01*
X022004Y016172D01*
X022023Y016195D01*
X022046Y016216D01*
X022071Y016233D01*
X022097Y016247D01*
X022126Y016257D01*
X022155Y016264D01*
X022185Y016267D01*
X022216Y016266D01*
X022246Y016261D01*
X022275Y016252D01*
X022302Y016240D01*
X022328Y016225D01*
X022352Y016206D01*
X022373Y016184D01*
X022391Y016160D01*
X022406Y016133D01*
X022417Y016105D01*
X022425Y016076D01*
X022429Y016046D01*
X022429Y016016D01*
X022425Y015986D01*
X022417Y015957D01*
X022406Y015929D01*
X022391Y015902D01*
X022373Y015878D01*
X022352Y015856D01*
X022328Y015837D01*
X022302Y015822D01*
X022275Y015810D01*
X022246Y015801D01*
X022216Y015796D01*
X022185Y015795D01*
X022155Y015798D01*
X022126Y015805D01*
X022097Y015815D01*
X022071Y015829D01*
X022046Y015846D01*
X022023Y015867D01*
X022004Y015890D01*
X021987Y015915D01*
X021974Y015942D01*
X021965Y015971D01*
X021959Y016001D01*
X021957Y016031D01*
X029831Y016031D02*
X029833Y016061D01*
X029839Y016091D01*
X029848Y016120D01*
X029861Y016147D01*
X029878Y016172D01*
X029897Y016195D01*
X029920Y016216D01*
X029945Y016233D01*
X029971Y016247D01*
X030000Y016257D01*
X030029Y016264D01*
X030059Y016267D01*
X030090Y016266D01*
X030120Y016261D01*
X030149Y016252D01*
X030176Y016240D01*
X030202Y016225D01*
X030226Y016206D01*
X030247Y016184D01*
X030265Y016160D01*
X030280Y016133D01*
X030291Y016105D01*
X030299Y016076D01*
X030303Y016046D01*
X030303Y016016D01*
X030299Y015986D01*
X030291Y015957D01*
X030280Y015929D01*
X030265Y015902D01*
X030247Y015878D01*
X030226Y015856D01*
X030202Y015837D01*
X030176Y015822D01*
X030149Y015810D01*
X030120Y015801D01*
X030090Y015796D01*
X030059Y015795D01*
X030029Y015798D01*
X030000Y015805D01*
X029971Y015815D01*
X029945Y015829D01*
X029920Y015846D01*
X029897Y015867D01*
X029878Y015890D01*
X029861Y015915D01*
X029848Y015942D01*
X029839Y015971D01*
X029833Y016001D01*
X029831Y016031D01*
X032587Y016031D02*
X032589Y016061D01*
X032595Y016091D01*
X032604Y016120D01*
X032617Y016147D01*
X032634Y016172D01*
X032653Y016195D01*
X032676Y016216D01*
X032701Y016233D01*
X032727Y016247D01*
X032756Y016257D01*
X032785Y016264D01*
X032815Y016267D01*
X032846Y016266D01*
X032876Y016261D01*
X032905Y016252D01*
X032932Y016240D01*
X032958Y016225D01*
X032982Y016206D01*
X033003Y016184D01*
X033021Y016160D01*
X033036Y016133D01*
X033047Y016105D01*
X033055Y016076D01*
X033059Y016046D01*
X033059Y016016D01*
X033055Y015986D01*
X033047Y015957D01*
X033036Y015929D01*
X033021Y015902D01*
X033003Y015878D01*
X032982Y015856D01*
X032958Y015837D01*
X032932Y015822D01*
X032905Y015810D01*
X032876Y015801D01*
X032846Y015796D01*
X032815Y015795D01*
X032785Y015798D01*
X032756Y015805D01*
X032727Y015815D01*
X032701Y015829D01*
X032676Y015846D01*
X032653Y015867D01*
X032634Y015890D01*
X032617Y015915D01*
X032604Y015942D01*
X032595Y015971D01*
X032589Y016001D01*
X032587Y016031D01*
X032587Y012960D02*
X032589Y012990D01*
X032595Y013020D01*
X032604Y013049D01*
X032617Y013076D01*
X032634Y013101D01*
X032653Y013124D01*
X032676Y013145D01*
X032701Y013162D01*
X032727Y013176D01*
X032756Y013186D01*
X032785Y013193D01*
X032815Y013196D01*
X032846Y013195D01*
X032876Y013190D01*
X032905Y013181D01*
X032932Y013169D01*
X032958Y013154D01*
X032982Y013135D01*
X033003Y013113D01*
X033021Y013089D01*
X033036Y013062D01*
X033047Y013034D01*
X033055Y013005D01*
X033059Y012975D01*
X033059Y012945D01*
X033055Y012915D01*
X033047Y012886D01*
X033036Y012858D01*
X033021Y012831D01*
X033003Y012807D01*
X032982Y012785D01*
X032958Y012766D01*
X032932Y012751D01*
X032905Y012739D01*
X032876Y012730D01*
X032846Y012725D01*
X032815Y012724D01*
X032785Y012727D01*
X032756Y012734D01*
X032727Y012744D01*
X032701Y012758D01*
X032676Y012775D01*
X032653Y012796D01*
X032634Y012819D01*
X032617Y012844D01*
X032604Y012871D01*
X032595Y012900D01*
X032589Y012930D01*
X032587Y012960D01*
X029831Y012960D02*
X029833Y012990D01*
X029839Y013020D01*
X029848Y013049D01*
X029861Y013076D01*
X029878Y013101D01*
X029897Y013124D01*
X029920Y013145D01*
X029945Y013162D01*
X029971Y013176D01*
X030000Y013186D01*
X030029Y013193D01*
X030059Y013196D01*
X030090Y013195D01*
X030120Y013190D01*
X030149Y013181D01*
X030176Y013169D01*
X030202Y013154D01*
X030226Y013135D01*
X030247Y013113D01*
X030265Y013089D01*
X030280Y013062D01*
X030291Y013034D01*
X030299Y013005D01*
X030303Y012975D01*
X030303Y012945D01*
X030299Y012915D01*
X030291Y012886D01*
X030280Y012858D01*
X030265Y012831D01*
X030247Y012807D01*
X030226Y012785D01*
X030202Y012766D01*
X030176Y012751D01*
X030149Y012739D01*
X030120Y012730D01*
X030090Y012725D01*
X030059Y012724D01*
X030029Y012727D01*
X030000Y012734D01*
X029971Y012744D01*
X029945Y012758D01*
X029920Y012775D01*
X029897Y012796D01*
X029878Y012819D01*
X029861Y012844D01*
X029848Y012871D01*
X029839Y012900D01*
X029833Y012930D01*
X029831Y012960D01*
X036349Y009208D02*
X036351Y009258D01*
X036357Y009308D01*
X036367Y009357D01*
X036381Y009405D01*
X036398Y009452D01*
X036419Y009497D01*
X036444Y009541D01*
X036472Y009582D01*
X036504Y009621D01*
X036538Y009658D01*
X036575Y009692D01*
X036615Y009722D01*
X036657Y009749D01*
X036701Y009773D01*
X036747Y009794D01*
X036794Y009810D01*
X036842Y009823D01*
X036892Y009832D01*
X036941Y009837D01*
X036992Y009838D01*
X037042Y009835D01*
X037091Y009828D01*
X037140Y009817D01*
X037188Y009802D01*
X037234Y009784D01*
X037279Y009762D01*
X037322Y009736D01*
X037363Y009707D01*
X037402Y009675D01*
X037438Y009640D01*
X037470Y009602D01*
X037500Y009562D01*
X037527Y009519D01*
X037550Y009475D01*
X037569Y009429D01*
X037585Y009381D01*
X037597Y009332D01*
X037605Y009283D01*
X037609Y009233D01*
X037609Y009183D01*
X037605Y009133D01*
X037597Y009084D01*
X037585Y009035D01*
X037569Y008987D01*
X037550Y008941D01*
X037527Y008897D01*
X037500Y008854D01*
X037470Y008814D01*
X037438Y008776D01*
X037402Y008741D01*
X037363Y008709D01*
X037322Y008680D01*
X037279Y008654D01*
X037234Y008632D01*
X037188Y008614D01*
X037140Y008599D01*
X037091Y008588D01*
X037042Y008581D01*
X036992Y008578D01*
X036941Y008579D01*
X036892Y008584D01*
X036842Y008593D01*
X036794Y008606D01*
X036747Y008622D01*
X036701Y008643D01*
X036657Y008667D01*
X036615Y008694D01*
X036575Y008724D01*
X036538Y008758D01*
X036504Y008795D01*
X036472Y008834D01*
X036444Y008875D01*
X036419Y008919D01*
X036398Y008964D01*
X036381Y009011D01*
X036367Y009059D01*
X036357Y009108D01*
X036351Y009158D01*
X036349Y009208D01*
X021979Y029759D02*
X021981Y029809D01*
X021987Y029859D01*
X021997Y029908D01*
X022011Y029956D01*
X022028Y030003D01*
X022049Y030048D01*
X022074Y030092D01*
X022102Y030133D01*
X022134Y030172D01*
X022168Y030209D01*
X022205Y030243D01*
X022245Y030273D01*
X022287Y030300D01*
X022331Y030324D01*
X022377Y030345D01*
X022424Y030361D01*
X022472Y030374D01*
X022522Y030383D01*
X022571Y030388D01*
X022622Y030389D01*
X022672Y030386D01*
X022721Y030379D01*
X022770Y030368D01*
X022818Y030353D01*
X022864Y030335D01*
X022909Y030313D01*
X022952Y030287D01*
X022993Y030258D01*
X023032Y030226D01*
X023068Y030191D01*
X023100Y030153D01*
X023130Y030113D01*
X023157Y030070D01*
X023180Y030026D01*
X023199Y029980D01*
X023215Y029932D01*
X023227Y029883D01*
X023235Y029834D01*
X023239Y029784D01*
X023239Y029734D01*
X023235Y029684D01*
X023227Y029635D01*
X023215Y029586D01*
X023199Y029538D01*
X023180Y029492D01*
X023157Y029448D01*
X023130Y029405D01*
X023100Y029365D01*
X023068Y029327D01*
X023032Y029292D01*
X022993Y029260D01*
X022952Y029231D01*
X022909Y029205D01*
X022864Y029183D01*
X022818Y029165D01*
X022770Y029150D01*
X022721Y029139D01*
X022672Y029132D01*
X022622Y029129D01*
X022571Y029130D01*
X022522Y029135D01*
X022472Y029144D01*
X022424Y029157D01*
X022377Y029173D01*
X022331Y029194D01*
X022287Y029218D01*
X022245Y029245D01*
X022205Y029275D01*
X022168Y029309D01*
X022134Y029346D01*
X022102Y029385D01*
X022074Y029426D01*
X022049Y029470D01*
X022028Y029515D01*
X022011Y029562D01*
X021997Y029610D01*
X021987Y029659D01*
X021981Y029709D01*
X021979Y029759D01*
X018435Y029759D02*
X018437Y029809D01*
X018443Y029859D01*
X018453Y029908D01*
X018467Y029956D01*
X018484Y030003D01*
X018505Y030048D01*
X018530Y030092D01*
X018558Y030133D01*
X018590Y030172D01*
X018624Y030209D01*
X018661Y030243D01*
X018701Y030273D01*
X018743Y030300D01*
X018787Y030324D01*
X018833Y030345D01*
X018880Y030361D01*
X018928Y030374D01*
X018978Y030383D01*
X019027Y030388D01*
X019078Y030389D01*
X019128Y030386D01*
X019177Y030379D01*
X019226Y030368D01*
X019274Y030353D01*
X019320Y030335D01*
X019365Y030313D01*
X019408Y030287D01*
X019449Y030258D01*
X019488Y030226D01*
X019524Y030191D01*
X019556Y030153D01*
X019586Y030113D01*
X019613Y030070D01*
X019636Y030026D01*
X019655Y029980D01*
X019671Y029932D01*
X019683Y029883D01*
X019691Y029834D01*
X019695Y029784D01*
X019695Y029734D01*
X019691Y029684D01*
X019683Y029635D01*
X019671Y029586D01*
X019655Y029538D01*
X019636Y029492D01*
X019613Y029448D01*
X019586Y029405D01*
X019556Y029365D01*
X019524Y029327D01*
X019488Y029292D01*
X019449Y029260D01*
X019408Y029231D01*
X019365Y029205D01*
X019320Y029183D01*
X019274Y029165D01*
X019226Y029150D01*
X019177Y029139D01*
X019128Y029132D01*
X019078Y029129D01*
X019027Y029130D01*
X018978Y029135D01*
X018928Y029144D01*
X018880Y029157D01*
X018833Y029173D01*
X018787Y029194D01*
X018743Y029218D01*
X018701Y029245D01*
X018661Y029275D01*
X018624Y029309D01*
X018590Y029346D01*
X018558Y029385D01*
X018530Y029426D01*
X018505Y029470D01*
X018484Y029515D01*
X018467Y029562D01*
X018453Y029610D01*
X018443Y029659D01*
X018437Y029709D01*
X018435Y029759D01*
X017451Y035979D02*
X017453Y036029D01*
X017459Y036079D01*
X017469Y036128D01*
X017483Y036176D01*
X017500Y036223D01*
X017521Y036268D01*
X017546Y036312D01*
X017574Y036353D01*
X017606Y036392D01*
X017640Y036429D01*
X017677Y036463D01*
X017717Y036493D01*
X017759Y036520D01*
X017803Y036544D01*
X017849Y036565D01*
X017896Y036581D01*
X017944Y036594D01*
X017994Y036603D01*
X018043Y036608D01*
X018094Y036609D01*
X018144Y036606D01*
X018193Y036599D01*
X018242Y036588D01*
X018290Y036573D01*
X018336Y036555D01*
X018381Y036533D01*
X018424Y036507D01*
X018465Y036478D01*
X018504Y036446D01*
X018540Y036411D01*
X018572Y036373D01*
X018602Y036333D01*
X018629Y036290D01*
X018652Y036246D01*
X018671Y036200D01*
X018687Y036152D01*
X018699Y036103D01*
X018707Y036054D01*
X018711Y036004D01*
X018711Y035954D01*
X018707Y035904D01*
X018699Y035855D01*
X018687Y035806D01*
X018671Y035758D01*
X018652Y035712D01*
X018629Y035668D01*
X018602Y035625D01*
X018572Y035585D01*
X018540Y035547D01*
X018504Y035512D01*
X018465Y035480D01*
X018424Y035451D01*
X018381Y035425D01*
X018336Y035403D01*
X018290Y035385D01*
X018242Y035370D01*
X018193Y035359D01*
X018144Y035352D01*
X018094Y035349D01*
X018043Y035350D01*
X017994Y035355D01*
X017944Y035364D01*
X017896Y035377D01*
X017849Y035393D01*
X017803Y035414D01*
X017759Y035438D01*
X017717Y035465D01*
X017677Y035495D01*
X017640Y035529D01*
X017606Y035566D01*
X017574Y035605D01*
X017546Y035646D01*
X017521Y035690D01*
X017500Y035735D01*
X017483Y035782D01*
X017469Y035830D01*
X017459Y035879D01*
X017453Y035929D01*
X017451Y035979D01*
X036349Y035979D02*
X036351Y036029D01*
X036357Y036079D01*
X036367Y036128D01*
X036381Y036176D01*
X036398Y036223D01*
X036419Y036268D01*
X036444Y036312D01*
X036472Y036353D01*
X036504Y036392D01*
X036538Y036429D01*
X036575Y036463D01*
X036615Y036493D01*
X036657Y036520D01*
X036701Y036544D01*
X036747Y036565D01*
X036794Y036581D01*
X036842Y036594D01*
X036892Y036603D01*
X036941Y036608D01*
X036992Y036609D01*
X037042Y036606D01*
X037091Y036599D01*
X037140Y036588D01*
X037188Y036573D01*
X037234Y036555D01*
X037279Y036533D01*
X037322Y036507D01*
X037363Y036478D01*
X037402Y036446D01*
X037438Y036411D01*
X037470Y036373D01*
X037500Y036333D01*
X037527Y036290D01*
X037550Y036246D01*
X037569Y036200D01*
X037585Y036152D01*
X037597Y036103D01*
X037605Y036054D01*
X037609Y036004D01*
X037609Y035954D01*
X037605Y035904D01*
X037597Y035855D01*
X037585Y035806D01*
X037569Y035758D01*
X037550Y035712D01*
X037527Y035668D01*
X037500Y035625D01*
X037470Y035585D01*
X037438Y035547D01*
X037402Y035512D01*
X037363Y035480D01*
X037322Y035451D01*
X037279Y035425D01*
X037234Y035403D01*
X037188Y035385D01*
X037140Y035370D01*
X037091Y035359D01*
X037042Y035352D01*
X036992Y035349D01*
X036941Y035350D01*
X036892Y035355D01*
X036842Y035364D01*
X036794Y035377D01*
X036747Y035393D01*
X036701Y035414D01*
X036657Y035438D01*
X036615Y035465D01*
X036575Y035495D01*
X036538Y035529D01*
X036504Y035566D01*
X036472Y035605D01*
X036444Y035646D01*
X036419Y035690D01*
X036398Y035735D01*
X036381Y035782D01*
X036367Y035830D01*
X036357Y035879D01*
X036351Y035929D01*
X036349Y035979D01*
D11*
X033374Y015558D02*
X033374Y014771D01*
X032390Y012960D02*
X031603Y012960D01*
X031288Y014062D02*
X030500Y014062D01*
X025500Y014771D02*
X025500Y015558D01*
X023414Y014062D02*
X022626Y014062D01*
X023729Y012960D02*
X024516Y012960D01*
D12*
X024904Y019834D03*
X030077Y019834D03*
D13*
X028868Y020901D03*
X027884Y020901D03*
X027097Y020901D03*
X026112Y020901D03*
D14*
X026530Y026664D02*
X026530Y027184D01*
X027530Y027184D02*
X027530Y026664D01*
X028530Y026664D02*
X028530Y027184D01*
D15*
X037715Y025641D03*
X037715Y021641D03*
D16*
X037715Y022641D03*
X037715Y023641D03*
X037715Y024641D03*
D17*
X020837Y025940D03*
X020837Y028105D03*
D18*
X023199Y027692D03*
X023199Y026944D03*
X024774Y026944D03*
X024774Y027692D03*
X025168Y025330D03*
X025168Y024582D03*
X027136Y024582D03*
X027136Y025330D03*
X029105Y024149D03*
X029105Y023401D03*
X030679Y023401D03*
X030679Y024149D03*
X032648Y028519D03*
X032648Y029267D03*
X031073Y034818D03*
X031073Y035566D03*
X038160Y019424D03*
X038160Y018676D03*
X033829Y019031D03*
X033829Y018283D03*
X032254Y018283D03*
X032254Y019031D03*
X028711Y015881D03*
X028711Y015133D03*
X027136Y015487D03*
X027136Y014739D03*
X025168Y009975D03*
X025168Y009227D03*
X020837Y014739D03*
X020837Y015487D03*
D19*
X026368Y013145D03*
X027116Y013145D03*
X035423Y018263D03*
X036172Y018263D03*
X036172Y021412D03*
X035423Y021412D03*
X034990Y023775D03*
X034242Y023775D03*
X034242Y025743D03*
X034990Y025743D03*
X033022Y032436D03*
X032274Y032436D03*
X023967Y032830D03*
X023219Y032830D03*
D20*
X026250Y032333D03*
X026250Y034113D03*
X028810Y034113D03*
X028810Y032333D03*
D21*
X022805Y025625D03*
X022805Y024286D03*
D22*
X024341Y034405D03*
X025207Y034405D03*
D23*
X026030Y031098D03*
X026530Y031098D03*
X027030Y031098D03*
X027530Y031098D03*
X028030Y031098D03*
X028530Y031098D03*
X029030Y031098D03*
X029030Y029050D03*
X028530Y029050D03*
X028030Y029050D03*
X027530Y029050D03*
X027030Y029050D03*
X026530Y029050D03*
X026030Y029050D03*
D24*
X035561Y016651D03*
X035561Y016151D03*
X035561Y015651D03*
X035561Y015151D03*
X037609Y015151D03*
X037609Y015651D03*
X037609Y016151D03*
X037609Y016651D03*
X030916Y011495D03*
X030916Y010995D03*
X030916Y010495D03*
X030916Y009995D03*
X030916Y009495D03*
X030916Y008995D03*
X030916Y008495D03*
X027294Y008495D03*
X027294Y008995D03*
X027294Y009495D03*
X027294Y009995D03*
X027294Y010495D03*
X027294Y010995D03*
X027294Y011495D03*
D25*
X019459Y017121D03*
X019459Y023342D03*
D26*
X021250Y011609D03*
X021998Y011609D03*
X021624Y010743D03*
D27*
X036782Y030074D03*
D28*
X033908Y030972D03*
X033908Y029176D03*
D29*
X032294Y030468D03*
X031427Y030842D03*
X031427Y030094D03*
D30*
X032648Y024877D03*
X032648Y022672D03*
D31*
X029030Y036860D02*
X029030Y037460D01*
X028030Y037460D02*
X028030Y036860D01*
X027030Y036860D02*
X027030Y037460D01*
X026030Y037460D02*
X026030Y036860D01*
D32*
X026969Y037096D02*
X027030Y037160D01*
X026969Y037096D02*
X026969Y032096D01*
X026469Y031596D01*
X026469Y031346D01*
X026530Y031098D01*
X027030Y031098D02*
X026969Y031346D01*
X026969Y031596D01*
X027469Y032096D01*
X027469Y036346D01*
X027969Y036846D01*
X027969Y037096D01*
X028030Y037160D01*
X029030Y037160D02*
X029219Y037096D01*
X030969Y037096D01*
X032219Y035846D01*
X032219Y034096D01*
X035469Y034096D01*
X038469Y031096D01*
X038469Y029096D01*
X036969Y027596D01*
X036969Y023346D01*
X037469Y022846D01*
X037715Y022641D01*
X038469Y022346D02*
X037719Y021596D01*
X037715Y021641D01*
X038469Y022346D02*
X038469Y025846D01*
X037719Y026596D01*
X035719Y025096D02*
X035719Y023096D01*
X034219Y021596D01*
X034219Y020096D01*
X034469Y019846D01*
X034469Y015596D01*
X035469Y015596D01*
X035561Y015651D01*
X035719Y016096D02*
X035561Y016151D01*
X035719Y016096D02*
X036469Y016096D01*
X036469Y017846D01*
X036219Y018096D01*
X036172Y018263D01*
X035969Y018346D01*
X035969Y018846D01*
X035719Y019096D01*
X035219Y019596D02*
X035219Y018346D01*
X035423Y018263D01*
X035469Y018096D01*
X035469Y016596D01*
X035561Y016651D01*
X036719Y015346D02*
X037219Y015846D01*
X037469Y015596D01*
X037609Y015651D01*
X037219Y015846D02*
X037469Y016096D01*
X037609Y016151D01*
X037719Y016596D02*
X037609Y016651D01*
X037719Y016596D02*
X037719Y018346D01*
X036719Y018346D01*
X036719Y018846D01*
X035219Y020346D01*
X035219Y020596D01*
X034719Y020096D02*
X035219Y019596D01*
X034719Y020096D02*
X034719Y021346D01*
X035423Y021412D02*
X035469Y021596D01*
X035719Y021846D01*
X035719Y023096D01*
X034990Y023775D02*
X034969Y023846D01*
X034969Y024596D01*
X035719Y025096D02*
X035219Y025596D01*
X034990Y025743D01*
X032648Y029267D02*
X032469Y029346D01*
X032469Y030346D01*
X032294Y030468D01*
X032469Y030596D01*
X032469Y030846D01*
X033719Y030846D01*
X033908Y030972D01*
X032969Y031846D02*
X032969Y032346D01*
X033022Y032436D01*
X032969Y031846D02*
X032469Y031846D01*
X031469Y030846D01*
X031427Y030842D01*
X030719Y031596D02*
X030719Y034096D01*
X032219Y034096D01*
X031719Y034846D02*
X031719Y035846D01*
X031469Y036096D01*
X028969Y036096D01*
X028969Y034346D01*
X028810Y034113D01*
X028719Y034096D01*
X027969Y033346D01*
X027969Y032096D01*
X028469Y031596D01*
X028469Y031346D01*
X028530Y031098D01*
X028969Y031096D02*
X029030Y031098D01*
X028969Y031096D02*
X029469Y030596D01*
X029469Y030346D01*
X028530Y029050D02*
X028469Y028846D01*
X028469Y028596D01*
X030719Y026346D01*
X029469Y026846D02*
X029469Y027096D01*
X027969Y028596D01*
X027969Y028846D01*
X028030Y029050D01*
X027530Y029050D02*
X027469Y028846D01*
X027469Y028346D01*
X026969Y027846D01*
X026969Y028596D02*
X025969Y027596D01*
X025969Y025346D01*
X025168Y025330D02*
X024969Y025346D01*
X024719Y025596D01*
X024719Y026096D01*
X024219Y026596D01*
X024219Y033346D01*
X025219Y034346D01*
X025207Y034405D01*
X025219Y034346D02*
X026469Y035596D01*
X024219Y033346D02*
X023969Y033096D01*
X023969Y032846D01*
X023967Y032830D01*
X025469Y031846D02*
X025969Y031346D01*
X026030Y031098D01*
X026969Y030096D02*
X027469Y030596D01*
X027469Y031096D01*
X027530Y031098D01*
X027030Y029050D02*
X026969Y028846D01*
X026969Y028596D01*
X026469Y028596D02*
X026469Y028846D01*
X026530Y029050D01*
X026469Y028596D02*
X025719Y027846D01*
X024969Y027846D01*
X024774Y027692D01*
X024774Y026944D02*
X024969Y026846D01*
X025469Y026346D01*
X024219Y025846D02*
X023219Y026846D01*
X023199Y026944D01*
X023199Y027692D02*
X023219Y027846D01*
X023719Y028346D01*
X025469Y028346D02*
X025969Y028846D01*
X026030Y029050D01*
X027136Y025330D02*
X027219Y025346D01*
X028469Y025346D01*
X028469Y023846D01*
X025469Y023846D01*
X024969Y021596D02*
X022969Y019596D01*
X019469Y023096D01*
X019459Y023342D01*
X022805Y025625D02*
X022719Y025846D01*
X022719Y026346D01*
X020969Y028096D01*
X020837Y028105D01*
X027219Y021096D02*
X027097Y020901D01*
X027219Y020846D01*
X027219Y016596D01*
X027719Y016096D02*
X027719Y020846D01*
X027884Y020901D01*
X027219Y021096D02*
X028719Y022596D01*
X029219Y024096D02*
X029105Y024149D01*
X028969Y024346D01*
X028969Y025346D01*
X028469Y025346D01*
X029219Y024096D02*
X030469Y024096D01*
X030679Y024149D01*
X033219Y019596D02*
X033219Y018346D01*
X033719Y018346D01*
X033829Y018283D01*
X032254Y018283D02*
X032219Y018096D01*
X031969Y017846D01*
X031969Y014096D01*
X032219Y013846D01*
X034219Y011596D02*
X036719Y014096D01*
X036719Y015346D01*
X037469Y015096D02*
X037609Y015151D01*
X037469Y015096D02*
X037469Y014096D01*
X035469Y012096D01*
X030916Y010495D02*
X030719Y010596D01*
X027969Y010596D01*
X027969Y008096D01*
X021719Y008096D01*
X021719Y010596D01*
X021624Y010743D01*
X021469Y010846D01*
X019469Y010846D01*
X019469Y017096D01*
X019459Y017121D01*
X022969Y019596D02*
X026469Y016096D01*
X026469Y014096D01*
X026469Y013346D01*
X026368Y013145D01*
X026219Y013096D01*
X026219Y011096D01*
X025719Y010596D01*
X027219Y010596D01*
X027294Y010495D01*
X025719Y010596D02*
X025219Y010096D01*
X025168Y009975D01*
X027116Y013145D02*
X027219Y013096D01*
X029219Y013096D01*
X029219Y012346D01*
X027136Y014739D02*
X026969Y014596D01*
X026469Y014096D01*
X027219Y015346D02*
X027136Y015487D01*
X027219Y015596D01*
X027719Y016096D01*
X027219Y015346D02*
X028469Y015346D01*
X028711Y015133D01*
X035969Y020596D02*
X035969Y021346D01*
X036172Y021412D01*
X037719Y020096D02*
X037719Y019846D01*
X037969Y019596D01*
X038160Y019424D01*
X038160Y018676D02*
X037969Y018596D01*
X037719Y018346D01*
X032274Y032436D02*
X032219Y032596D01*
X031219Y033596D01*
X030719Y034096D02*
X030469Y034346D01*
X030469Y035346D01*
X030969Y035346D01*
X031073Y035566D01*
X031219Y034846D02*
X031073Y034818D01*
X031219Y034846D02*
X031719Y034846D01*
D33*
X031219Y033596D03*
X030719Y031596D03*
X029469Y030346D03*
X028711Y030074D03*
X026969Y030096D03*
X025469Y031846D03*
X025469Y028346D03*
X026969Y027846D03*
X025469Y026346D03*
X025969Y025346D03*
X025469Y023846D03*
X024969Y021596D03*
X027969Y024846D03*
X029469Y026846D03*
X030719Y026346D03*
X031469Y025846D03*
X028719Y022596D03*
X033219Y019596D03*
X034719Y021346D03*
X035219Y020596D03*
X035969Y020596D03*
X036969Y019346D03*
X037719Y020096D03*
X035719Y019096D03*
X033719Y017346D03*
X035798Y013932D03*
X035469Y012096D03*
X034219Y011596D03*
X032219Y013846D03*
X029219Y012346D03*
X027219Y016596D03*
X034223Y022594D03*
X034969Y024596D03*
X037719Y026596D03*
X026469Y035596D03*
X023719Y028346D03*
X024219Y025846D03*
D34*
X025168Y024582D02*
X024969Y024346D01*
X022969Y024346D01*
X022805Y024286D01*
X021986Y023556D02*
X023625Y023556D01*
X023754Y023610D01*
X023852Y023708D01*
X023888Y023796D01*
X024884Y023796D01*
X024907Y023788D01*
X024939Y023791D01*
X024939Y023740D01*
X025019Y023545D01*
X025169Y023396D01*
X025363Y023316D01*
X025574Y023316D01*
X025769Y023396D01*
X025793Y023421D01*
X028509Y023421D01*
X028509Y023401D01*
X029105Y023401D01*
X029700Y023401D01*
X029700Y023671D01*
X030084Y023671D01*
X030084Y023401D01*
X030679Y023401D01*
X030679Y023401D01*
X030084Y023401D01*
X030084Y023115D01*
X030096Y023057D01*
X030118Y023003D01*
X030151Y022954D01*
X030193Y022912D01*
X030242Y022879D01*
X030297Y022856D01*
X030355Y022845D01*
X030679Y022845D01*
X030679Y023401D01*
X030679Y023401D01*
X030679Y022845D01*
X030919Y022845D01*
X030919Y021323D01*
X030532Y020937D01*
X030386Y020791D01*
X030276Y020836D01*
X029878Y020836D01*
X029509Y020684D01*
X029421Y020596D01*
X029496Y020776D01*
X029496Y021025D01*
X029400Y021256D01*
X029224Y021432D01*
X028993Y021528D01*
X028744Y021528D01*
X028513Y021432D01*
X028376Y021295D01*
X028239Y021432D01*
X028181Y021457D01*
X028790Y022066D01*
X028824Y022066D01*
X029019Y022146D01*
X029168Y022295D01*
X029249Y022490D01*
X029249Y022701D01*
X029189Y022845D01*
X029429Y022845D01*
X029487Y022856D01*
X029542Y022879D01*
X029591Y022912D01*
X029633Y022954D01*
X029666Y023003D01*
X029688Y023057D01*
X029700Y023115D01*
X029700Y023401D01*
X029105Y023401D01*
X029105Y023401D01*
X029105Y023401D01*
X028509Y023401D01*
X028509Y023115D01*
X028515Y023085D01*
X028419Y023045D01*
X028269Y022896D01*
X028189Y022701D01*
X028189Y022667D01*
X027050Y021528D01*
X026972Y021528D01*
X026741Y021432D01*
X026605Y021295D01*
X026468Y021432D01*
X026237Y021528D01*
X025988Y021528D01*
X025757Y021432D01*
X025581Y021256D01*
X025567Y021222D01*
X025511Y021169D01*
X025508Y021162D01*
X025159Y020813D01*
X025103Y020836D01*
X024811Y020836D01*
X025040Y021066D01*
X025074Y021066D01*
X025269Y021146D01*
X025418Y021295D01*
X025499Y021490D01*
X025499Y021701D01*
X025418Y021896D01*
X025269Y022045D01*
X025074Y022126D01*
X024863Y022126D01*
X024669Y022045D01*
X024519Y021896D01*
X024439Y021701D01*
X024439Y021667D01*
X022969Y020197D01*
X020439Y022726D01*
X020439Y024041D01*
X020386Y024170D01*
X020287Y024268D01*
X020158Y024322D01*
X018759Y024322D01*
X018631Y024268D01*
X018532Y024170D01*
X018479Y024041D01*
X018479Y022642D01*
X018532Y022513D01*
X018631Y022415D01*
X018759Y022362D01*
X019602Y022362D01*
X022608Y019355D01*
X022728Y019235D01*
X025671Y016292D01*
X025648Y016302D01*
X025417Y016302D01*
X025404Y016334D01*
X025253Y016485D01*
X025056Y016567D01*
X024842Y016567D01*
X024645Y016485D01*
X024519Y016359D01*
X024519Y017205D01*
X024435Y017407D01*
X024280Y017562D01*
X024078Y017646D01*
X021859Y017646D01*
X021657Y017562D01*
X021502Y017407D01*
X020752Y016657D01*
X020669Y016455D01*
X020669Y016093D01*
X020472Y016093D01*
X020343Y016040D01*
X020245Y015941D01*
X020192Y015813D01*
X020192Y015162D01*
X020212Y015113D01*
X020192Y015065D01*
X020192Y014414D01*
X020245Y014285D01*
X020343Y014187D01*
X020472Y014133D01*
X020653Y014133D01*
X020657Y014129D01*
X020747Y014092D01*
X020836Y014051D01*
X020848Y014050D01*
X020859Y014046D01*
X020957Y014046D01*
X021055Y014041D01*
X021066Y014046D01*
X021883Y014046D01*
X021883Y013914D01*
X021996Y013641D01*
X022141Y013496D01*
X022087Y013496D01*
X021889Y013414D01*
X021739Y013263D01*
X021657Y013066D01*
X021657Y012853D01*
X021739Y012656D01*
X021889Y012505D01*
X022087Y012423D01*
X022300Y012423D01*
X022497Y012505D01*
X022648Y012656D01*
X022729Y012853D01*
X022729Y013066D01*
X022648Y013263D01*
X022593Y013318D01*
X022968Y013318D01*
X023042Y013245D01*
X022985Y013108D01*
X022985Y012812D01*
X023098Y012538D01*
X023241Y012396D01*
X022043Y012396D01*
X022009Y012405D01*
X021935Y012396D01*
X021859Y012396D01*
X021827Y012382D01*
X021792Y012378D01*
X021727Y012341D01*
X021657Y012312D01*
X021632Y012287D01*
X021602Y012270D01*
X021561Y012217D01*
X021517Y012235D01*
X020984Y012235D01*
X020855Y012182D01*
X020757Y012083D01*
X020703Y011955D01*
X020703Y011271D01*
X019894Y011271D01*
X019894Y016141D01*
X020158Y016141D01*
X020287Y016194D01*
X020386Y016293D01*
X020439Y016422D01*
X020439Y017821D01*
X020386Y017949D01*
X020287Y018048D01*
X020158Y018101D01*
X018759Y018101D01*
X018631Y018048D01*
X018532Y017949D01*
X018479Y017821D01*
X018479Y016422D01*
X018532Y016293D01*
X018631Y016194D01*
X018759Y016141D01*
X019044Y016141D01*
X019044Y010761D01*
X019108Y010605D01*
X019228Y010485D01*
X019384Y010421D01*
X021077Y010421D01*
X021077Y010398D01*
X021131Y010269D01*
X021229Y010171D01*
X021294Y010144D01*
X021294Y008011D01*
X021358Y007855D01*
X021478Y007735D01*
X021634Y007671D01*
X028053Y007671D01*
X028210Y007735D01*
X028329Y007855D01*
X028394Y008011D01*
X028394Y010171D01*
X030133Y010171D01*
X030133Y009807D01*
X030158Y009745D01*
X030133Y009683D01*
X030133Y009307D01*
X030158Y009245D01*
X030133Y009183D01*
X030133Y008807D01*
X030158Y008745D01*
X030133Y008683D01*
X030133Y008307D01*
X030186Y008179D01*
X030284Y008080D01*
X030413Y008027D01*
X031418Y008027D01*
X031547Y008080D01*
X031645Y008179D01*
X031699Y008307D01*
X031699Y008683D01*
X031673Y008745D01*
X031699Y008807D01*
X031699Y008945D01*
X031864Y008945D01*
X032066Y009029D01*
X032088Y009051D01*
X032132Y009051D01*
X032657Y009192D01*
X033128Y009464D01*
X033512Y009848D01*
X033784Y010319D01*
X033924Y010844D01*
X033924Y011144D01*
X034113Y011066D01*
X034324Y011066D01*
X034519Y011146D01*
X034668Y011295D01*
X034749Y011490D01*
X034749Y011524D01*
X035020Y011795D01*
X035169Y011646D01*
X035363Y011566D01*
X035574Y011566D01*
X035769Y011646D01*
X035918Y011795D01*
X035999Y011990D01*
X035999Y012024D01*
X037710Y013735D01*
X037829Y013855D01*
X037894Y014011D01*
X037894Y014683D01*
X038111Y014683D01*
X038240Y014736D01*
X038338Y014834D01*
X038392Y014963D01*
X038392Y015338D01*
X038366Y015401D01*
X038392Y015463D01*
X038392Y015838D01*
X038366Y015901D01*
X038392Y015963D01*
X038392Y016338D01*
X038366Y016401D01*
X038392Y016463D01*
X038392Y016838D01*
X038338Y016967D01*
X038240Y017065D01*
X038144Y017105D01*
X038144Y018070D01*
X038525Y018070D01*
X038653Y018124D01*
X038752Y018222D01*
X038805Y018351D01*
X038805Y019002D01*
X038785Y019050D01*
X038805Y019099D01*
X038805Y019750D01*
X038752Y019878D01*
X038653Y019977D01*
X038525Y020030D01*
X038249Y020030D01*
X038249Y020201D01*
X038168Y020396D01*
X038019Y020545D01*
X037824Y020626D01*
X037613Y020626D01*
X037519Y020586D01*
X037519Y020991D01*
X038084Y020991D01*
X038213Y021044D01*
X038312Y021143D01*
X038365Y021271D01*
X038365Y021641D01*
X038829Y022105D01*
X038894Y022261D01*
X038894Y025930D01*
X038829Y026086D01*
X038710Y026206D01*
X038249Y026667D01*
X038249Y026701D01*
X038168Y026896D01*
X038019Y027045D01*
X037824Y027126D01*
X037613Y027126D01*
X037419Y027045D01*
X037394Y027020D01*
X037394Y027419D01*
X038710Y028735D01*
X038829Y028855D01*
X038894Y029011D01*
X038894Y031180D01*
X038829Y031336D01*
X035829Y034336D01*
X035710Y034456D01*
X035553Y034521D01*
X032644Y034521D01*
X032644Y035930D01*
X032579Y036086D01*
X031329Y037336D01*
X031329Y037336D01*
X031210Y037456D01*
X031053Y037521D01*
X029680Y037521D01*
X029680Y037590D01*
X029581Y037829D01*
X029398Y038012D01*
X029325Y038042D01*
X038553Y038042D01*
X038630Y038036D01*
X038775Y037988D01*
X038898Y037899D01*
X038988Y037775D01*
X039035Y037630D01*
X039041Y037554D01*
X039041Y007633D01*
X039035Y007557D01*
X038988Y007412D01*
X038898Y007288D01*
X038775Y007199D01*
X038630Y007152D01*
X038553Y007146D01*
X016544Y007146D01*
X016459Y007170D01*
X016267Y007278D01*
X016117Y007439D01*
X016025Y007639D01*
X016000Y007858D01*
X016010Y007947D01*
X016019Y007967D01*
X016019Y007997D01*
X016025Y008026D01*
X016019Y008056D01*
X016019Y037889D01*
X016023Y037900D01*
X016083Y037981D01*
X016165Y038039D01*
X016261Y038070D01*
X016362Y038069D01*
X016406Y038058D01*
X016446Y038042D01*
X016457Y038042D01*
X016468Y038038D01*
X016517Y038042D01*
X025877Y038042D01*
X025799Y038017D01*
X025715Y037974D01*
X025639Y037918D01*
X025572Y037851D01*
X025517Y037775D01*
X025474Y037691D01*
X025445Y037601D01*
X025430Y037508D01*
X025430Y037161D01*
X026030Y037161D01*
X026030Y037160D01*
X026030Y036260D01*
X026077Y036260D01*
X026170Y036275D01*
X026260Y036304D01*
X026344Y036347D01*
X026421Y036403D01*
X026487Y036470D01*
X026493Y036478D01*
X026544Y036427D01*
X026544Y036126D01*
X026363Y036126D01*
X026169Y036045D01*
X026019Y035896D01*
X025939Y035701D01*
X025939Y035667D01*
X025145Y034873D01*
X024940Y034873D01*
X024812Y034819D01*
X024739Y034746D01*
X024729Y034756D01*
X024680Y034789D01*
X024625Y034811D01*
X024567Y034823D01*
X024341Y034823D01*
X024341Y034405D01*
X024341Y034405D01*
X024341Y034823D01*
X024114Y034823D01*
X024056Y034811D01*
X024002Y034789D01*
X023953Y034756D01*
X023911Y034714D01*
X023878Y034665D01*
X023855Y034610D01*
X023844Y034552D01*
X023844Y034405D01*
X024341Y034405D01*
X024341Y034405D01*
X023844Y034405D01*
X023844Y034257D01*
X023855Y034199D01*
X023878Y034144D01*
X023911Y034095D01*
X023953Y034053D01*
X024002Y034021D01*
X024056Y033998D01*
X024114Y033986D01*
X024259Y033986D01*
X023978Y033706D01*
X023858Y033586D01*
X023747Y033475D01*
X023641Y033475D01*
X023515Y033423D01*
X023504Y033425D01*
X023219Y033425D01*
X023219Y032830D01*
X023219Y032830D01*
X023219Y033425D01*
X022933Y033425D01*
X022875Y033414D01*
X022821Y033391D01*
X022772Y033358D01*
X022730Y033316D01*
X022697Y033267D01*
X022674Y033213D01*
X022663Y033155D01*
X022663Y032830D01*
X023219Y032830D01*
X023219Y032235D01*
X023504Y032235D01*
X023515Y032237D01*
X023641Y032185D01*
X023794Y032185D01*
X023794Y028876D01*
X023613Y028876D01*
X023419Y028795D01*
X023269Y028646D01*
X023189Y028451D01*
X023189Y028417D01*
X023070Y028298D01*
X022834Y028298D01*
X022706Y028245D01*
X022607Y028146D01*
X022554Y028018D01*
X022554Y027366D01*
X022574Y027318D01*
X022554Y027269D01*
X022554Y027112D01*
X021444Y028221D01*
X021444Y028432D01*
X021391Y028561D01*
X021293Y028660D01*
X021164Y028713D01*
X020510Y028713D01*
X020381Y028660D01*
X020283Y028561D01*
X020229Y028432D01*
X020229Y027778D01*
X020283Y027650D01*
X020381Y027551D01*
X020510Y027498D01*
X020965Y027498D01*
X022108Y026355D01*
X021986Y026355D01*
X021857Y026302D01*
X021759Y026203D01*
X021705Y026075D01*
X021705Y025175D01*
X021759Y025047D01*
X021850Y024956D01*
X021759Y024865D01*
X021705Y024736D01*
X021705Y023837D01*
X021759Y023708D01*
X021857Y023610D01*
X021986Y023556D01*
X021923Y023583D02*
X020439Y023583D01*
X020439Y023981D02*
X021705Y023981D01*
X021705Y024380D02*
X016019Y024380D01*
X016019Y024778D02*
X021723Y024778D01*
X021705Y025177D02*
X016019Y025177D01*
X016019Y025575D02*
X020299Y025575D01*
X020291Y025595D02*
X020314Y025540D01*
X020346Y025491D01*
X020388Y025450D01*
X020437Y025417D01*
X020492Y025394D01*
X020550Y025383D01*
X020837Y025383D01*
X021124Y025383D01*
X021182Y025394D01*
X021236Y025417D01*
X021286Y025450D01*
X021327Y025491D01*
X021360Y025540D01*
X021383Y025595D01*
X021394Y025653D01*
X021394Y025940D01*
X020837Y025940D01*
X020837Y025940D01*
X021394Y025940D01*
X021394Y026227D01*
X021383Y026285D01*
X021360Y026340D01*
X021327Y026389D01*
X021286Y026431D01*
X021236Y026463D01*
X021182Y026486D01*
X021124Y026498D01*
X020837Y026498D01*
X020837Y025940D01*
X020837Y025383D01*
X020837Y025940D01*
X020837Y025940D01*
X020837Y025940D01*
X020837Y026498D01*
X020550Y026498D01*
X020492Y026486D01*
X020437Y026463D01*
X020388Y026431D01*
X020346Y026389D01*
X020314Y026340D01*
X020291Y026285D01*
X020279Y026227D01*
X020279Y025940D01*
X020279Y025653D01*
X020291Y025595D01*
X020279Y025940D02*
X020837Y025940D01*
X020837Y025940D01*
X020279Y025940D01*
X020279Y025974D02*
X016019Y025974D01*
X016019Y026372D02*
X020335Y026372D01*
X020837Y026372D02*
X020837Y026372D01*
X020837Y025974D02*
X020837Y025974D01*
X020837Y025575D02*
X020837Y025575D01*
X021375Y025575D02*
X021705Y025575D01*
X021705Y025974D02*
X021394Y025974D01*
X021339Y026372D02*
X022091Y026372D01*
X021693Y026771D02*
X016019Y026771D01*
X016019Y027169D02*
X021294Y027169D01*
X021699Y027966D02*
X022554Y027966D01*
X022554Y027568D02*
X022098Y027568D01*
X022496Y027169D02*
X022554Y027169D01*
X023137Y028365D02*
X021444Y028365D01*
X022082Y028971D02*
X021820Y029232D01*
X021679Y029574D01*
X021679Y029944D01*
X021820Y030286D01*
X022082Y030547D01*
X022424Y030689D01*
X022794Y030689D01*
X023135Y030547D01*
X023397Y030286D01*
X023538Y029944D01*
X023538Y029574D01*
X023397Y029232D01*
X023135Y028971D01*
X022794Y028829D01*
X022424Y028829D01*
X022082Y028971D01*
X021891Y029162D02*
X019783Y029162D01*
X019854Y029232D02*
X019995Y029574D01*
X019995Y029944D01*
X019854Y030286D01*
X019592Y030547D01*
X019250Y030689D01*
X018880Y030689D01*
X018538Y030547D01*
X018277Y030286D01*
X018135Y029944D01*
X018135Y029574D01*
X018277Y029232D01*
X018538Y028971D01*
X018880Y028829D01*
X019250Y028829D01*
X019592Y028971D01*
X019854Y029232D01*
X019989Y029560D02*
X021684Y029560D01*
X021685Y029959D02*
X019989Y029959D01*
X019782Y030357D02*
X021892Y030357D01*
X023326Y030357D02*
X023794Y030357D01*
X023794Y029959D02*
X023532Y029959D01*
X023533Y029560D02*
X023794Y029560D01*
X023794Y029162D02*
X023326Y029162D01*
X023387Y028763D02*
X016019Y028763D01*
X016019Y028365D02*
X020229Y028365D01*
X020229Y027966D02*
X016019Y027966D01*
X016019Y027568D02*
X020365Y027568D01*
X018347Y029162D02*
X016019Y029162D01*
X016019Y029560D02*
X018141Y029560D01*
X018141Y029959D02*
X016019Y029959D01*
X016019Y030357D02*
X018348Y030357D01*
X016019Y030756D02*
X023794Y030756D01*
X023794Y031154D02*
X016019Y031154D01*
X016019Y031553D02*
X023794Y031553D01*
X023794Y031951D02*
X016019Y031951D01*
X016019Y032350D02*
X022726Y032350D01*
X022730Y032343D02*
X022772Y032301D01*
X022821Y032269D01*
X022875Y032246D01*
X022933Y032235D01*
X023219Y032235D01*
X023219Y032830D01*
X023219Y032830D01*
X023219Y032830D01*
X022663Y032830D01*
X022663Y032505D01*
X022674Y032447D01*
X022697Y032392D01*
X022730Y032343D01*
X022663Y032748D02*
X016019Y032748D01*
X016019Y033147D02*
X022663Y033147D01*
X023219Y033147D02*
X023219Y033147D01*
X023219Y032748D02*
X023219Y032748D01*
X023219Y032350D02*
X023219Y032350D01*
X023817Y033545D02*
X016019Y033545D01*
X016019Y033944D02*
X024216Y033944D01*
X023844Y034342D02*
X016019Y034342D01*
X016019Y034741D02*
X023938Y034741D01*
X024341Y034741D02*
X024341Y034741D01*
X025019Y033545D02*
X025800Y033545D01*
X025842Y033503D02*
X025639Y033706D01*
X025533Y033961D01*
X025473Y033936D01*
X025411Y033936D01*
X024644Y033169D01*
X024644Y028298D01*
X024939Y028298D01*
X024939Y028451D01*
X025019Y028646D01*
X025169Y028795D01*
X025363Y028876D01*
X025398Y028876D01*
X025562Y029039D01*
X025562Y029553D01*
X025615Y029682D01*
X025713Y029780D01*
X025842Y029833D01*
X026218Y029833D01*
X026280Y029808D01*
X026342Y029833D01*
X026504Y029833D01*
X026439Y029990D01*
X026439Y030201D01*
X026486Y030314D01*
X026342Y030314D01*
X026280Y030340D01*
X026218Y030314D01*
X025842Y030314D01*
X025713Y030368D01*
X025615Y030466D01*
X025562Y030595D01*
X025562Y031152D01*
X025398Y031316D01*
X025363Y031316D01*
X025169Y031396D01*
X025019Y031545D01*
X024939Y031740D01*
X024939Y031951D01*
X024644Y031951D01*
X024939Y031951D02*
X025019Y032146D01*
X025169Y032295D01*
X025363Y032376D01*
X025574Y032376D01*
X025580Y032373D01*
X025580Y032377D01*
X025591Y032464D01*
X025614Y032549D01*
X025648Y032630D01*
X025692Y032707D01*
X025745Y032776D01*
X025807Y032838D01*
X025877Y032892D01*
X025953Y032936D01*
X026034Y032969D01*
X026119Y032992D01*
X026206Y033003D01*
X026250Y033003D01*
X026250Y032334D01*
X026250Y032334D01*
X026250Y033003D01*
X026294Y033003D01*
X026381Y032992D01*
X026466Y032969D01*
X026544Y032937D01*
X026544Y033456D01*
X026393Y033393D01*
X026107Y033393D01*
X025842Y033503D01*
X025541Y033944D02*
X025490Y033944D01*
X024644Y033147D02*
X026544Y033147D01*
X026250Y032748D02*
X026250Y032748D01*
X026250Y032350D02*
X026250Y032350D01*
X025723Y032748D02*
X024644Y032748D01*
X024644Y032350D02*
X025301Y032350D01*
X025016Y031553D02*
X024644Y031553D01*
X024644Y031154D02*
X025559Y031154D01*
X025562Y030756D02*
X024644Y030756D01*
X024644Y030357D02*
X025739Y030357D01*
X025565Y029560D02*
X024644Y029560D01*
X024644Y029162D02*
X025562Y029162D01*
X025137Y028763D02*
X024644Y028763D01*
X024644Y028365D02*
X024939Y028365D01*
X024644Y029959D02*
X026452Y029959D01*
X027434Y029833D02*
X027499Y029990D01*
X027499Y030024D01*
X027804Y030330D01*
X027842Y030314D01*
X028218Y030314D01*
X028280Y030340D01*
X028342Y030314D01*
X028718Y030314D01*
X028780Y030340D01*
X028842Y030314D01*
X028939Y030314D01*
X028939Y030240D01*
X029019Y030045D01*
X029169Y029896D01*
X029363Y029816D01*
X029574Y029816D01*
X029769Y029896D01*
X029918Y030045D01*
X029999Y030240D01*
X029999Y030451D01*
X029918Y030646D01*
X029894Y030670D01*
X029894Y030680D01*
X029829Y030836D01*
X029710Y030956D01*
X029498Y031167D01*
X029498Y031600D01*
X029445Y031729D01*
X029346Y031827D01*
X029279Y031855D01*
X029315Y031891D01*
X029368Y031960D01*
X029412Y032037D01*
X029446Y032118D01*
X029468Y032203D01*
X029480Y032290D01*
X029480Y032333D01*
X028810Y032333D01*
X028810Y032333D01*
X029480Y032333D01*
X029480Y032377D01*
X029468Y032464D01*
X029446Y032549D01*
X029412Y032630D01*
X029368Y032707D01*
X029315Y032776D01*
X029252Y032838D01*
X029183Y032892D01*
X029107Y032936D01*
X029026Y032969D01*
X028941Y032992D01*
X028854Y033003D01*
X028810Y033003D01*
X028810Y032334D01*
X028810Y032334D01*
X028810Y033003D01*
X028766Y033003D01*
X028679Y032992D01*
X028594Y032969D01*
X028513Y032936D01*
X028437Y032892D01*
X028394Y032859D01*
X028394Y033169D01*
X028632Y033408D01*
X028667Y033393D01*
X028953Y033393D01*
X029218Y033503D01*
X029420Y033706D01*
X029530Y033970D01*
X029530Y034257D01*
X029420Y034521D01*
X029394Y034548D01*
X029394Y035671D01*
X030193Y035671D01*
X030108Y035586D01*
X030044Y035430D01*
X030044Y034261D01*
X030108Y034105D01*
X030294Y033919D01*
X030294Y031920D01*
X030269Y031896D01*
X030189Y031701D01*
X030189Y031490D01*
X030269Y031295D01*
X030419Y031146D01*
X030613Y031066D01*
X030802Y031066D01*
X030802Y030575D01*
X030855Y030446D01*
X030881Y030421D01*
X030863Y030378D01*
X030852Y030320D01*
X030852Y030094D01*
X031427Y030094D01*
X031427Y030295D01*
X031427Y030295D01*
X031427Y030094D01*
X031427Y030094D01*
X031427Y030094D01*
X030852Y030094D01*
X030852Y029867D01*
X030863Y029809D01*
X030886Y029755D01*
X030919Y029705D01*
X030961Y029664D01*
X031010Y029631D01*
X031064Y029608D01*
X031122Y029597D01*
X031427Y029597D01*
X031427Y030094D01*
X031427Y030113D01*
X031427Y030094D02*
X031427Y029597D01*
X031733Y029597D01*
X031791Y029608D01*
X031845Y029631D01*
X031894Y029664D01*
X031936Y029705D01*
X031969Y029755D01*
X031991Y029809D01*
X032003Y029867D01*
X032003Y029921D01*
X032044Y029921D01*
X032044Y029692D01*
X032003Y029592D01*
X032003Y028941D01*
X032023Y028893D01*
X032003Y028844D01*
X032003Y028657D01*
X031157Y027812D01*
X031002Y027657D01*
X030919Y027455D01*
X030919Y026836D01*
X030824Y026876D01*
X030790Y026876D01*
X029304Y028361D01*
X029339Y028384D01*
X029381Y028426D01*
X029414Y028475D01*
X029436Y028530D01*
X029448Y028588D01*
X029448Y029050D01*
X029030Y029050D01*
X029030Y029050D01*
X029448Y029050D01*
X029448Y029513D01*
X029436Y029571D01*
X029414Y029625D01*
X029381Y029675D01*
X029339Y029716D01*
X029290Y029749D01*
X029235Y029772D01*
X029177Y029783D01*
X029030Y029783D01*
X029030Y029050D01*
X029030Y029755D01*
X029030Y029783D02*
X028882Y029783D01*
X028849Y029777D01*
X028846Y029780D01*
X028718Y029833D01*
X028342Y029833D01*
X028280Y029808D01*
X028218Y029833D01*
X027842Y029833D01*
X027780Y029808D01*
X027718Y029833D01*
X027434Y029833D01*
X027486Y029959D02*
X029106Y029959D01*
X029030Y029783D02*
X029030Y029050D01*
X029030Y029050D01*
X029030Y029162D02*
X029030Y029162D01*
X029030Y029560D02*
X029030Y029560D01*
X029030Y029755D02*
X029028Y029788D01*
X029023Y029821D01*
X029014Y029854D01*
X029002Y029885D01*
X028987Y029915D01*
X028969Y029943D01*
X028948Y029968D01*
X028924Y029992D01*
X028899Y030013D01*
X028871Y030031D01*
X028841Y030046D01*
X028810Y030058D01*
X028777Y030067D01*
X028744Y030072D01*
X028711Y030074D01*
X029439Y029560D02*
X032003Y029560D01*
X032003Y029162D02*
X029448Y029162D01*
X029448Y028763D02*
X032003Y028763D01*
X031710Y028365D02*
X029310Y028365D01*
X029699Y027966D02*
X031311Y027966D01*
X030965Y027568D02*
X030098Y027568D01*
X030496Y027169D02*
X030919Y027169D01*
X031469Y027346D02*
X031469Y025846D01*
X030919Y025855D02*
X030919Y025736D01*
X031002Y025534D01*
X031157Y025379D01*
X031359Y025296D01*
X031578Y025296D01*
X031684Y025339D01*
X031668Y025301D01*
X031668Y024823D01*
X031323Y024478D01*
X031271Y024603D01*
X031173Y024701D01*
X031044Y024755D01*
X030315Y024755D01*
X030186Y024701D01*
X030087Y024603D01*
X030053Y024521D01*
X029731Y024521D01*
X029697Y024603D01*
X029598Y024701D01*
X029469Y024755D01*
X029394Y024755D01*
X029394Y025430D01*
X029329Y025586D01*
X029210Y025706D01*
X029053Y025771D01*
X027734Y025771D01*
X027728Y025784D01*
X027630Y025882D01*
X027501Y025936D01*
X026771Y025936D01*
X026643Y025882D01*
X026544Y025784D01*
X026491Y025655D01*
X026491Y025470D01*
X026418Y025646D01*
X026394Y025670D01*
X026394Y026060D01*
X026408Y026054D01*
X026651Y026054D01*
X026875Y026147D01*
X027047Y026319D01*
X027062Y026355D01*
X027103Y026299D01*
X027165Y026237D01*
X027236Y026185D01*
X027315Y026145D01*
X027399Y026118D01*
X027486Y026104D01*
X027530Y026104D01*
X027574Y026104D01*
X027661Y026118D01*
X027745Y026145D01*
X027823Y026185D01*
X027895Y026237D01*
X027957Y026299D01*
X027998Y026355D01*
X028013Y026319D01*
X028184Y026147D01*
X028408Y026054D01*
X028651Y026054D01*
X028875Y026147D01*
X029047Y026319D01*
X029105Y026460D01*
X029169Y026396D01*
X029363Y026316D01*
X029574Y026316D01*
X029769Y026396D01*
X029918Y026545D01*
X030189Y026274D01*
X030189Y026240D01*
X030269Y026045D01*
X030419Y025896D01*
X030613Y025816D01*
X030824Y025816D01*
X030919Y025855D01*
X030985Y025575D02*
X029334Y025575D01*
X029394Y025177D02*
X031668Y025177D01*
X031623Y024778D02*
X029394Y024778D01*
X029700Y023583D02*
X030084Y023583D01*
X030084Y023184D02*
X029700Y023184D01*
X029214Y022786D02*
X030919Y022786D01*
X030919Y022387D02*
X029206Y022387D01*
X028713Y021989D02*
X030919Y021989D01*
X030919Y021590D02*
X028314Y021590D01*
X027909Y022387D02*
X020778Y022387D01*
X020439Y022786D02*
X028224Y022786D01*
X028509Y023184D02*
X020439Y023184D01*
X019975Y021989D02*
X016019Y021989D01*
X016019Y022387D02*
X018698Y022387D01*
X018479Y022786D02*
X016019Y022786D01*
X016019Y023184D02*
X018479Y023184D01*
X018479Y023583D02*
X016019Y023583D01*
X016019Y023981D02*
X018479Y023981D01*
X020373Y021590D02*
X016019Y021590D01*
X016019Y021192D02*
X020772Y021192D01*
X021170Y020793D02*
X016019Y020793D01*
X016019Y020395D02*
X021569Y020395D01*
X021967Y019996D02*
X016019Y019996D01*
X016019Y019598D02*
X022366Y019598D01*
X022764Y019199D02*
X016019Y019199D01*
X016019Y018801D02*
X023163Y018801D01*
X023561Y018402D02*
X016019Y018402D01*
X016019Y018004D02*
X018587Y018004D01*
X018479Y017605D02*
X016019Y017605D01*
X016019Y017207D02*
X018479Y017207D01*
X018479Y016808D02*
X016019Y016808D01*
X016019Y016410D02*
X018484Y016410D01*
X019044Y016011D02*
X016019Y016011D01*
X016019Y015613D02*
X019044Y015613D01*
X019044Y015214D02*
X016019Y015214D01*
X016019Y014816D02*
X019044Y014816D01*
X019044Y014417D02*
X016019Y014417D01*
X016019Y014019D02*
X019044Y014019D01*
X019044Y013620D02*
X016019Y013620D01*
X016019Y013222D02*
X019044Y013222D01*
X019044Y012823D02*
X016019Y012823D01*
X016019Y012425D02*
X019044Y012425D01*
X019044Y012026D02*
X016019Y012026D01*
X016019Y011628D02*
X019044Y011628D01*
X019044Y011229D02*
X016019Y011229D01*
X016019Y010831D02*
X019044Y010831D01*
X019356Y010432D02*
X016019Y010432D01*
X016019Y010034D02*
X017645Y010034D01*
X017554Y009996D02*
X017896Y010138D01*
X018266Y010138D01*
X018608Y009996D01*
X018869Y009735D01*
X019011Y009393D01*
X019011Y009023D01*
X018869Y008681D01*
X018608Y008419D01*
X018266Y008278D01*
X017896Y008278D01*
X017554Y008419D01*
X017293Y008681D01*
X017151Y009023D01*
X017151Y009393D01*
X017293Y009735D01*
X017554Y009996D01*
X017251Y009635D02*
X016019Y009635D01*
X016019Y009237D02*
X017151Y009237D01*
X017228Y008838D02*
X016019Y008838D01*
X016019Y008440D02*
X017534Y008440D01*
X018628Y008440D02*
X021294Y008440D01*
X021294Y008838D02*
X018934Y008838D01*
X019011Y009237D02*
X021294Y009237D01*
X021294Y009635D02*
X018911Y009635D01*
X018517Y010034D02*
X021294Y010034D01*
X020703Y011628D02*
X019894Y011628D01*
X019894Y012026D02*
X020733Y012026D01*
X019894Y012425D02*
X022084Y012425D01*
X022302Y012425D02*
X023212Y012425D01*
X022985Y012823D02*
X022717Y012823D01*
X022665Y013222D02*
X023032Y013222D01*
X023219Y013846D02*
X023020Y014062D01*
X022969Y014096D01*
X022969Y014596D01*
X020969Y014596D01*
X020837Y014739D01*
X020192Y014816D02*
X019894Y014816D01*
X019894Y015214D02*
X020192Y015214D01*
X020192Y015613D02*
X019894Y015613D01*
X019894Y016011D02*
X020314Y016011D01*
X020434Y016410D02*
X020669Y016410D01*
X020439Y016808D02*
X020903Y016808D01*
X021219Y016346D02*
X021969Y017096D01*
X023969Y017096D01*
X023969Y015596D01*
X024469Y015096D01*
X025469Y015096D01*
X025500Y015164D01*
X025554Y016410D02*
X025328Y016410D01*
X025155Y016808D02*
X024519Y016808D01*
X024519Y016410D02*
X024570Y016410D01*
X024518Y017207D02*
X024757Y017207D01*
X024358Y017605D02*
X024176Y017605D01*
X023960Y018004D02*
X020331Y018004D01*
X020439Y017605D02*
X021762Y017605D01*
X021302Y017207D02*
X020439Y017207D01*
X021219Y016346D02*
X021219Y015846D01*
X020969Y015596D01*
X020837Y015487D01*
X020192Y014417D02*
X019894Y014417D01*
X019894Y014019D02*
X021883Y014019D01*
X022017Y013620D02*
X019894Y013620D01*
X019894Y013222D02*
X021721Y013222D01*
X021669Y012823D02*
X019894Y012823D01*
X021969Y011846D02*
X021998Y011609D01*
X021969Y011846D02*
X023969Y011846D01*
X023969Y009346D01*
X024969Y009346D01*
X025168Y009227D01*
X025219Y009096D01*
X025955Y009096D01*
X026855Y009995D01*
X027294Y009995D01*
X027469Y009596D02*
X027294Y009495D01*
X027469Y009596D02*
X027469Y009096D01*
X027294Y008995D01*
X027219Y009096D01*
X025955Y009096D01*
X028394Y009237D02*
X030155Y009237D01*
X030133Y009635D02*
X028394Y009635D01*
X028394Y010034D02*
X030133Y010034D01*
X030916Y009495D02*
X031754Y009495D01*
X031860Y009601D01*
X031699Y008838D02*
X036125Y008838D01*
X036190Y008681D02*
X036452Y008419D01*
X036794Y008278D01*
X037164Y008278D01*
X037505Y008419D01*
X037767Y008681D01*
X037909Y009023D01*
X037909Y009393D01*
X037767Y009735D01*
X037505Y009996D01*
X037164Y010138D01*
X036794Y010138D01*
X036452Y009996D01*
X036190Y009735D01*
X036049Y009393D01*
X036049Y009023D01*
X036190Y008681D01*
X036432Y008440D02*
X031699Y008440D01*
X031452Y008041D02*
X039041Y008041D01*
X039041Y007643D02*
X016025Y007643D01*
X016022Y008041D02*
X021294Y008041D01*
X023969Y011846D02*
X023969Y012846D01*
X024122Y012960D01*
X023969Y013096D01*
X023219Y013846D01*
X028394Y008838D02*
X030133Y008838D01*
X030133Y008440D02*
X028394Y008440D01*
X028394Y008041D02*
X030379Y008041D01*
X032657Y009192D02*
X032657Y009192D01*
X032734Y009237D02*
X036049Y009237D01*
X036149Y009635D02*
X033299Y009635D01*
X033128Y009464D02*
X033128Y009464D01*
X033512Y009848D02*
X033512Y009848D01*
X033619Y010034D02*
X036542Y010034D01*
X037415Y010034D02*
X039041Y010034D01*
X039041Y010432D02*
X033814Y010432D01*
X033784Y010319D02*
X033784Y010319D01*
X033921Y010831D02*
X039041Y010831D01*
X039041Y011229D02*
X034602Y011229D01*
X034852Y011628D02*
X035214Y011628D01*
X035724Y011628D02*
X039041Y011628D01*
X039041Y012026D02*
X036000Y012026D01*
X036399Y012425D02*
X039041Y012425D01*
X039041Y012823D02*
X036797Y012823D01*
X037196Y013222D02*
X039041Y013222D01*
X039041Y013620D02*
X037594Y013620D01*
X037894Y014019D02*
X039041Y014019D01*
X039041Y014417D02*
X037894Y014417D01*
X038320Y014816D02*
X039041Y014816D01*
X039041Y015214D02*
X038392Y015214D01*
X038392Y015613D02*
X039041Y015613D01*
X039041Y016011D02*
X038392Y016011D01*
X038369Y016410D02*
X039041Y016410D01*
X039041Y016808D02*
X038392Y016808D01*
X038144Y017207D02*
X039041Y017207D01*
X039041Y017605D02*
X038144Y017605D01*
X038144Y018004D02*
X039041Y018004D01*
X039041Y018402D02*
X038805Y018402D01*
X038805Y018801D02*
X039041Y018801D01*
X039041Y019199D02*
X038805Y019199D01*
X038805Y019598D02*
X039041Y019598D01*
X039041Y019996D02*
X038607Y019996D01*
X039041Y020395D02*
X038169Y020395D01*
X037519Y020793D02*
X039041Y020793D01*
X039041Y021192D02*
X038332Y021192D01*
X038365Y021590D02*
X039041Y021590D01*
X039041Y021989D02*
X038713Y021989D01*
X038894Y022387D02*
X039041Y022387D01*
X039041Y022786D02*
X038894Y022786D01*
X038894Y023184D02*
X039041Y023184D01*
X039041Y023583D02*
X038894Y023583D01*
X038894Y023981D02*
X039041Y023981D01*
X039041Y024380D02*
X038894Y024380D01*
X038894Y024778D02*
X039041Y024778D01*
X039041Y025177D02*
X038894Y025177D01*
X038894Y025575D02*
X039041Y025575D01*
X039041Y025974D02*
X038876Y025974D01*
X039041Y026372D02*
X038543Y026372D01*
X038220Y026771D02*
X039041Y026771D01*
X039041Y027169D02*
X037394Y027169D01*
X037542Y027568D02*
X039041Y027568D01*
X039041Y027966D02*
X037940Y027966D01*
X038339Y028365D02*
X039041Y028365D01*
X039041Y028763D02*
X038737Y028763D01*
X038894Y029162D02*
X039041Y029162D01*
X039041Y029560D02*
X038894Y029560D01*
X038894Y029959D02*
X039041Y029959D01*
X039041Y030357D02*
X038894Y030357D01*
X038894Y030756D02*
X039041Y030756D01*
X039041Y031154D02*
X038894Y031154D01*
X039041Y031553D02*
X038613Y031553D01*
X038214Y031951D02*
X039041Y031951D01*
X039041Y032350D02*
X037816Y032350D01*
X037417Y032748D02*
X039041Y032748D01*
X039041Y033147D02*
X037019Y033147D01*
X036620Y033545D02*
X039041Y033545D01*
X039041Y033944D02*
X036222Y033944D01*
X035823Y034342D02*
X039041Y034342D01*
X039041Y034741D02*
X032644Y034741D01*
X032644Y035139D02*
X036577Y035139D01*
X036452Y035191D02*
X036794Y035049D01*
X037164Y035049D01*
X037505Y035191D01*
X037767Y035453D01*
X037909Y035794D01*
X037909Y036164D01*
X037767Y036506D01*
X037505Y036768D01*
X037164Y036909D01*
X036794Y036909D01*
X036452Y036768D01*
X036190Y036506D01*
X036049Y036164D01*
X036049Y035794D01*
X036190Y035453D01*
X036452Y035191D01*
X036155Y035538D02*
X032644Y035538D01*
X032641Y035936D02*
X036049Y035936D01*
X036119Y036335D02*
X032331Y036335D01*
X031932Y036733D02*
X036417Y036733D01*
X037540Y036733D02*
X039041Y036733D01*
X039041Y036335D02*
X037838Y036335D01*
X037909Y035936D02*
X039041Y035936D01*
X039041Y035538D02*
X037802Y035538D01*
X037380Y035139D02*
X039041Y035139D01*
X039041Y037132D02*
X031534Y037132D01*
X030088Y035538D02*
X029394Y035538D01*
X029394Y035139D02*
X030044Y035139D01*
X030044Y034741D02*
X029394Y034741D01*
X029494Y034342D02*
X030044Y034342D01*
X030270Y033944D02*
X029519Y033944D01*
X029260Y033545D02*
X030294Y033545D01*
X030294Y033147D02*
X028394Y033147D01*
X028810Y032748D02*
X028810Y032748D01*
X028810Y032350D02*
X028810Y032350D01*
X028810Y032333D02*
X029101Y032042D01*
X029498Y032042D01*
X030679Y030074D01*
X031388Y030074D01*
X031398Y030075D01*
X031408Y030079D01*
X031416Y030085D01*
X031422Y030094D01*
X031426Y030103D01*
X031427Y030113D01*
X031427Y030094D02*
X031427Y030094D01*
X031427Y029959D02*
X031427Y029959D01*
X030852Y029959D02*
X029831Y029959D01*
X029999Y030357D02*
X030859Y030357D01*
X030802Y030756D02*
X029863Y030756D01*
X029511Y031154D02*
X030411Y031154D01*
X030189Y031553D02*
X029498Y031553D01*
X029361Y031951D02*
X030294Y031951D01*
X030294Y032350D02*
X029480Y032350D01*
X029336Y032748D02*
X030294Y032748D01*
X033719Y029096D02*
X033908Y029176D01*
X033719Y029096D02*
X033719Y028596D01*
X032719Y028596D01*
X032648Y028519D01*
X032469Y028346D01*
X031469Y027346D01*
X030091Y026372D02*
X029711Y026372D01*
X029227Y026372D02*
X029069Y026372D01*
X028013Y027530D02*
X028184Y027701D01*
X028239Y027724D01*
X027838Y028126D01*
X027829Y028105D01*
X027499Y027774D01*
X027499Y027744D01*
X027530Y027744D01*
X027530Y026924D01*
X027530Y026104D01*
X027530Y026924D01*
X027530Y026924D01*
X027530Y026924D01*
X027530Y027744D01*
X027574Y027744D01*
X027661Y027730D01*
X027745Y027703D01*
X027823Y027663D01*
X027895Y027611D01*
X027957Y027549D01*
X027998Y027493D01*
X028013Y027530D01*
X028050Y027568D02*
X027938Y027568D01*
X027997Y027966D02*
X027690Y027966D01*
X027530Y027568D02*
X027530Y027568D01*
X027530Y027169D02*
X027530Y027169D01*
X027530Y026771D02*
X027530Y026771D01*
X027530Y026372D02*
X027530Y026372D01*
X026394Y025974D02*
X030341Y025974D01*
X032382Y023981D02*
X033636Y023981D01*
X033636Y024140D02*
X033636Y023410D01*
X033690Y023281D01*
X033788Y023183D01*
X033917Y023129D01*
X034568Y023129D01*
X034616Y023149D01*
X034665Y023129D01*
X035152Y023129D01*
X033858Y021836D01*
X033794Y021680D01*
X033794Y020011D01*
X033858Y019855D01*
X033978Y019735D01*
X033978Y019735D01*
X034044Y019669D01*
X034044Y019586D01*
X033829Y019586D01*
X033749Y019586D01*
X033749Y019701D01*
X033668Y019896D01*
X033519Y020045D01*
X033324Y020126D01*
X033113Y020126D01*
X032919Y020045D01*
X032769Y019896D01*
X032689Y019701D01*
X032689Y019554D01*
X032637Y019575D01*
X032579Y019586D01*
X032254Y019586D01*
X031929Y019586D01*
X031871Y019575D01*
X031817Y019552D01*
X031768Y019520D01*
X031726Y019478D01*
X031693Y019429D01*
X031670Y019374D01*
X031659Y019316D01*
X031659Y019031D01*
X032254Y019031D01*
X032254Y019586D01*
X032254Y019031D01*
X032254Y019031D01*
X032254Y019031D01*
X031659Y019031D01*
X031659Y018745D01*
X031661Y018734D01*
X031609Y018608D01*
X031609Y018087D01*
X031608Y018086D01*
X031544Y017930D01*
X031544Y014761D01*
X031519Y014771D01*
X031519Y020368D01*
X031935Y020784D01*
X032019Y020986D01*
X032019Y022018D01*
X032648Y022018D01*
X033307Y022018D01*
X033365Y022030D01*
X033420Y022052D01*
X033469Y022085D01*
X033511Y022127D01*
X033544Y022176D01*
X033566Y022230D01*
X033578Y022288D01*
X033578Y022672D01*
X032648Y022672D01*
X032648Y022018D01*
X032648Y022672D01*
X032648Y022672D01*
X032648Y022672D01*
X034144Y022672D01*
X034223Y022594D01*
X034409Y022387D02*
X033578Y022387D01*
X033578Y022672D02*
X033578Y023056D01*
X033566Y023114D01*
X033544Y023169D01*
X033511Y023218D01*
X033469Y023260D01*
X033420Y023292D01*
X033365Y023315D01*
X033307Y023327D01*
X032648Y023327D01*
X032648Y022672D01*
X033578Y022672D01*
X033578Y022786D02*
X034808Y022786D01*
X033787Y023184D02*
X033533Y023184D01*
X033636Y023583D02*
X032019Y023583D01*
X032019Y023618D02*
X032574Y024173D01*
X033347Y024173D01*
X033476Y024226D01*
X033546Y024296D01*
X033669Y024296D01*
X033669Y024218D01*
X033636Y024140D01*
X034219Y023846D02*
X034219Y024846D01*
X032719Y024846D01*
X032648Y024877D01*
X032469Y024846D01*
X031469Y023846D01*
X031469Y021096D01*
X030844Y020471D01*
X030969Y020346D01*
X030969Y014096D01*
X030894Y014062D01*
X031519Y014816D02*
X031544Y014816D01*
X031519Y015214D02*
X031544Y015214D01*
X031519Y015613D02*
X031544Y015613D01*
X031519Y016011D02*
X031544Y016011D01*
X031519Y016410D02*
X031544Y016410D01*
X031519Y016808D02*
X031544Y016808D01*
X031519Y017207D02*
X031544Y017207D01*
X031519Y017605D02*
X031544Y017605D01*
X031519Y018004D02*
X031574Y018004D01*
X031609Y018402D02*
X031519Y018402D01*
X031519Y018801D02*
X031659Y018801D01*
X031659Y019199D02*
X031519Y019199D01*
X031519Y019598D02*
X032689Y019598D01*
X032870Y019996D02*
X031519Y019996D01*
X031546Y020395D02*
X033794Y020395D01*
X033794Y020793D02*
X031939Y020793D01*
X032019Y021192D02*
X033794Y021192D01*
X033794Y021590D02*
X032019Y021590D01*
X032019Y021989D02*
X034011Y021989D01*
X032648Y022387D02*
X032648Y022387D01*
X032648Y022672D02*
X032648Y023327D01*
X032019Y023327D01*
X032019Y023618D01*
X032648Y023184D02*
X032648Y023184D01*
X032648Y022786D02*
X032648Y022786D01*
X032648Y022672D02*
X032648Y022672D01*
X034242Y023775D02*
X034219Y023846D01*
X034219Y024846D02*
X034219Y025596D01*
X034242Y025743D01*
X036469Y022346D02*
X036969Y021846D01*
X036969Y019346D01*
X036469Y022346D02*
X036469Y029596D01*
X036719Y029846D01*
X036782Y030074D01*
X030679Y023184D02*
X030679Y023184D01*
X030787Y021192D02*
X029427Y021192D01*
X029496Y020793D02*
X029773Y020793D01*
X030381Y020793D02*
X030388Y020793D01*
X030844Y020471D02*
X030219Y019846D01*
X030077Y019834D01*
X029969Y019596D01*
X029969Y017346D01*
X028719Y016096D01*
X028711Y015881D01*
X032254Y019199D02*
X032254Y019199D01*
X033568Y019996D02*
X033800Y019996D01*
X033749Y019598D02*
X034044Y019598D01*
X033829Y019586D02*
X033829Y019031D01*
X033829Y019586D01*
X033829Y019199D02*
X033829Y019199D01*
X033829Y019031D02*
X033829Y019031D01*
X033719Y017346D02*
X033719Y015596D01*
X033469Y015346D01*
X033374Y015164D01*
X033374Y011115D01*
X033924Y012047D02*
X033924Y014269D01*
X034005Y014349D01*
X034118Y014623D01*
X034118Y015217D01*
X034182Y015281D01*
X034228Y015235D01*
X034384Y015171D01*
X034828Y015171D01*
X034828Y015151D01*
X035561Y015151D01*
X035561Y015151D01*
X034828Y015151D01*
X034828Y015003D01*
X034840Y014945D01*
X034862Y014890D01*
X034895Y014841D01*
X034937Y014800D01*
X034986Y014767D01*
X035041Y014744D01*
X035099Y014733D01*
X035561Y014733D01*
X035561Y015151D01*
X035561Y014168D01*
X035562Y014168D02*
X035564Y014140D01*
X035569Y014112D01*
X035577Y014084D01*
X035589Y014058D01*
X035604Y014034D01*
X035621Y014012D01*
X035642Y013991D01*
X035664Y013974D01*
X035688Y013959D01*
X035714Y013947D01*
X035742Y013939D01*
X035770Y013934D01*
X035798Y013932D01*
X036041Y014019D02*
X033924Y014019D01*
X033924Y013620D02*
X035642Y013620D01*
X035244Y013222D02*
X033924Y013222D01*
X033924Y012823D02*
X034845Y012823D01*
X034447Y012425D02*
X033924Y012425D01*
X034113Y012126D02*
X033924Y012047D01*
X034113Y012126D02*
X034148Y012126D01*
X036294Y014272D01*
X036294Y015000D01*
X036283Y014945D01*
X036260Y014890D01*
X036227Y014841D01*
X036186Y014800D01*
X036136Y014767D01*
X036082Y014744D01*
X036024Y014733D01*
X035561Y014733D01*
X035561Y015151D01*
X035561Y015151D01*
X035561Y014816D02*
X035561Y014816D01*
X036202Y014816D02*
X036294Y014816D01*
X036294Y014417D02*
X034033Y014417D01*
X034118Y014816D02*
X034921Y014816D01*
X034279Y015214D02*
X034118Y015214D01*
X033374Y011115D02*
X033372Y011038D01*
X033366Y010962D01*
X033357Y010886D01*
X033343Y010810D01*
X033326Y010736D01*
X033305Y010662D01*
X033280Y010589D01*
X033251Y010518D01*
X033219Y010448D01*
X033184Y010380D01*
X033145Y010314D01*
X033103Y010250D01*
X033057Y010188D01*
X033009Y010129D01*
X032957Y010072D01*
X032903Y010018D01*
X032846Y009966D01*
X032787Y009918D01*
X032725Y009872D01*
X032661Y009830D01*
X032595Y009791D01*
X032527Y009756D01*
X032457Y009724D01*
X032386Y009695D01*
X032313Y009670D01*
X032239Y009649D01*
X032165Y009632D01*
X032089Y009618D01*
X032013Y009609D01*
X031937Y009603D01*
X031860Y009601D01*
X037526Y008440D02*
X039041Y008440D01*
X039041Y008838D02*
X037832Y008838D01*
X037909Y009237D02*
X039041Y009237D01*
X039041Y009635D02*
X037808Y009635D01*
X038837Y007244D02*
X016327Y007244D01*
X024904Y019834D02*
X024969Y019846D01*
X025969Y020846D01*
X026112Y020901D01*
X025534Y021192D02*
X025314Y021192D01*
X025499Y021590D02*
X027112Y021590D01*
X027511Y021989D02*
X025325Y021989D01*
X024612Y021989D02*
X021177Y021989D01*
X021575Y021590D02*
X024362Y021590D01*
X023964Y021192D02*
X021974Y021192D01*
X022372Y020793D02*
X023565Y020793D01*
X023167Y020395D02*
X022771Y020395D01*
X023688Y023583D02*
X025004Y023583D01*
X025168Y024582D02*
X025219Y024596D01*
X026969Y024596D01*
X027136Y024582D01*
X027219Y024346D01*
X027469Y024346D01*
X027969Y024846D01*
X026491Y025575D02*
X026447Y025575D01*
X025411Y035139D02*
X018482Y035139D01*
X018608Y035191D02*
X018869Y035453D01*
X019011Y035794D01*
X019011Y036164D01*
X018869Y036506D01*
X018608Y036768D01*
X018266Y036909D01*
X017896Y036909D01*
X017554Y036768D01*
X017293Y036506D01*
X017151Y036164D01*
X017151Y035794D01*
X017293Y035453D01*
X017554Y035191D01*
X017896Y035049D01*
X018266Y035049D01*
X018608Y035191D01*
X018904Y035538D02*
X025810Y035538D01*
X026060Y035936D02*
X019011Y035936D01*
X018940Y036335D02*
X025740Y036335D01*
X025715Y036347D02*
X025799Y036304D01*
X025889Y036275D01*
X025983Y036260D01*
X026030Y036260D01*
X026030Y037160D01*
X026030Y037160D01*
X025430Y037160D01*
X025430Y036813D01*
X025445Y036720D01*
X025474Y036630D01*
X025517Y036546D01*
X025572Y036470D01*
X025639Y036403D01*
X025715Y036347D01*
X026030Y036335D02*
X026030Y036335D01*
X026319Y036335D02*
X026544Y036335D01*
X026030Y036733D02*
X026030Y036733D01*
X026030Y037132D02*
X026030Y037132D01*
X025430Y037132D02*
X016019Y037132D01*
X016019Y037530D02*
X025433Y037530D01*
X025653Y037929D02*
X016044Y037929D01*
X016019Y036733D02*
X017520Y036733D01*
X017222Y036335D02*
X016019Y036335D01*
X016019Y035936D02*
X017151Y035936D01*
X017257Y035538D02*
X016019Y035538D01*
X016019Y035139D02*
X017680Y035139D01*
X018642Y036733D02*
X025442Y036733D01*
X029481Y037929D02*
X038857Y037929D01*
X039041Y037530D02*
X029680Y037530D01*
M02*
