G75*
G70*
%OFA0B0*%
%FSLAX24Y24*%
%IPPOS*%
%LPD*%
%AMOC8*
5,1,8,0,0,1.08239X$1,22.5*
%
%ADD10C,0.0000*%
%ADD11C,0.0787*%
%ADD12C,0.1306*%
%ADD13C,0.0554*%
%ADD14C,0.0520*%
%ADD15R,0.0600X0.0600*%
%ADD16C,0.0600*%
%ADD17R,0.0515X0.0515*%
%ADD18C,0.0740*%
%ADD19C,0.0600*%
%ADD20C,0.0150*%
%ADD21C,0.0360*%
%ADD22C,0.0400*%
D10*
X015719Y008027D02*
X015719Y037948D01*
X015736Y037993D01*
X015757Y038038D01*
X015781Y038080D01*
X015809Y038120D01*
X015839Y038159D01*
X015873Y038194D01*
X015909Y038227D01*
X015947Y038257D01*
X015988Y038284D01*
X016031Y038307D01*
X016075Y038327D01*
X016121Y038344D01*
X016168Y038357D01*
X016216Y038366D01*
X016265Y038371D01*
X016314Y038373D01*
X016363Y038371D01*
X016411Y038365D01*
X016459Y038355D01*
X016506Y038341D01*
X016506Y038342D02*
X038553Y038342D01*
X038553Y038341D02*
X038607Y038339D01*
X038660Y038334D01*
X038713Y038325D01*
X038765Y038312D01*
X038817Y038296D01*
X038867Y038276D01*
X038915Y038253D01*
X038962Y038226D01*
X039007Y038197D01*
X039050Y038164D01*
X039090Y038129D01*
X039128Y038091D01*
X039163Y038051D01*
X039196Y038008D01*
X039225Y037963D01*
X039252Y037916D01*
X039275Y037868D01*
X039295Y037818D01*
X039311Y037766D01*
X039324Y037714D01*
X039333Y037661D01*
X039338Y037608D01*
X039340Y037554D01*
X039341Y037554D02*
X039341Y007633D01*
X039340Y007633D02*
X039338Y007579D01*
X039333Y007526D01*
X039324Y007473D01*
X039311Y007421D01*
X039295Y007369D01*
X039275Y007319D01*
X039252Y007271D01*
X039225Y007224D01*
X039196Y007179D01*
X039163Y007136D01*
X039128Y007096D01*
X039090Y007058D01*
X039050Y007023D01*
X039007Y006990D01*
X038962Y006961D01*
X038915Y006934D01*
X038867Y006911D01*
X038817Y006891D01*
X038765Y006875D01*
X038713Y006862D01*
X038660Y006853D01*
X038607Y006848D01*
X038553Y006846D01*
X016506Y006846D01*
X016506Y006845D02*
X016447Y006859D01*
X016389Y006876D01*
X016332Y006897D01*
X016276Y006921D01*
X016222Y006949D01*
X016170Y006979D01*
X016119Y007013D01*
X016071Y007050D01*
X016025Y007089D01*
X015982Y007132D01*
X015941Y007176D01*
X015903Y007224D01*
X015868Y007273D01*
X015836Y007325D01*
X015807Y007378D01*
X015781Y007433D01*
X015759Y007489D01*
X015740Y007547D01*
X015724Y007606D01*
X015713Y007665D01*
X015704Y007725D01*
X015700Y007786D01*
X015699Y007846D01*
X015702Y007907D01*
X015708Y007967D01*
X015718Y008027D01*
X017451Y009208D02*
X017453Y009258D01*
X017459Y009308D01*
X017469Y009357D01*
X017483Y009405D01*
X017500Y009452D01*
X017521Y009497D01*
X017546Y009541D01*
X017574Y009582D01*
X017606Y009621D01*
X017640Y009658D01*
X017677Y009692D01*
X017717Y009722D01*
X017759Y009749D01*
X017803Y009773D01*
X017849Y009794D01*
X017896Y009810D01*
X017944Y009823D01*
X017994Y009832D01*
X018043Y009837D01*
X018094Y009838D01*
X018144Y009835D01*
X018193Y009828D01*
X018242Y009817D01*
X018290Y009802D01*
X018336Y009784D01*
X018381Y009762D01*
X018424Y009736D01*
X018465Y009707D01*
X018504Y009675D01*
X018540Y009640D01*
X018572Y009602D01*
X018602Y009562D01*
X018629Y009519D01*
X018652Y009475D01*
X018671Y009429D01*
X018687Y009381D01*
X018699Y009332D01*
X018707Y009283D01*
X018711Y009233D01*
X018711Y009183D01*
X018707Y009133D01*
X018699Y009084D01*
X018687Y009035D01*
X018671Y008987D01*
X018652Y008941D01*
X018629Y008897D01*
X018602Y008854D01*
X018572Y008814D01*
X018540Y008776D01*
X018504Y008741D01*
X018465Y008709D01*
X018424Y008680D01*
X018381Y008654D01*
X018336Y008632D01*
X018290Y008614D01*
X018242Y008599D01*
X018193Y008588D01*
X018144Y008581D01*
X018094Y008578D01*
X018043Y008579D01*
X017994Y008584D01*
X017944Y008593D01*
X017896Y008606D01*
X017849Y008622D01*
X017803Y008643D01*
X017759Y008667D01*
X017717Y008694D01*
X017677Y008724D01*
X017640Y008758D01*
X017606Y008795D01*
X017574Y008834D01*
X017546Y008875D01*
X017521Y008919D01*
X017500Y008964D01*
X017483Y009011D01*
X017469Y009059D01*
X017459Y009108D01*
X017453Y009158D01*
X017451Y009208D01*
X021957Y012960D02*
X021959Y012990D01*
X021965Y013020D01*
X021974Y013049D01*
X021987Y013076D01*
X022004Y013101D01*
X022023Y013124D01*
X022046Y013145D01*
X022071Y013162D01*
X022097Y013176D01*
X022126Y013186D01*
X022155Y013193D01*
X022185Y013196D01*
X022216Y013195D01*
X022246Y013190D01*
X022275Y013181D01*
X022302Y013169D01*
X022328Y013154D01*
X022352Y013135D01*
X022373Y013113D01*
X022391Y013089D01*
X022406Y013062D01*
X022417Y013034D01*
X022425Y013005D01*
X022429Y012975D01*
X022429Y012945D01*
X022425Y012915D01*
X022417Y012886D01*
X022406Y012858D01*
X022391Y012831D01*
X022373Y012807D01*
X022352Y012785D01*
X022328Y012766D01*
X022302Y012751D01*
X022275Y012739D01*
X022246Y012730D01*
X022216Y012725D01*
X022185Y012724D01*
X022155Y012727D01*
X022126Y012734D01*
X022097Y012744D01*
X022071Y012758D01*
X022046Y012775D01*
X022023Y012796D01*
X022004Y012819D01*
X021987Y012844D01*
X021974Y012871D01*
X021965Y012900D01*
X021959Y012930D01*
X021957Y012960D01*
X024713Y012960D02*
X024715Y012990D01*
X024721Y013020D01*
X024730Y013049D01*
X024743Y013076D01*
X024760Y013101D01*
X024779Y013124D01*
X024802Y013145D01*
X024827Y013162D01*
X024853Y013176D01*
X024882Y013186D01*
X024911Y013193D01*
X024941Y013196D01*
X024972Y013195D01*
X025002Y013190D01*
X025031Y013181D01*
X025058Y013169D01*
X025084Y013154D01*
X025108Y013135D01*
X025129Y013113D01*
X025147Y013089D01*
X025162Y013062D01*
X025173Y013034D01*
X025181Y013005D01*
X025185Y012975D01*
X025185Y012945D01*
X025181Y012915D01*
X025173Y012886D01*
X025162Y012858D01*
X025147Y012831D01*
X025129Y012807D01*
X025108Y012785D01*
X025084Y012766D01*
X025058Y012751D01*
X025031Y012739D01*
X025002Y012730D01*
X024972Y012725D01*
X024941Y012724D01*
X024911Y012727D01*
X024882Y012734D01*
X024853Y012744D01*
X024827Y012758D01*
X024802Y012775D01*
X024779Y012796D01*
X024760Y012819D01*
X024743Y012844D01*
X024730Y012871D01*
X024721Y012900D01*
X024715Y012930D01*
X024713Y012960D01*
X024713Y016031D02*
X024715Y016061D01*
X024721Y016091D01*
X024730Y016120D01*
X024743Y016147D01*
X024760Y016172D01*
X024779Y016195D01*
X024802Y016216D01*
X024827Y016233D01*
X024853Y016247D01*
X024882Y016257D01*
X024911Y016264D01*
X024941Y016267D01*
X024972Y016266D01*
X025002Y016261D01*
X025031Y016252D01*
X025058Y016240D01*
X025084Y016225D01*
X025108Y016206D01*
X025129Y016184D01*
X025147Y016160D01*
X025162Y016133D01*
X025173Y016105D01*
X025181Y016076D01*
X025185Y016046D01*
X025185Y016016D01*
X025181Y015986D01*
X025173Y015957D01*
X025162Y015929D01*
X025147Y015902D01*
X025129Y015878D01*
X025108Y015856D01*
X025084Y015837D01*
X025058Y015822D01*
X025031Y015810D01*
X025002Y015801D01*
X024972Y015796D01*
X024941Y015795D01*
X024911Y015798D01*
X024882Y015805D01*
X024853Y015815D01*
X024827Y015829D01*
X024802Y015846D01*
X024779Y015867D01*
X024760Y015890D01*
X024743Y015915D01*
X024730Y015942D01*
X024721Y015971D01*
X024715Y016001D01*
X024713Y016031D01*
X021957Y016031D02*
X021959Y016061D01*
X021965Y016091D01*
X021974Y016120D01*
X021987Y016147D01*
X022004Y016172D01*
X022023Y016195D01*
X022046Y016216D01*
X022071Y016233D01*
X022097Y016247D01*
X022126Y016257D01*
X022155Y016264D01*
X022185Y016267D01*
X022216Y016266D01*
X022246Y016261D01*
X022275Y016252D01*
X022302Y016240D01*
X022328Y016225D01*
X022352Y016206D01*
X022373Y016184D01*
X022391Y016160D01*
X022406Y016133D01*
X022417Y016105D01*
X022425Y016076D01*
X022429Y016046D01*
X022429Y016016D01*
X022425Y015986D01*
X022417Y015957D01*
X022406Y015929D01*
X022391Y015902D01*
X022373Y015878D01*
X022352Y015856D01*
X022328Y015837D01*
X022302Y015822D01*
X022275Y015810D01*
X022246Y015801D01*
X022216Y015796D01*
X022185Y015795D01*
X022155Y015798D01*
X022126Y015805D01*
X022097Y015815D01*
X022071Y015829D01*
X022046Y015846D01*
X022023Y015867D01*
X022004Y015890D01*
X021987Y015915D01*
X021974Y015942D01*
X021965Y015971D01*
X021959Y016001D01*
X021957Y016031D01*
X029831Y016031D02*
X029833Y016061D01*
X029839Y016091D01*
X029848Y016120D01*
X029861Y016147D01*
X029878Y016172D01*
X029897Y016195D01*
X029920Y016216D01*
X029945Y016233D01*
X029971Y016247D01*
X030000Y016257D01*
X030029Y016264D01*
X030059Y016267D01*
X030090Y016266D01*
X030120Y016261D01*
X030149Y016252D01*
X030176Y016240D01*
X030202Y016225D01*
X030226Y016206D01*
X030247Y016184D01*
X030265Y016160D01*
X030280Y016133D01*
X030291Y016105D01*
X030299Y016076D01*
X030303Y016046D01*
X030303Y016016D01*
X030299Y015986D01*
X030291Y015957D01*
X030280Y015929D01*
X030265Y015902D01*
X030247Y015878D01*
X030226Y015856D01*
X030202Y015837D01*
X030176Y015822D01*
X030149Y015810D01*
X030120Y015801D01*
X030090Y015796D01*
X030059Y015795D01*
X030029Y015798D01*
X030000Y015805D01*
X029971Y015815D01*
X029945Y015829D01*
X029920Y015846D01*
X029897Y015867D01*
X029878Y015890D01*
X029861Y015915D01*
X029848Y015942D01*
X029839Y015971D01*
X029833Y016001D01*
X029831Y016031D01*
X032587Y016031D02*
X032589Y016061D01*
X032595Y016091D01*
X032604Y016120D01*
X032617Y016147D01*
X032634Y016172D01*
X032653Y016195D01*
X032676Y016216D01*
X032701Y016233D01*
X032727Y016247D01*
X032756Y016257D01*
X032785Y016264D01*
X032815Y016267D01*
X032846Y016266D01*
X032876Y016261D01*
X032905Y016252D01*
X032932Y016240D01*
X032958Y016225D01*
X032982Y016206D01*
X033003Y016184D01*
X033021Y016160D01*
X033036Y016133D01*
X033047Y016105D01*
X033055Y016076D01*
X033059Y016046D01*
X033059Y016016D01*
X033055Y015986D01*
X033047Y015957D01*
X033036Y015929D01*
X033021Y015902D01*
X033003Y015878D01*
X032982Y015856D01*
X032958Y015837D01*
X032932Y015822D01*
X032905Y015810D01*
X032876Y015801D01*
X032846Y015796D01*
X032815Y015795D01*
X032785Y015798D01*
X032756Y015805D01*
X032727Y015815D01*
X032701Y015829D01*
X032676Y015846D01*
X032653Y015867D01*
X032634Y015890D01*
X032617Y015915D01*
X032604Y015942D01*
X032595Y015971D01*
X032589Y016001D01*
X032587Y016031D01*
X032587Y012960D02*
X032589Y012990D01*
X032595Y013020D01*
X032604Y013049D01*
X032617Y013076D01*
X032634Y013101D01*
X032653Y013124D01*
X032676Y013145D01*
X032701Y013162D01*
X032727Y013176D01*
X032756Y013186D01*
X032785Y013193D01*
X032815Y013196D01*
X032846Y013195D01*
X032876Y013190D01*
X032905Y013181D01*
X032932Y013169D01*
X032958Y013154D01*
X032982Y013135D01*
X033003Y013113D01*
X033021Y013089D01*
X033036Y013062D01*
X033047Y013034D01*
X033055Y013005D01*
X033059Y012975D01*
X033059Y012945D01*
X033055Y012915D01*
X033047Y012886D01*
X033036Y012858D01*
X033021Y012831D01*
X033003Y012807D01*
X032982Y012785D01*
X032958Y012766D01*
X032932Y012751D01*
X032905Y012739D01*
X032876Y012730D01*
X032846Y012725D01*
X032815Y012724D01*
X032785Y012727D01*
X032756Y012734D01*
X032727Y012744D01*
X032701Y012758D01*
X032676Y012775D01*
X032653Y012796D01*
X032634Y012819D01*
X032617Y012844D01*
X032604Y012871D01*
X032595Y012900D01*
X032589Y012930D01*
X032587Y012960D01*
X029831Y012960D02*
X029833Y012990D01*
X029839Y013020D01*
X029848Y013049D01*
X029861Y013076D01*
X029878Y013101D01*
X029897Y013124D01*
X029920Y013145D01*
X029945Y013162D01*
X029971Y013176D01*
X030000Y013186D01*
X030029Y013193D01*
X030059Y013196D01*
X030090Y013195D01*
X030120Y013190D01*
X030149Y013181D01*
X030176Y013169D01*
X030202Y013154D01*
X030226Y013135D01*
X030247Y013113D01*
X030265Y013089D01*
X030280Y013062D01*
X030291Y013034D01*
X030299Y013005D01*
X030303Y012975D01*
X030303Y012945D01*
X030299Y012915D01*
X030291Y012886D01*
X030280Y012858D01*
X030265Y012831D01*
X030247Y012807D01*
X030226Y012785D01*
X030202Y012766D01*
X030176Y012751D01*
X030149Y012739D01*
X030120Y012730D01*
X030090Y012725D01*
X030059Y012724D01*
X030029Y012727D01*
X030000Y012734D01*
X029971Y012744D01*
X029945Y012758D01*
X029920Y012775D01*
X029897Y012796D01*
X029878Y012819D01*
X029861Y012844D01*
X029848Y012871D01*
X029839Y012900D01*
X029833Y012930D01*
X029831Y012960D01*
X036349Y009208D02*
X036351Y009258D01*
X036357Y009308D01*
X036367Y009357D01*
X036381Y009405D01*
X036398Y009452D01*
X036419Y009497D01*
X036444Y009541D01*
X036472Y009582D01*
X036504Y009621D01*
X036538Y009658D01*
X036575Y009692D01*
X036615Y009722D01*
X036657Y009749D01*
X036701Y009773D01*
X036747Y009794D01*
X036794Y009810D01*
X036842Y009823D01*
X036892Y009832D01*
X036941Y009837D01*
X036992Y009838D01*
X037042Y009835D01*
X037091Y009828D01*
X037140Y009817D01*
X037188Y009802D01*
X037234Y009784D01*
X037279Y009762D01*
X037322Y009736D01*
X037363Y009707D01*
X037402Y009675D01*
X037438Y009640D01*
X037470Y009602D01*
X037500Y009562D01*
X037527Y009519D01*
X037550Y009475D01*
X037569Y009429D01*
X037585Y009381D01*
X037597Y009332D01*
X037605Y009283D01*
X037609Y009233D01*
X037609Y009183D01*
X037605Y009133D01*
X037597Y009084D01*
X037585Y009035D01*
X037569Y008987D01*
X037550Y008941D01*
X037527Y008897D01*
X037500Y008854D01*
X037470Y008814D01*
X037438Y008776D01*
X037402Y008741D01*
X037363Y008709D01*
X037322Y008680D01*
X037279Y008654D01*
X037234Y008632D01*
X037188Y008614D01*
X037140Y008599D01*
X037091Y008588D01*
X037042Y008581D01*
X036992Y008578D01*
X036941Y008579D01*
X036892Y008584D01*
X036842Y008593D01*
X036794Y008606D01*
X036747Y008622D01*
X036701Y008643D01*
X036657Y008667D01*
X036615Y008694D01*
X036575Y008724D01*
X036538Y008758D01*
X036504Y008795D01*
X036472Y008834D01*
X036444Y008875D01*
X036419Y008919D01*
X036398Y008964D01*
X036381Y009011D01*
X036367Y009059D01*
X036357Y009108D01*
X036351Y009158D01*
X036349Y009208D01*
X021979Y029759D02*
X021981Y029809D01*
X021987Y029859D01*
X021997Y029908D01*
X022011Y029956D01*
X022028Y030003D01*
X022049Y030048D01*
X022074Y030092D01*
X022102Y030133D01*
X022134Y030172D01*
X022168Y030209D01*
X022205Y030243D01*
X022245Y030273D01*
X022287Y030300D01*
X022331Y030324D01*
X022377Y030345D01*
X022424Y030361D01*
X022472Y030374D01*
X022522Y030383D01*
X022571Y030388D01*
X022622Y030389D01*
X022672Y030386D01*
X022721Y030379D01*
X022770Y030368D01*
X022818Y030353D01*
X022864Y030335D01*
X022909Y030313D01*
X022952Y030287D01*
X022993Y030258D01*
X023032Y030226D01*
X023068Y030191D01*
X023100Y030153D01*
X023130Y030113D01*
X023157Y030070D01*
X023180Y030026D01*
X023199Y029980D01*
X023215Y029932D01*
X023227Y029883D01*
X023235Y029834D01*
X023239Y029784D01*
X023239Y029734D01*
X023235Y029684D01*
X023227Y029635D01*
X023215Y029586D01*
X023199Y029538D01*
X023180Y029492D01*
X023157Y029448D01*
X023130Y029405D01*
X023100Y029365D01*
X023068Y029327D01*
X023032Y029292D01*
X022993Y029260D01*
X022952Y029231D01*
X022909Y029205D01*
X022864Y029183D01*
X022818Y029165D01*
X022770Y029150D01*
X022721Y029139D01*
X022672Y029132D01*
X022622Y029129D01*
X022571Y029130D01*
X022522Y029135D01*
X022472Y029144D01*
X022424Y029157D01*
X022377Y029173D01*
X022331Y029194D01*
X022287Y029218D01*
X022245Y029245D01*
X022205Y029275D01*
X022168Y029309D01*
X022134Y029346D01*
X022102Y029385D01*
X022074Y029426D01*
X022049Y029470D01*
X022028Y029515D01*
X022011Y029562D01*
X021997Y029610D01*
X021987Y029659D01*
X021981Y029709D01*
X021979Y029759D01*
X018435Y029759D02*
X018437Y029809D01*
X018443Y029859D01*
X018453Y029908D01*
X018467Y029956D01*
X018484Y030003D01*
X018505Y030048D01*
X018530Y030092D01*
X018558Y030133D01*
X018590Y030172D01*
X018624Y030209D01*
X018661Y030243D01*
X018701Y030273D01*
X018743Y030300D01*
X018787Y030324D01*
X018833Y030345D01*
X018880Y030361D01*
X018928Y030374D01*
X018978Y030383D01*
X019027Y030388D01*
X019078Y030389D01*
X019128Y030386D01*
X019177Y030379D01*
X019226Y030368D01*
X019274Y030353D01*
X019320Y030335D01*
X019365Y030313D01*
X019408Y030287D01*
X019449Y030258D01*
X019488Y030226D01*
X019524Y030191D01*
X019556Y030153D01*
X019586Y030113D01*
X019613Y030070D01*
X019636Y030026D01*
X019655Y029980D01*
X019671Y029932D01*
X019683Y029883D01*
X019691Y029834D01*
X019695Y029784D01*
X019695Y029734D01*
X019691Y029684D01*
X019683Y029635D01*
X019671Y029586D01*
X019655Y029538D01*
X019636Y029492D01*
X019613Y029448D01*
X019586Y029405D01*
X019556Y029365D01*
X019524Y029327D01*
X019488Y029292D01*
X019449Y029260D01*
X019408Y029231D01*
X019365Y029205D01*
X019320Y029183D01*
X019274Y029165D01*
X019226Y029150D01*
X019177Y029139D01*
X019128Y029132D01*
X019078Y029129D01*
X019027Y029130D01*
X018978Y029135D01*
X018928Y029144D01*
X018880Y029157D01*
X018833Y029173D01*
X018787Y029194D01*
X018743Y029218D01*
X018701Y029245D01*
X018661Y029275D01*
X018624Y029309D01*
X018590Y029346D01*
X018558Y029385D01*
X018530Y029426D01*
X018505Y029470D01*
X018484Y029515D01*
X018467Y029562D01*
X018453Y029610D01*
X018443Y029659D01*
X018437Y029709D01*
X018435Y029759D01*
X017451Y035979D02*
X017453Y036029D01*
X017459Y036079D01*
X017469Y036128D01*
X017483Y036176D01*
X017500Y036223D01*
X017521Y036268D01*
X017546Y036312D01*
X017574Y036353D01*
X017606Y036392D01*
X017640Y036429D01*
X017677Y036463D01*
X017717Y036493D01*
X017759Y036520D01*
X017803Y036544D01*
X017849Y036565D01*
X017896Y036581D01*
X017944Y036594D01*
X017994Y036603D01*
X018043Y036608D01*
X018094Y036609D01*
X018144Y036606D01*
X018193Y036599D01*
X018242Y036588D01*
X018290Y036573D01*
X018336Y036555D01*
X018381Y036533D01*
X018424Y036507D01*
X018465Y036478D01*
X018504Y036446D01*
X018540Y036411D01*
X018572Y036373D01*
X018602Y036333D01*
X018629Y036290D01*
X018652Y036246D01*
X018671Y036200D01*
X018687Y036152D01*
X018699Y036103D01*
X018707Y036054D01*
X018711Y036004D01*
X018711Y035954D01*
X018707Y035904D01*
X018699Y035855D01*
X018687Y035806D01*
X018671Y035758D01*
X018652Y035712D01*
X018629Y035668D01*
X018602Y035625D01*
X018572Y035585D01*
X018540Y035547D01*
X018504Y035512D01*
X018465Y035480D01*
X018424Y035451D01*
X018381Y035425D01*
X018336Y035403D01*
X018290Y035385D01*
X018242Y035370D01*
X018193Y035359D01*
X018144Y035352D01*
X018094Y035349D01*
X018043Y035350D01*
X017994Y035355D01*
X017944Y035364D01*
X017896Y035377D01*
X017849Y035393D01*
X017803Y035414D01*
X017759Y035438D01*
X017717Y035465D01*
X017677Y035495D01*
X017640Y035529D01*
X017606Y035566D01*
X017574Y035605D01*
X017546Y035646D01*
X017521Y035690D01*
X017500Y035735D01*
X017483Y035782D01*
X017469Y035830D01*
X017459Y035879D01*
X017453Y035929D01*
X017451Y035979D01*
X036349Y035979D02*
X036351Y036029D01*
X036357Y036079D01*
X036367Y036128D01*
X036381Y036176D01*
X036398Y036223D01*
X036419Y036268D01*
X036444Y036312D01*
X036472Y036353D01*
X036504Y036392D01*
X036538Y036429D01*
X036575Y036463D01*
X036615Y036493D01*
X036657Y036520D01*
X036701Y036544D01*
X036747Y036565D01*
X036794Y036581D01*
X036842Y036594D01*
X036892Y036603D01*
X036941Y036608D01*
X036992Y036609D01*
X037042Y036606D01*
X037091Y036599D01*
X037140Y036588D01*
X037188Y036573D01*
X037234Y036555D01*
X037279Y036533D01*
X037322Y036507D01*
X037363Y036478D01*
X037402Y036446D01*
X037438Y036411D01*
X037470Y036373D01*
X037500Y036333D01*
X037527Y036290D01*
X037550Y036246D01*
X037569Y036200D01*
X037585Y036152D01*
X037597Y036103D01*
X037605Y036054D01*
X037609Y036004D01*
X037609Y035954D01*
X037605Y035904D01*
X037597Y035855D01*
X037585Y035806D01*
X037569Y035758D01*
X037550Y035712D01*
X037527Y035668D01*
X037500Y035625D01*
X037470Y035585D01*
X037438Y035547D01*
X037402Y035512D01*
X037363Y035480D01*
X037322Y035451D01*
X037279Y035425D01*
X037234Y035403D01*
X037188Y035385D01*
X037140Y035370D01*
X037091Y035359D01*
X037042Y035352D01*
X036992Y035349D01*
X036941Y035350D01*
X036892Y035355D01*
X036842Y035364D01*
X036794Y035377D01*
X036747Y035393D01*
X036701Y035414D01*
X036657Y035438D01*
X036615Y035465D01*
X036575Y035495D01*
X036538Y035529D01*
X036504Y035566D01*
X036472Y035605D01*
X036444Y035646D01*
X036419Y035690D01*
X036398Y035735D01*
X036381Y035782D01*
X036367Y035830D01*
X036357Y035879D01*
X036351Y035929D01*
X036349Y035979D01*
D11*
X033374Y015558D02*
X033374Y014771D01*
X032390Y012960D02*
X031603Y012960D01*
X031288Y014062D02*
X030500Y014062D01*
X025500Y014771D02*
X025500Y015558D01*
X023414Y014062D02*
X022626Y014062D01*
X023729Y012960D02*
X024516Y012960D01*
D12*
X024904Y019834D03*
X030077Y019834D03*
D13*
X028868Y020901D03*
X027884Y020901D03*
X027097Y020901D03*
X026112Y020901D03*
D14*
X026530Y026664D02*
X026530Y027184D01*
X027530Y027184D02*
X027530Y026664D01*
X028530Y026664D02*
X028530Y027184D01*
D15*
X037715Y025641D03*
X037715Y021641D03*
D16*
X037715Y022641D03*
X037715Y023641D03*
X037715Y024641D03*
D17*
X020837Y025940D03*
X020837Y028105D03*
D18*
X026250Y032333D03*
X026250Y034113D03*
X028810Y034113D03*
X028810Y032333D03*
D19*
X029030Y036860D02*
X029030Y037460D01*
X028030Y037460D02*
X028030Y036860D01*
X027030Y036860D02*
X027030Y037460D01*
X026030Y037460D02*
X026030Y036860D01*
D20*
X026969Y036096D02*
X028219Y036096D01*
X029219Y037096D01*
X029030Y037160D01*
X026969Y036096D02*
X026469Y035596D01*
X025969Y034846D02*
X025469Y034346D01*
X025469Y031846D01*
X026969Y033096D02*
X026969Y030096D01*
X025469Y028346D02*
X023719Y028346D01*
X025469Y027846D02*
X023719Y026096D01*
X023719Y023846D01*
X025469Y023846D01*
X025969Y025346D02*
X025969Y022096D01*
X033969Y022096D01*
X034719Y021346D01*
X034969Y020846D02*
X028969Y020846D01*
X028868Y020901D01*
X028719Y021096D01*
X028219Y021596D01*
X024969Y021596D01*
X028719Y022596D02*
X032969Y022596D01*
X034969Y024596D01*
X035969Y026346D02*
X037469Y024846D01*
X037715Y024641D01*
X037715Y025641D02*
X037469Y025846D01*
X036469Y026846D01*
X029469Y026846D01*
X028719Y026846D02*
X028530Y026924D01*
X028719Y026846D02*
X027719Y025846D01*
X024219Y025846D01*
X025469Y026346D02*
X025969Y026846D01*
X026469Y026846D01*
X026530Y026924D01*
X026969Y027846D02*
X025469Y027846D01*
X029469Y030346D02*
X030719Y031596D01*
X031219Y033096D02*
X037719Y026596D01*
X035969Y026346D02*
X030719Y026346D01*
X034969Y020846D02*
X035219Y020596D01*
X035469Y020096D02*
X031719Y020096D01*
X029469Y017846D01*
X022969Y017846D01*
X021469Y016346D01*
X021469Y011596D01*
X034219Y011596D01*
X034719Y012096D02*
X032969Y013846D01*
X032219Y013846D01*
X034719Y012096D02*
X029469Y012096D01*
X029219Y012346D01*
X027219Y016596D02*
X027469Y016846D01*
X037719Y016846D01*
X037719Y020096D01*
X035969Y020596D02*
X035469Y020096D01*
X035719Y019096D02*
X033719Y019096D01*
X033219Y019596D01*
X034719Y012096D02*
X035469Y012096D01*
X031219Y033096D02*
X026969Y033096D01*
X026469Y034096D02*
X026250Y034113D01*
X026469Y034096D02*
X028719Y034096D01*
X028810Y034113D01*
X029969Y034846D02*
X025969Y034846D01*
X029969Y034846D02*
X031219Y033596D01*
D21*
X031219Y033596D03*
X030719Y031596D03*
X029469Y030346D03*
X028711Y030074D03*
X026969Y030096D03*
X025469Y031846D03*
X025469Y028346D03*
X026969Y027846D03*
X025469Y026346D03*
X025969Y025346D03*
X025469Y023846D03*
X024969Y021596D03*
X027969Y024846D03*
X029469Y026846D03*
X030719Y026346D03*
X031469Y025846D03*
X028719Y022596D03*
X033219Y019596D03*
X034719Y021346D03*
X035219Y020596D03*
X035969Y020596D03*
X036969Y019346D03*
X037719Y020096D03*
X035719Y019096D03*
X033719Y017346D03*
X035798Y013932D03*
X035469Y012096D03*
X034219Y011596D03*
X032219Y013846D03*
X029219Y012346D03*
X027219Y016596D03*
X034223Y022594D03*
X034969Y024596D03*
X037719Y026596D03*
X026469Y035596D03*
X023719Y028346D03*
X024219Y025846D03*
D22*
X023294Y025974D02*
X021394Y025974D01*
X021394Y025940D02*
X021394Y026227D01*
X021383Y026285D01*
X021360Y026340D01*
X021327Y026389D01*
X021286Y026431D01*
X021236Y026463D01*
X021182Y026486D01*
X021124Y026498D01*
X020837Y026498D01*
X020837Y025940D01*
X020837Y025940D01*
X021394Y025940D01*
X021394Y025653D01*
X021383Y025595D01*
X021360Y025540D01*
X021327Y025491D01*
X021286Y025450D01*
X021236Y025417D01*
X021182Y025394D01*
X021124Y025383D01*
X020837Y025383D01*
X020837Y025940D01*
X021394Y025940D01*
X021375Y025575D02*
X023294Y025575D01*
X023294Y025177D02*
X016019Y025177D01*
X016019Y025575D02*
X020299Y025575D01*
X020291Y025595D02*
X020314Y025540D01*
X020346Y025491D01*
X020388Y025450D01*
X020437Y025417D01*
X020492Y025394D01*
X020550Y025383D01*
X020837Y025383D01*
X020837Y025940D01*
X020837Y025940D01*
X020837Y025940D01*
X020837Y026498D01*
X020550Y026498D01*
X020492Y026486D01*
X020437Y026463D01*
X020388Y026431D01*
X020346Y026389D01*
X020314Y026340D01*
X020291Y026285D01*
X020279Y026227D01*
X020279Y025940D01*
X020279Y025653D01*
X020291Y025595D01*
X020279Y025940D02*
X020837Y025940D01*
X020837Y025940D01*
X020279Y025940D01*
X020279Y025974D02*
X016019Y025974D01*
X016019Y026372D02*
X020335Y026372D01*
X020837Y026372D02*
X020837Y026372D01*
X020837Y025974D02*
X020837Y025974D01*
X020837Y025575D02*
X020837Y025575D01*
X021339Y026372D02*
X023394Y026372D01*
X023358Y026336D02*
X023294Y026180D01*
X023294Y023761D01*
X023358Y023605D01*
X023478Y023485D01*
X023634Y023421D01*
X025144Y023421D01*
X025169Y023396D01*
X025363Y023316D01*
X025544Y023316D01*
X025544Y022021D01*
X025293Y022021D01*
X025269Y022045D01*
X025074Y022126D01*
X024863Y022126D01*
X024669Y022045D01*
X024519Y021896D01*
X024439Y021701D01*
X024439Y021490D01*
X024519Y021295D01*
X024669Y021146D01*
X024863Y021066D01*
X025074Y021066D01*
X025269Y021146D01*
X025293Y021171D01*
X025545Y021171D01*
X025485Y021025D01*
X025485Y020776D01*
X025560Y020596D01*
X025472Y020684D01*
X025103Y020836D01*
X024704Y020836D01*
X024336Y020684D01*
X024054Y020402D01*
X023901Y020033D01*
X023901Y019634D01*
X024054Y019266D01*
X024336Y018984D01*
X024704Y018831D01*
X025103Y018831D01*
X025472Y018984D01*
X025754Y019266D01*
X025832Y019454D01*
X025907Y019379D01*
X026109Y019296D01*
X029215Y019296D01*
X029227Y019266D01*
X029509Y018984D01*
X029860Y018838D01*
X029293Y018271D01*
X022884Y018271D01*
X022728Y018206D01*
X021228Y016706D01*
X021108Y016586D01*
X021044Y016430D01*
X021044Y011511D01*
X021108Y011355D01*
X021228Y011235D01*
X021384Y011171D01*
X033894Y011171D01*
X033919Y011146D01*
X034113Y011066D01*
X034324Y011066D01*
X034519Y011146D01*
X034668Y011295D01*
X034749Y011490D01*
X034749Y011671D01*
X035144Y011671D01*
X035169Y011646D01*
X035363Y011566D01*
X035574Y011566D01*
X035769Y011646D01*
X035918Y011795D01*
X035999Y011990D01*
X035999Y012201D01*
X035918Y012396D01*
X035769Y012545D01*
X035574Y012626D01*
X035363Y012626D01*
X035169Y012545D01*
X035144Y012521D01*
X034895Y012521D01*
X033388Y014027D01*
X033522Y014027D01*
X033796Y014140D01*
X034005Y014349D01*
X034118Y014623D01*
X034118Y015706D01*
X034005Y015979D01*
X033796Y016189D01*
X033522Y016302D01*
X033291Y016302D01*
X033278Y016334D01*
X033191Y016421D01*
X037803Y016421D01*
X037960Y016485D01*
X038079Y016605D01*
X038144Y016761D01*
X038144Y019771D01*
X038168Y019795D01*
X038249Y019990D01*
X038249Y020201D01*
X038168Y020396D01*
X038019Y020545D01*
X037824Y020626D01*
X037613Y020626D01*
X037419Y020545D01*
X037269Y020396D01*
X037189Y020201D01*
X037189Y019990D01*
X037259Y019821D01*
X037078Y019896D01*
X036859Y019896D01*
X036657Y019812D01*
X036189Y019344D01*
X036168Y019396D01*
X036019Y019545D01*
X035824Y019626D01*
X035613Y019626D01*
X035419Y019545D01*
X035394Y019521D01*
X033895Y019521D01*
X033749Y019667D01*
X033749Y019671D01*
X035553Y019671D01*
X035710Y019735D01*
X035829Y019855D01*
X036040Y020066D01*
X036074Y020066D01*
X036269Y020146D01*
X036418Y020295D01*
X036499Y020490D01*
X036499Y020701D01*
X036418Y020896D01*
X036269Y021045D01*
X036074Y021126D01*
X035863Y021126D01*
X035669Y021045D01*
X035594Y020970D01*
X035519Y021045D01*
X035324Y021126D01*
X035290Y021126D01*
X035227Y021188D01*
X035249Y021240D01*
X035249Y021451D01*
X035168Y021646D01*
X035019Y021795D01*
X034824Y021876D01*
X034790Y021876D01*
X034210Y022456D01*
X034053Y022521D01*
X033495Y022521D01*
X035040Y024066D01*
X035074Y024066D01*
X035269Y024146D01*
X035418Y024295D01*
X035499Y024490D01*
X035499Y024701D01*
X035418Y024896D01*
X035269Y025045D01*
X035074Y025126D01*
X034863Y025126D01*
X034669Y025045D01*
X034519Y024896D01*
X034439Y024701D01*
X034439Y024667D01*
X032793Y023021D01*
X029043Y023021D01*
X029019Y023045D01*
X028824Y023126D01*
X028613Y023126D01*
X028419Y023045D01*
X028269Y022896D01*
X028189Y022701D01*
X028189Y022521D01*
X026394Y022521D01*
X026394Y025021D01*
X026418Y025045D01*
X026499Y025240D01*
X026499Y025421D01*
X027803Y025421D01*
X027960Y025485D01*
X028529Y026054D01*
X028651Y026054D01*
X028875Y026147D01*
X029047Y026319D01*
X029105Y026460D01*
X029169Y026396D01*
X029363Y026316D01*
X029574Y026316D01*
X029769Y026396D01*
X029793Y026421D01*
X030189Y026421D01*
X030189Y026240D01*
X030269Y026045D01*
X030419Y025896D01*
X030613Y025816D01*
X030661Y025816D01*
X030241Y025396D01*
X027859Y025396D01*
X027657Y025312D01*
X027502Y025157D01*
X027419Y024955D01*
X027419Y024736D01*
X027502Y024534D01*
X027657Y024379D01*
X027859Y024296D01*
X030578Y024296D01*
X030780Y024379D01*
X030935Y024534D01*
X031935Y025534D01*
X032019Y025736D01*
X032019Y025921D01*
X035793Y025921D01*
X037065Y024648D01*
X037065Y024512D01*
X037164Y024273D01*
X037332Y024104D01*
X037324Y024098D01*
X037257Y024032D01*
X037202Y023955D01*
X037159Y023871D01*
X037130Y023781D01*
X037115Y023688D01*
X037115Y023641D01*
X037715Y023641D01*
X038315Y023641D01*
X038315Y023688D01*
X038300Y023781D01*
X038271Y023871D01*
X038228Y023955D01*
X038172Y024032D01*
X038106Y024098D01*
X038098Y024104D01*
X038266Y024273D01*
X038365Y024512D01*
X038365Y024770D01*
X038266Y025009D01*
X038222Y025053D01*
X038312Y025143D01*
X038365Y025271D01*
X038365Y026010D01*
X038312Y026139D01*
X038213Y026238D01*
X038140Y026268D01*
X038168Y026295D01*
X038249Y026490D01*
X038249Y026701D01*
X038168Y026896D01*
X038019Y027045D01*
X037824Y027126D01*
X037790Y027126D01*
X031644Y033271D01*
X031668Y033295D01*
X031749Y033490D01*
X031749Y033701D01*
X031668Y033896D01*
X031519Y034045D01*
X031324Y034126D01*
X031290Y034126D01*
X030329Y035086D01*
X030210Y035206D01*
X030053Y035271D01*
X026893Y035271D01*
X026918Y035295D01*
X026999Y035490D01*
X026999Y035524D01*
X027145Y035671D01*
X028303Y035671D01*
X028460Y035735D01*
X028935Y036210D01*
X029159Y036210D01*
X029398Y036309D01*
X029581Y036492D01*
X029680Y036731D01*
X029680Y037590D01*
X029581Y037829D01*
X029398Y038012D01*
X029325Y038042D01*
X038553Y038042D01*
X038630Y038036D01*
X038775Y037988D01*
X038898Y037899D01*
X038988Y037775D01*
X039035Y037630D01*
X039041Y037554D01*
X039041Y007633D01*
X039035Y007557D01*
X038988Y007412D01*
X038898Y007288D01*
X038775Y007199D01*
X038630Y007152D01*
X038553Y007146D01*
X016544Y007146D01*
X016459Y007170D01*
X016267Y007278D01*
X016117Y007439D01*
X016025Y007639D01*
X016000Y007858D01*
X016010Y007947D01*
X016019Y007967D01*
X016019Y007997D01*
X016025Y008026D01*
X016019Y008056D01*
X016019Y037889D01*
X016023Y037900D01*
X016083Y037981D01*
X016165Y038039D01*
X016261Y038070D01*
X016362Y038069D01*
X016406Y038058D01*
X016446Y038042D01*
X016457Y038042D01*
X016468Y038038D01*
X016517Y038042D01*
X025877Y038042D01*
X025799Y038017D01*
X025715Y037974D01*
X025639Y037918D01*
X025572Y037851D01*
X025517Y037775D01*
X025474Y037691D01*
X025445Y037601D01*
X025430Y037508D01*
X025430Y037161D01*
X026030Y037161D01*
X026030Y037160D01*
X026030Y036260D01*
X026077Y036260D01*
X026170Y036275D01*
X026260Y036304D01*
X026344Y036347D01*
X026421Y036403D01*
X026487Y036470D01*
X026493Y036478D01*
X026622Y036349D01*
X026608Y036336D01*
X026398Y036126D01*
X026363Y036126D01*
X026169Y036045D01*
X026019Y035896D01*
X025939Y035701D01*
X025939Y035490D01*
X026019Y035295D01*
X026044Y035271D01*
X025884Y035271D01*
X025728Y035206D01*
X025228Y034706D01*
X025108Y034586D01*
X025044Y034430D01*
X025044Y032170D01*
X025019Y032146D01*
X024939Y031951D01*
X016019Y031951D01*
X016019Y031553D02*
X025016Y031553D01*
X025019Y031545D02*
X025169Y031396D01*
X025363Y031316D01*
X025574Y031316D01*
X025769Y031396D01*
X025918Y031545D01*
X025989Y031716D01*
X026034Y031698D01*
X026119Y031675D01*
X026206Y031663D01*
X026250Y031663D01*
X026294Y031663D01*
X026381Y031675D01*
X026466Y031698D01*
X026544Y031730D01*
X026544Y030420D01*
X026519Y030396D01*
X026439Y030201D01*
X026439Y029990D01*
X026519Y029795D01*
X026669Y029646D01*
X026863Y029566D01*
X027074Y029566D01*
X027269Y029646D01*
X027418Y029795D01*
X027499Y029990D01*
X027499Y030201D01*
X027418Y030396D01*
X027394Y030420D01*
X027394Y032671D01*
X028231Y032671D01*
X028208Y032630D01*
X028174Y032549D01*
X028151Y032464D01*
X028140Y032377D01*
X028140Y032333D01*
X028140Y032290D01*
X028151Y032203D01*
X028174Y032118D01*
X028208Y032037D01*
X028252Y031960D01*
X028305Y031891D01*
X028367Y031829D01*
X028437Y031775D01*
X028513Y031731D01*
X028594Y031698D01*
X028679Y031675D01*
X028766Y031663D01*
X028810Y031663D01*
X028854Y031663D01*
X028941Y031675D01*
X029026Y031698D01*
X029107Y031731D01*
X029183Y031775D01*
X029252Y031829D01*
X029315Y031891D01*
X029368Y031960D01*
X029412Y032037D01*
X029446Y032118D01*
X029468Y032203D01*
X029480Y032290D01*
X029480Y032333D01*
X028810Y032333D01*
X028810Y031663D01*
X028810Y032333D01*
X028810Y032333D01*
X028810Y032333D01*
X029480Y032333D01*
X029480Y032377D01*
X029468Y032464D01*
X029446Y032549D01*
X029412Y032630D01*
X029389Y032671D01*
X031043Y032671D01*
X036443Y027271D01*
X029793Y027271D01*
X029769Y027295D01*
X029574Y027376D01*
X029363Y027376D01*
X029169Y027295D01*
X029140Y027266D01*
X029140Y027306D01*
X029047Y027530D01*
X028875Y027701D01*
X028651Y027794D01*
X028408Y027794D01*
X028184Y027701D01*
X028013Y027530D01*
X027998Y027493D01*
X027957Y027549D01*
X027895Y027611D01*
X027823Y027663D01*
X027745Y027703D01*
X027661Y027730D01*
X027574Y027744D01*
X027530Y027744D01*
X027530Y026924D01*
X027530Y030074D01*
X028711Y030074D01*
X028939Y030240D02*
X029019Y030045D01*
X029169Y029896D01*
X029363Y029816D01*
X029574Y029816D01*
X029769Y029896D01*
X029918Y030045D01*
X029999Y030240D01*
X029999Y030274D01*
X030790Y031066D01*
X030824Y031066D01*
X031019Y031146D01*
X031168Y031295D01*
X031249Y031490D01*
X031249Y031701D01*
X031168Y031896D01*
X031019Y032045D01*
X030824Y032126D01*
X030613Y032126D01*
X030419Y032045D01*
X030269Y031896D01*
X030189Y031701D01*
X030189Y031667D01*
X029398Y030876D01*
X029363Y030876D01*
X029169Y030795D01*
X029019Y030646D01*
X028939Y030451D01*
X028939Y030240D01*
X028939Y030357D02*
X027434Y030357D01*
X027530Y030074D02*
X027530Y031053D01*
X028810Y032333D01*
X028140Y032333D01*
X028810Y032333D01*
X028810Y032333D01*
X028810Y031951D02*
X028810Y031951D01*
X028259Y031951D02*
X027394Y031951D01*
X027394Y031553D02*
X030075Y031553D01*
X030325Y031951D02*
X029361Y031951D01*
X029480Y032350D02*
X031364Y032350D01*
X031113Y031951D02*
X031762Y031951D01*
X032161Y031553D02*
X031249Y031553D01*
X031027Y031154D02*
X032559Y031154D01*
X032958Y030756D02*
X030480Y030756D01*
X030081Y030357D02*
X033356Y030357D01*
X033755Y029959D02*
X029831Y029959D01*
X029106Y029959D02*
X027486Y029959D01*
X027394Y030756D02*
X029129Y030756D01*
X029676Y031154D02*
X027394Y031154D01*
X026544Y031154D02*
X016019Y031154D01*
X016019Y030756D02*
X026544Y030756D01*
X026503Y030357D02*
X023326Y030357D01*
X023397Y030286D02*
X023135Y030547D01*
X022794Y030689D01*
X022424Y030689D01*
X022082Y030547D01*
X021820Y030286D01*
X021679Y029944D01*
X021679Y029574D01*
X021820Y029232D01*
X022082Y028971D01*
X022424Y028829D01*
X022794Y028829D01*
X023135Y028971D01*
X023397Y029232D01*
X023538Y029574D01*
X023538Y029944D01*
X023397Y030286D01*
X023532Y029959D02*
X026452Y029959D01*
X025769Y028795D02*
X025574Y028876D01*
X025363Y028876D01*
X025169Y028795D01*
X025144Y028771D01*
X024043Y028771D01*
X024019Y028795D01*
X023824Y028876D01*
X023613Y028876D01*
X023419Y028795D01*
X023269Y028646D01*
X023189Y028451D01*
X023189Y028240D01*
X023269Y028045D01*
X023419Y027896D01*
X023613Y027816D01*
X023824Y027816D01*
X024019Y027896D01*
X024043Y027921D01*
X024943Y027921D01*
X023478Y026456D01*
X023358Y026336D01*
X023793Y026771D02*
X016019Y026771D01*
X016019Y027169D02*
X024191Y027169D01*
X024590Y027568D02*
X021309Y027568D01*
X021293Y027551D02*
X021391Y027650D01*
X021444Y027778D01*
X021444Y028432D01*
X021391Y028561D01*
X021293Y028660D01*
X021164Y028713D01*
X020510Y028713D01*
X020381Y028660D01*
X020283Y028561D01*
X020229Y028432D01*
X020229Y027778D01*
X020283Y027650D01*
X020381Y027551D01*
X020510Y027498D01*
X021164Y027498D01*
X021293Y027551D01*
X021444Y027966D02*
X023349Y027966D01*
X023189Y028365D02*
X021444Y028365D01*
X021891Y029162D02*
X019783Y029162D01*
X019854Y029232D02*
X019995Y029574D01*
X019995Y029944D01*
X019854Y030286D01*
X019592Y030547D01*
X019250Y030689D01*
X018880Y030689D01*
X018538Y030547D01*
X018277Y030286D01*
X018135Y029944D01*
X018135Y029574D01*
X018277Y029232D01*
X018538Y028971D01*
X018880Y028829D01*
X019250Y028829D01*
X019592Y028971D01*
X019854Y029232D01*
X019989Y029560D02*
X021684Y029560D01*
X021685Y029959D02*
X019989Y029959D01*
X019782Y030357D02*
X021892Y030357D01*
X023533Y029560D02*
X034153Y029560D01*
X034552Y029162D02*
X023326Y029162D01*
X023387Y028763D02*
X016019Y028763D01*
X016019Y028365D02*
X020229Y028365D01*
X020229Y027966D02*
X016019Y027966D01*
X016019Y027568D02*
X020365Y027568D01*
X018347Y029162D02*
X016019Y029162D01*
X016019Y029560D02*
X018141Y029560D01*
X018141Y029959D02*
X016019Y029959D01*
X016019Y030357D02*
X018348Y030357D01*
X016019Y032350D02*
X025044Y032350D01*
X025044Y032748D02*
X016019Y032748D01*
X016019Y033147D02*
X025044Y033147D01*
X025044Y033545D02*
X016019Y033545D01*
X016019Y033944D02*
X025044Y033944D01*
X025044Y034342D02*
X016019Y034342D01*
X016019Y034741D02*
X025263Y034741D01*
X025661Y035139D02*
X018482Y035139D01*
X018608Y035191D02*
X018869Y035453D01*
X019011Y035794D01*
X019011Y036164D01*
X018869Y036506D01*
X018608Y036768D01*
X018266Y036909D01*
X017896Y036909D01*
X017554Y036768D01*
X017293Y036506D01*
X017151Y036164D01*
X017151Y035794D01*
X017293Y035453D01*
X017554Y035191D01*
X017896Y035049D01*
X018266Y035049D01*
X018608Y035191D01*
X018904Y035538D02*
X025939Y035538D01*
X026060Y035936D02*
X019011Y035936D01*
X018940Y036335D02*
X025740Y036335D01*
X025715Y036347D02*
X025799Y036304D01*
X025889Y036275D01*
X025983Y036260D01*
X026030Y036260D01*
X026030Y037160D01*
X026030Y037160D01*
X025430Y037160D01*
X025430Y036813D01*
X025445Y036720D01*
X025474Y036630D01*
X025517Y036546D01*
X025572Y036470D01*
X025639Y036403D01*
X025715Y036347D01*
X026030Y036335D02*
X026030Y036335D01*
X026319Y036335D02*
X026607Y036335D01*
X026030Y036733D02*
X026030Y036733D01*
X026030Y037132D02*
X026030Y037132D01*
X025430Y037132D02*
X016019Y037132D01*
X016019Y037530D02*
X025433Y037530D01*
X025653Y037929D02*
X016044Y037929D01*
X016019Y036733D02*
X017520Y036733D01*
X017222Y036335D02*
X016019Y036335D01*
X016019Y035936D02*
X017151Y035936D01*
X017257Y035538D02*
X016019Y035538D01*
X016019Y035139D02*
X017680Y035139D01*
X018642Y036733D02*
X025442Y036733D01*
X027012Y035538D02*
X036155Y035538D01*
X036190Y035453D02*
X036452Y035191D01*
X036794Y035049D01*
X037164Y035049D01*
X037505Y035191D01*
X037767Y035453D01*
X037909Y035794D01*
X037909Y036164D01*
X037767Y036506D01*
X037505Y036768D01*
X037164Y036909D01*
X036794Y036909D01*
X036452Y036768D01*
X036190Y036506D01*
X036049Y036164D01*
X036049Y035794D01*
X036190Y035453D01*
X036577Y035139D02*
X030276Y035139D01*
X030675Y034741D02*
X039041Y034741D01*
X039041Y035139D02*
X037380Y035139D01*
X037802Y035538D02*
X039041Y035538D01*
X039041Y035936D02*
X037909Y035936D01*
X037838Y036335D02*
X039041Y036335D01*
X039041Y036733D02*
X037540Y036733D01*
X036417Y036733D02*
X029680Y036733D01*
X029680Y037132D02*
X039041Y037132D01*
X039041Y037530D02*
X029680Y037530D01*
X029481Y037929D02*
X038857Y037929D01*
X036119Y036335D02*
X029423Y036335D01*
X028660Y035936D02*
X036049Y035936D01*
X039041Y034342D02*
X031073Y034342D01*
X031620Y033944D02*
X039041Y033944D01*
X039041Y033545D02*
X031749Y033545D01*
X031769Y033147D02*
X039041Y033147D01*
X039041Y032748D02*
X032167Y032748D01*
X032566Y032350D02*
X039041Y032350D01*
X039041Y031951D02*
X032964Y031951D01*
X033363Y031553D02*
X039041Y031553D01*
X039041Y031154D02*
X033761Y031154D01*
X034160Y030756D02*
X039041Y030756D01*
X039041Y030357D02*
X034558Y030357D01*
X034957Y029959D02*
X039041Y029959D01*
X039041Y029560D02*
X035355Y029560D01*
X035754Y029162D02*
X039041Y029162D01*
X039041Y028763D02*
X036152Y028763D01*
X036551Y028365D02*
X039041Y028365D01*
X039041Y027966D02*
X036949Y027966D01*
X037348Y027568D02*
X039041Y027568D01*
X039041Y027169D02*
X037746Y027169D01*
X038220Y026771D02*
X039041Y026771D01*
X039041Y026372D02*
X038200Y026372D01*
X038365Y025974D02*
X039041Y025974D01*
X039041Y025575D02*
X038365Y025575D01*
X038326Y025177D02*
X039041Y025177D01*
X039041Y024778D02*
X038362Y024778D01*
X038310Y024380D02*
X039041Y024380D01*
X039041Y023981D02*
X038209Y023981D01*
X038315Y023641D02*
X037715Y023641D01*
X037715Y023641D01*
X037581Y023775D01*
X036191Y023775D01*
X035010Y022594D01*
X034223Y022594D01*
X034278Y022387D02*
X037116Y022387D01*
X037164Y022273D02*
X037208Y022229D01*
X037118Y022139D01*
X037065Y022010D01*
X037065Y021271D01*
X037118Y021143D01*
X037217Y021044D01*
X037345Y020991D01*
X038084Y020991D01*
X038213Y021044D01*
X038312Y021143D01*
X038365Y021271D01*
X038365Y022010D01*
X038312Y022139D01*
X038222Y022229D01*
X038266Y022273D01*
X038365Y022512D01*
X038365Y022770D01*
X038266Y023009D01*
X038098Y023177D01*
X038106Y023183D01*
X038172Y023250D01*
X038228Y023326D01*
X038271Y023410D01*
X038300Y023500D01*
X038315Y023594D01*
X038315Y023641D01*
X038313Y023583D02*
X039041Y023583D01*
X039041Y023184D02*
X038107Y023184D01*
X038358Y022786D02*
X039041Y022786D01*
X039041Y022387D02*
X038313Y022387D01*
X038365Y021989D02*
X039041Y021989D01*
X039041Y021590D02*
X038365Y021590D01*
X038332Y021192D02*
X039041Y021192D01*
X039041Y020793D02*
X036461Y020793D01*
X036459Y020395D02*
X037269Y020395D01*
X037189Y019996D02*
X035970Y019996D01*
X035829Y019855D02*
X035829Y019855D01*
X035892Y019598D02*
X036443Y019598D01*
X036969Y019346D02*
X034969Y017346D01*
X033719Y017346D01*
X026969Y017346D01*
X025969Y016346D01*
X025969Y015346D01*
X025719Y015346D01*
X025500Y015164D01*
X024122Y012960D02*
X023969Y012846D01*
X023969Y012096D01*
X027969Y012096D01*
X029719Y013846D01*
X030719Y013846D01*
X030894Y014062D01*
X030969Y013846D01*
X031219Y013846D01*
X031969Y013096D01*
X031996Y012960D01*
X033397Y014019D02*
X039041Y014019D01*
X039041Y014417D02*
X034033Y014417D01*
X034118Y014816D02*
X039041Y014816D01*
X039041Y015214D02*
X034118Y015214D01*
X034118Y015613D02*
X039041Y015613D01*
X039041Y016011D02*
X033973Y016011D01*
X033202Y016410D02*
X039041Y016410D01*
X039041Y016808D02*
X038144Y016808D01*
X038144Y017207D02*
X039041Y017207D01*
X039041Y017605D02*
X038144Y017605D01*
X038144Y018004D02*
X039041Y018004D01*
X039041Y018402D02*
X038144Y018402D01*
X038144Y018801D02*
X039041Y018801D01*
X039041Y019199D02*
X038144Y019199D01*
X038144Y019598D02*
X039041Y019598D01*
X039041Y019996D02*
X038249Y019996D01*
X038169Y020395D02*
X039041Y020395D01*
X037098Y021192D02*
X035229Y021192D01*
X035191Y021590D02*
X037065Y021590D01*
X037065Y021989D02*
X034677Y021989D01*
X033760Y022786D02*
X037071Y022786D01*
X037065Y022770D02*
X037065Y022512D01*
X037164Y022273D01*
X037065Y022770D02*
X037164Y023009D01*
X037332Y023177D01*
X037324Y023183D01*
X037257Y023250D01*
X037202Y023326D01*
X037159Y023410D01*
X037130Y023500D01*
X037115Y023594D01*
X037115Y023641D01*
X037715Y023641D01*
X037715Y023641D01*
X037220Y023981D02*
X034955Y023981D01*
X034557Y023583D02*
X037117Y023583D01*
X037323Y023184D02*
X034158Y023184D01*
X033753Y023981D02*
X026394Y023981D01*
X026394Y023583D02*
X033355Y023583D01*
X032956Y023184D02*
X026394Y023184D01*
X026394Y022786D02*
X028224Y022786D01*
X027657Y024380D02*
X026394Y024380D01*
X026394Y024778D02*
X027419Y024778D01*
X027522Y025177D02*
X026472Y025177D01*
X027969Y024846D02*
X030469Y024846D01*
X031469Y025846D01*
X031952Y025575D02*
X036138Y025575D01*
X036537Y025177D02*
X031578Y025177D01*
X031179Y024778D02*
X034471Y024778D01*
X034152Y024380D02*
X030781Y024380D01*
X030420Y025575D02*
X028049Y025575D01*
X028448Y025974D02*
X030341Y025974D01*
X030189Y026372D02*
X029711Y026372D01*
X029227Y026372D02*
X029069Y026372D01*
X029009Y027568D02*
X036146Y027568D01*
X035747Y027966D02*
X027493Y027966D01*
X027499Y027951D02*
X027418Y028146D01*
X027269Y028295D01*
X027074Y028376D01*
X026863Y028376D01*
X026669Y028295D01*
X026644Y028271D01*
X025999Y028271D01*
X025999Y028451D01*
X025918Y028646D01*
X025769Y028795D01*
X025801Y028763D02*
X034950Y028763D01*
X035349Y028365D02*
X027101Y028365D01*
X026837Y028365D02*
X025999Y028365D01*
X027499Y027951D02*
X027499Y027744D01*
X027530Y027744D01*
X027530Y026924D01*
X027530Y026924D01*
X027530Y027169D02*
X027530Y027169D01*
X027530Y027568D02*
X027530Y027568D01*
X027938Y027568D02*
X028050Y027568D01*
X026544Y031553D02*
X025921Y031553D01*
X026250Y031663D02*
X026250Y032333D01*
X026250Y031663D01*
X026250Y031951D02*
X026250Y031951D01*
X026250Y032333D02*
X026250Y032333D01*
X026250Y032334D02*
X026250Y032334D01*
X026250Y033003D01*
X026294Y033003D01*
X026381Y032992D01*
X026466Y032969D01*
X026544Y032937D01*
X026544Y033011D01*
X026544Y033180D01*
X026608Y033336D01*
X026728Y033456D01*
X026884Y033521D01*
X028385Y033521D01*
X028235Y033671D01*
X026825Y033671D01*
X026658Y033503D01*
X026393Y033393D01*
X026107Y033393D01*
X025894Y033482D01*
X025894Y032902D01*
X025953Y032936D01*
X026034Y032969D01*
X026119Y032992D01*
X026206Y033003D01*
X026250Y033003D01*
X026250Y032334D01*
X026250Y032350D02*
X026250Y032350D01*
X026250Y032748D02*
X026250Y032748D01*
X026544Y033147D02*
X025894Y033147D01*
X026700Y033545D02*
X028360Y033545D01*
X028140Y032350D02*
X027394Y032350D01*
X025019Y031545D02*
X024939Y031740D01*
X024939Y031951D01*
X023294Y024778D02*
X016019Y024778D01*
X016019Y024380D02*
X023294Y024380D01*
X023294Y023981D02*
X016019Y023981D01*
X016019Y023583D02*
X023381Y023583D01*
X024612Y021989D02*
X016019Y021989D01*
X016019Y022387D02*
X025544Y022387D01*
X025544Y022786D02*
X016019Y022786D01*
X016019Y023184D02*
X025544Y023184D01*
X024439Y021590D02*
X016019Y021590D01*
X016019Y021192D02*
X024623Y021192D01*
X024599Y020793D02*
X016019Y020793D01*
X016019Y020395D02*
X024051Y020395D01*
X023901Y019996D02*
X016019Y019996D01*
X016019Y019598D02*
X023916Y019598D01*
X024120Y019199D02*
X016019Y019199D01*
X016019Y018801D02*
X029823Y018801D01*
X029424Y018402D02*
X016019Y018402D01*
X016019Y018004D02*
X022526Y018004D01*
X022127Y017605D02*
X016019Y017605D01*
X016019Y017207D02*
X021729Y017207D01*
X021330Y016808D02*
X016019Y016808D01*
X016019Y016410D02*
X021044Y016410D01*
X021044Y016011D02*
X016019Y016011D01*
X016019Y015613D02*
X021044Y015613D01*
X021044Y015214D02*
X016019Y015214D01*
X016019Y014816D02*
X021044Y014816D01*
X021044Y014417D02*
X016019Y014417D01*
X016019Y014019D02*
X021044Y014019D01*
X021044Y013620D02*
X016019Y013620D01*
X016019Y013222D02*
X021044Y013222D01*
X021044Y012823D02*
X016019Y012823D01*
X016019Y012425D02*
X021044Y012425D01*
X021044Y012026D02*
X016019Y012026D01*
X016019Y011628D02*
X021044Y011628D01*
X021243Y011229D02*
X016019Y011229D01*
X016019Y010831D02*
X039041Y010831D01*
X039041Y011229D02*
X034602Y011229D01*
X034749Y011628D02*
X035214Y011628D01*
X035724Y011628D02*
X039041Y011628D01*
X039041Y012026D02*
X035999Y012026D01*
X035889Y012425D02*
X039041Y012425D01*
X039041Y012823D02*
X034592Y012823D01*
X034194Y013222D02*
X039041Y013222D01*
X039041Y013620D02*
X033795Y013620D01*
X035798Y013932D02*
X037766Y013932D01*
X037766Y013933D02*
X037820Y013935D01*
X037873Y013940D01*
X037926Y013949D01*
X037978Y013962D01*
X038030Y013978D01*
X038080Y013998D01*
X038128Y014021D01*
X038175Y014048D01*
X038220Y014077D01*
X038263Y014110D01*
X038303Y014145D01*
X038341Y014183D01*
X038376Y014223D01*
X038409Y014266D01*
X038438Y014311D01*
X038465Y014358D01*
X038488Y014406D01*
X038508Y014456D01*
X038524Y014508D01*
X038537Y014560D01*
X038546Y014613D01*
X038551Y014666D01*
X038553Y014720D01*
X038553Y022802D01*
X038554Y022802D02*
X038552Y022857D01*
X038547Y022912D01*
X038538Y022966D01*
X038525Y023019D01*
X038509Y023072D01*
X038490Y023123D01*
X038467Y023173D01*
X038442Y023222D01*
X038413Y023268D01*
X038381Y023313D01*
X038346Y023355D01*
X038308Y023395D01*
X038268Y023433D01*
X038226Y023468D01*
X038181Y023500D01*
X038135Y023529D01*
X038086Y023554D01*
X038036Y023577D01*
X037985Y023596D01*
X037932Y023612D01*
X037879Y023625D01*
X037825Y023634D01*
X037770Y023639D01*
X037715Y023641D01*
X037119Y024380D02*
X035453Y024380D01*
X035467Y024778D02*
X036935Y024778D01*
X035546Y019598D02*
X033818Y019598D01*
X030077Y019834D02*
X029969Y019846D01*
X026219Y019846D01*
X026219Y020846D01*
X026112Y020901D01*
X025485Y020793D02*
X025208Y020793D01*
X025687Y019199D02*
X029294Y019199D01*
X036452Y009996D02*
X036794Y010138D01*
X037164Y010138D01*
X037505Y009996D01*
X037767Y009735D01*
X037909Y009393D01*
X037909Y009023D01*
X037767Y008681D01*
X037505Y008419D01*
X037164Y008278D01*
X036794Y008278D01*
X036452Y008419D01*
X036190Y008681D01*
X036049Y009023D01*
X036049Y009393D01*
X036190Y009735D01*
X036452Y009996D01*
X036542Y010034D02*
X018517Y010034D01*
X018608Y009996D02*
X018266Y010138D01*
X017896Y010138D01*
X017554Y009996D01*
X017293Y009735D01*
X017151Y009393D01*
X017151Y009023D01*
X017293Y008681D01*
X017554Y008419D01*
X017896Y008278D01*
X018266Y008278D01*
X018608Y008419D01*
X018869Y008681D01*
X019011Y009023D01*
X019011Y009393D01*
X018869Y009735D01*
X018608Y009996D01*
X018911Y009635D02*
X036149Y009635D01*
X036049Y009237D02*
X019011Y009237D01*
X018934Y008838D02*
X036125Y008838D01*
X036432Y008440D02*
X018628Y008440D01*
X017534Y008440D02*
X016019Y008440D01*
X016019Y008838D02*
X017228Y008838D01*
X017151Y009237D02*
X016019Y009237D01*
X016019Y009635D02*
X017251Y009635D01*
X017645Y010034D02*
X016019Y010034D01*
X016019Y010432D02*
X039041Y010432D01*
X039041Y010034D02*
X037415Y010034D01*
X037808Y009635D02*
X039041Y009635D01*
X039041Y009237D02*
X037909Y009237D01*
X037832Y008838D02*
X039041Y008838D01*
X039041Y008440D02*
X037526Y008440D01*
X038837Y007244D02*
X016327Y007244D01*
X016025Y007643D02*
X039041Y007643D01*
X039041Y008041D02*
X016022Y008041D01*
M02*
